<svg xmlns="http://www.w3.org/2000/svg" width="900" height="650" viewBox="0 0 900 650">
<rect x="0" y="0" width="900" height="650" fill="white"/>
<text x="30.00" y="35.00" font-family="Arial, sans-serif" font-size="18" text-anchor="start" fill="#222">Track, transmitters, and estimated array</text>
<polyline fill="none" stroke="#9aa0a6" stroke-width="2.0" stroke-opacity="1.0" points="70.81,206.25 73.23,235.58 75.65,264.90 85.35,321.46 133.84,367.54 194.44,426.20 228.38,442.96 235.66,463.90 240.50,495.32 230.81,538.27 228.38,561.31 216.26,569.69 262.32,587.50 376.26,579.12 504.75,539.31 548.39,520.46 642.94,491.13 703.55,456.57 766.58,406.30 812.64,372.78 827.18,352.88 788.39,326.70 691.42,292.13 655.06,291.09 526.57,325.65 398.08,356.02 337.48,370.69 276.87,325.65 342.33,312.03 422.33,294.23 490.21,284.80 618.69,262.81 601.72,247.10 555.66,216.72 426.57,163.64 426.57,159.01 244.44,81.10 257.84,83.03 194.45,62.20 180.16,60.27 164.09,60.66 149.81,67.99 146.24,74.93 123.03,80.33 112.31,89.58 128.38,101.16 164.09,110.41 191.77,119.28 231.05,135.87 281.05,162.48 299.80,169.04 306.05,174.44 333.72,186.40 331.94,189.48 364.97,202.21 366.75,216.87 356.93,222.65 344.43,221.50 333.72,224.97 311.40,231.52 309.62,234.22 295.33,235.38 280.16,238.85 244.44,248.11 235.52,248.50 216.77,255.82 184.63,252.35 164.09,248.50 60.00,179.27"/>
<polyline fill="none" stroke="#4e79a7" stroke-width="1.5" stroke-opacity="0.9" points="74.18,244.89 74.28,245.87 74.38,246.86 74.47,247.85 74.57,248.83 74.66,249.82 74.75,250.80 74.84,251.79 74.93,252.78 75.01,253.76 75.09,254.75 75.16,255.73 75.24,256.72 75.30,257.71 75.37,258.69 75.43,259.68 75.48,260.67 75.53,261.65 75.57,262.64 75.61,263.63 75.65,264.61 75.67,265.60 75.69,266.59 75.71,267.57 75.72,268.56 75.73,269.55 75.73,270.53 75.73,271.52 75.73,272.51 75.73,273.49 75.73,274.48 75.72,275.47 75.72,276.45 75.71,277.44 75.71,278.43 75.71,279.41 75.71,280.40 75.71,281.39 75.72,282.37 75.73,283.36 75.74,284.35 75.76,285.33 75.79,286.32 75.82,287.31 75.86,288.29 75.90,289.28 75.96,290.27 76.02,291.25 76.09,292.24 76.16,293.23 76.25,294.21 76.35,295.20 76.46,296.18 76.59,297.17 76.72,298.15 76.87,299.14 77.03,300.12 77.21,301.11 77.40,302.09 77.61,303.07 77.83,304.05 78.07,305.04 78.33,306.02 78.61,307.00 78.90,307.97 79.21,308.95 79.55,309.93 79.90,310.90 80.28,311.88 80.68,312.85 81.10,313.82 81.55,314.78 82.01,315.75 82.51,316.71 83.03,317.67 83.57,318.63 84.14,319.59 84.74,320.54 85.37,321.49 86.02,322.43 86.70,323.37 87.41,324.31 88.14,325.24 88.90,326.17 89.68,327.10 90.48,328.02 91.30,328.94 92.14,329.86 93.00,330.77 93.88,331.68 94.77,332.59 95.68,333.49 96.61,334.40 97.55,335.29 98.50,336.19 99.46,337.08 100.44,337.97 101.42,338.86 102.42,339.75 103.42,340.63 104.43,341.52 105.45,342.40 106.48,343.28 107.50,344.16 108.54,345.04 109.58,345.92 110.61,346.79 111.66,347.67 112.70,348.55 113.74,349.42 114.79,350.30 115.83,351.17 116.87,352.05 117.90,352.93 118.94,353.81 119.97,354.69 120.99,355.57 122.01,356.45 123.02,357.33 124.03,358.22 125.02,359.10 126.01,359.99 126.99,360.88 127.95,361.78 128.91,362.67 129.85,363.57 130.78,364.47 131.70,365.37 132.60,366.28 133.49,367.18 134.36,368.09 135.21,369.01 136.05,369.93 136.88,370.84 137.69,371.77 138.49,372.69 139.27,373.62 140.05,374.54 140.81,375.47 141.57,376.40 142.31,377.33 143.05,378.27 143.78,379.20 144.51,380.14 145.23,381.07 145.94,382.01 146.65,382.95 147.36,383.88 148.07,384.82 148.77,385.76 149.48,386.70 150.18,387.64 150.89,388.57 151.59,389.51 152.31,390.45 153.02,391.38 153.74,392.32 154.46,393.26 155.19,394.19 155.93,395.12 156.68,396.05 157.43,396.99 158.20,397.91 158.98,398.84 159.76,399.77 160.56,400.69 161.38,401.61 162.20,402.53 163.05,403.45 163.90,404.36 164.78,405.27 165.67,406.18 166.59,407.08 167.52,407.98 168.47,408.88 169.44,409.77 170.44,410.65 171.45,411.54 172.49,412.41 173.56,413.28 174.65,414.15 175.77,415.01 176.91,415.86 178.08,416.71 179.28,417.54 180.50,418.38 181.76,419.20 183.04,420.01 184.35,420.82 185.69,421.61 187.07,422.40 188.47,423.17 189.90,423.94 191.36,424.69 192.86,425.44 194.38,426.17 195.93,426.89 197.51,427.60 199.11,428.30 200.72,428.99 202.34,429.68 203.98,430.36 205.61,431.05 207.25,431.73 208.89,432.42 210.51,433.10 212.13,433.80 213.72,434.50 215.30,435.21 216.85,435.93 218.37,436.66 219.86,437.40 221.30,438.17 222.69,438.95 224.02,439.75 225.29,440.56 226.48,441.40 227.58,442.27 228.59,443.15 229.51,444.05 230.32,444.97 231.05,445.91 231.69,446.85 232.25,447.81 232.74,448.77 233.17,449.74 233.54,450.72 233.85,451.69 234.12,452.67 234.35,453.65 234.55,454.64 234.71,455.62 234.86,456.61 234.98,457.59 235.09,458.58 235.19,459.56 235.29,460.55 235.39,461.54 235.49,462.52 235.61,463.51 235.73,464.49 235.88,465.48 236.04,466.46 236.21,467.44 236.39,468.43 236.58,469.41 236.78,470.39 237.00,471.38 237.21,472.36 237.43,473.34 237.66,474.32 237.89,475.30 238.12,476.29 238.34,477.27 238.57,478.25 238.79,479.23 239.01,480.21 239.22,481.20 239.42,482.18 239.61,483.16 239.79,484.15 239.96,485.13 240.11,486.12 240.25,487.10 240.36,488.09 240.46,489.07 240.53,490.06 240.59,491.04 240.61,492.03 240.62,493.02 240.59,494.00 240.53,494.99 240.44,495.98 240.32,496.96 240.17,497.95 240.00,498.93 239.80,499.91 239.58,500.90 239.33,501.88 239.07,502.86 238.78,503.84 238.49,504.81 238.17,505.79 237.85,506.77 237.51,507.74 237.17,508.72 236.82,509.69 236.46,510.67 236.10,511.64 235.73,512.62 235.37,513.59 235.01,514.56 234.65,515.54 234.29,516.51 233.94,517.49 233.60,518.46 233.26,519.44 232.94,520.42 232.63,521.39 232.34,522.37 232.06,523.35 231.79,524.33 231.55,525.31 231.33,526.30 231.12,527.28 230.95,528.26 230.79,529.25 230.67,530.23 230.57,531.22 230.50,532.20 230.46,533.19 230.46,534.18 230.48,535.16 230.55,536.15 230.65,537.14 230.78,538.12 230.96,539.10 231.16,540.09 231.39,541.07 231.64,542.05 231.90,543.03 232.16,544.01 232.41,544.99 232.66,545.97 232.89,546.95 233.09,547.94 233.25,548.92 233.38,549.91 233.45,550.89 233.46,551.88 233.41,552.87 233.27,553.85 233.05,554.83 232.72,555.81 232.29,556.78 231.74,557.74 231.07,558.68 230.27,559.60 229.35,560.50 228.30,561.38 227.13,562.22 225.87,563.04 224.57,563.85 223.23,564.65 221.89,565.44 220.57,566.25 219.30,567.06 218.11,567.90 217.07,568.78 216.25,569.70 215.75,570.66 215.60,571.64 215.81,572.63 216.35,573.58 217.17,574.50 218.23,575.38 219.46,576.20 220.84,576.99 222.33,577.73 223.92,578.43 225.59,579.10 227.32,579.74 229.11,580.35 230.94,580.93 232.81,581.49 234.72,582.02 236.65,582.54 238.61,583.03 240.60,583.51 242.61,583.97 244.64,584.41 246.69,584.83 248.75,585.24 250.83,585.64 252.93,586.01 255.04,586.38 257.16,586.72 259.30,587.05 261.45,587.37 263.61,587.67 265.78,587.96 267.97,588.22 270.16,588.47 272.37,588.71 274.58,588.92 276.80,589.12 279.04,589.30 281.27,589.45 283.52,589.59 285.77,589.71 288.03,589.81 290.29,589.89 292.56,589.94 294.82,589.98 297.09,589.99 299.36,589.99 301.63,589.96 303.90,589.92 306.16,589.85 308.42,589.76 310.67,589.65 312.92,589.52 315.17,589.38 317.40,589.21 319.63,589.03 321.85,588.82 324.06,588.60 326.26,588.36 328.46,588.11 330.64,587.84 332.81,587.55 334.97,587.25 337.12,586.94 339.26,586.61 341.39,586.27 343.51,585.92 345.62,585.55 347.72,585.18 349.80,584.79 351.88,584.40 353.95,583.99 356.01,583.58 358.07,583.16 360.11,582.73 362.15,582.30 364.18,581.86 366.20,581.41 368.22,580.96 370.23,580.51 372.24,580.05 374.25,579.59 376.25,579.12 378.25,578.65 380.24,578.18 382.23,577.71 384.22,577.23 386.21,576.76 388.19,576.28 390.17,575.79 392.14,575.31 394.11,574.82 396.08,574.33 398.05,573.84 400.01,573.34 401.97,572.85 403.92,572.34 405.88,571.84 407.82,571.33 409.77,570.83 411.71,570.31 413.64,569.80 415.57,569.28 417.50,568.76 419.42,568.24 421.34,567.71 423.26,567.18 425.17,566.65 427.07,566.11 428.97,565.57 430.87,565.03 432.76,564.49 434.65,563.94 436.53,563.39 438.41,562.83 440.28,562.28 442.15,561.72 444.01,561.15 445.86,560.59 447.72,560.01 449.56,559.44 451.40,558.86 453.23,558.28 455.06,557.70 456.88,557.11 458.70,556.52 460.51,555.92 462.32,555.33 464.11,554.72 465.91,554.12 467.69,553.51 469.47,552.90 471.24,552.28 473.01,551.66 474.76,551.04 476.52,550.41 478.26,549.78 480.00,549.14 481.73,548.51 483.45,547.86 485.16,547.22 486.87,546.57 488.57,545.91 490.26,545.26 491.94,544.59 493.62,543.93 495.29,543.26 496.95,542.59 498.60,541.91 500.24,541.23 501.87,540.54 503.49,539.85 505.11,539.16 506.72,538.46 508.31,537.76 509.91,537.06 511.49,536.35 513.07,535.65 514.65,534.94 516.22,534.23 517.79,533.51 519.36,532.80 520.93,532.09 522.50,531.38 524.08,530.67 525.65,529.96 527.23,529.25 528.82,528.54 530.41,527.84 532.00,527.14 533.61,526.44 535.22,525.75 536.85,525.06 538.48,524.37 540.13,523.69 541.79,523.02 543.46,522.35 545.15,521.69 546.85,521.04 548.56,520.40 550.30,519.76 552.05,519.13 553.81,518.51 555.59,517.90 557.38,517.29 559.18,516.69 560.99,516.10 562.82,515.51 564.65,514.93 566.49,514.36 568.35,513.79 570.21,513.22 572.07,512.66 573.95,512.10 575.83,511.55 577.71,511.00 579.60,510.46 581.49,509.91 583.39,509.37 585.29,508.83 587.20,508.30 589.10,507.76 591.01,507.23 592.92,506.69 594.83,506.16 596.73,505.62 598.64,505.09 600.55,504.56 602.45,504.02 604.35,503.48 606.25,502.94 608.15,502.40 610.04,501.86 611.93,501.31 613.81,500.76 615.69,500.20 617.56,499.65 619.43,499.08 621.28,498.52 623.13,497.94 624.97,497.37 626.80,496.78 628.62,496.19 630.43,495.60 632.23,495.00 634.01,494.39 635.78,493.77 637.54,493.14 639.28,492.51 641.00,491.87 642.71,491.22 644.40,490.56 646.07,489.90 647.73,489.22 649.37,488.54 650.99,487.85 652.59,487.15 654.17,486.44 655.74,485.73 657.29,485.01 658.83,484.28 660.35,483.55 661.85,482.81 663.33,482.07 664.80,481.31 666.26,480.56 667.70,479.79 669.12,479.03 670.53,478.25 671.93,477.48 673.31,476.69 674.68,475.91 676.04,475.11 677.38,474.32 678.71,473.52 680.02,472.72 681.33,471.91 682.62,471.10 683.90,470.28 685.17,469.47 686.43,468.65 687.68,467.82 688.92,466.99 690.15,466.17 691.37,465.33 692.58,464.50 693.78,463.66 694.97,462.82 696.16,461.98 697.34,461.14 698.51,460.29 699.67,459.44 700.82,458.60 701.97,457.74 703.12,456.89 704.25,456.04 705.39,455.18 706.51,454.33 707.63,453.47 708.75,452.61 709.86,451.75 710.97,450.89 712.07,450.03 713.17,449.16 714.26,448.30 715.35,447.43 716.44,446.57 717.52,445.70 718.60,444.83 719.68,443.96 720.75,443.09 721.82,442.22 722.89,441.35 723.96,440.48 725.02,439.61 726.09,438.74 727.15,437.87 728.21,436.99 729.27,436.12 730.32,435.25 731.38,434.38 732.44,433.50 733.49,432.63 734.55,431.76 735.60,430.88 736.66,430.01 737.72,429.14 738.78,428.26 739.83,427.39 740.89,426.52 741.95,425.64 743.02,424.77 744.08,423.90 745.15,423.03 746.22,422.16 747.29,421.29 748.36,420.42 749.44,419.55 750.52,418.69 751.60,417.82 752.69,416.95 753.78,416.09 754.88,415.22 755.98,414.36 757.08,413.50 758.19,412.64 759.30,411.78 760.42,410.92 761.55,410.06 762.68,409.21 763.81,408.35 764.95,407.50 766.10,406.65 767.26,405.80 768.42,404.95 769.58,404.10 770.76,403.26 771.93,402.42 773.11,401.57 774.30,400.73 775.49,399.89 776.68,399.05 777.88,398.21 779.07,397.37 780.27,396.54 781.47,395.70 782.67,394.86 783.87,394.02 785.07,393.19 786.27,392.35 787.47,391.51 788.66,390.67 789.86,389.83 791.05,388.99 792.24,388.15 793.42,387.31 794.60,386.47 795.78,385.63 796.95,384.78 798.12,383.93 799.28,383.09 800.44,382.24 801.58,381.39 802.73,380.53 803.86,379.68 804.99,378.82 806.11,377.97 807.22,377.11 808.32,376.24 809.42,375.38 810.51,374.51 811.58,373.64 812.65,372.77 813.70,371.90 814.75,371.02 815.78,370.14 816.79,369.26 817.77,368.37 818.74,367.48 819.68,366.58 820.58,365.68 821.46,364.77 822.29,363.85 823.08,362.92 823.82,361.99 824.51,361.05 825.14,360.10 825.70,359.15 826.19,358.18 826.60,357.21 826.91,356.23 827.13,355.25 827.24,354.27 827.22,353.28 827.09,352.30 826.82,351.32 826.42,350.34 825.91,349.38 825.29,348.43 824.56,347.50 823.74,346.58 822.84,345.67 821.85,344.79 820.80,343.91 819.68,343.05 818.51,342.21 817.28,341.38 816.01,340.56 814.69,339.76 813.35,338.96 811.97,338.18 810.56,337.41 809.12,336.64 807.67,335.89 806.19,335.14 804.70,334.39 803.19,333.66 801.67,332.92 800.14,332.19 798.61,331.47 797.07,330.74 795.52,330.02 793.97,329.30 792.42,328.58 790.87,327.86 789.33,327.14 787.79,326.41 786.25,325.68 784.72,324.95 783.20,324.22 781.68,323.49 780.16,322.76 778.65,322.02 777.13,321.29 775.62,320.55 774.11,319.82 772.60,319.08 771.09,318.34 769.58,317.61 768.06,316.87 766.54,316.14 765.02,315.41 763.50,314.68 761.97,313.95 760.43,313.22 758.89,312.50 757.34,311.78 755.78,311.06 754.22,310.35 752.64,309.64 751.05,308.93 749.45,308.23 747.84,307.54 746.22,306.85 744.58,306.16 742.93,305.49 741.27,304.82 739.58,304.16 737.88,303.50 736.16,302.86 734.43,302.22 732.67,301.60 730.90,300.98 729.10,300.38 727.28,299.79 725.44,299.21 723.58,298.65 721.70,298.10 719.79,297.56 717.86,297.05 715.91,296.54 713.94,296.06 711.94,295.59 709.92,295.14 707.87,294.71 705.81,294.31 703.72,293.92 701.61,293.55 699.49,293.21 697.34,292.89 695.18,292.59 693.00,292.32 690.81,292.06 688.60,291.84 686.38,291.63 684.15,291.45 681.91,291.29 679.66,291.15 677.41,291.04 675.15,290.95 672.89,290.87 670.62,290.82 668.36,290.80 666.09,290.79 663.82,290.81 661.55,290.85 659.29,290.91 657.03,290.99 654.77,291.10 652.52,291.23 650.28,291.39 648.05,291.57 645.83,291.77 643.62,292.00 641.43,292.24 639.24,292.51 637.08,292.80 634.92,293.11 632.78,293.44 630.66,293.79 628.55,294.15 626.46,294.54 624.39,294.94 622.33,295.35 620.29,295.78 618.26,296.23 616.26,296.69 614.26,297.16 612.29,297.64 610.33,298.14 608.38,298.65 606.45,299.17 604.53,299.69 602.63,300.23 600.74,300.78 598.86,301.33 597.00,301.89 595.14,302.46 593.30,303.04 591.47,303.62 589.64,304.21 587.83,304.80 586.03,305.40 584.23,306.00 582.44,306.61 580.66,307.22 578.88,307.83 577.11,308.45 575.34,309.07 573.58,309.69 571.82,310.31 570.06,310.94 568.31,311.56 566.56,312.19 564.81,312.82 563.06,313.44 561.31,314.07 559.55,314.70 557.80,315.32 556.05,315.95 554.29,316.57 552.53,317.19 550.76,317.81 548.99,318.43 547.21,319.04 545.43,319.66 543.64,320.26 541.85,320.87 540.04,321.46 538.23,322.06 536.41,322.64 534.57,323.23 532.73,323.80 530.88,324.37 529.01,324.93 527.13,325.49 525.24,326.03 523.34,326.57 521.42,327.10 519.49,327.62 517.56,328.13 515.61,328.63 513.65,329.13 511.68,329.62 509.70,330.10 507.71,330.58 505.72,331.05 503.71,331.51 501.70,331.97 499.69,332.42 497.66,332.87 495.64,333.31 493.60,333.75 491.57,334.18 489.52,334.61 487.48,335.04 485.43,335.46 483.38,335.88 481.32,336.30 479.26,336.72 477.21,337.13 475.15,337.55 473.08,337.96 471.02,338.37 468.96,338.78 466.90,339.19 464.84,339.61 462.78,340.02 460.72,340.43 458.66,340.85 456.61,341.27 454.55,341.69 452.50,342.11 450.46,342.54 448.41,342.97 446.38,343.40 444.34,343.84 442.31,344.28 440.29,344.72 438.27,345.17 436.25,345.63 434.25,346.09 432.25,346.55 430.25,347.02 428.27,347.50 426.29,347.98 424.32,348.47 422.36,348.97 420.41,349.48 418.47,349.99 416.54,350.50 414.62,351.03 412.71,351.56 410.81,352.10 408.92,352.65 407.04,353.20 405.18,353.77 403.33,354.34 401.49,354.92 399.67,355.50 397.86,356.10 396.06,356.70 394.28,357.31 392.50,357.92 390.73,358.54 388.97,359.16 387.20,359.78 385.44,360.40 383.68,361.03 381.91,361.65 380.14,362.26 378.36,362.87 376.57,363.48 374.77,364.08 372.95,364.67 371.12,365.25 369.26,365.82 367.38,366.37 365.48,366.91 363.55,367.42 361.59,367.92 359.59,368.39 357.56,368.83 355.50,369.24 353.39,369.61 351.25,369.94 349.08,370.22 346.87,370.44 344.63,370.61 342.38,370.71 340.11,370.74 337.84,370.70 335.59,370.59 333.36,370.40 331.17,370.16 329.01,369.85 326.89,369.50 324.82,369.10 322.79,368.65 320.81,368.17 318.88,367.66 316.98,367.11 315.14,366.54 313.33,365.94 311.57,365.32 309.85,364.68 308.17,364.01 306.53,363.33 304.93,362.63 303.36,361.92 301.83,361.19 300.33,360.45 298.87,359.69 297.45,358.93 296.06,358.15 294.70,357.36 293.38,356.55 292.09,355.74 290.84,354.92 289.62,354.09 288.43,353.25 287.28,352.40 286.16,351.54 285.08,350.67 284.04,349.79 283.03,348.91 282.06,348.02 281.13,347.12 280.23,346.21 279.38,345.30 278.57,344.37 277.81,343.45 277.09,342.51 276.43,341.57 275.81,340.62 275.25,339.66 274.75,338.70 274.31,337.73 273.94,336.76 273.65,335.78 273.43,334.80 273.29,333.81 273.25,332.82 273.31,331.84 273.47,330.85 273.76,329.87 274.18,328.91 274.75,327.95 275.47,327.01 276.35,326.11 277.40,325.23 278.62,324.40 280.00,323.62 281.51,322.88 283.13,322.19 284.86,321.55 286.67,320.96 288.54,320.40 290.48,319.89 292.46,319.40 294.47,318.95 296.52,318.53 298.60,318.13 300.69,317.75 302.81,317.39 304.94,317.05 307.08,316.73 309.23,316.41 311.39,316.11 313.55,315.81 315.72,315.52 317.90,315.24 320.07,314.96 322.25,314.69 324.43,314.42 326.61,314.14 328.79,313.87 330.97,313.59 333.14,313.31 335.31,313.02 337.48,312.73 339.64,312.42 341.79,312.11 343.93,311.79 346.07,311.46 348.19,311.11 350.31,310.75 352.42,310.39 354.51,310.01 356.60,309.62 358.68,309.23 360.74,308.82 362.80,308.41 364.85,307.98 366.89,307.55 368.92,307.11 370.95,306.67 372.96,306.21 374.97,305.75 376.97,305.29 378.96,304.82 380.95,304.34 382.93,303.86 384.91,303.38 386.88,302.89 388.85,302.40 390.82,301.90 392.78,301.41 394.74,300.91 396.70,300.42 398.66,299.92 400.62,299.42 402.59,298.93 404.55,298.44 406.52,297.95 408.49,297.46 410.47,296.98 412.45,296.50 414.44,296.02 416.44,295.55 418.45,295.09 420.46,294.64 422.48,294.19 424.52,293.76 426.56,293.33 428.62,292.91 430.68,292.50 432.76,292.10 434.84,291.71 436.94,291.33 439.04,290.97 441.15,290.61 443.28,290.26 445.40,289.91 447.54,289.58 449.69,289.26 451.84,288.95 454.00,288.65 456.17,288.36 458.34,288.07 460.52,287.79 462.70,287.53 464.89,287.27 467.08,287.02 469.28,286.77 471.48,286.54 473.69,286.31 475.90,286.08 478.11,285.87 480.33,285.66 482.55,285.46 484.77,285.26 487.00,285.07 489.23,284.88 491.46,284.70 493.69,284.52 495.92,284.35 498.16,284.18 500.40,284.02 502.64,283.86 504.87,283.70 507.11,283.54 509.35,283.39 511.60,283.23 513.84,283.08 516.08,282.93 518.32,282.78 520.56,282.63 522.80,282.47 525.05,282.32 527.29,282.17 529.53,282.02 531.77,281.86 534.01,281.71 536.25,281.55 538.49,281.39 540.73,281.23 542.97,281.07 545.20,280.90 547.44,280.73 549.67,280.56 551.90,280.38 554.13,280.20 556.36,280.02 558.59,279.83 560.81,279.63 563.03,279.43 565.25,279.22 567.46,279.01 569.67,278.78 571.88,278.55 574.08,278.32 576.28,278.07 578.47,277.81 580.65,277.54 582.83,277.26 584.99,276.97 587.15,276.66 589.29,276.34 591.42,276.00 593.54,275.64 595.63,275.26 597.71,274.86 599.75,274.44 601.77,273.98 603.75,273.50 605.68,272.98 607.56,272.43 609.36,271.83 611.08,271.19 612.70,270.50 614.19,269.75 615.52,268.96 616.66,268.10 617.58,267.20 618.27,266.26 618.70,265.29 618.88,264.31 618.82,263.32 618.54,262.35 618.08,261.38 617.48,260.43 616.76,259.49 615.95,258.57 615.07,257.66 614.12,256.76 613.13,255.88 612.10,255.00 611.04,254.13 609.95,253.26 608.83,252.40 607.71,251.54 606.57,250.69 605.42,249.84 604.27,248.99 603.12,248.14 601.98,247.29 600.84,246.43 599.71,245.58 598.59,244.72 597.47,243.86 596.36,243.00 595.26,242.14 594.16,241.27 593.05,240.41 591.96,239.55 590.86,238.69 589.75,237.82 588.65,236.96 587.54,236.10 586.43,235.24 585.30,234.38 584.17,233.53 583.03,232.67 581.88,231.82 580.72,230.98 579.54,230.13 578.34,229.30 577.13,228.46 575.90,227.63 574.64,226.81 573.37,225.99 572.07,225.18 570.75,224.38 569.41,223.59 568.04,222.80 566.64,222.03 565.21,221.26 563.76,220.50 562.27,219.75 560.76,219.02 559.22,218.30 557.64,217.58 556.04,216.88 554.41,216.20 552.76,215.52 551.07,214.86 549.37,214.21 547.64,213.57 545.89,212.95 544.12,212.33 542.34,211.72 540.54,211.12 538.72,210.52 536.90,209.94 535.06,209.36 533.20,208.79 531.34,208.23 529.47,207.67 527.59,207.12 525.71,206.57 523.81,206.03 521.91,205.49 520.00,204.95 518.09,204.42 516.17,203.89 514.25,203.37 512.33,202.85 510.40,202.32 508.47,201.80 506.54,201.29 504.61,200.77 502.68,200.25 500.75,199.74 498.81,199.22 496.88,198.70 494.95,198.18 493.02,197.66 491.09,197.14 489.17,196.62 487.25,196.09 485.33,195.57 483.42,195.03 481.52,194.50 479.62,193.96 477.72,193.42 475.84,192.87 473.96,192.31 472.09,191.75 470.23,191.19 468.38,190.62 466.55,190.04 464.72,189.45 462.92,188.85 461.12,188.25 459.34,187.64 457.59,187.01 455.85,186.38 454.13,185.73 452.44,185.08 450.77,184.41 449.13,183.73 447.52,183.03 445.94,182.32 444.40,181.60 442.90,180.86 441.44,180.10 440.02,179.33 438.66,178.54 437.35,177.74 436.09,176.92 434.90,176.08 433.77,175.22 432.71,174.35 431.72,173.46 430.82,172.56 429.99,171.64 429.25,170.71 428.59,169.76 428.03,168.81 427.56,167.84 427.17,166.87 426.89,165.89 426.69,164.91 426.58,163.92 426.56,162.93 426.60,161.95 426.64,160.96 426.64,159.97 426.57,158.99 426.39,158.00 426.10,157.02 425.71,156.05 425.23,155.09 424.66,154.13 424.01,153.19 423.28,152.25 422.48,151.33 421.62,150.42 420.70,149.52 419.72,148.62 418.69,147.75 417.62,146.88 416.50,146.02 415.34,145.17 414.14,144.33 412.91,143.50 411.65,142.68 410.35,141.87 409.03,141.07 407.68,140.28 406.30,139.50 404.90,138.72 403.48,137.95 402.03,137.19 400.57,136.43 399.09,135.69 397.59,134.95 396.07,134.21 394.54,133.49 392.99,132.76 391.43,132.05 389.86,131.34 388.27,130.63 386.67,129.93 385.05,129.24 383.43,128.55 381.79,127.87 380.15,127.19 378.49,126.51 376.83,125.84 375.15,125.18 373.47,124.52 371.78,123.86 370.07,123.21 368.37,122.56 366.65,121.91 364.93,121.27 363.20,120.63 361.46,120.00 359.72,119.37 357.97,118.74 356.21,118.11 354.45,117.49 352.68,116.87 350.91,116.26 349.13,115.64 347.34,115.04 345.56,114.43 343.76,113.82 341.96,113.22 340.16,112.62 338.35,112.03 336.54,111.44 334.72,110.84 332.90,110.26 331.08,109.67 329.25,109.09 327.41,108.50 325.58,107.92 323.74,107.35 321.89,106.77 320.05,106.20 318.20,105.63 316.34,105.06 314.49,104.49 312.63,103.93 310.76,103.36 308.90,102.80 307.03,102.24 305.16,101.68 303.29,101.13 301.41,100.57 299.53,100.02 297.65,99.47 295.77,98.92 293.88,98.37 291.99,97.82 290.10,97.28 288.21,96.73 286.31,96.19 284.42,95.65 282.52,95.11 280.62,94.57 278.72,94.03 276.82,93.49 274.91,92.96 273.00,92.42 271.10,91.89 269.19,91.35 267.28,90.82 265.37,90.29 263.46,89.76 261.54,89.23 259.63,88.70 257.72,88.17 255.80,87.64 253.89,87.11 251.98,86.58 250.06,86.04 248.15,85.51 246.24,84.98 244.34,84.45 242.43,83.91 240.53,83.37 238.64,82.83 236.75,82.28 234.88,81.72 233.02,81.15 231.20,80.57 229.46,79.93 228.67,79.17 230.92,79.23 233.12,79.47 235.30,79.75 237.46,80.05 239.61,80.36 241.75,80.68 243.89,81.01 246.02,81.35 248.16,81.68 250.30,82.01 252.44,82.34 254.60,82.64 256.78,82.92 258.99,83.12 261.22,83.04 261.14,82.15 259.80,81.35 258.26,80.63 256.63,79.94 254.95,79.28 253.24,78.63 251.50,78.00 249.73,77.38 247.95,76.77 246.16,76.17 244.35,75.57 242.53,74.98 240.70,74.40 238.86,73.82 237.01,73.25 235.15,72.68 233.28,72.12 231.41,71.57 229.53,71.01 227.64,70.47 225.74,69.93 223.84,69.39 221.93,68.86 220.01,68.33 218.08,67.81 216.15,67.30 214.20,66.79 212.25,66.28 210.29,65.79 208.32,65.30 206.34,64.81 204.35,64.34 202.35,63.88 200.33,63.42 198.30,62.98 196.26,62.56 194.19,62.15 192.10,61.76 189.99,61.41 187.85,61.08 185.68,60.79 183.48,60.55 181.26,60.35 179.02,60.20 176.76,60.08 174.50,60.02 172.23,60.01 169.97,60.08 167.72,60.22 165.52,60.45 163.38,60.78 161.35,61.22 159.44,61.75 157.66,62.36 156.03,63.05 154.56,63.80 153.24,64.60 152.09,65.45 151.11,66.34 150.30,67.26 149.68,68.21 149.23,69.18 148.89,70.15 148.59,71.13 148.27,72.11 147.85,73.08 147.23,74.02 146.26,74.91 144.86,75.69 143.12,76.32 141.19,76.84 139.15,77.27 137.06,77.65 134.94,78.00 132.81,78.34 130.68,78.68 128.58,79.05 126.51,79.46 124.51,79.92 122.60,80.46 120.83,81.07 119.20,81.76 117.73,82.51 116.42,83.31 115.28,84.17 114.31,85.06 113.52,85.98 112.92,86.93 112.52,87.91 112.32,88.89 112.34,89.87 112.59,90.86 113.05,91.82 113.70,92.77 114.52,93.68 115.50,94.57 116.62,95.43 117.85,96.26 119.18,97.06 120.60,97.83 122.10,98.57 123.67,99.28 125.30,99.97 126.98,100.63 128.71,101.27 130.48,101.89 132.30,102.48 134.15,103.05 136.04,103.60 137.95,104.13 139.89,104.64 141.84,105.14 143.82,105.63 145.81,106.10 147.80,106.57 149.81,107.03 151.82,107.49 153.83,107.95 155.83,108.41 157.83,108.87 159.82,109.35 161.80,109.83 163.76,110.33 165.70,110.84 167.62,111.36 169.52,111.90 171.41,112.45 173.27,113.02 175.12,113.59 176.95,114.17 178.76,114.76 180.57,115.36 182.36,115.97 184.14,116.58 185.91,117.20 187.67,117.82 189.43,118.44 191.18,119.07 192.92,119.70 194.67,120.33 196.41,120.97 198.14,121.60 199.86,122.24 201.58,122.89 203.30,123.54 205.00,124.19 206.69,124.84 208.37,125.51 210.05,126.17 211.71,126.85 213.35,127.52 214.99,128.21 216.60,128.90 218.21,129.60 219.79,130.31 221.36,131.02 222.91,131.74 224.43,132.47 225.94,133.21 227.43,133.95 228.89,134.71 230.32,135.47 231.73,136.25 233.12,137.03 234.48,137.82 235.82,138.61 237.14,139.41 238.45,140.22 239.74,141.03 241.02,141.85 242.30,142.66 243.56,143.48 244.83,144.30 246.09,145.12 247.35,145.94 248.62,146.76 249.89,147.58 251.17,148.39 252.46,149.20 253.76,150.01 255.09,150.81 256.42,151.61 257.78,152.40 259.17,153.18 260.57,153.96 262.01,154.72 263.47,155.47 264.97,156.22 266.49,156.95 268.06,157.66 269.66,158.36 271.29,159.05 272.96,159.71 274.68,160.36 276.43,160.99 278.22,161.59 280.04,162.18 281.91,162.74 283.81,163.28 285.72,163.81 287.63,164.34 289.53,164.88 291.40,165.44 293.23,166.03 294.98,166.65 296.64,167.32 298.16,168.05 299.51,168.85 300.65,169.70 301.63,170.59 302.53,171.50 303.43,172.40 304.42,173.29 305.57,174.14 306.92,174.93 308.46,175.66 310.14,176.32 311.91,176.94 313.74,177.52 315.62,178.07 317.53,178.61 319.45,179.13 321.38,179.65 323.29,180.18 325.18,180.73 327.02,181.30 328.79,181.92 330.43,182.60 331.88,183.36 333.01,184.22 333.67,185.16 333.78,186.14 333.39,187.11 332.77,188.06 332.16,189.01 331.82,189.98 331.96,190.97 332.64,191.91 333.76,192.76 335.20,193.52 336.84,194.20 338.62,194.82 340.48,195.38 342.40,195.91 344.36,196.41 346.34,196.89 348.33,197.36 350.32,197.83 352.32,198.30 354.30,198.78 356.25,199.28 358.18,199.80 360.06,200.36 361.87,200.95 363.58,201.60 365.16,202.31 366.56,203.08 367.74,203.92 368.69,204.82 369.42,205.75 369.92,206.72 370.22,207.69 370.34,208.68 370.30,209.67 370.12,210.65 369.83,211.63 369.43,212.60 368.95,213.56 368.40,214.52 367.78,215.47 367.10,216.41 366.38,217.35 365.59,218.27 364.73,219.18 363.74,220.07 362.57,220.92 361.16,221.69 359.40,222.31 357.28,222.64 355.02,222.61 352.82,222.37 350.67,222.05 348.51,221.74 346.30,221.52 344.04,221.52 341.92,221.85 340.05,222.41 338.36,223.07 336.75,223.76 335.12,224.45 333.38,225.08 331.51,225.64 329.54,226.13 327.50,226.56 325.43,226.96 323.34,227.34 321.25,227.73 319.19,228.14 317.19,228.61 315.31,229.16 313.64,229.83 312.31,230.62 311.40,231.53 310.87,232.48 310.36,233.45 309.43,234.34 307.66,234.94 305.48,235.20 303.22,235.30 300.95,235.31 298.68,235.31 296.42,235.34 294.16,235.45 291.95,235.67 289.82,236.00 287.77,236.43 285.83,236.94 283.97,237.51 282.19,238.11 280.44,238.75 278.72,239.39 277.01,240.04 275.30,240.68 273.58,241.33 271.86,241.97 270.12,242.60 268.35,243.22 266.56,243.83 264.74,244.42 262.88,244.98 260.98,245.52 259.03,246.02 257.03,246.49 254.98,246.91 252.88,247.28 250.72,247.59 248.53,247.84 246.30,248.02 244.04,248.12 241.78,248.17 239.51,248.21 237.25,248.32 235.06,248.56 233.01,248.98 231.14,249.54 229.43,250.19 227.85,250.90 226.35,251.64 224.89,252.39 223.44,253.15 221.95,253.90 220.39,254.61 218.69,255.26 216.81,255.81 214.73,256.21 212.52,256.43 210.26,256.48 208.00,256.41 205.76,256.24 203.57,255.99 201.41,255.69 199.29,255.34 197.19,254.96 195.12,254.56 193.07,254.14 191.03,253.71 188.99,253.27 186.96,252.84 184.91,252.41 182.85,252.00 180.78,251.59 178.70,251.20 176.61,250.82 174.52,250.44 172.42,250.06 170.32,249.68 168.23,249.30 166.15,248.90 164.09,248.50 162.05,248.07 160.02,247.62 158.02,247.16 156.04,246.67 154.09,246.17 152.16,245.65 150.25,245.12 148.37,244.57 146.52,244.00 144.69,243.41 142.89,242.81 141.11,242.20 139.36,241.57 137.64,240.93 135.94,240.27 134.28,239.61 132.63,238.92 131.02,238.23 129.43,237.53 127.86,236.81 126.32,236.09 124.81,235.35 123.32,234.61 121.86,233.85 120.42,233.09 119.00,232.32 117.61,231.54 116.24,230.76 114.89,229.96 113.57,229.16 112.26,228.35"/>
<polyline fill="none" stroke="#d62728" stroke-width="1.8" stroke-opacity="1.0" points="74.22,244.89 74.32,245.87 74.42,246.86 74.51,247.85 74.61,248.83 74.70,249.82 74.79,250.80 74.88,251.79 74.96,252.78 75.04,253.76 75.12,254.75 75.20,255.73 75.27,256.72 75.33,257.71 75.40,258.69 75.45,259.68 75.51,260.67 75.56,261.65 75.60,262.64 75.64,263.63 75.67,264.61 75.69,265.60 75.71,266.59 75.73,267.57 75.74,268.56 75.74,269.55 75.75,270.53 75.75,271.52 75.74,272.51 75.74,273.49 75.74,274.48 75.73,275.47 75.72,276.45 75.72,277.44 75.71,278.43 75.71,279.41 75.71,280.40 75.71,281.39 75.72,282.37 75.73,283.36 75.74,284.35 75.76,285.33 75.78,286.32 75.81,287.31 75.85,288.29 75.89,289.28 75.95,290.27 76.01,291.25 76.07,292.24 76.15,293.23 76.24,294.21 76.34,295.20 76.45,296.18 76.57,297.17 76.71,298.15 76.85,299.14 77.01,300.12 77.19,301.11 77.38,302.09 77.59,303.07 77.81,304.06 78.05,305.04 78.31,306.02 78.58,307.00 78.88,307.98 79.19,308.95 79.52,309.93 79.88,310.90 80.25,311.88 80.65,312.85 81.07,313.82 81.52,314.79 81.99,315.75 82.48,316.72 83.00,317.68 83.54,318.63 84.11,319.59 84.71,320.54 85.34,321.49 85.99,322.43 86.67,323.38 87.38,324.31 88.11,325.25 88.87,326.18 89.65,327.11 90.45,328.03 91.27,328.95 92.11,329.87 92.97,330.78 93.85,331.69 94.74,332.60 95.65,333.50 96.58,334.40 97.52,335.30 98.47,336.20 99.43,337.09 100.41,337.98 101.39,338.87 102.39,339.76 103.39,340.64 104.40,341.52 105.42,342.41 106.44,343.29 107.47,344.17 108.51,345.04 109.54,345.92 110.58,346.80 111.62,347.68 112.67,348.55 113.71,349.43 114.75,350.30 115.80,351.18 116.84,352.06 117.87,352.94 118.91,353.81 119.93,354.69 120.96,355.57 121.98,356.46 122.99,357.34 123.99,358.22 124.99,359.11 125.98,360.00 126.96,360.89 127.92,361.78 128.88,362.68 129.82,363.57 130.75,364.47 131.67,365.38 132.57,366.28 133.46,367.19 134.33,368.10 135.18,369.01 136.02,369.93 136.85,370.85 137.66,371.77 138.46,372.69 139.24,373.62 140.02,374.55 140.78,375.48 141.54,376.41 142.29,377.34 143.03,378.27 143.76,379.21 144.48,380.14 145.20,381.08 145.92,382.01 146.63,382.95 147.34,383.89 148.04,384.83 148.75,385.76 149.45,386.70 150.16,387.64 150.86,388.58 151.57,389.51 152.28,390.45 153.00,391.39 153.72,392.32 154.45,393.26 155.18,394.19 155.92,395.13 156.66,396.06 157.42,396.99 158.19,397.92 158.96,398.84 159.75,399.77 160.55,400.69 161.37,401.61 162.19,402.53 163.04,403.45 163.90,404.36 164.77,405.27 165.67,406.18 166.58,407.08 167.51,407.98 168.46,408.88 169.44,409.77 170.43,410.65 171.45,411.54 172.49,412.41 173.56,413.28 174.65,414.15 175.77,415.01 176.91,415.86 178.08,416.71 179.28,417.54 180.51,418.37 181.76,419.20 183.05,420.01 184.36,420.81 185.70,421.61 187.08,422.39 188.48,423.17 189.91,423.93 191.37,424.69 192.87,425.43 194.39,426.16 195.94,426.88 197.52,427.59 199.12,428.29 200.73,428.98 202.36,429.67 203.99,430.36 205.63,431.04 207.27,431.72 208.90,432.41 210.53,433.10 212.14,433.79 213.74,434.49 215.32,435.20 216.87,435.92 218.39,436.65 219.88,437.40 221.32,438.16 222.71,438.94 224.04,439.74 225.31,440.56 226.50,441.40 227.61,442.26 228.62,443.14 229.53,444.05 230.35,444.97 231.08,445.90 231.72,446.85 232.28,447.81 232.77,448.77 233.20,449.74 233.57,450.71 233.88,451.69 234.15,452.67 234.38,453.65 234.58,454.64 234.74,455.62 234.88,456.61 235.01,457.59 235.12,458.58 235.22,459.56 235.32,460.55 235.42,461.53 235.52,462.52 235.63,463.51 235.76,464.49 235.90,465.48 236.06,466.46 236.23,467.44 236.41,468.43 236.61,469.41 236.81,470.39 237.02,471.38 237.23,472.36 237.46,473.34 237.68,474.32 237.91,475.30 238.14,476.29 238.36,477.27 238.59,478.25 238.81,479.23 239.03,480.21 239.23,481.20 239.44,482.18 239.63,483.16 239.80,484.15 239.97,485.13 240.12,486.12 240.26,487.10 240.37,488.09 240.47,489.07 240.54,490.06 240.59,491.04 240.62,492.03 240.62,493.02 240.59,494.00 240.53,494.99 240.44,495.98 240.32,496.96 240.18,497.95 240.00,498.93 239.80,499.91 239.57,500.90 239.33,501.88 239.06,502.86 238.78,503.84 238.48,504.81 238.17,505.79 237.84,506.77 237.50,507.74 237.16,508.72 236.80,509.69 236.45,510.67 236.08,511.64 235.72,512.62 235.35,513.59 234.99,514.56 234.63,515.54 234.27,516.51 233.92,517.49 233.58,518.46 233.25,519.44 232.92,520.42 232.61,521.39 232.32,522.37 232.03,523.35 231.77,524.33 231.53,525.31 231.30,526.29 231.10,527.28 230.92,528.26 230.77,529.25 230.64,530.23 230.54,531.22 230.47,532.20 230.44,533.19 230.43,534.18 230.46,535.16 230.52,536.15 230.62,537.14 230.76,538.12 230.93,539.11 231.14,540.09 231.37,541.07 231.61,542.05 231.87,543.03 232.13,544.01 232.39,544.99 232.63,545.97 232.86,546.95 233.06,547.94 233.23,548.92 233.35,549.91 233.43,550.89 233.44,551.88 233.38,552.87 233.25,553.85 233.02,554.83 232.70,555.81 232.27,556.78 231.72,557.73 231.05,558.67 230.26,559.60 229.33,560.50 228.28,561.37 227.11,562.22 225.86,563.04 224.55,563.85 223.22,564.64 221.87,565.44 220.55,566.24 219.28,567.06 218.10,567.90 217.06,568.78 216.24,569.70 215.73,570.66 215.59,571.65 215.80,572.63 216.34,573.59 217.16,574.50 218.22,575.38 219.45,576.21 220.83,576.99 222.33,577.73 223.92,578.44 225.59,579.11 227.32,579.74 229.10,580.35 230.93,580.93 232.81,581.49 234.71,582.03 236.65,582.54 238.61,583.04 240.60,583.51 242.61,583.97 244.64,584.41 246.69,584.84 248.75,585.25 250.83,585.64 252.93,586.02 255.04,586.38 257.16,586.73 259.30,587.06 261.45,587.37 263.61,587.68 265.78,587.96 267.96,588.23 270.16,588.48 272.36,588.71 274.58,588.93 276.80,589.12 279.03,589.30 281.27,589.46 283.52,589.60 285.77,589.71 288.03,589.81 290.29,589.89 292.56,589.95 294.82,589.98 297.09,590.00 299.36,589.99 301.63,589.97 303.90,589.92 306.16,589.85 308.42,589.77 310.68,589.66 312.93,589.53 315.17,589.38 317.41,589.22 319.63,589.03 321.86,588.83 324.07,588.61 326.27,588.37 328.46,588.12 330.64,587.85 332.82,587.56 334.98,587.26 337.13,586.95 339.27,586.62 341.40,586.28 343.52,585.93 345.63,585.56 347.73,585.19 349.81,584.80 351.89,584.41 353.96,584.00 356.03,583.59 358.08,583.17 360.12,582.74 362.16,582.31 364.19,581.87 366.22,581.42 368.23,580.97 370.25,580.52 372.26,580.06 374.26,579.60 376.26,579.13 378.26,578.66 380.25,578.19 382.24,577.72 384.23,577.24 386.22,576.77 388.20,576.29 390.18,575.81 392.16,575.32 394.13,574.83 396.10,574.34 398.06,573.85 400.03,573.35 401.98,572.86 403.94,572.36 405.89,571.85 407.84,571.35 409.78,570.84 411.72,570.32 413.66,569.81 415.59,569.29 417.52,568.77 419.44,568.25 421.36,567.72 423.27,567.19 425.18,566.66 427.09,566.12 428.99,565.58 430.88,565.04 432.78,564.50 434.66,563.95 436.54,563.40 438.42,562.84 440.29,562.29 442.16,561.72 444.02,561.16 445.88,560.59 447.73,560.02 449.57,559.45 451.41,558.87 453.24,558.29 455.07,557.70 456.89,557.12 458.71,556.52 460.52,555.93 462.32,555.33 464.12,554.73 465.91,554.12 467.70,553.51 469.47,552.90 471.24,552.28 473.01,551.66 474.77,551.04 476.52,550.41 478.26,549.78 480.00,549.14 481.73,548.51 483.45,547.86 485.16,547.22 486.87,546.57 488.57,545.91 490.26,545.25 491.94,544.59 493.61,543.93 495.28,543.26 496.94,542.58 498.59,541.91 500.23,541.22 501.86,540.54 503.48,539.85 505.10,539.16 506.70,538.46 508.30,537.76 509.89,537.05 511.48,536.35 513.06,535.64 514.63,534.93 516.20,534.22 517.78,533.51 519.34,532.79 520.91,532.08 522.48,531.37 524.06,530.66 525.63,529.95 527.21,529.24 528.80,528.53 530.39,527.83 531.98,527.13 533.59,526.43 535.20,525.74 536.83,525.05 538.46,524.37 540.11,523.69 541.77,523.01 543.44,522.35 545.13,521.69 546.83,521.03 548.55,520.39 550.28,519.75 552.03,519.12 553.79,518.50 555.57,517.89 557.36,517.28 559.16,516.68 560.98,516.09 562.80,515.50 564.64,514.92 566.48,514.35 568.33,513.78 570.19,513.21 572.06,512.65 573.94,512.10 575.82,511.54 577.70,511.00 579.59,510.45 581.49,509.91 583.39,509.37 585.29,508.83 587.19,508.29 589.10,507.76 591.00,507.22 592.91,506.69 594.82,506.16 596.73,505.62 598.64,505.09 600.55,504.55 602.45,504.02 604.35,503.48 606.25,502.94 608.15,502.40 610.04,501.86 611.93,501.31 613.82,500.76 615.69,500.21 617.57,499.65 619.43,499.09 621.29,498.52 623.14,497.95 624.98,497.37 626.81,496.79 628.63,496.20 630.44,495.60 632.23,495.00 634.02,494.39 635.79,493.77 637.55,493.15 639.29,492.52 641.01,491.88 642.72,491.23 644.41,490.57 646.09,489.90 647.74,489.23 649.38,488.55 651.00,487.86 652.60,487.16 654.19,486.45 655.76,485.74 657.31,485.02 658.85,484.29 660.36,483.56 661.87,482.82 663.35,482.07 664.82,481.32 666.28,480.56 667.72,479.80 669.14,479.03 670.56,478.26 671.95,477.48 673.33,476.70 674.70,475.91 676.06,475.12 677.40,474.33 678.73,473.53 680.05,472.72 681.35,471.92 682.65,471.11 683.93,470.29 685.20,469.47 686.46,468.65 687.71,467.83 688.95,467.00 690.18,466.17 691.40,465.34 692.61,464.51 693.81,463.67 695.00,462.83 696.19,461.99 697.37,461.14 698.54,460.30 699.70,459.45 700.85,458.60 702.00,457.75 703.15,456.90 704.28,456.05 705.42,455.19 706.54,454.33 707.66,453.48 708.78,452.62 709.89,451.76 711.00,450.90 712.10,450.03 713.20,449.17 714.29,448.30 715.38,447.44 716.47,446.57 717.55,445.71 718.63,444.84 719.71,443.97 720.78,443.10 721.85,442.23 722.92,441.36 723.99,440.49 725.05,439.62 726.12,438.75 727.18,437.87 728.24,437.00 729.30,436.13 730.35,435.26 731.41,434.38 732.47,433.51 733.52,432.64 734.58,431.76 735.64,430.89 736.69,430.02 737.75,429.14 738.81,428.27 739.87,427.40 740.93,426.52 741.99,425.65 743.05,424.78 744.11,423.91 745.18,423.04 746.25,422.17 747.32,421.30 748.39,420.43 749.47,419.56 750.55,418.69 751.63,417.83 752.72,416.96 753.81,416.09 754.91,415.23 756.01,414.37 757.11,413.50 758.22,412.64 759.33,411.78 760.45,410.93 761.57,410.07 762.70,409.21 763.84,408.36 764.98,407.51 766.13,406.65 767.28,405.80 768.44,404.96 769.61,404.11 770.78,403.27 771.96,402.42 773.14,401.58 774.32,400.74 775.51,399.90 776.70,399.06 777.90,398.22 779.09,397.38 780.29,396.54 781.49,395.70 782.69,394.87 783.89,394.03 785.09,393.19 786.29,392.35 787.48,391.52 788.68,390.68 789.87,389.84 791.06,389.00 792.25,388.16 793.44,387.32 794.62,386.47 795.79,385.63 796.97,384.78 798.13,383.94 799.29,383.09 800.45,382.24 801.60,381.39 802.74,380.54 803.87,379.68 805.00,378.83 806.12,377.97 807.23,377.11 808.34,376.25 809.43,375.38 810.51,374.51 811.59,373.65 812.66,372.77 813.71,371.90 814.76,371.03 815.78,370.15 816.79,369.26 817.78,368.37 818.75,367.48 819.69,366.58 820.59,365.68 821.46,364.77 822.30,363.85 823.09,362.92 823.83,361.99 824.52,361.05 825.15,360.10 825.71,359.15 826.20,358.18 826.60,357.21 826.92,356.23 827.14,355.25 827.24,354.27 827.23,353.28 827.09,352.30 826.82,351.32 826.43,350.34 825.92,349.38 825.30,348.43 824.57,347.50 823.75,346.58 822.85,345.67 821.86,344.78 820.81,343.91 819.69,343.05 818.51,342.21 817.29,341.38 816.02,340.56 814.70,339.75 813.35,338.96 811.97,338.18 810.56,337.40 809.13,336.64 807.67,335.88 806.20,335.13 804.71,334.39 803.20,333.65 801.68,332.92 800.15,332.19 798.62,331.46 797.08,330.74 795.53,330.02 793.98,329.30 792.43,328.57 790.88,327.85 789.34,327.13 787.80,326.41 786.27,325.68 784.74,324.95 783.21,324.22 781.69,323.49 780.17,322.75 778.66,322.02 777.15,321.28 775.63,320.55 774.12,319.81 772.61,319.08 771.10,318.34 769.59,317.60 768.07,316.87 766.56,316.14 765.04,315.40 763.51,314.67 761.98,313.94 760.44,313.22 758.90,312.49 757.35,311.77 755.79,311.06 754.23,310.34 752.65,309.63 751.07,308.93 749.47,308.23 747.86,307.53 746.23,306.84 744.60,306.16 742.95,305.48 741.28,304.81 739.60,304.15 737.90,303.50 736.18,302.85 734.44,302.22 732.69,301.59 730.91,300.98 729.11,300.38 727.30,299.78 725.46,299.21 723.60,298.64 721.71,298.09 719.80,297.56 717.87,297.04 715.92,296.54 713.95,296.05 711.95,295.58 709.92,295.13 707.88,294.71 705.82,294.30 703.73,293.91 701.62,293.54 699.49,293.20 697.35,292.88 695.18,292.58 693.00,292.31 690.81,292.06 688.60,291.83 686.38,291.62 684.15,291.44 681.91,291.28 679.67,291.14 677.41,291.03 675.15,290.93 672.89,290.86 670.62,290.81 668.36,290.79 666.09,290.78 663.82,290.80 661.55,290.83 659.28,290.90 657.02,290.98 654.77,291.09 652.52,291.22 650.28,291.38 648.05,291.56 645.83,291.76 643.62,291.99 641.42,292.23 639.24,292.50 637.07,292.79 634.91,293.10 632.77,293.43 630.65,293.78 628.54,294.14 626.45,294.53 624.37,294.93 622.32,295.34 620.27,295.77 618.25,296.22 616.24,296.68 614.25,297.15 612.27,297.63 610.31,298.13 608.36,298.64 606.43,299.15 604.51,299.68 602.61,300.22 600.72,300.76 598.84,301.32 596.98,301.88 595.12,302.45 593.28,303.02 591.45,303.61 589.62,304.19 587.81,304.79 586.00,305.38 584.21,305.99 582.42,306.59 580.63,307.20 578.86,307.82 577.09,308.43 575.32,309.05 573.56,309.67 571.80,310.30 570.04,310.92 568.29,311.55 566.54,312.18 564.78,312.80 563.03,313.43 561.28,314.06 559.53,314.69 557.78,315.31 556.02,315.94 554.26,316.56 552.50,317.18 550.74,317.80 548.97,318.42 547.19,319.03 545.41,319.64 543.62,320.25 541.82,320.85 540.02,321.45 538.21,322.04 536.39,322.63 534.55,323.21 532.71,323.79 530.86,324.36 528.99,324.92 527.12,325.47 525.22,326.02 523.32,326.56 521.41,327.08 519.48,327.60 517.54,328.12 515.59,328.62 513.63,329.12 511.66,329.61 509.68,330.09 507.70,330.57 505.70,331.04 503.70,331.50 501.69,331.96 499.68,332.41 497.65,332.86 495.63,333.30 493.59,333.74 491.56,334.17 489.51,334.60 487.47,335.03 485.42,335.46 483.37,335.88 481.31,336.29 479.26,336.71 477.20,337.13 475.14,337.54 473.08,337.95 471.02,338.37 468.96,338.78 466.89,339.19 464.83,339.60 462.77,340.02 460.72,340.43 458.66,340.85 456.60,341.27 454.55,341.69 452.50,342.11 450.46,342.54 448.41,342.97 446.38,343.40 444.34,343.84 442.31,344.28 440.29,344.72 438.27,345.17 436.26,345.63 434.25,346.09 432.25,346.55 430.26,347.03 428.27,347.50 426.30,347.99 424.33,348.48 422.37,348.98 420.42,349.48 418.48,349.99 416.55,350.51 414.63,351.03 412.72,351.57 410.82,352.11 408.93,352.66 407.06,353.21 405.19,353.77 403.34,354.34 401.51,354.92 399.68,355.51 397.87,356.11 396.08,356.71 394.29,357.32 392.51,357.93 390.75,358.55 388.98,359.17 387.22,359.79 385.46,360.41 383.70,361.03 381.93,361.65 380.16,362.27 378.38,362.88 376.59,363.49 374.79,364.09 372.97,364.68 371.13,365.26 369.27,365.83 367.40,366.38 365.49,366.92 363.56,367.43 361.60,367.93 359.60,368.40 357.57,368.84 355.51,369.25 353.40,369.62 351.26,369.95 349.08,370.23 346.87,370.45 344.64,370.62 342.38,370.72 340.11,370.75 337.84,370.71 335.59,370.59 333.36,370.41 331.16,370.16 329.00,369.86 326.89,369.50 324.81,369.10 322.79,368.66 320.80,368.18 318.87,367.66 316.98,367.12 315.13,366.54 313.33,365.94 311.57,365.32 309.85,364.68 308.17,364.02 306.52,363.33 304.92,362.64 303.35,361.92 301.82,361.19 300.33,360.45 298.87,359.70 297.45,358.93 296.06,358.15 294.70,357.36 293.38,356.55 292.09,355.74 290.84,354.92 289.62,354.09 288.43,353.25 287.28,352.40 286.17,351.54 285.08,350.67 284.04,349.79 283.03,348.91 282.06,348.02 281.13,347.12 280.23,346.21 279.38,345.30 278.58,344.37 277.81,343.44 277.10,342.51 276.43,341.57 275.81,340.62 275.25,339.66 274.75,338.70 274.31,337.73 273.94,336.76 273.65,335.78 273.42,334.80 273.29,333.81 273.25,332.82 273.30,331.84 273.47,330.85 273.76,329.87 274.18,328.91 274.74,327.95 275.46,327.01 276.34,326.10 277.40,325.23 278.62,324.40 279.99,323.61 281.50,322.88 283.13,322.19 284.85,321.55 286.66,320.95 288.54,320.40 290.47,319.88 292.45,319.40 294.47,318.95 296.52,318.52 298.59,318.13 300.69,317.75 302.80,317.39 304.93,317.05 307.07,316.72 309.22,316.41 311.38,316.10 313.55,315.81 315.72,315.52 317.89,315.24 320.07,314.96 322.25,314.68 324.43,314.41 326.61,314.13 328.78,313.86 330.96,313.58 333.13,313.30 335.31,313.01 337.47,312.72 339.63,312.42 341.78,312.10 343.93,311.78 346.06,311.45 348.19,311.10 350.30,310.75 352.41,310.38 354.50,310.00 356.59,309.62 358.67,309.22 360.74,308.81 362.79,308.40 364.84,307.97 366.88,307.54 368.91,307.10 370.94,306.66 372.95,306.20 374.96,305.74 376.96,305.28 378.95,304.81 380.94,304.33 382.92,303.85 384.90,303.37 386.87,302.88 388.84,302.39 390.81,301.90 392.77,301.40 394.73,300.91 396.69,300.41 398.65,299.91 400.61,299.42 402.58,298.92 404.54,298.43 406.51,297.94 408.48,297.45 410.46,296.97 412.45,296.49 414.44,296.02 416.43,295.55 418.44,295.09 420.45,294.63 422.48,294.19 424.51,293.75 426.56,293.32 428.61,292.91 430.68,292.50 432.75,292.10 434.84,291.71 436.93,291.33 439.04,290.96 441.15,290.60 443.27,290.25 445.40,289.91 447.54,289.58 449.69,289.26 451.84,288.95 454.00,288.65 456.16,288.35 458.34,288.07 460.52,287.79 462.70,287.53 464.89,287.27 467.08,287.02 469.28,286.77 471.48,286.54 473.69,286.31 475.90,286.08 478.11,285.87 480.33,285.66 482.55,285.46 484.78,285.26 487.00,285.07 489.23,284.88 491.46,284.70 493.69,284.53 495.93,284.36 498.16,284.19 500.40,284.02 502.64,283.86 504.88,283.70 507.12,283.55 509.36,283.39 511.60,283.24 513.84,283.08 516.08,282.93 518.32,282.78 520.56,282.63 522.81,282.48 525.05,282.33 527.29,282.18 529.53,282.02 531.77,281.87 534.01,281.72 536.25,281.56 538.49,281.40 540.73,281.24 542.97,281.07 545.20,280.91 547.44,280.74 549.67,280.57 551.90,280.39 554.14,280.21 556.36,280.02 558.59,279.83 560.81,279.64 563.03,279.43 565.25,279.23 567.47,279.01 569.68,278.79 571.88,278.56 574.09,278.32 576.28,278.07 578.47,277.82 580.66,277.55 582.83,277.27 585.00,276.97 587.15,276.67 589.30,276.34 591.43,276.00 593.54,275.65 595.64,275.27 597.71,274.87 599.76,274.44 601.77,273.99 603.75,273.51 605.69,272.99 607.56,272.43 609.37,271.84 611.09,271.19 612.71,270.50 614.20,269.76 615.53,268.96 616.67,268.11 617.59,267.20 618.28,266.26 618.71,265.29 618.88,264.31 618.82,263.32 618.55,262.35 618.09,261.38 617.48,260.43 616.77,259.49 615.96,258.57 615.07,257.66 614.13,256.76 613.14,255.88 612.11,255.00 611.04,254.13 609.95,253.26 608.84,252.40 607.71,251.54 606.58,250.69 605.43,249.84 604.28,248.99 603.13,248.14 601.99,247.28 600.85,246.43 599.72,245.57 598.60,244.72 597.48,243.86 596.37,243.00 595.27,242.14 594.16,241.27 593.06,240.41 591.97,239.55 590.87,238.68 589.76,237.82 588.66,236.96 587.55,236.10 586.44,235.24 585.32,234.38 584.19,233.52 583.05,232.67 581.90,231.82 580.73,230.97 579.55,230.13 578.36,229.29 577.14,228.46 575.91,227.63 574.66,226.81 573.39,225.99 572.09,225.18 570.77,224.38 569.42,223.58 568.05,222.80 566.65,222.02 565.23,221.25 563.77,220.49 562.29,219.75 560.77,219.01 559.23,218.29 557.66,217.58 556.06,216.88 554.43,216.19 552.77,215.52 551.09,214.86 549.38,214.21 547.65,213.57 545.90,212.94 544.14,212.32 542.35,211.71 540.55,211.11 538.74,210.52 536.91,209.93 535.07,209.35 533.22,208.78 531.36,208.22 529.48,207.66 527.60,207.11 525.72,206.56 523.82,206.02 521.92,205.48 520.01,204.95 518.10,204.41 516.18,203.89 514.26,203.36 512.34,202.84 510.41,202.32 508.48,201.80 506.55,201.28 504.62,200.76 502.69,200.25 500.75,199.73 498.82,199.21 496.89,198.70 494.96,198.18 493.03,197.66 491.10,197.14 489.18,196.62 487.25,196.09 485.34,195.56 483.43,195.03 481.52,194.50 479.62,193.96 477.73,193.41 475.84,192.87 473.96,192.31 472.09,191.75 470.23,191.19 468.38,190.62 466.55,190.04 464.72,189.45 462.91,188.86 461.12,188.25 459.34,187.64 457.58,187.01 455.84,186.38 454.13,185.74 452.43,185.08 450.76,184.41 449.12,183.73 447.51,183.03 445.94,182.32 444.39,181.60 442.89,180.86 441.43,180.11 440.01,179.34 438.65,178.55 437.34,177.74 436.08,176.92 434.88,176.08 433.75,175.23 432.69,174.35 431.71,173.46 430.80,172.56 429.97,171.64 429.23,170.71 428.58,169.76 428.01,168.81 427.54,167.84 427.16,166.87 426.87,165.89 426.67,164.91 426.56,163.92 426.54,162.93 426.58,161.95 426.61,160.96 426.62,159.97 426.55,158.99 426.37,158.00 426.08,157.03 425.69,156.05 425.21,155.09 424.64,154.14 423.99,153.19 423.26,152.26 422.46,151.33 421.60,150.42 420.68,149.52 419.70,148.63 418.67,147.75 417.60,146.88 416.48,146.02 415.32,145.17 414.13,144.34 412.89,143.51 411.63,142.69 410.33,141.88 409.01,141.08 407.66,140.29 406.28,139.50 404.88,138.72 403.46,137.96 402.02,137.19 400.56,136.44 399.08,135.69 397.58,134.95 396.06,134.22 394.53,133.49 392.98,132.77 391.42,132.05 389.84,131.34 388.26,130.64 386.66,129.94 385.04,129.25 383.42,128.56 381.78,127.87 380.14,127.19 378.48,126.52 376.82,125.85 375.14,125.18 373.46,124.52 371.77,123.86 370.07,123.21 368.36,122.56 366.65,121.91 364.92,121.27 363.19,120.63 361.46,120.00 359.71,119.37 357.96,118.74 356.21,118.11 354.45,117.49 352.68,116.87 350.91,116.26 349.13,115.65 347.34,115.04 345.56,114.43 343.76,113.82 341.96,113.22 340.16,112.62 338.35,112.03 336.54,111.43 334.72,110.84 332.90,110.25 331.08,109.67 329.25,109.08 327.42,108.50 325.58,107.92 323.74,107.34 321.90,106.77 320.05,106.20 318.20,105.62 316.35,105.05 314.49,104.49 312.63,103.92 310.77,103.36 308.91,102.80 307.04,102.24 305.17,101.68 303.29,101.12 301.42,100.57 299.54,100.01 297.66,99.46 295.77,98.91 293.89,98.36 292.00,97.82 290.11,97.27 288.22,96.73 286.32,96.18 284.43,95.64 282.53,95.10 280.63,94.56 278.73,94.02 276.83,93.49 274.92,92.95 273.01,92.41 271.11,91.88 269.20,91.35 267.29,90.81 265.38,90.28 263.47,89.75 261.55,89.22 259.64,88.69 257.73,88.16 255.81,87.63 253.90,87.10 251.99,86.57 250.08,86.04 248.16,85.51 246.25,84.97 244.35,84.44 242.44,83.90 240.54,83.36 238.65,82.82 236.76,82.27 234.89,81.71 233.04,81.15 231.22,80.56 229.48,79.93 228.68,79.18 230.91,79.24 233.11,79.48 235.29,79.76 237.45,80.06 239.60,80.37 241.74,80.69 243.88,81.02 246.02,81.36 248.15,81.69 250.29,82.02 252.43,82.35 254.59,82.65 256.77,82.93 258.99,83.13 261.23,83.05 261.16,82.14 259.82,81.35 258.28,80.62 256.65,79.93 254.97,79.27 253.26,78.62 251.51,77.99 249.75,77.37 247.97,76.76 246.17,76.16 244.37,75.56 242.55,74.97 240.71,74.39 238.87,73.81 237.02,73.24 235.17,72.67 233.30,72.11 231.43,71.56 229.54,71.00 227.66,70.46 225.76,69.92 223.85,69.38 221.94,68.85 220.02,68.32 218.10,67.80 216.16,67.28 214.22,66.78 212.27,66.27 210.31,65.77 208.34,65.28 206.36,64.80 204.37,64.33 202.36,63.87 200.35,63.41 198.32,62.97 196.27,62.55 194.20,62.14 192.12,61.75 190.00,61.39 187.86,61.07 185.69,60.78 183.49,60.54 181.26,60.34 179.02,60.18 176.77,60.07 174.50,60.01 172.23,60.00 169.96,60.06 167.72,60.20 165.51,60.44 163.37,60.77 161.34,61.21 159.42,61.74 157.64,62.35 156.01,63.04 154.53,63.79 153.21,64.59 152.06,65.44 151.08,66.33 150.28,67.26 149.65,68.21 149.20,69.17 148.86,70.15 148.57,71.13 148.25,72.10 147.83,73.07 147.20,74.02 146.24,74.91 144.84,75.68 143.11,76.31 141.18,76.83 139.14,77.26 137.05,77.64 134.93,77.99 132.80,78.33 130.67,78.67 128.57,79.04 126.50,79.45 124.50,79.91 122.59,80.45 120.81,81.06 119.18,81.75 117.71,82.50 116.40,83.31 115.26,84.16 114.29,85.05 113.50,85.98 112.90,86.93 112.50,87.90 112.30,88.89 112.32,89.87 112.57,90.86 113.03,91.82 113.68,92.77 114.51,93.69 115.49,94.58 116.60,95.44 117.83,96.27 119.17,97.07 120.59,97.84 122.09,98.58 123.65,99.29 125.28,99.98 126.96,100.64 128.69,101.28 130.47,101.89 132.29,102.49 134.14,103.06 136.02,103.61 137.94,104.14 139.87,104.65 141.83,105.15 143.81,105.63 145.80,106.11 147.79,106.58 149.80,107.04 151.81,107.50 153.82,107.96 155.82,108.42 157.82,108.88 159.81,109.36 161.79,109.84 163.75,110.34 165.69,110.85 167.61,111.37 169.51,111.91 171.39,112.46 173.25,113.03 175.10,113.60 176.93,114.18 178.75,114.77 180.55,115.37 182.34,115.98 184.12,116.59 185.89,117.21 187.65,117.83 189.41,118.45 191.16,119.08 192.91,119.71 194.65,120.34 196.39,120.98 198.12,121.61 199.85,122.25 201.57,122.90 203.28,123.54 204.98,124.20 206.67,124.85 208.36,125.51 210.03,126.18 211.69,126.85 213.34,127.53 214.97,128.22 216.59,128.91 218.19,129.61 219.78,130.31 221.34,131.03 222.89,131.75 224.42,132.48 225.93,133.21 227.41,133.96 228.87,134.71 230.31,135.48 231.72,136.25 233.11,137.03 234.47,137.82 235.81,138.62 237.13,139.42 238.44,140.22 239.74,141.03 241.02,141.85 242.29,142.66 243.56,143.48 244.82,144.30 246.09,145.12 247.35,145.94 248.62,146.76 249.89,147.58 251.17,148.39 252.46,149.20 253.77,150.01 255.09,150.81 256.43,151.61 257.79,152.40 259.17,153.18 260.58,153.95 262.02,154.72 263.48,155.47 264.98,156.21 266.51,156.94 268.07,157.66 269.67,158.36 271.30,159.04 272.98,159.71 274.69,160.35 276.44,160.98 278.23,161.59 280.06,162.17 281.92,162.73 283.82,163.27 285.73,163.80 287.64,164.33 289.54,164.87 291.42,165.43 293.24,166.02 295.00,166.64 296.66,167.31 298.19,168.05 299.54,168.84 300.68,169.69 301.66,170.59 302.56,171.49 303.46,172.40 304.45,173.28 305.60,174.13 306.95,174.92 308.49,175.64 310.16,176.31 311.93,176.93 313.76,177.51 315.64,178.06 317.55,178.59 319.47,179.12 321.40,179.64 323.31,180.17 325.20,180.72 327.04,181.29 328.81,181.91 330.46,182.59 331.91,183.35 333.04,184.21 333.71,185.15 333.82,186.14 333.43,187.11 332.80,188.06 332.19,189.01 331.85,189.98 332.00,190.96 332.67,191.90 333.79,192.75 335.23,193.51 336.87,194.19 338.64,194.80 340.50,195.37 342.42,195.89 344.38,196.39 346.36,196.87 348.35,197.35 350.34,197.81 352.33,198.29 354.31,198.77 356.27,199.27 358.20,199.79 360.08,200.34 361.89,200.94 363.61,201.58 365.19,202.29 366.59,203.07 367.77,203.92 368.73,204.81 369.45,205.75 369.96,206.71 370.26,207.69 370.38,208.68 370.34,209.67 370.16,210.65 369.87,211.63 369.48,212.60 368.99,213.57 368.44,214.52 367.82,215.47 367.14,216.42 366.42,217.35 365.64,218.28 364.77,219.19 363.78,220.08 362.61,220.93 361.19,221.70 359.42,222.32 357.28,222.66 355.01,222.62 352.81,222.38 350.65,222.07 348.50,221.76 346.30,221.54 344.05,221.54 341.94,221.87 340.08,222.42 338.40,223.08 336.78,223.78 335.15,224.46 333.41,225.10 331.54,225.66 329.56,226.15 327.52,226.58 325.45,226.98 323.36,227.36 321.27,227.75 319.21,228.16 317.22,228.63 315.34,229.18 313.68,229.84 312.35,230.63 311.45,231.53 310.92,232.49 310.41,233.45 309.47,234.35 307.68,234.96 305.49,235.22 303.22,235.32 300.95,235.33 298.68,235.33 296.42,235.36 294.17,235.47 291.97,235.69 289.84,236.02 287.80,236.45 285.86,236.96 284.00,237.52 282.22,238.13 280.48,238.76 278.75,239.40 277.04,240.05 275.33,240.70 273.61,241.34 271.89,241.99 270.15,242.62 268.38,243.24 266.59,243.85 264.77,244.43 262.91,245.00 261.00,245.54 259.05,246.04 257.05,246.51 255.00,246.93 252.89,247.30 250.74,247.61 248.54,247.86 246.30,248.04 244.04,248.14 241.78,248.19 239.51,248.23 237.26,248.34 235.07,248.58 233.03,249.00 231.16,249.55 229.46,250.20 227.88,250.91 226.38,251.65 224.92,252.40 223.47,253.16 221.98,253.91 220.41,254.62 218.71,255.28 216.83,255.83 214.74,256.22 212.53,256.44 210.26,256.50 207.99,256.43 205.76,256.26 203.56,256.01 201.40,255.70 199.28,255.35 197.18,254.97 195.11,254.57 193.06,254.15 191.02,253.72 188.98,253.28 186.94,252.85 184.90,252.42 182.84,252.01 180.77,251.60 178.69,251.21 176.60,250.83 174.51,250.45 172.41,250.07 170.32,249.69 168.23,249.31 166.15,248.91 164.08,248.50 162.04,248.07 160.01,247.63 158.01,247.16 156.04,246.68 154.08,246.18 152.15,245.66 150.24,245.12 148.36,244.57 146.51,244.00 144.68,243.42 142.88,242.82 141.10,242.20 139.35,241.58 137.63,240.93 135.93,240.28 134.26,239.61 132.62,238.93 131.00,238.24 129.41,237.53 127.85,236.82 126.31,236.09 124.80,235.36 123.31,234.61 121.84,233.86 120.40,233.10 118.99,232.33 117.59,231.55 116.22,230.76 114.87,229.97 113.55,229.17 112.24,228.36"/>
<circle cx="76.84" cy="140.98" r="4.00" fill="#2ca02c"/>
<circle cx="76.84" cy="140.98" r="4.00" fill="#2ca02c"/>
<circle cx="101.32" cy="259.08" r="4.00" fill="#2ca02c"/>
<circle cx="101.32" cy="259.08" r="4.00" fill="#2ca02c"/>
<circle cx="94.24" cy="360.04" r="4.00" fill="#2ca02c"/>
<circle cx="94.24" cy="360.04" r="4.00" fill="#2ca02c"/>
<circle cx="214.85" cy="589.23" r="4.00" fill="#2ca02c"/>
<circle cx="214.85" cy="589.23" r="4.00" fill="#2ca02c"/>
<circle cx="840.00" cy="351.95" r="4.00" fill="#2ca02c"/>
<circle cx="840.00" cy="351.95" r="4.00" fill="#2ca02c"/>
<circle cx="403.53" cy="161.54" r="4.00" fill="#2ca02c"/>
<circle cx="403.53" cy="161.54" r="4.00" fill="#2ca02c"/>
<text x="710.00" y="40.00" font-family="Arial, sans-serif" font-size="12" text-anchor="start" fill="#222">gray: track</text>
<text x="710.00" y="58.00" font-family="Arial, sans-serif" font-size="12" text-anchor="start" fill="#222">blue: baseline</text>
<text x="710.00" y="76.00" font-family="Arial, sans-serif" font-size="12" text-anchor="start" fill="#222">red: estimate</text>
<text x="710.00" y="94.00" font-family="Arial, sans-serif" font-size="12" text-anchor="start" fill="#222">green: transmitters</text>
</svg>