<svg xmlns="http://www.w3.org/2000/svg" width="980" height="460" viewBox="0 0 980 460">
<rect x="0" y="0" width="980" height="460" fill="white"/>
<text x="30.00" y="35.00" font-family="Arial, sans-serif" font-size="18" text-anchor="start" fill="#222">Arrival-time residuals by shot</text>
<line x1="55" y1="230.00" x2="925" y2="230.00" stroke="#666"/>
<line x1="100.00" y1="353.36" x2="100.00" y2="204.50" stroke="#333" stroke-width="1.2"/>
<rect x="86.00" y="217.98" width="28.00" height="31.12" fill="#f28e2b" opacity="0.8" stroke="#333"/>
<line x1="86.00" y1="236.41" x2="114.00" y2="236.41" stroke="#111" stroke-width="1.4"/>
<line x1="90.00" y1="353.36" x2="110.00" y2="353.36" stroke="#333" stroke-width="1.1"/>
<line x1="90.00" y1="204.50" x2="110.00" y2="204.50" stroke="#333" stroke-width="1.1"/>
<text x="100.00" y="442.00" font-family="Arial, sans-serif" font-size="12" text-anchor="middle" fill="#222">t11</text>
<line x1="170.91" y1="294.37" x2="170.91" y2="198.91" stroke="#333" stroke-width="1.2"/>
<rect x="156.91" y="215.83" width="28.00" height="29.59" fill="#f28e2b" opacity="0.8" stroke="#333"/>
<line x1="156.91" y1="233.93" x2="184.91" y2="233.93" stroke="#111" stroke-width="1.4"/>
<line x1="160.91" y1="294.37" x2="180.91" y2="294.37" stroke="#333" stroke-width="1.1"/>
<line x1="160.91" y1="198.91" x2="180.91" y2="198.91" stroke="#333" stroke-width="1.1"/>
<text x="170.91" y="442.00" font-family="Arial, sans-serif" font-size="12" text-anchor="middle" fill="#222">t12</text>
<line x1="241.82" y1="343.75" x2="241.82" y2="203.55" stroke="#333" stroke-width="1.2"/>
<rect x="227.82" y="218.87" width="28.00" height="28.75" fill="#f28e2b" opacity="0.8" stroke="#333"/>
<line x1="227.82" y1="234.87" x2="255.82" y2="234.87" stroke="#111" stroke-width="1.4"/>
<line x1="231.82" y1="343.75" x2="251.82" y2="343.75" stroke="#333" stroke-width="1.1"/>
<line x1="231.82" y1="203.55" x2="251.82" y2="203.55" stroke="#333" stroke-width="1.1"/>
<text x="241.82" y="442.00" font-family="Arial, sans-serif" font-size="12" text-anchor="middle" fill="#222">t21</text>
<line x1="312.73" y1="270.93" x2="312.73" y2="203.45" stroke="#333" stroke-width="1.2"/>
<rect x="298.73" y="217.85" width="28.00" height="27.81" fill="#f28e2b" opacity="0.8" stroke="#333"/>
<line x1="298.73" y1="233.83" x2="326.73" y2="233.83" stroke="#111" stroke-width="1.4"/>
<line x1="302.73" y1="270.93" x2="322.73" y2="270.93" stroke="#333" stroke-width="1.1"/>
<line x1="302.73" y1="203.45" x2="322.73" y2="203.45" stroke="#333" stroke-width="1.1"/>
<text x="312.73" y="442.00" font-family="Arial, sans-serif" font-size="12" text-anchor="middle" fill="#222">t22</text>
<line x1="383.64" y1="255.84" x2="383.64" y2="184.85" stroke="#333" stroke-width="1.2"/>
<rect x="369.64" y="201.04" width="28.00" height="48.53" fill="#f28e2b" opacity="0.8" stroke="#333"/>
<line x1="369.64" y1="232.38" x2="397.64" y2="232.38" stroke="#111" stroke-width="1.4"/>
<line x1="373.64" y1="255.84" x2="393.64" y2="255.84" stroke="#333" stroke-width="1.1"/>
<line x1="373.64" y1="184.85" x2="393.64" y2="184.85" stroke="#333" stroke-width="1.1"/>
<text x="383.64" y="442.00" font-family="Arial, sans-serif" font-size="12" text-anchor="middle" fill="#222">t31</text>
<line x1="454.55" y1="255.78" x2="454.55" y2="184.65" stroke="#333" stroke-width="1.2"/>
<rect x="440.55" y="201.11" width="28.00" height="48.52" fill="#f28e2b" opacity="0.8" stroke="#333"/>
<line x1="440.55" y1="231.62" x2="468.55" y2="231.62" stroke="#111" stroke-width="1.4"/>
<line x1="444.55" y1="255.78" x2="464.55" y2="255.78" stroke="#333" stroke-width="1.1"/>
<line x1="444.55" y1="184.65" x2="464.55" y2="184.65" stroke="#333" stroke-width="1.1"/>
<text x="454.55" y="442.00" font-family="Arial, sans-serif" font-size="12" text-anchor="middle" fill="#222">t32</text>
<line x1="525.45" y1="405.00" x2="525.45" y2="159.37" stroke="#333" stroke-width="1.2"/>
<rect x="511.45" y="191.73" width="28.00" height="115.11" fill="#f28e2b" opacity="0.8" stroke="#333"/>
<line x1="511.45" y1="234.69" x2="539.45" y2="234.69" stroke="#111" stroke-width="1.4"/>
<line x1="515.45" y1="405.00" x2="535.45" y2="405.00" stroke="#333" stroke-width="1.1"/>
<line x1="515.45" y1="159.37" x2="535.45" y2="159.37" stroke="#333" stroke-width="1.1"/>
<text x="525.45" y="442.00" font-family="Arial, sans-serif" font-size="12" text-anchor="middle" fill="#222">t41</text>
<line x1="596.36" y1="394.95" x2="596.36" y2="55.00" stroke="#333" stroke-width="1.2"/>
<rect x="582.36" y="175.57" width="28.00" height="88.68" fill="#f28e2b" opacity="0.8" stroke="#333"/>
<line x1="582.36" y1="227.91" x2="610.36" y2="227.91" stroke="#111" stroke-width="1.4"/>
<line x1="586.36" y1="394.95" x2="606.36" y2="394.95" stroke="#333" stroke-width="1.1"/>
<line x1="586.36" y1="55.00" x2="606.36" y2="55.00" stroke="#333" stroke-width="1.1"/>
<text x="596.36" y="442.00" font-family="Arial, sans-serif" font-size="12" text-anchor="middle" fill="#222">t42</text>
<line x1="667.27" y1="341.66" x2="667.27" y2="149.00" stroke="#333" stroke-width="1.2"/>
<rect x="653.27" y="210.13" width="28.00" height="55.91" fill="#f28e2b" opacity="0.8" stroke="#333"/>
<line x1="653.27" y1="233.16" x2="681.27" y2="233.16" stroke="#111" stroke-width="1.4"/>
<line x1="657.27" y1="341.66" x2="677.27" y2="341.66" stroke="#333" stroke-width="1.1"/>
<line x1="657.27" y1="149.00" x2="677.27" y2="149.00" stroke="#333" stroke-width="1.1"/>
<text x="667.27" y="442.00" font-family="Arial, sans-serif" font-size="12" text-anchor="middle" fill="#222">t51</text>
<line x1="738.18" y1="361.99" x2="738.18" y2="148.93" stroke="#333" stroke-width="1.2"/>
<rect x="724.18" y="201.58" width="28.00" height="57.13" fill="#f28e2b" opacity="0.8" stroke="#333"/>
<line x1="724.18" y1="226.23" x2="752.18" y2="226.23" stroke="#111" stroke-width="1.4"/>
<line x1="728.18" y1="361.99" x2="748.18" y2="361.99" stroke="#333" stroke-width="1.1"/>
<line x1="728.18" y1="148.93" x2="748.18" y2="148.93" stroke="#333" stroke-width="1.1"/>
<text x="738.18" y="442.00" font-family="Arial, sans-serif" font-size="12" text-anchor="middle" fill="#222">t52</text>
<line x1="809.09" y1="262.21" x2="809.09" y2="180.96" stroke="#333" stroke-width="1.2"/>
<rect x="795.09" y="201.03" width="28.00" height="42.05" fill="#f28e2b" opacity="0.8" stroke="#333"/>
<line x1="795.09" y1="231.93" x2="823.09" y2="231.93" stroke="#111" stroke-width="1.4"/>
<line x1="799.09" y1="262.21" x2="819.09" y2="262.21" stroke="#333" stroke-width="1.1"/>
<line x1="799.09" y1="180.96" x2="819.09" y2="180.96" stroke="#333" stroke-width="1.1"/>
<text x="809.09" y="442.00" font-family="Arial, sans-serif" font-size="12" text-anchor="middle" fill="#222">t61</text>
<line x1="880.00" y1="263.97" x2="880.00" y2="182.41" stroke="#333" stroke-width="1.2"/>
<rect x="866.00" y="203.71" width="28.00" height="40.69" fill="#f28e2b" opacity="0.8" stroke="#333"/>
<line x1="866.00" y1="232.82" x2="894.00" y2="232.82" stroke="#111" stroke-width="1.4"/>
<line x1="870.00" y1="263.97" x2="890.00" y2="263.97" stroke="#333" stroke-width="1.1"/>
<line x1="870.00" y1="182.41" x2="890.00" y2="182.41" stroke="#333" stroke-width="1.1"/>
<text x="880.00" y="442.00" font-family="Arial, sans-serif" font-size="12" text-anchor="middle" fill="#222">t62</text>
<text x="25.00" y="65.00" font-family="Arial, sans-serif" font-size="12" text-anchor="start" fill="#222">+/- 0.231 s</text>
</svg>