<svg xmlns="http://www.w3.org/2000/svg" width="900" height="450" viewBox="0 0 900 450">
<rect x="0" y="0" width="900" height="450" fill="white"/>
<text x="30.00" y="35.00" font-family="Arial, sans-serif" font-size="18" text-anchor="start" fill="#222">Adjacent spacing along the array</text>
<line x1="55" y1="395" x2="845" y2="395" stroke="#333"/>
<line x1="55" y1="55" x2="55" y2="395" stroke="#333"/>
<line x1="55.00" y1="395.00" x2="845.00" y2="395.00" stroke="#dddddd" stroke-dasharray="3,4"/>
<line x1="49.00" y1="395.00" x2="55.00" y2="395.00" stroke="#333"/>
<text x="45.00" y="399.00" font-family="Arial, sans-serif" font-size="11" text-anchor="end" fill="#222">0.990</text>
<line x1="55.00" y1="292.58" x2="845.00" y2="292.58" stroke="#dddddd" stroke-dasharray="3,4"/>
<line x1="49.00" y1="292.58" x2="55.00" y2="292.58" stroke="#333"/>
<text x="45.00" y="296.58" font-family="Arial, sans-serif" font-size="11" text-anchor="end" fill="#222">1.000</text>
<line x1="55.00" y1="87.50" x2="845.00" y2="87.50" stroke="#dddddd" stroke-dasharray="3,4"/>
<line x1="49.00" y1="87.50" x2="55.00" y2="87.50" stroke="#333"/>
<text x="45.00" y="91.50" font-family="Arial, sans-serif" font-size="11" text-anchor="end" fill="#222">1.020</text>
<line x1="55.00" y1="395.00" x2="55.00" y2="401.00" stroke="#333"/>
<text x="55.00" y="444.00" font-family="Arial, sans-serif" font-size="11" text-anchor="middle" fill="#222">1</text>
<line x1="259.89" y1="395.00" x2="259.89" y2="401.00" stroke="#333"/>
<text x="259.89" y="444.00" font-family="Arial, sans-serif" font-size="11" text-anchor="middle" fill="#222">500</text>
<line x1="465.19" y1="395.00" x2="465.19" y2="401.00" stroke="#333"/>
<text x="465.19" y="444.00" font-family="Arial, sans-serif" font-size="11" text-anchor="middle" fill="#222">1000</text>
<line x1="670.49" y1="395.00" x2="670.49" y2="401.00" stroke="#333"/>
<text x="670.49" y="444.00" font-family="Arial, sans-serif" font-size="11" text-anchor="middle" fill="#222">1500</text>
<line x1="845.00" y1="395.00" x2="845.00" y2="401.00" stroke="#333"/>
<text x="845.00" y="444.00" font-family="Arial, sans-serif" font-size="11" text-anchor="middle" fill="#222">1925</text>
<line x1="55.00" y1="292.58" x2="845.00" y2="292.58" stroke="#2ca02c" stroke-width="2" stroke-dasharray="6,4"/>
<text x="880.00" y="71.00" font-family="Arial, sans-serif" font-size="12" text-anchor="end" fill="#222">nominal</text>
<line x1="55.00" y1="74.44" x2="845.00" y2="74.44" stroke="#d62728" stroke-width="2" stroke-dasharray="6,4"/>
<text x="880.00" y="89.00" font-family="Arial, sans-serif" font-size="12" text-anchor="end" fill="#222">limit</text>
<polyline fill="none" stroke="#4e79a7" stroke-width="1.4" stroke-opacity="1.0" points="55.00,87.62 55.41,87.67 55.82,87.61 56.23,87.60 56.64,87.59 57.05,87.58 57.46,87.53 57.87,87.55 58.28,87.52 58.70,87.55 59.11,87.51 59.52,87.53 59.93,87.44 60.34,87.53 60.75,87.47 61.16,87.50 61.57,87.47 61.98,87.49 62.39,87.47 62.80,87.49 63.21,87.52 63.62,87.50 64.03,87.60 64.44,87.60 64.85,87.59 65.27,87.70 65.68,87.71 66.09,87.63 66.50,87.77 66.91,87.76 67.32,87.68 67.73,87.75 68.14,87.76 68.55,87.85 68.96,87.70 69.37,87.79 69.78,87.70 70.19,87.83 70.60,87.70 71.01,87.76 71.42,87.75 71.83,87.60 72.25,87.81 72.66,87.60 73.07,87.65 73.48,87.60 73.89,87.53 74.30,87.62 74.71,87.53 75.12,87.48 75.53,87.48 75.94,87.44 76.35,87.37 76.76,87.24 77.17,87.31 77.58,87.30 77.99,87.14 78.40,87.18 78.81,87.04 79.23,87.12 79.64,87.04 80.05,86.89 80.46,86.82 80.87,86.93 81.28,86.81 81.69,86.69 82.10,86.65 82.51,86.59 82.92,86.58 83.33,86.44 83.74,86.41 84.15,86.36 84.56,86.38 84.97,86.27 85.38,86.11 85.80,86.17 86.21,85.98 86.62,85.99 87.03,86.03 87.44,85.97 87.85,86.15 88.26,86.14 88.67,86.18 89.08,86.12 89.49,86.33 89.90,86.35 90.31,86.31 90.72,86.39 91.13,86.56 91.54,86.56 91.95,86.68 92.36,86.57 92.78,86.89 93.19,86.69 93.60,86.89 94.01,86.98 94.42,86.85 94.83,87.11 95.24,87.10 95.65,87.13 96.06,87.21 96.47,87.38 96.88,87.34 97.29,87.45 97.70,87.51 98.11,87.57 98.52,87.63 98.93,87.67 99.35,87.82 99.76,87.83 100.17,87.94 100.58,87.75 100.99,88.05 101.40,88.14 101.81,88.16 102.22,88.04 102.63,88.35 103.04,88.36 103.45,88.45 103.86,88.29 104.27,88.57 104.68,88.39 105.09,88.69 105.50,88.70 105.91,88.69 106.33,88.82 106.74,88.81 107.15,88.97 107.56,88.82 107.97,89.01 108.38,88.97 108.79,88.74 109.20,88.76 109.61,88.72 110.02,88.69 110.43,88.43 110.84,88.44 111.25,88.52 111.66,88.25 112.07,88.46 112.48,88.12 112.90,88.19 113.31,88.12 113.72,88.06 114.13,87.95 114.54,87.90 114.95,87.95 115.36,87.85 115.77,87.87 116.18,87.58 116.59,87.89 117.00,87.54 117.41,87.66 117.82,87.55 118.23,87.68 118.64,87.39 119.05,87.64 119.46,87.38 119.88,87.53 120.29,87.40 120.70,87.45 121.11,87.41 121.52,87.52 121.93,87.32 122.34,87.39 122.75,87.41 123.16,87.43 123.57,87.49 123.98,87.49 124.39,87.36 124.80,87.58 125.21,87.55 125.62,87.50 126.03,87.71 126.44,87.52 126.86,87.79 127.27,87.58 127.68,87.86 128.09,87.86 128.50,87.99 128.91,87.92 129.32,88.04 129.73,88.18 130.14,88.21 130.55,88.37 130.96,88.46 131.37,88.43 131.78,88.53 132.19,88.63 132.60,88.84 133.01,88.83 133.43,88.86 133.84,89.11 134.25,89.02 134.66,89.16 135.07,89.20 135.48,88.89 135.89,88.87 136.30,88.45 136.71,88.32 137.12,88.21 137.53,87.86 137.94,87.67 138.35,87.39 138.76,87.06 139.17,86.91 139.58,86.42 139.99,86.30 140.41,85.85 140.82,85.52 141.23,85.14 141.64,84.83 142.05,84.40 142.46,83.85 142.87,83.61 143.28,83.11 143.69,82.98 144.10,82.35 144.51,82.36 144.92,82.87 145.33,83.00 145.74,83.36 146.15,83.73 146.56,83.99 146.98,84.41 147.39,84.71 147.80,85.08 148.21,85.19 148.62,85.68 149.03,86.29 149.44,86.28 149.85,86.19 150.26,86.87 150.67,87.31 151.08,87.36 151.49,87.58 151.90,88.12 152.31,88.33 152.72,88.06 153.13,88.64 153.54,88.71 153.96,88.37 154.37,88.35 154.78,88.15 155.19,88.49 155.60,88.23 156.01,88.05 156.42,88.07 156.83,87.99 157.24,87.59 157.65,88.13 158.06,87.80 158.47,87.21 158.88,87.93 159.29,87.45 159.70,87.62 160.11,87.46 160.52,87.55 160.94,87.47 161.35,87.48 161.76,87.44 162.17,87.24 162.58,87.35 162.99,87.62 163.40,87.22 163.81,87.22 164.22,87.68 164.63,87.47 165.04,87.55 165.45,87.36 165.86,87.56 166.27,87.56 166.68,87.90 167.09,87.50 167.51,88.25 167.92,87.66 168.33,87.85 168.74,88.18 169.15,87.91 169.56,87.63 169.97,88.08 170.38,87.90 170.79,87.89 171.20,88.13 171.61,87.79 172.02,87.92 172.43,87.61 172.84,88.22 173.25,87.82 173.66,87.77 174.07,87.35 174.49,87.84 174.90,87.35 175.31,87.65 175.72,87.47 176.13,87.34 176.54,87.16 176.95,87.42 177.36,87.11 177.77,87.00 178.18,86.91 178.59,87.00 179.00,86.77 179.41,86.65 179.82,86.72 180.23,86.45 180.64,86.53 181.06,86.42 181.47,86.45 181.88,86.08 182.29,85.96 182.70,86.13 183.11,86.02 183.52,86.00 183.93,85.50 184.34,86.18 184.75,86.31 185.16,86.68 185.57,87.05 185.98,87.19 186.39,88.11 186.80,88.09 187.21,88.54 187.62,88.75 188.04,89.49 188.45,89.70 188.86,90.00 189.27,90.85 189.68,91.43 190.09,91.55 190.50,92.39 190.91,92.58 191.32,93.52 191.73,93.80 192.14,94.00 192.55,94.84 192.96,94.64 193.37,95.00 193.78,94.82 194.19,93.19 194.60,91.59 195.02,89.62 195.43,88.50 195.84,87.38 196.25,86.70 196.66,85.73 197.07,85.20 197.48,85.44 197.89,86.72 198.30,89.15 198.71,89.85 199.12,89.44 199.53,88.99 199.94,88.02 200.35,86.92 200.76,86.91 201.17,86.71 201.59,86.54 202.00,86.82 202.41,86.91 202.82,86.73 203.23,86.84 203.64,86.97 204.05,87.25 204.46,87.04 204.87,87.26 205.28,87.17 205.69,87.22 206.10,87.08 206.51,87.25 206.92,87.35 207.33,87.42 207.74,87.28 208.15,87.20 208.57,87.43 208.98,87.21 209.39,87.28 209.80,87.25 210.21,87.18 210.62,87.26 211.03,87.19 211.44,87.19 211.85,87.07 212.26,87.07 212.67,87.00 213.08,87.08 213.49,86.95 213.90,86.85 214.31,86.92 214.72,86.85 215.14,86.87 215.55,86.74 215.96,86.69 216.37,86.64 216.78,86.62 217.19,86.63 217.60,86.51 218.01,86.54 218.42,86.47 218.83,86.40 219.24,86.47 219.65,86.37 220.06,86.45 220.47,86.32 220.88,86.42 221.29,86.30 221.70,86.38 222.12,86.26 222.53,86.49 222.94,86.40 223.35,86.24 223.76,86.44 224.17,86.44 224.58,86.48 224.99,86.40 225.40,86.55 225.81,86.58 226.22,86.65 226.63,86.58 227.04,86.80 227.45,86.67 227.86,86.88 228.27,86.74 228.69,86.97 229.10,87.03 229.51,86.91 229.92,87.14 230.33,87.14 230.74,87.28 231.15,87.22 231.56,87.45 231.97,87.31 232.38,87.53 232.79,87.35 233.20,87.55 233.61,87.17 234.02,87.43 234.43,87.30 234.84,87.32 235.25,87.38 235.67,87.49 236.08,87.28 236.49,87.42 236.90,87.25 237.31,87.28 237.72,87.26 238.13,87.42 238.54,87.28 238.95,87.40 239.36,87.54 239.77,87.20 240.18,87.29 240.59,87.33 241.00,87.37 241.41,87.04 241.82,87.60 242.23,87.19 242.65,87.32 243.06,87.27 243.47,87.42 243.88,87.37 244.29,87.38 244.70,87.32 245.11,87.18 245.52,87.52 245.93,87.33 246.34,87.35 246.75,87.52 247.16,87.46 247.57,87.23 247.98,87.50 248.39,87.46 248.80,87.29 249.22,87.49 249.63,87.60 250.04,87.57 250.45,87.38 250.86,87.59 251.27,87.51 251.68,87.62 252.09,87.63 252.50,87.81 252.91,87.56 253.32,87.72 253.73,87.74 254.14,87.68 254.55,87.75 254.96,87.99 255.37,87.60 255.78,87.84 256.20,87.93 256.61,87.90 257.02,87.94 257.43,87.82 257.84,88.07 258.25,88.06 258.66,88.18 259.07,87.79 259.48,88.30 259.89,88.06 260.30,88.27 260.71,88.03 261.12,88.28 261.53,88.00 261.94,88.15 262.35,87.94 262.77,88.18 263.18,87.59 263.59,88.11 264.00,87.63 264.41,87.85 264.82,87.42 265.23,87.69 265.64,87.59 266.05,87.47 266.46,87.24 266.87,87.20 267.28,87.27 267.69,87.26 268.10,86.84 268.51,87.02 268.92,86.78 269.33,86.88 269.75,86.62 270.16,86.62 270.57,86.78 270.98,86.56 271.39,86.23 271.80,86.52 272.21,86.41 272.62,86.75 273.03,86.76 273.44,86.68 273.85,86.93 274.26,86.86 274.67,86.92 275.08,87.14 275.49,87.09 275.90,87.28 276.31,87.26 276.73,87.28 277.14,87.38 277.55,87.32 277.96,87.58 278.37,87.35 278.78,87.43 279.19,87.82 279.60,87.48 280.01,87.70 280.42,87.76 280.83,87.57 281.24,87.82 281.65,87.63 282.06,87.82 282.47,87.65 282.88,87.85 283.30,87.84 283.71,87.80 284.12,87.80 284.53,87.65 284.94,88.02 285.35,87.33 285.76,87.84 286.17,87.66 286.58,87.66 286.99,87.49 287.40,87.70 287.81,87.44 288.22,87.37 288.63,87.56 289.04,87.35 289.45,87.39 289.86,86.98 290.28,87.33 290.69,87.16 291.10,87.10 291.51,86.90 291.92,87.02 292.33,86.67 292.74,86.99 293.15,86.90 293.56,86.63 293.97,86.49 294.38,86.96 294.79,86.81 295.20,86.56 295.61,86.48 296.02,86.89 296.43,86.75 296.85,86.78 297.26,86.63 297.67,86.57 298.08,86.68 298.49,86.81 298.90,86.73 299.31,86.62 299.72,87.04 300.13,86.50 300.54,87.02 300.95,86.59 301.36,86.81 301.77,86.99 302.18,86.54 302.59,86.83 303.00,87.02 303.41,86.97 303.83,86.66 304.24,87.16 304.65,86.94 305.06,86.82 305.47,86.83 305.88,87.27 306.29,86.77 306.70,87.37 307.11,87.10 307.52,87.08 307.93,87.15 308.34,86.92 308.75,87.21 309.16,87.35 309.57,87.20 309.98,87.10 310.40,87.44 310.81,87.17 311.22,87.27 311.63,87.51 312.04,87.19 312.45,87.45 312.86,87.31 313.27,87.50 313.68,87.27 314.09,87.39 314.50,87.55 314.91,87.48 315.32,87.20 315.73,87.70 316.14,87.71 316.55,87.22 316.96,87.53 317.38,87.52 317.79,87.72 318.20,87.61 318.61,87.59 319.02,87.55 319.43,87.59 319.84,87.63 320.25,87.76 320.66,87.59 321.07,87.67 321.48,87.88 321.89,87.49 322.30,87.93 322.71,87.64 323.12,87.74 323.53,87.98 323.94,87.74 324.36,87.92 324.77,87.93 325.18,87.91 325.59,87.85 326.00,87.76 326.41,88.05 326.82,87.88 327.23,87.80 327.64,88.10 328.05,87.77 328.46,88.38 328.87,87.92 329.28,87.96 329.69,88.20 330.10,88.07 330.51,87.85 330.93,88.08 331.34,88.21 331.75,88.22 332.16,88.10 332.57,88.40 332.98,87.97 333.39,88.23 333.80,88.20 334.21,88.09 334.62,88.24 335.03,88.17 335.44,88.21 335.85,88.02 336.26,88.03 336.67,87.96 337.08,88.11 337.49,88.03 337.91,87.83 338.32,88.00 338.73,87.51 339.14,88.03 339.55,87.88 339.96,87.55 340.37,87.79 340.78,87.95 341.19,87.45 341.60,87.99 342.01,87.54 342.42,87.46 342.83,87.78 343.24,87.67 343.65,87.45 344.06,87.72 344.48,87.53 344.89,87.59 345.30,87.38 345.71,87.64 346.12,87.41 346.53,87.65 346.94,87.60 347.35,87.39 347.76,87.78 348.17,87.48 348.58,87.25 348.99,87.80 349.40,87.48 349.81,87.59 350.22,87.23 350.63,87.68 351.04,87.66 351.46,87.53 351.87,87.23 352.28,87.43 352.69,87.33 353.10,87.30 353.51,87.22 353.92,87.37 354.33,87.22 354.74,87.30 355.15,87.06 355.56,87.11 355.97,87.29 356.38,87.07 356.79,87.00 357.20,87.11 357.61,87.07 358.02,86.90 358.44,87.21 358.85,87.01 359.26,87.25 359.67,87.01 360.08,87.15 360.49,86.98 360.90,86.98 361.31,86.86 361.72,86.84 362.13,87.00 362.54,86.82 362.95,86.85 363.36,86.81 363.77,86.91 364.18,86.89 364.59,86.90 365.01,86.90 365.42,86.90 365.83,86.92 366.24,87.20 366.65,87.17 367.06,87.05 367.47,87.24 367.88,87.15 368.29,87.40 368.70,87.43 369.11,87.36 369.52,87.42 369.93,87.37 370.34,87.75 370.75,87.56 371.16,87.67 371.57,87.95 371.99,87.75 372.40,87.90 372.81,87.76 373.22,88.13 373.63,88.05 374.04,87.89 374.45,88.01 374.86,87.63 375.27,88.06 375.68,87.82 376.09,87.74 376.50,87.87 376.91,87.84 377.32,87.54 377.73,87.65 378.14,87.57 378.56,87.70 378.97,87.76 379.38,87.25 379.79,87.52 380.20,87.58 380.61,87.38 381.02,87.47 381.43,87.12 381.84,87.52 382.25,87.07 382.66,87.35 383.07,87.07 383.48,87.13 383.89,87.03 384.30,87.00 384.71,86.98 385.12,86.77 385.54,86.93 385.95,86.82 386.36,86.62 386.77,86.81 387.18,86.46 387.59,86.59 388.00,86.35 388.41,86.79 388.82,86.37 389.23,86.19 389.64,86.11 390.05,86.23 390.46,86.22 390.87,86.12 391.28,85.93 391.69,85.78 392.10,85.76 392.52,86.02 392.93,85.65 393.34,85.98 393.75,85.71 394.16,85.40 394.57,85.75 394.98,85.42 395.39,85.32 395.80,85.79 396.21,85.33 396.62,85.61 397.03,85.58 397.44,85.41 397.85,85.51 398.26,85.58 398.67,85.24 399.09,85.89 399.50,85.46 399.91,85.24 400.32,85.49 400.73,85.50 401.14,85.10 401.55,85.31 401.96,85.17 402.37,84.92 402.78,84.98 403.19,84.96 403.60,85.28 404.01,85.05 404.42,84.92 404.83,85.04 405.24,84.95 405.65,85.03 406.07,85.14 406.48,85.15 406.89,85.29 407.30,85.24 407.71,85.35 408.12,85.20 408.53,85.48 408.94,85.52 409.35,85.44 409.76,85.71 410.17,85.66 410.58,85.75 410.99,85.83 411.40,85.83 411.81,85.96 412.22,86.00 412.64,86.23 413.05,86.14 413.46,86.26 413.87,86.26 414.28,86.43 414.69,86.54 415.10,86.47 415.51,86.63 415.92,86.81 416.33,86.82 416.74,86.76 417.15,86.99 417.56,86.95 417.97,87.19 418.38,87.04 418.79,87.24 419.20,87.29 419.62,87.36 420.03,87.51 420.44,87.54 420.85,87.60 421.26,87.64 421.67,87.80 422.08,87.90 422.49,87.82 422.90,87.94 423.31,88.06 423.72,88.03 424.13,88.21 424.54,88.37 424.95,88.45 425.36,88.36 425.77,88.53 426.19,88.58 426.60,88.63 427.01,88.74 427.42,88.85 427.83,88.96 428.24,89.04 428.65,89.05 429.06,89.05 429.47,89.39 429.88,89.32 430.29,89.20 430.70,89.38 431.11,89.25 431.52,89.13 431.93,89.10 432.34,89.15 432.75,88.95 433.17,88.98 433.58,88.84 433.99,88.75 434.40,88.76 434.81,88.53 435.22,88.62 435.63,88.41 436.04,88.53 436.45,88.22 436.86,88.44 437.27,88.29 437.68,88.04 438.09,88.22 438.50,88.13 438.91,87.86 439.32,88.03 439.73,87.83 440.15,88.05 440.56,87.81 440.97,87.69 441.38,87.83 441.79,87.84 442.20,87.63 442.61,87.83 443.02,87.73 443.43,87.62 443.84,87.60 444.25,87.78 444.66,87.59 445.07,87.63 445.48,87.71 445.89,87.80 446.30,87.78 446.72,87.75 447.13,87.81 447.54,87.76 447.95,87.82 448.36,87.94 448.77,87.93 449.18,87.87 449.59,88.05 450.00,88.27 450.41,88.06 450.82,88.12 451.23,88.26 451.64,88.16 452.05,88.43 452.46,88.28 452.87,88.52 453.28,88.33 453.70,88.67 454.11,88.67 454.52,88.63 454.93,88.59 455.34,88.80 455.75,88.62 456.16,88.90 456.57,88.89 456.98,88.78 457.39,88.60 457.80,88.31 458.21,88.22 458.62,88.19 459.03,87.82 459.44,87.74 459.85,87.55 460.27,87.35 460.68,87.19 461.09,86.97 461.50,86.61 461.91,86.69 462.32,86.27 462.73,86.28 463.14,85.80 463.55,85.84 463.96,85.43 464.37,85.12 464.78,84.88 465.19,84.71 465.60,84.31 466.01,84.14 466.42,83.93 466.83,83.73 467.25,83.54 467.66,83.41 468.07,83.48 468.48,83.37 468.89,83.59 469.30,83.68 469.71,84.00 470.12,84.27 470.53,84.65 470.94,84.97 471.35,85.32 471.76,85.42 472.17,85.82 472.58,86.01 472.99,86.29 473.40,86.46 473.81,86.60 474.23,86.67 474.64,86.91 475.05,87.01 475.46,87.13 475.87,87.14 476.28,87.37 476.69,87.33 477.10,87.50 477.51,87.55 477.92,87.56 478.33,87.60 478.74,87.73 479.15,87.69 479.56,87.78 479.97,87.92 480.38,87.60 480.80,88.01 481.21,87.91 481.62,87.94 482.03,87.93 482.44,87.92 482.85,87.99 483.26,88.04 483.67,88.05 484.08,88.10 484.49,87.92 484.90,88.12 485.31,88.23 485.72,88.04 486.13,88.22 486.54,88.11 486.95,88.09 487.36,88.19 487.78,88.13 488.19,88.25 488.60,88.13 489.01,88.32 489.42,88.12 489.83,88.27 490.24,88.48 490.65,88.38 491.06,88.38 491.47,88.48 491.88,88.72 492.29,88.70 492.70,88.88 493.11,89.18 493.52,89.10 493.93,88.87 494.35,88.53 494.76,88.13 495.17,87.67 495.58,87.34 495.99,87.15 496.40,86.99 496.81,86.87 497.22,86.76 497.63,86.77 498.04,86.73 498.45,86.80 498.86,86.71 499.27,86.95 499.68,86.83 500.09,87.06 500.50,87.11 500.91,87.08 501.33,87.28 501.74,87.29 502.15,87.38 502.56,87.48 502.97,87.57 503.38,87.68 503.79,87.84 504.20,87.95 504.61,88.01 505.02,88.13 505.43,88.30 505.84,88.41 506.25,88.62 506.66,88.81 507.07,88.88 507.48,88.88 507.90,88.89 508.31,88.80 508.72,88.93 509.13,88.78 509.54,88.76 509.95,88.71 510.36,88.73 510.77,88.71 511.18,88.67 511.59,88.68 512.00,88.55 512.41,88.50 512.82,88.41 513.23,88.42 513.64,88.32 514.05,88.45 514.46,88.22 514.88,88.07 515.29,88.18 515.70,88.16 516.11,87.89 516.52,88.17 516.93,87.82 517.34,87.82 517.75,87.82 518.16,87.72 518.57,87.64 518.98,87.65 519.39,87.53 519.80,87.58 520.21,87.43 520.62,87.50 521.03,87.20 521.44,87.42 521.86,87.25 522.27,87.34 522.68,87.05 523.09,87.21 523.50,87.24 523.91,87.11 524.32,87.28 524.73,87.16 525.14,87.30 525.55,87.18 525.96,87.44 526.37,87.28 526.78,87.36 527.19,87.30 527.60,87.51 528.01,87.47 528.43,87.48 528.84,87.65 529.25,87.58 529.66,87.43 530.07,87.68 530.48,87.70 530.89,87.70 531.30,87.59 531.71,87.72 532.12,87.81 532.53,87.85 532.94,87.66 533.35,87.79 533.76,88.02 534.17,87.66 534.58,87.95 534.99,87.92 535.41,87.79 535.82,88.06 536.23,87.65 536.64,88.07 537.05,87.86 537.46,87.95 537.87,87.86 538.28,87.85 538.69,87.70 539.10,87.92 539.51,87.83 539.92,87.93 540.33,87.64 540.74,87.78 541.15,87.71 541.56,87.95 541.98,87.61 542.39,87.72 542.80,87.69 543.21,87.71 543.62,87.86 544.03,87.54 544.44,87.67 544.85,87.60 545.26,87.46 545.67,87.66 546.08,87.44 546.49,87.61 546.90,87.39 547.31,87.50 547.72,87.50 548.13,87.36 548.54,87.40 548.96,87.39 549.37,87.46 549.78,87.34 550.19,87.10 550.60,87.34 551.01,87.18 551.42,87.22 551.83,86.98 552.24,87.11 552.65,87.04 553.06,87.00 553.47,87.11 553.88,86.80 554.29,87.01 554.70,86.78 555.11,86.60 555.52,86.79 555.94,86.66 556.35,86.41 556.76,86.56 557.17,86.48 557.58,86.44 557.99,86.55 558.40,86.50 558.81,86.44 559.22,86.97 559.63,87.18 560.04,87.69 560.45,88.17 560.86,88.66 561.27,89.11 561.68,89.08 562.09,88.92 562.51,88.56 562.92,88.09 563.33,87.53 563.74,87.25 564.15,87.13 564.56,87.12 564.97,87.10 565.38,87.25 565.79,87.23 566.20,87.30 566.61,87.35 567.02,87.44 567.43,87.48 567.84,87.55 568.25,87.57 568.66,87.74 569.07,87.67 569.49,87.82 569.90,87.85 570.31,87.93 570.72,87.92 571.13,87.88 571.54,87.87 571.95,88.00 572.36,87.77 572.77,87.77 573.18,87.88 573.59,87.77 574.00,87.65 574.41,87.72 574.82,87.68 575.23,87.53 575.64,87.62 576.06,87.42 576.47,87.52 576.88,87.37 577.29,87.35 577.70,87.23 578.11,87.21 578.52,87.11 578.93,87.10 579.34,86.89 579.75,86.90 580.16,86.79 580.57,86.80 580.98,86.67 581.39,86.52 581.80,86.50 582.21,86.56 582.62,86.31 583.04,86.34 583.45,86.12 583.86,86.26 584.27,86.13 584.68,86.03 585.09,86.09 585.50,86.16 585.91,86.05 586.32,86.25 586.73,86.28 587.14,86.30 587.55,86.47 587.96,86.48 588.37,86.70 588.78,86.55 589.19,86.84 589.60,86.77 590.02,87.00 590.43,86.92 590.84,87.01 591.25,87.11 591.66,87.17 592.07,87.10 592.48,87.34 592.89,87.36 593.30,87.31 593.71,87.42 594.12,87.42 594.53,87.51 594.94,87.52 595.35,87.63 595.76,87.63 596.17,87.71 596.59,87.75 597.00,87.65 597.41,87.81 597.82,87.72 598.23,87.88 598.64,87.74 599.05,87.82 599.46,87.92 599.87,87.87 600.28,87.86 600.69,87.96 601.10,87.81 601.51,87.82 601.92,87.88 602.33,88.00 602.74,87.74 603.15,87.87 603.57,87.78 603.98,87.93 604.39,87.69 604.80,87.83 605.21,87.66 605.62,87.79 606.03,87.69 606.44,87.55 606.85,87.51 607.26,87.55 607.67,87.49 608.08,87.31 608.49,87.41 608.90,87.16 609.31,87.12 609.72,86.94 610.14,86.95 610.55,86.81 610.96,86.74 611.37,86.54 611.78,86.55 612.19,86.21 612.60,86.18 613.01,86.04 613.42,85.92 613.83,85.74 614.24,85.56 614.65,85.56 615.06,85.35 615.47,85.24 615.88,85.15 616.29,85.02 616.70,84.94 617.12,84.89 617.53,84.86 617.94,84.81 618.35,84.76 618.76,85.18 619.17,86.60 619.58,88.40 619.99,90.43 620.40,92.66 620.81,93.64 621.22,93.29 621.63,92.93 622.04,92.66 622.45,92.27 622.86,92.01 623.27,91.76 623.69,91.38 624.10,91.19 624.51,90.86 624.92,90.78 625.33,90.46 625.74,90.28 626.15,90.17 626.56,89.97 626.97,89.84 627.38,89.68 627.79,89.59 628.20,89.37 628.61,89.34 629.02,89.23 629.43,89.14 629.84,89.06 630.25,88.91 630.67,88.84 631.08,88.83 631.49,88.78 631.90,88.65 632.31,88.66 632.72,88.57 633.13,88.46 633.54,88.48 633.95,88.47 634.36,88.25 634.77,88.45 635.18,88.22 635.59,88.21 636.00,88.23 636.41,88.14 636.82,88.11 637.23,88.23 637.65,87.99 638.06,88.10 638.47,88.02 638.88,87.93 639.29,88.05 639.70,87.84 640.11,87.98 640.52,87.92 640.93,87.93 641.34,87.82 641.75,87.92 642.16,87.76 642.57,87.84 642.98,87.85 643.39,87.82 643.80,87.75 644.22,87.75 644.63,87.81 645.04,87.67 645.45,87.80 645.86,87.65 646.27,87.73 646.68,87.69 647.09,87.73 647.50,87.70 647.91,87.60 648.32,87.75 648.73,87.66 649.14,87.64 649.55,87.63 649.96,87.65 650.37,87.66 650.78,87.73 651.20,87.59 651.61,87.65 652.02,87.58 652.43,87.63 652.84,87.64 653.25,87.62 653.66,87.60 654.07,87.65 654.48,87.58 654.89,87.67 655.30,87.64 655.71,87.60 656.12,87.66 656.53,87.57 656.94,87.64 657.35,87.65 657.77,87.62 658.18,87.64 658.59,87.65 659.00,87.58 659.41,87.69 659.82,87.66 660.23,87.60 660.64,87.71 661.05,87.62 661.46,87.67 661.87,87.70 662.28,87.72 662.69,87.64 663.10,87.73 663.51,87.74 663.92,87.67 664.33,87.75 664.75,87.76 665.16,87.80 665.57,87.86 665.98,87.89 666.39,87.82 666.80,87.99 667.21,87.99 667.62,88.17 668.03,88.38 668.44,88.56 668.85,88.86 669.26,89.78 669.67,91.77 670.08,100.69 670.49,395.00 670.90,232.51 671.31,96.57 671.73,91.23 672.14,89.72 672.55,89.04 672.96,88.62 673.37,88.47 673.78,88.12 674.19,87.52 674.60,87.08 675.01,86.34 675.42,85.43 675.83,83.57 676.24,80.43 676.65,191.36 677.06,395.00 677.47,80.68 677.88,81.54 678.30,83.77 678.71,84.81 679.12,85.49 679.53,85.98 679.94,86.13 680.35,86.40 680.76,86.65 681.17,86.62 681.58,86.82 681.99,86.67 682.40,86.95 682.81,86.95 683.22,86.88 683.63,87.02 684.04,87.04 684.45,86.86 684.86,86.96 685.28,87.02 685.69,86.96 686.10,86.80 686.51,87.07 686.92,86.79 687.33,86.90 687.74,86.69 688.15,86.77 688.56,86.63 688.97,86.53 689.38,86.39 689.79,86.41 690.20,86.14 690.61,85.90 691.02,85.67 691.43,85.29 691.85,84.88 692.26,84.03 692.67,83.43 693.08,82.75 693.49,82.18 693.90,82.04 694.31,82.14 694.72,82.37 695.13,81.92 695.54,81.19 695.95,80.41 696.36,79.51 696.77,78.72 697.18,78.01 697.59,77.42 698.00,77.51 698.41,77.95 698.83,78.29 699.24,78.73 699.65,78.99 700.06,79.26 700.47,79.56 700.88,79.50 701.29,79.85 701.70,79.97 702.11,81.36 702.52,83.90 702.93,86.89 703.34,91.23 703.75,98.05 704.16,109.50 704.57,129.82 704.98,137.45 705.40,121.78 705.81,107.97 706.22,99.17 706.63,93.78 707.04,90.31 707.45,87.99 707.86,86.04 708.27,84.60 708.68,83.36 709.09,82.42 709.50,81.86 709.91,81.80 710.32,82.05 710.73,82.23 711.14,82.30 711.55,82.45 711.96,82.58 712.38,82.64 712.79,82.67 713.20,82.66 713.61,82.70 714.02,82.72 714.43,82.59 714.84,82.89 715.25,82.93 715.66,83.13 716.07,83.37 716.48,83.53 716.89,83.76 717.30,84.04 717.71,84.34 718.12,84.48 718.53,84.63 718.94,84.86 719.36,85.01 719.77,85.03 720.18,85.17 720.59,85.25 721.00,85.43 721.41,85.49 721.82,85.73 722.23,85.92 722.64,86.14 723.05,86.39 723.46,86.62 723.87,86.91 724.28,87.26 724.69,87.50 725.10,87.89 725.51,88.24 725.93,88.63 726.34,89.01 726.75,89.41 727.16,89.83 727.57,90.09 727.98,89.94 728.39,89.79 728.80,89.71 729.21,89.45 729.62,89.42 730.03,89.23 730.44,89.14 730.85,88.95 731.26,88.86 731.67,88.67 732.08,88.61 732.49,88.47 732.91,88.25 733.32,88.17 733.73,88.14 734.14,88.11 734.55,88.23 734.96,88.24 735.37,88.33 735.78,88.46 736.19,88.45 736.60,88.50 737.01,88.59 737.42,88.64 737.83,88.63 738.24,88.78 738.65,88.73 739.06,88.82 739.48,88.83 739.89,88.91 740.30,88.89 740.71,88.92 741.12,89.00 741.53,88.92 741.94,88.99 742.35,88.97 742.76,88.90 743.17,88.97 743.58,88.86 743.99,88.79 744.40,88.55 744.81,88.37 745.22,88.35 745.63,88.15 746.04,88.07 746.46,87.95 746.87,87.88 747.28,87.76 747.69,87.83 748.10,87.74 748.51,87.75 748.92,87.77 749.33,87.73 749.74,87.78 750.15,87.88 750.56,87.89 750.97,87.99 751.38,88.12 751.79,88.21 752.20,88.37 752.61,88.49 753.02,88.65 753.44,88.82 753.85,89.06 754.26,89.20 754.67,89.44 755.08,89.72 755.49,89.92 755.90,90.19 756.31,90.39 756.72,90.67 757.13,90.80 757.54,91.10 757.95,91.13 758.36,89.89 758.77,88.50 759.18,87.22 759.59,85.81 760.01,84.52 760.42,83.00 760.83,81.51 761.24,80.03 761.65,78.62 762.06,77.40 762.47,77.47 762.88,80.62 763.29,85.44 763.70,91.42 764.11,98.64 764.52,106.70 764.93,111.94 765.34,106.78 765.75,101.86 766.16,98.14 766.57,95.10 766.99,92.77 767.40,90.74 767.81,88.91 768.22,87.17 768.63,85.44 769.04,83.34 769.45,81.12 769.86,78.25 770.27,75.04 770.68,71.99 771.09,70.66 771.50,71.66 771.91,71.77 772.32,71.01 772.73,80.95 773.14,99.55 773.56,135.45 773.97,152.81 774.38,151.97 774.79,138.06 775.20,122.51 775.61,110.92 776.02,103.40 776.43,98.32 776.84,95.01 777.25,92.50 777.66,90.71 778.07,89.06 778.48,87.74 778.89,86.46 779.30,85.20 779.71,83.89 780.12,82.29 780.54,80.79 780.95,78.68 781.36,76.37 781.77,74.08 782.18,72.82 782.59,72.53 783.00,72.65 783.41,73.15 783.82,73.94 784.23,74.99 784.64,76.18 785.05,77.36 785.46,78.53 785.87,79.54 786.28,80.52 786.69,81.33 787.10,82.09 787.52,82.76 787.93,83.39 788.34,83.50 788.75,81.66 789.16,79.01 789.57,75.68 789.98,71.07 790.39,65.76 790.80,64.43 791.21,74.72 791.62,66.16 792.03,67.78 792.44,81.51 792.85,98.08 793.26,127.36 793.67,197.42 794.09,204.74 794.50,143.64 794.91,108.88 795.32,91.02 795.73,79.71 796.14,71.38 796.55,70.58 796.96,73.87 797.37,77.67 797.78,81.63 798.19,86.10 798.60,91.68 799.01,98.65 799.42,108.54 799.83,122.53 800.24,140.88 800.65,156.67 801.07,158.36 801.48,115.83 801.89,73.22 802.30,63.00 802.71,84.59 803.12,57.05 803.53,66.70 803.94,78.78 804.35,89.27 804.76,101.30 805.17,117.34 805.58,120.79 805.99,119.22 806.40,115.16 806.81,109.57 807.22,103.60 807.64,97.89 808.05,92.95 808.46,89.54 808.87,88.56 809.28,87.57 809.69,86.75 810.10,85.81 810.51,84.95 810.92,84.11 811.33,83.26 811.74,82.39 812.15,81.40 812.56,80.52 812.97,79.57 813.38,78.56 813.79,77.65 814.20,76.73 814.62,76.05 815.03,75.41 815.44,75.02 815.85,75.09 816.26,81.54 816.67,94.11 817.08,111.54 817.49,137.21 817.90,137.46 818.31,122.34 818.72,110.07 819.13,101.32 819.54,95.08 819.95,90.23 820.36,86.28 820.77,82.45 821.19,78.54 821.60,74.92 822.01,72.25 822.42,72.63 822.83,73.09 823.24,74.02 823.65,75.69 824.06,77.67 824.47,79.64 824.88,81.30 825.29,82.81 825.70,83.96 826.11,84.97 826.52,85.89 826.93,86.64 827.34,87.49 827.75,88.27 828.17,89.09 828.58,89.57 828.99,89.33 829.40,88.96 829.81,88.59 830.22,88.18 830.63,87.77 831.04,87.33 831.45,86.93 831.86,86.59 832.27,86.22 832.68,86.10 833.09,86.16 833.50,86.20 833.91,86.24 834.32,86.32 834.73,86.34 835.15,86.40 835.56,86.43 835.97,86.48 836.38,86.49 836.79,86.55 837.20,86.57 837.61,86.57 838.02,86.62 838.43,86.62 838.84,86.61 839.25,86.69 839.66,86.64 840.07,86.63 840.48,86.68 840.89,86.66 841.30,86.64 841.72,86.65 842.13,86.61 842.54,86.62 842.95,86.59 843.36,86.58 843.77,86.57 844.18,86.53 844.59,86.51 845.00,86.50"/>
<text x="450.00" y="422.00" font-family="Arial, sans-serif" font-size="13" text-anchor="middle" fill="#222">Adjacent edge index</text>
<text x="20.00" y="225.00" font-family="Arial, sans-serif" font-size="13" text-anchor="start" fill="#222">Distance (m)</text>
<text x="880.00" y="38.00" font-family="Arial, sans-serif" font-size="11" text-anchor="end" fill="#222">min=0.8545  median=1.0200  max=1.0230</text>
<text x="880.00" y="56.00" font-family="Arial, sans-serif" font-size="11" text-anchor="end" fill="#222">display range [0.990, 1.023] m; 2 below, 0 above</text>
</svg>