<svg xmlns="http://www.w3.org/2000/svg" width="900" height="650" viewBox="0 0 900 650">
<rect x="0" y="0" width="900" height="650" fill="white"/>
<text x="30.00" y="35.00" font-family="Arial, sans-serif" font-size="18" text-anchor="start" fill="#222">Track, transmitters, and estimated array</text>
<polyline fill="none" stroke="#9aa0a6" stroke-width="2.0" stroke-opacity="1.0" points="70.81,206.24 73.23,235.57 75.65,264.90 85.35,321.46 133.84,367.54 194.44,426.20 228.38,442.96 235.66,463.91 240.50,495.33 230.81,538.27 228.38,561.32 216.26,569.70 262.32,587.50 376.26,579.12 504.75,539.32 548.39,520.47 642.94,491.14 703.55,456.57 766.58,406.30 812.64,372.78 827.18,352.88 788.39,326.69 691.42,292.13 655.06,291.08 526.57,325.65 398.08,356.02 337.48,370.69 276.87,325.65 342.33,312.03 422.33,294.23 490.21,284.80 618.69,262.80 601.72,247.09 555.66,216.72 426.57,163.63 426.57,159.00 244.44,81.09 257.84,83.02 194.45,62.19 180.16,60.26 164.09,60.65 149.81,67.98 146.24,74.92 123.03,80.32 112.31,89.58 128.38,101.15 164.09,110.40 191.77,119.28 231.05,135.86 281.05,162.48 299.80,169.03 306.05,174.43 333.72,186.39 331.94,189.48 364.97,202.21 366.75,216.86 356.93,222.65 344.43,221.49 333.72,224.96 311.40,231.52 309.62,234.22 295.33,235.38 280.16,238.85 244.44,248.11 235.52,248.49 216.77,255.82 184.63,252.35 164.09,248.49 60.00,179.26"/>
<polyline fill="none" stroke="#4e79a7" stroke-width="1.5" stroke-opacity="0.9" points="75.07,254.54 75.15,255.50 75.22,256.47 75.29,257.44 75.35,258.41 75.41,259.38 75.46,260.35 75.51,261.32 75.56,262.30 75.60,263.27 75.63,264.25 75.66,265.22 75.69,266.20 75.70,267.18 75.72,268.16 75.73,269.14 75.73,270.12 75.73,271.10 75.73,272.08 75.73,273.06 75.73,274.05 75.72,275.03 75.72,276.01 75.71,277.00 75.71,277.98 75.71,278.97 75.71,279.95 75.71,280.94 75.72,281.92 75.72,282.90 75.74,283.89 75.75,284.87 75.78,285.85 75.80,286.83 75.84,287.82 75.88,288.80 75.93,289.78 75.98,290.75 76.05,291.73 76.12,292.71 76.21,293.69 76.30,294.66 76.40,295.64 76.52,296.61 76.64,297.58 76.78,298.55 76.93,299.52 77.10,300.48 77.28,301.45 77.47,302.41 77.68,303.37 77.90,304.33 78.14,305.29 78.39,306.25 78.67,307.20 78.96,308.15 79.26,309.10 79.59,310.05 79.94,310.99 80.30,311.93 80.69,312.87 81.10,313.81 81.53,314.74 81.98,315.67 82.45,316.60 82.95,317.52 83.47,318.45 84.01,319.36 84.58,320.28 85.17,321.19 85.79,322.10 86.44,323.01 87.11,323.91 87.80,324.81 88.52,325.71 89.25,326.60 90.01,327.49 90.79,328.38 91.59,329.27 92.41,330.15 93.25,331.03 94.10,331.91 94.97,332.79 95.86,333.67 96.76,334.54 97.68,335.42 98.61,336.29 99.55,337.16 100.50,338.03 101.46,338.90 102.44,339.76 103.42,340.63 104.41,341.50 105.41,342.36 106.42,343.23 107.43,344.09 108.45,344.96 109.47,345.82 110.49,346.69 111.52,347.56 112.55,348.42 113.59,349.29 114.62,350.16 115.65,351.02 116.68,351.89 117.71,352.76 118.73,353.63 119.76,354.51 120.77,355.38 121.79,356.26 122.79,357.13 123.79,358.01 124.79,358.89 125.77,359.78 126.74,360.66 127.71,361.55 128.66,362.44 129.61,363.33 130.54,364.23 131.45,365.12 132.35,366.02 133.24,366.93 134.11,367.84 134.97,368.75 135.81,369.66 136.64,370.57 137.45,371.49 138.25,372.42 139.04,373.34 139.82,374.26 140.58,375.19 141.34,376.12 142.09,377.05 142.83,377.99 143.56,378.92 144.29,379.85 145.01,380.79 145.73,381.73 146.44,382.66 147.15,383.60 147.85,384.54 148.56,385.47 149.26,386.41 149.96,387.35 150.67,388.28 151.37,389.22 152.08,390.15 152.79,391.08 153.50,392.02 154.22,392.95 154.95,393.87 155.68,394.80 156.41,395.72 157.16,396.65 157.91,397.57 158.67,398.48 159.45,399.40 160.23,400.31 161.03,401.22 161.83,402.12 162.65,403.02 163.49,403.92 164.34,404.81 165.20,405.70 166.09,406.59 166.98,407.47 167.90,408.35 168.84,409.22 169.79,410.09 170.77,410.95 171.76,411.80 172.78,412.65 173.82,413.50 174.89,414.34 175.98,415.17 177.09,416.00 178.23,416.82 179.40,417.63 180.59,418.44 181.81,419.24 183.07,420.03 184.35,420.82 185.66,421.59 187.00,422.36 188.38,423.12 189.78,423.88 191.23,424.62 192.70,425.36 194.21,426.09 195.76,426.81 197.34,427.52 198.94,428.23 200.57,428.93 202.21,429.62 203.86,430.32 205.52,431.01 207.17,431.70 208.82,432.39 210.45,433.08 212.07,433.78 213.67,434.47 215.24,435.18 216.77,435.89 218.26,436.61 219.72,437.33 221.12,438.07 222.46,438.82 223.74,439.58 224.96,440.35 226.11,441.14 227.18,441.94 228.16,442.76 229.06,443.60 229.88,444.46 230.61,445.33 231.27,446.22 231.86,447.12 232.38,448.04 232.83,448.97 233.24,449.91 233.59,450.86 233.89,451.83 234.15,452.80 234.38,453.77 234.57,454.76 234.73,455.75 234.87,456.75 235.00,457.75 235.11,458.75 235.21,459.75 235.31,460.76 235.41,461.77 235.52,462.77 235.64,463.77 235.77,464.77 235.92,465.77 236.09,466.76 236.26,467.75 236.45,468.74 236.65,469.73 236.85,470.71 237.06,471.69 237.28,472.67 237.50,473.64 237.73,474.61 237.95,475.58 238.18,476.55 238.40,477.52 238.62,478.48 238.84,479.45 239.05,480.41 239.25,481.37 239.45,482.32 239.63,483.28 239.81,484.24 239.97,485.19 240.11,486.14 240.24,487.09 240.36,488.04 240.45,488.99 240.53,489.94 240.58,490.89 240.61,491.84 240.62,492.79 240.60,493.73 240.55,494.68 240.48,495.63 240.37,496.57 240.24,497.52 240.09,498.46 239.91,499.41 239.70,500.36 239.48,501.30 239.23,502.25 238.97,503.19 238.69,504.14 238.40,505.09 238.09,506.04 237.78,506.99 237.45,507.93 237.11,508.88 236.77,509.83 236.42,510.79 236.06,511.74 235.71,512.69 235.35,513.64 234.99,514.60 234.64,515.55 234.29,516.51 233.95,517.47 233.61,518.43 233.28,519.39 232.96,520.35 232.66,521.32 232.36,522.28 232.09,523.25 231.82,524.22 231.58,525.19 231.36,526.16 231.15,527.13 230.97,528.11 230.82,529.09 230.69,530.07 230.58,531.05 230.51,532.03 230.47,533.02 230.45,534.01 230.48,535.00 230.53,535.99 230.63,536.99 230.76,537.98 230.93,538.99 231.14,539.99 231.37,540.99 231.63,542.00 231.89,543.00 232.16,544.01 232.42,545.01 232.67,546.01 232.90,547.01 233.10,548.00 233.26,549.00 233.38,549.98 233.45,550.96 233.46,551.94 233.40,552.91 233.27,553.87 233.05,554.82 232.74,555.76 232.33,556.70 231.82,557.62 231.19,558.53 230.43,559.44 229.55,560.33 228.53,561.20 227.36,562.06 226.09,562.92 224.73,563.75 223.35,564.58 221.97,565.40 220.63,566.21 219.37,567.02 218.23,567.82 217.26,568.61 216.49,569.41 215.95,570.20 215.66,570.99 215.61,571.77 215.78,572.55 216.17,573.33 216.77,574.10 217.57,574.86 218.55,575.62 219.71,576.36 221.04,577.10 222.52,577.82 224.16,578.54 225.93,579.24 227.82,579.92 229.84,580.59 231.96,581.25 234.18,581.88 236.48,582.50 238.87,583.10 241.32,583.68 243.82,584.24 246.38,584.78 248.97,585.29 251.59,585.78 254.22,586.24 256.87,586.68 259.51,587.09 262.14,587.48 264.74,587.83 267.33,588.15 269.89,588.45 272.42,588.72 274.94,588.96 277.44,589.18 279.91,589.37 282.36,589.53 284.80,589.67 287.21,589.78 289.60,589.87 291.98,589.94 294.33,589.98 296.67,590.00 298.99,590.00 301.30,589.97 303.58,589.93 305.85,589.87 308.11,589.78 310.34,589.68 312.57,589.55 314.77,589.41 316.97,589.25 319.15,589.07 321.31,588.88 323.47,588.67 325.61,588.44 327.74,588.20 329.85,587.94 331.96,587.67 334.05,587.39 336.13,587.09 338.21,586.78 340.27,586.46 342.33,586.12 344.37,585.78 346.41,585.42 348.44,585.05 350.46,584.68 352.47,584.29 354.48,583.90 356.48,583.49 358.47,583.08 360.46,582.67 362.44,582.24 364.42,581.81 366.39,581.38 368.36,580.94 370.33,580.49 372.30,580.04 374.26,579.59 376.21,579.13 378.17,578.68 380.13,578.22 382.08,577.75 384.03,577.29 385.98,576.82 387.92,576.35 389.87,575.87 391.81,575.40 393.75,574.92 395.68,574.44 397.62,573.95 399.55,573.47 401.47,572.98 403.40,572.49 405.32,571.99 407.24,571.49 409.15,570.99 411.06,570.49 412.97,569.98 414.87,569.48 416.77,568.96 418.67,568.45 420.56,567.93 422.45,567.41 424.33,566.89 426.21,566.36 428.09,565.83 429.96,565.30 431.83,564.76 433.69,564.23 435.54,563.68 437.40,563.14 439.24,562.59 441.09,562.04 442.92,561.49 444.75,560.93 446.58,560.37 448.40,559.81 450.22,559.24 452.03,558.67 453.83,558.10 455.63,557.52 457.42,556.94 459.21,556.36 460.99,555.77 462.77,555.18 464.53,554.59 466.30,553.99 468.05,553.39 469.80,552.79 471.54,552.18 473.28,551.57 475.01,550.96 476.73,550.34 478.44,549.72 480.15,549.09 481.85,548.47 483.54,547.83 485.23,547.20 486.91,546.56 488.58,545.92 490.24,545.27 491.89,544.62 493.54,543.97 495.18,543.31 496.81,542.65 498.43,541.98 500.05,541.31 501.65,540.64 503.25,539.96 504.84,539.28 506.42,538.60 507.99,537.91 509.56,537.22 511.12,536.53 512.67,535.83 514.22,535.13 515.77,534.44 517.31,533.74 518.86,533.04 520.40,532.34 521.94,531.64 523.49,530.94 525.03,530.24 526.58,529.54 528.13,528.85 529.69,528.16 531.25,527.47 532.82,526.79 534.40,526.10 535.99,525.43 537.58,524.76 539.18,524.09 540.80,523.43 542.43,522.77 544.07,522.12 545.72,521.48 547.39,520.84 549.07,520.22 550.77,519.60 552.48,518.98 554.21,518.38 555.95,517.78 557.70,517.19 559.47,516.60 561.25,516.02 563.04,515.45 564.84,514.88 566.65,514.31 568.47,513.75 570.30,513.20 572.13,512.65 573.98,512.10 575.83,511.56 577.68,511.01 579.54,510.48 581.41,509.94 583.28,509.41 585.16,508.88 587.03,508.35 588.91,507.82 590.79,507.29 592.68,506.76 594.56,506.24 596.44,505.71 598.33,505.18 600.21,504.66 602.08,504.13 603.96,503.60 605.83,503.07 607.70,502.53 609.56,502.00 611.42,501.46 613.28,500.92 615.12,500.38 616.96,499.83 618.79,499.28 620.61,498.73 622.43,498.17 624.23,497.60 626.02,497.04 627.81,496.46 629.58,495.88 631.34,495.30 633.08,494.71 634.82,494.11 636.53,493.51 638.24,492.90 639.93,492.28 641.60,491.65 643.25,491.02 644.89,490.37 646.51,489.72 648.12,489.06 649.71,488.40 651.28,487.72 652.84,487.04 654.38,486.35 655.91,485.66 657.42,484.96 658.91,484.25 660.39,483.53 661.86,482.81 663.31,482.08 664.75,481.34 666.18,480.60 667.59,479.86 668.99,479.10 670.37,478.34 671.75,477.58 673.11,476.81 674.46,476.04 675.79,475.26 677.12,474.48 678.43,473.69 679.74,472.90 681.03,472.10 682.31,471.30 683.58,470.49 684.84,469.68 686.09,468.87 687.33,468.05 688.57,467.24 689.79,466.41 691.00,465.59 692.21,464.76 693.40,463.93 694.59,463.09 695.77,462.26 696.95,461.42 698.11,460.58 699.27,459.74 700.42,458.89 701.57,458.05 702.71,457.20 703.84,456.35 704.96,455.50 706.09,454.65 707.20,453.80 708.31,452.95 709.42,452.10 710.52,451.24 711.61,450.39 712.70,449.53 713.79,448.68 714.87,447.82 715.95,446.96 717.02,446.10 718.09,445.24 719.16,444.38 720.22,443.52 721.28,442.67 722.34,441.81 723.39,440.95 724.45,440.09 725.50,439.22 726.54,438.36 727.59,437.50 728.63,436.64 729.68,435.78 730.72,434.92 731.76,434.07 732.80,433.21 733.83,432.35 734.87,431.49 735.91,430.63 736.95,429.77 737.98,428.92 739.02,428.06 740.06,427.21 741.10,426.35 742.13,425.50 743.17,424.65 744.21,423.80 745.26,422.95 746.30,422.10 747.34,421.25 748.39,420.40 749.44,419.56 750.49,418.71 751.54,417.87 752.60,417.03 753.66,416.19 754.72,415.35 755.79,414.51 756.85,413.68 757.93,412.84 759.00,412.01 760.08,411.18 761.16,410.35 762.25,409.53 763.35,408.70 764.44,407.88 765.54,407.06 766.65,406.24 767.76,405.43 768.88,404.61 770.00,403.80 771.13,402.99 772.26,402.18 773.39,401.38 774.53,400.57 775.67,399.76 776.82,398.96 777.96,398.15 779.11,397.35 780.27,396.54 781.42,395.74 782.57,394.93 783.73,394.12 784.89,393.31 786.05,392.50 787.21,391.69 788.37,390.88 789.53,390.07 790.69,389.25 791.85,388.43 793.00,387.61 794.16,386.79 795.32,385.96 796.47,385.13 797.62,384.29 798.77,383.46 799.92,382.62 801.07,381.77 802.21,380.92 803.35,380.07 804.48,379.21 805.62,378.34 806.74,377.48 807.87,376.60 808.99,375.72 810.10,374.84 811.21,373.94 812.31,373.05 813.41,372.14 814.50,371.23 815.58,370.32 816.63,369.40 817.67,368.47 818.67,367.54 819.64,366.61 820.58,365.68 821.47,364.75 822.32,363.81 823.12,362.88 823.86,361.94 824.54,361.01 825.16,360.08 825.70,359.15 826.17,358.22 826.56,357.30 826.87,356.38 827.09,355.47 827.22,354.57 827.24,353.67 827.17,352.77 826.99,351.89 826.71,351.01 826.32,350.14 825.85,349.28 825.28,348.42 824.62,347.57 823.88,346.72 823.06,345.88 822.16,345.05 821.18,344.22 820.14,343.40 819.03,342.58 817.86,341.77 816.63,340.96 815.34,340.15 814.00,339.35 812.62,338.55 811.19,337.75 809.72,336.96 808.21,336.16 806.66,335.37 805.09,334.59 803.49,333.80 801.87,333.02 800.23,332.23 798.58,331.45 796.91,330.67 795.23,329.89 793.55,329.10 791.87,328.32 790.20,327.54 788.52,326.76 786.86,325.97 785.21,325.18 783.57,324.40 781.93,323.61 780.31,322.83 778.69,322.04 777.07,321.26 775.47,320.47 773.86,319.69 772.27,318.92 770.67,318.14 769.08,317.37 767.49,316.60 765.91,315.83 764.32,315.07 762.74,314.31 761.15,313.56 759.57,312.82 757.98,312.08 756.39,311.34 754.80,310.61 753.21,309.89 751.61,309.18 750.01,308.47 748.40,307.77 746.79,307.08 745.17,306.40 743.54,305.73 741.90,305.07 740.26,304.42 738.60,303.78 736.94,303.15 735.27,302.53 733.58,301.92 731.89,301.32 730.18,300.74 728.45,300.17 726.72,299.61 724.97,299.06 723.20,298.53 721.42,298.02 719.62,297.51 717.81,297.03 715.97,296.56 714.12,296.10 712.25,295.66 710.36,295.24 708.45,294.83 706.52,294.44 704.57,294.07 702.59,293.72 700.60,293.38 698.57,293.07 696.53,292.77 694.46,292.49 692.36,292.24 690.24,292.00 688.09,291.79 685.92,291.59 683.73,291.42 681.53,291.26 679.31,291.13 677.07,291.02 674.83,290.93 672.58,290.86 670.33,290.82 668.08,290.79 665.83,290.79 663.58,290.81 661.34,290.85 659.11,290.91 656.89,291.00 654.68,291.10 652.49,291.23 650.32,291.38 648.17,291.56 646.03,291.75 643.90,291.96 641.80,292.20 639.70,292.45 637.62,292.72 635.56,293.02 633.50,293.32 631.47,293.65 629.44,294.00 627.43,294.36 625.43,294.73 623.44,295.12 621.46,295.53 619.50,295.95 617.54,296.39 615.60,296.84 613.67,297.30 611.74,297.78 609.83,298.27 607.92,298.77 606.03,299.28 604.14,299.80 602.26,300.33 600.39,300.88 598.52,301.43 596.67,301.99 594.82,302.56 592.97,303.14 591.14,303.72 589.30,304.31 587.48,304.91 585.66,305.52 583.84,306.13 582.03,306.74 580.22,307.36 578.42,307.99 576.61,308.62 574.82,309.25 573.02,309.88 571.23,310.52 569.44,311.16 567.65,311.80 565.86,312.44 564.07,313.08 562.28,313.72 560.49,314.36 558.71,315.00 556.92,315.64 555.13,316.27 553.34,316.91 551.55,317.54 549.76,318.16 547.96,318.79 546.16,319.40 544.36,320.02 542.56,320.63 540.75,321.23 538.94,321.82 537.12,322.41 535.30,323.00 533.47,323.57 531.64,324.14 529.80,324.69 527.96,325.24 526.11,325.78 524.25,326.31 522.39,326.83 520.52,327.34 518.65,327.84 516.76,328.33 514.88,328.82 512.98,329.29 511.09,329.76 509.18,330.23 507.27,330.68 505.36,331.13 503.44,331.57 501.52,332.01 499.59,332.44 497.66,332.87 495.72,333.29 493.78,333.71 491.83,334.13 489.89,334.54 487.93,334.94 485.98,335.35 484.02,335.75 482.06,336.15 480.09,336.55 478.13,336.95 476.16,337.34 474.18,337.74 472.21,338.13 470.23,338.53 468.25,338.92 466.27,339.32 464.29,339.71 462.31,340.11 460.32,340.51 458.34,340.91 456.35,341.32 454.36,341.73 452.38,342.14 450.39,342.55 448.40,342.97 446.41,343.39 444.42,343.82 442.43,344.25 440.44,344.69 438.45,345.13 436.47,345.58 434.48,346.03 432.50,346.49 430.51,346.96 428.53,347.44 426.55,347.92 424.57,348.41 422.59,348.91 420.61,349.42 418.64,349.94 416.67,350.47 414.70,351.01 412.73,351.55 410.77,352.11 408.81,352.68 406.85,353.26 404.89,353.85 402.94,354.46 400.99,355.07 399.05,355.70 397.11,356.35 395.18,357.00 393.24,357.66 391.31,358.34 389.39,359.01 387.46,359.69 385.54,360.37 383.62,361.05 381.69,361.72 379.77,362.39 377.85,363.05 375.93,363.69 374.01,364.33 372.09,364.94 370.17,365.54 368.24,366.12 366.31,366.67 364.38,367.20 362.45,367.71 360.51,368.18 358.57,368.62 356.62,369.02 354.67,369.39 352.71,369.72 350.75,370.01 348.78,370.25 346.81,370.45 344.83,370.60 342.84,370.69 340.85,370.74 338.84,370.73 336.83,370.66 334.81,370.53 332.78,370.34 330.75,370.10 328.72,369.81 326.69,369.46 324.67,369.06 322.65,368.62 320.64,368.13 318.64,367.59 316.65,367.01 314.68,366.39 312.72,365.73 310.79,365.03 308.87,364.29 306.98,363.52 305.12,362.72 303.29,361.89 301.49,361.03 299.72,360.14 297.99,359.22 296.30,358.28 294.65,357.32 293.04,356.34 291.47,355.34 289.96,354.32 288.49,353.29 287.08,352.24 285.72,351.18 284.42,350.12 283.18,349.04 282.00,347.96 280.88,346.87 279.83,345.78 278.85,344.69 277.94,343.61 277.10,342.52 276.34,341.44 275.66,340.36 275.05,339.29 274.53,338.23 274.10,337.18 273.75,336.15 273.49,335.12 273.32,334.12 273.25,333.13 273.27,332.17 273.40,331.22 273.62,330.30 273.95,329.41 274.38,328.54 274.92,327.70 275.57,326.89 276.34,326.11 277.22,325.37 278.21,324.66 279.32,323.99 280.53,323.34 281.84,322.73 283.25,322.14 284.75,321.59 286.34,321.06 288.01,320.55 289.77,320.07 291.60,319.61 293.49,319.16 295.46,318.74 297.49,318.34 299.57,317.95 301.70,317.58 303.89,317.22 306.12,316.87 308.38,316.53 310.69,316.20 313.02,315.88 315.38,315.57 317.76,315.26 320.15,314.95 322.56,314.65 324.98,314.34 327.40,314.04 329.82,313.73 332.24,313.42 334.65,313.11 337.04,312.78 339.41,312.45 341.76,312.11 344.09,311.76 346.38,311.40 348.65,311.03 350.90,310.65 353.11,310.26 355.31,309.86 357.48,309.46 359.62,309.04 361.75,308.62 363.85,308.19 365.94,307.75 368.00,307.31 370.04,306.86 372.07,306.41 374.08,305.95 376.07,305.49 378.05,305.03 380.01,304.56 381.96,304.09 383.90,303.62 385.82,303.15 387.74,302.67 389.64,302.20 391.53,301.72 393.41,301.25 395.29,300.77 397.15,300.30 399.02,299.83 400.87,299.36 402.72,298.89 404.57,298.43 406.41,297.97 408.25,297.52 410.09,297.07 411.93,296.62 413.77,296.18 415.61,295.75 417.45,295.32 419.29,294.90 421.14,294.49 422.99,294.08 424.84,293.69 426.70,293.30 428.57,292.92 430.45,292.55 432.34,292.18 434.23,291.82 436.14,291.47 438.07,291.13 440.00,290.80 441.96,290.47 443.92,290.15 445.91,289.83 447.91,289.53 449.94,289.22 451.98,288.93 454.05,288.64 456.14,288.36 458.25,288.08 460.39,287.81 462.56,287.54 464.75,287.28 466.98,287.03 469.23,286.78 471.51,286.53 473.83,286.29 476.18,286.05 478.56,285.82 480.98,285.60 483.44,285.37 485.93,285.16 488.46,284.94 491.03,284.73 493.65,284.52 496.30,284.32 498.98,284.12 501.70,283.92 504.44,283.73 507.21,283.53 510.01,283.34 512.82,283.15 515.66,282.95 518.51,282.76 521.37,282.57 524.24,282.37 527.11,282.18 529.99,281.98 532.87,281.78 535.75,281.58 538.63,281.38 541.50,281.17 544.36,280.96 547.20,280.75 550.04,280.53 552.85,280.30 555.64,280.07 558.41,279.84 561.15,279.60 563.86,279.35 566.54,279.09 569.19,278.83 571.80,278.56 574.36,278.28 576.89,277.99 579.37,277.70 581.80,277.39 584.17,277.08 586.50,276.75 588.77,276.42 590.97,276.07 593.12,275.71 595.20,275.34 597.21,274.96 599.15,274.56 601.02,274.15 602.81,273.73 604.52,273.30 606.15,272.85 607.69,272.38 609.15,271.90 610.52,271.41 611.79,270.90 612.97,270.37 614.05,269.83 615.03,269.26 615.91,268.69 616.67,268.09 617.33,267.47 617.88,266.84 618.31,266.19 618.62,265.51 618.81,264.82 618.88,264.11 618.82,263.37 618.64,262.62 618.32,261.84 617.89,261.05 617.34,260.23 616.69,259.40 615.94,258.56 615.11,257.70 614.19,256.82 613.21,255.94 612.16,255.05 611.07,254.15 609.92,253.24 608.74,252.33 607.53,251.41 606.31,250.49 605.07,249.57 603.82,248.65 602.59,247.73 601.36,246.82 600.16,245.91 598.97,245.01 597.80,244.11 596.64,243.21 595.50,242.32 594.37,241.44 593.24,240.56 592.13,239.68 591.02,238.81 589.92,237.95 588.82,237.09 587.72,236.23 586.62,235.39 585.52,234.54 584.42,233.71 583.31,232.88 582.20,232.05 581.08,231.23 579.95,230.42 578.80,229.61 577.65,228.81 576.48,228.02 575.30,227.23 574.09,226.45 572.87,225.68 571.63,224.91 570.37,224.15 569.08,223.39 567.77,222.65 566.43,221.91 565.06,221.17 563.66,220.45 562.23,219.73 560.77,219.02 559.27,218.32 557.74,217.62 556.16,216.93 554.55,216.25 552.90,215.58 551.21,214.91 549.49,214.25 547.73,213.60 545.93,212.96 544.11,212.32 542.25,211.68 540.37,211.05 538.46,210.43 536.52,209.82 534.56,209.20 532.58,208.59 530.57,207.99 528.55,207.39 526.51,206.80 524.45,206.20 522.37,205.61 520.29,205.03 518.19,204.44 516.08,203.86 513.96,203.28 511.83,202.70 509.70,202.13 507.56,201.55 505.42,200.98 503.27,200.41 501.13,199.83 498.99,199.26 496.85,198.69 494.71,198.11 492.58,197.54 490.46,196.97 488.35,196.39 486.24,195.81 484.15,195.23 482.08,194.65 480.01,194.07 477.97,193.48 475.94,192.89 473.93,192.30 471.94,191.70 469.97,191.10 468.03,190.50 466.11,189.89 464.22,189.28 462.36,188.66 460.53,188.04 458.73,187.41 456.96,186.78 455.22,186.14 453.52,185.50 451.86,184.84 450.24,184.19 448.66,183.52 447.12,182.85 445.62,182.17 444.17,181.48 442.76,180.78 441.40,180.08 440.10,179.37 438.84,178.64 437.63,177.91 436.48,177.17 435.38,176.42 434.34,175.66 433.36,174.89 432.44,174.11 431.58,173.32 430.78,172.51 430.04,171.70 429.38,170.87 428.78,170.03 428.24,169.18 427.78,168.32 427.39,167.44 427.07,166.55 426.83,165.65 426.67,164.74 426.58,163.81 426.56,162.86 426.60,161.90 426.64,160.94 426.64,159.96 426.57,158.97 426.38,157.98 426.09,156.98 425.68,155.97 425.16,154.96 424.54,153.95 423.81,152.92 422.98,151.90 422.06,150.86 421.03,149.83 419.91,148.79 418.70,147.74 417.40,146.70 416.01,145.65 414.54,144.59 412.98,143.54 411.34,142.48 409.63,141.42 407.84,140.36 405.97,139.30 404.04,138.24 402.03,137.18 399.96,136.12 397.83,135.05 395.63,133.99 393.38,132.93 391.06,131.87 388.70,130.82 386.28,129.76 383.81,128.71 381.30,127.65 378.73,126.61 376.13,125.56 373.49,124.52 370.81,123.48 368.09,122.44 365.34,121.41 362.56,120.39 359.75,119.37 356.91,118.35 354.06,117.34 351.18,116.34 348.28,115.34 345.36,114.35 342.43,113.37 339.49,112.39 336.54,111.43 333.58,110.47 330.61,109.51 327.65,108.57 324.68,107.63 321.72,106.71 318.76,105.79 315.80,104.88 312.86,103.99 309.93,103.10 307.01,102.23 304.11,101.36 301.23,100.51 298.37,99.67 295.53,98.84 292.72,98.02 289.93,97.22 287.18,96.43 284.46,95.65 281.78,94.89 279.13,94.14 276.52,93.40 273.96,92.68 271.44,91.97 268.97,91.28 266.55,90.61 264.18,89.95 261.86,89.30 259.60,88.68 257.40,88.07 255.26,87.48 253.18,86.90 251.17,86.34 249.23,85.80 247.36,85.28 245.56,84.78 243.84,84.30 242.20,83.83 240.63,83.39 239.15,82.97 237.75,82.56 236.44,82.18 235.23,81.82 234.10,81.48 233.06,81.16 232.13,80.86 231.29,80.59 230.56,80.33 229.92,80.10 229.40,79.90 228.98,79.72 228.68,79.56 228.48,79.42 228.41,79.31 228.45,79.23 228.61,79.17 228.89,79.13 229.30,79.13 229.84,79.14 230.51,79.19 231.31,79.26 232.24,79.36 233.31,79.48 234.52,79.63 235.87,79.81 237.37,80.02 239.01,80.26 240.80,80.53 242.74,80.83 244.84,81.15 247.06,81.50 249.36,81.86 251.63,82.21 253.81,82.52 255.82,82.79 257.58,82.99 259.02,83.11 260.13,83.14 260.92,83.09 261.40,82.96 261.59,82.76 261.50,82.49 261.15,82.15 260.55,81.75 259.70,81.30 258.63,80.79 257.35,80.23 255.86,79.62 254.19,78.98 252.35,78.30 250.34,77.58 248.18,76.84 245.89,76.07 243.48,75.28 240.96,74.47 238.35,73.65 235.65,72.82 232.88,71.99 230.06,71.16 227.19,70.33 224.29,69.51 221.38,68.70 218.46,67.90 215.55,67.13 212.66,66.38 209.81,65.65 207.00,64.96 204.26,64.31 201.59,63.70 199.01,63.13 196.53,62.60 194.16,62.13 191.91,61.72 189.76,61.36 187.66,61.04 185.60,60.77 183.54,60.55 181.45,60.36 179.30,60.20 177.09,60.09 174.84,60.01 172.57,60.00 170.30,60.05 168.06,60.18 165.87,60.39 163.76,60.70 161.73,61.12 159.82,61.62 158.02,62.22 156.35,62.89 154.82,63.64 153.44,64.46 152.22,65.33 151.19,66.25 150.33,67.21 149.68,68.21 149.21,69.23 148.85,70.26 148.55,71.27 148.22,72.26 147.79,73.19 147.19,74.05 146.36,74.83 145.23,75.50 143.81,76.09 142.15,76.59 140.29,77.03 138.27,77.43 136.12,77.80 133.89,78.16 131.62,78.52 129.35,78.90 127.12,79.32 124.97,79.80 122.94,80.34 121.07,80.97 119.36,81.67 117.83,82.44 116.47,83.27 115.29,84.15 114.30,85.06 113.50,86.01 112.90,86.97 112.50,87.95 112.32,88.92 112.35,89.89 112.59,90.85 113.03,91.79 113.66,92.71 114.47,93.62 115.43,94.50 116.54,95.37 117.78,96.21 119.14,97.03 120.60,97.82 122.16,98.59 123.79,99.33 125.49,100.04 127.24,100.72 129.02,101.38 130.84,102.00 132.67,102.59 134.53,103.15 136.41,103.70 138.31,104.22 140.22,104.72 142.15,105.21 144.09,105.68 146.03,106.14 147.98,106.60 149.93,107.05 151.88,107.49 153.83,107.94 155.77,108.39 157.71,108.84 159.64,109.29 161.56,109.76 163.46,110.24 165.35,110.73 167.22,111.24 169.07,111.76 170.91,112.30 172.74,112.85 174.55,113.40 176.35,113.97 178.14,114.55 179.91,115.14 181.68,115.73 183.44,116.33 185.19,116.94 186.93,117.55 188.67,118.17 190.40,118.78 192.13,119.41 193.86,120.03 195.57,120.65 197.29,121.28 198.99,121.91 200.69,122.55 202.39,123.18 204.07,123.82 205.74,124.47 207.40,125.11 209.05,125.77 210.69,126.42 212.32,127.09 213.93,127.76 215.52,128.43 217.11,129.11 218.67,129.80 220.22,130.49 221.75,131.19 223.26,131.90 224.75,132.61 226.22,133.34 227.66,134.07 229.09,134.81 230.49,135.56 231.87,136.31 233.23,137.08 234.56,137.86 235.88,138.64 237.18,139.43 238.46,140.22 239.74,141.02 241.00,141.82 242.26,142.63 243.51,143.44 244.75,144.25 246.00,145.06 247.24,145.87 248.49,146.67 249.75,147.48 251.01,148.28 252.28,149.09 253.57,149.88 254.86,150.67 256.18,151.46 257.51,152.23 258.86,153.00 260.24,153.77 261.64,154.52 263.07,155.26 264.52,155.99 266.01,156.71 267.53,157.42 269.09,158.11 270.69,158.79 272.32,159.45 274.00,160.10 275.72,160.73 277.49,161.35 279.31,161.94 281.18,162.52 283.10,163.07 285.05,163.62 287.00,164.16 288.93,164.70 290.83,165.26 292.66,165.83 294.41,166.43 296.04,167.06 297.55,167.74 298.90,168.46 300.08,169.24 301.08,170.07 301.99,170.94 302.86,171.83 303.79,172.73 304.82,173.60 306.05,174.44 307.53,175.23 309.23,175.96 311.11,176.66 313.13,177.32 315.25,177.96 317.44,178.57 319.64,179.18 321.83,179.77 323.95,180.36 325.97,180.96 327.84,181.58 329.53,182.21 331.00,182.87 332.20,183.56 333.10,184.30 333.65,185.08 333.81,185.92 333.55,186.82 332.97,187.76 332.32,188.72 331.88,189.64 331.83,190.50 332.15,191.31 332.83,192.07 333.81,192.79 335.08,193.46 336.60,194.10 338.33,194.72 340.25,195.31 342.31,195.88 344.49,196.43 346.75,196.98 349.07,197.53 351.40,198.08 353.72,198.64 355.99,199.21 358.18,199.80 360.25,200.41 362.18,201.06 363.93,201.73 365.46,202.45 366.77,203.21 367.85,204.01 368.73,204.85 369.40,205.73 369.89,206.64 370.19,207.58 370.33,208.55 370.31,209.54 370.14,210.56 369.84,211.60 369.40,212.66 368.85,213.74 368.20,214.83 367.45,215.93 366.61,217.05 365.69,218.16 364.67,219.23 363.54,220.23 362.26,221.11 360.84,221.82 359.24,222.34 357.45,222.62 355.45,222.63 353.29,222.42 351.04,222.10 348.77,221.77 346.56,221.54 344.46,221.49 342.54,221.71 340.75,222.17 339.04,222.78 337.34,223.50 335.60,224.24 333.76,224.95 331.76,225.57 329.64,226.10 327.45,226.57 325.21,227.00 322.99,227.40 320.83,227.80 318.76,228.23 316.84,228.70 315.11,229.23 313.61,229.84 312.39,230.56 311.49,231.40 310.92,232.37 310.42,233.36 309.65,234.20 308.34,234.77 306.53,235.10 304.34,235.26 301.89,235.31 299.32,235.31 296.74,235.33 294.28,235.44 292.00,235.66 289.86,235.99 287.86,236.41 285.96,236.90 284.14,237.45 282.37,238.04 280.63,238.67 278.90,239.32 277.16,239.97 275.42,240.63 273.66,241.29 271.90,241.95 270.12,242.60 268.32,243.23 266.50,243.85 264.66,244.44 262.79,245.01 260.89,245.54 258.96,246.04 257.00,246.49 255.00,246.90 252.96,247.26 250.88,247.57 248.76,247.81 246.59,248.00 244.36,248.11 242.10,248.16 239.84,248.20 237.62,248.29 235.51,248.49 233.54,248.85 231.71,249.35 229.98,249.96 228.33,250.67 226.75,251.43 225.22,252.22 223.69,253.02 222.17,253.79 220.62,254.51 219.02,255.14 217.34,255.67 215.57,256.07 213.71,256.33 211.76,256.46 209.74,256.47 207.64,256.39 205.49,256.21 203.30,255.96 201.06,255.63 198.79,255.25 196.51,254.83 194.21,254.37 191.91,253.89 189.63,253.40 187.36,252.92 185.12,252.45 182.91,252.00 180.75,251.58 178.62,251.18 176.52,250.80 174.46,250.43 172.44,250.06 170.44,249.70 168.47,249.34 166.53,248.97 164.62,248.60 162.73,248.21 160.86,247.80 159.02,247.39 157.20,246.95 155.40,246.51 153.62,246.04 151.87,245.57 150.14,245.08 148.43,244.58 146.74,244.06 145.08,243.53 143.43,242.99 141.80,242.44 140.20,241.87 138.61,241.29 137.05,240.70 135.50,240.09 133.98,239.48 132.47,238.85 130.98,238.21 129.51,237.56 128.05,236.90 126.62,236.22 125.20,235.54 123.80,234.84 122.41,234.14 121.05,233.42 119.70,232.70 118.36,231.96 117.04,231.21 115.74,230.46 114.45,229.69 113.18,228.92 111.92,228.13 110.67,227.34 109.44,226.54 108.23,225.73 107.03,224.91 105.84,224.08 104.66,223.25 103.50,222.40 102.34,221.55 101.21,220.70 100.08,219.83 98.96,218.96 97.86,218.08 96.77,217.19 95.68,216.29 94.61,215.39 93.55,214.49 92.50,213.57 91.46,212.65 90.42,211.73 89.40,210.80"/>
<polyline fill="none" stroke="#d62728" stroke-width="1.8" stroke-opacity="1.0" points="75.11,254.53 75.17,255.50 75.24,256.47 75.30,257.44 75.36,258.41 75.41,259.38 75.46,260.35 75.51,261.32 75.55,262.30 75.59,263.27 75.62,264.25 75.65,265.22 75.67,266.20 75.68,267.18 75.69,268.16 75.70,269.14 75.71,270.12 75.71,271.10 75.71,272.08 75.71,273.06 75.70,274.05 75.70,275.03 75.70,276.01 75.69,277.00 75.69,277.98 75.69,278.97 75.69,279.95 75.70,280.94 75.70,281.92 75.71,282.90 75.73,283.89 75.75,284.87 75.77,285.85 75.80,286.83 75.84,287.82 75.88,288.80 75.93,289.78 75.99,290.75 76.06,291.73 76.14,292.71 76.22,293.69 76.32,294.66 76.42,295.63 76.54,296.61 76.67,297.58 76.81,298.55 76.96,299.52 77.13,300.48 77.31,301.45 77.50,302.41 77.71,303.37 77.93,304.33 78.17,305.29 78.43,306.24 78.70,307.20 78.99,308.15 79.30,309.10 79.62,310.04 79.97,310.99 80.33,311.93 80.72,312.87 81.12,313.80 81.55,314.74 82.00,315.67 82.47,316.60 82.96,317.52 83.48,318.44 84.02,319.36 84.59,320.28 85.18,321.19 85.80,322.10 86.44,323.01 87.11,323.91 87.80,324.81 88.51,325.71 89.25,326.60 90.00,327.49 90.78,328.38 91.58,329.27 92.39,330.15 93.23,331.04 94.08,331.92 94.95,332.80 95.83,333.67 96.73,334.55 97.64,335.42 98.57,336.29 99.51,337.17 100.46,338.04 101.42,338.90 102.40,339.77 103.38,340.64 104.37,341.51 105.37,342.37 106.37,343.24 107.38,344.10 108.40,344.97 109.42,345.84 110.45,346.70 111.48,347.57 112.51,348.43 113.54,349.30 114.57,350.17 115.60,351.03 116.64,351.90 117.67,352.77 118.69,353.64 119.72,354.52 120.74,355.39 121.75,356.26 122.76,357.14 123.77,358.02 124.76,358.90 125.75,359.78 126.73,360.66 127.70,361.55 128.65,362.44 129.60,363.33 130.53,364.23 131.45,365.12 132.36,366.02 133.25,366.93 134.13,367.83 134.99,368.74 135.84,369.65 136.67,370.57 137.49,371.49 138.29,372.41 139.08,373.33 139.86,374.26 140.64,375.18 141.40,376.11 142.15,377.04 142.89,377.98 143.63,378.91 144.36,379.84 145.09,380.78 145.81,381.71 146.52,382.65 147.23,383.59 147.94,384.52 148.65,385.46 149.35,386.40 150.06,387.33 150.76,388.27 151.47,389.20 152.18,390.14 152.89,391.07 153.60,392.00 154.32,392.93 155.04,393.86 155.77,394.79 156.51,395.71 157.25,396.63 158.00,397.55 158.76,398.47 159.53,399.38 160.31,400.30 161.10,401.20 161.91,402.11 162.72,403.01 163.55,403.91 164.40,404.80 165.26,405.70 166.13,406.58 167.02,407.46 167.93,408.34 168.86,409.21 169.81,410.08 170.78,410.94 171.77,411.80 172.78,412.65 173.81,413.50 174.87,414.34 175.95,415.18 177.06,416.01 178.19,416.83 179.35,417.64 180.54,418.45 181.76,419.25 183.00,420.05 184.28,420.84 185.58,421.62 186.92,422.39 188.29,423.16 189.69,423.91 191.13,424.66 192.60,425.40 194.11,426.13 195.66,426.85 197.23,427.57 198.84,428.28 200.46,428.98 202.10,429.68 203.75,430.37 205.40,431.06 207.05,431.75 208.70,432.44 210.33,433.13 211.95,433.83 213.55,434.53 215.11,435.23 216.65,435.94 218.14,436.66 219.59,437.38 220.99,438.11 222.34,438.86 223.62,439.62 224.84,440.39 225.99,441.17 227.07,441.97 228.06,442.79 228.97,443.62 229.79,444.47 230.53,445.34 231.20,446.23 231.80,447.13 232.33,448.04 232.80,448.97 233.22,449.91 233.59,450.86 233.90,451.82 234.18,452.79 234.42,453.77 234.63,454.76 234.81,455.75 234.97,456.75 235.11,457.74 235.23,458.75 235.35,459.75 235.47,460.76 235.58,461.76 235.71,462.77 235.84,463.77 235.99,464.77 236.15,465.76 236.33,466.75 236.52,467.74 236.72,468.73 236.93,469.71 237.14,470.70 237.36,471.68 237.59,472.65 237.82,473.63 238.05,474.60 238.29,475.57 238.52,476.54 238.75,477.50 238.97,478.47 239.19,479.43 239.40,480.39 239.61,481.35 239.80,482.31 239.98,483.27 240.15,484.22 240.31,485.18 240.45,486.13 240.57,487.09 240.68,488.04 240.76,488.99 240.82,489.94 240.86,490.89 240.87,491.84 240.86,492.79 240.82,493.74 240.75,494.68 240.66,495.63 240.53,496.58 240.37,497.52 240.19,498.47 239.98,499.41 239.75,500.36 239.50,501.30 239.23,502.25 238.94,503.19 238.63,504.14 238.30,505.08 237.97,506.03 237.62,506.98 237.26,507.92 236.89,508.87 236.52,509.82 236.14,510.77 235.76,511.72 235.38,512.67 234.99,513.62 234.61,514.57 234.23,515.53 233.85,516.48 233.48,517.44 233.12,518.40 232.77,519.36 232.43,520.32 232.11,521.28 231.80,522.25 231.50,523.22 231.22,524.19 230.97,525.16 230.73,526.13 230.52,527.11 230.33,528.09 230.17,529.07 230.04,530.05 229.93,531.04 229.86,532.03 229.82,533.02 229.82,534.01 229.86,535.00 229.93,536.00 230.04,537.00 230.19,538.00 230.39,539.01 230.62,540.01 230.89,541.01 231.17,542.02 231.47,543.02 231.78,544.03 232.08,545.03 232.38,546.02 232.65,547.02 232.91,548.01 233.12,549.00 233.30,549.98 233.42,550.96 233.49,551.94 233.49,552.91 233.42,553.87 233.27,554.83 233.02,555.78 232.67,556.73 232.22,557.67 231.64,558.60 230.94,559.52 230.11,560.44 229.13,561.35 228.01,562.24 226.77,563.12 225.46,563.98 224.13,564.83 222.80,565.67 221.53,566.49 220.35,567.30 219.30,568.09 218.43,568.86 217.77,569.61 217.34,570.34 217.14,571.05 217.16,571.75 217.37,572.44 217.78,573.13 218.37,573.82 219.15,574.51 220.10,575.20 221.22,575.88 222.51,576.56 223.95,577.24 225.54,577.91 227.26,578.57 229.11,579.22 231.08,579.86 233.16,580.48 235.33,581.10 237.59,581.69 239.93,582.27 242.34,582.84 244.80,583.38 247.31,583.91 249.86,584.42 252.43,584.90 255.02,585.36 257.62,585.80 260.21,586.21 262.79,586.59 265.35,586.95 267.88,587.28 270.39,587.58 272.88,587.86 275.35,588.11 277.79,588.34 280.22,588.54 282.63,588.72 285.01,588.88 287.38,589.01 289.73,589.12 292.07,589.21 294.38,589.27 296.69,589.31 298.97,589.33 301.25,589.34 303.50,589.32 305.75,589.28 307.98,589.22 310.20,589.14 312.41,589.05 314.60,588.93 316.78,588.80 318.96,588.65 321.12,588.48 323.27,588.30 325.41,588.10 327.54,587.88 329.66,587.65 331.77,587.41 333.88,587.15 335.97,586.88 338.05,586.59 340.13,586.29 342.20,585.98 344.26,585.65 346.31,585.32 348.36,584.97 350.39,584.61 352.42,584.25 354.45,583.87 356.46,583.48 358.48,583.09 360.48,582.69 362.48,582.28 364.47,581.86 366.46,581.43 368.44,581.00 370.42,580.57 372.39,580.12 374.37,579.68 376.33,579.23 378.30,578.78 380.26,578.32 382.22,577.86 384.17,577.40 386.13,576.93 388.08,576.46 390.02,575.99 391.96,575.52 393.90,575.04 395.84,574.56 397.77,574.07 399.70,573.58 401.63,573.09 403.55,572.60 405.47,572.10 407.38,571.60 409.29,571.09 411.20,570.59 413.10,570.08 415.00,569.56 416.89,569.05 418.78,568.53 420.67,568.00 422.55,567.48 424.42,566.95 426.30,566.42 428.16,565.88 430.03,565.34 431.88,564.80 433.74,564.26 435.59,563.71 437.43,563.16 439.27,562.61 441.10,562.05 442.93,561.49 444.75,560.93 446.57,560.36 448.38,559.80 450.19,559.22 451.99,558.65 453.79,558.07 455.58,557.49 457.37,556.91 459.15,556.32 460.92,555.73 462.69,555.14 464.45,554.54 466.21,553.94 467.96,553.34 469.71,552.74 471.45,552.13 473.18,551.52 474.91,550.90 476.63,550.29 478.34,549.67 480.05,549.04 481.75,548.41 483.44,547.78 485.12,547.15 486.80,546.51 488.48,545.87 490.14,545.22 491.80,544.57 493.45,543.92 495.09,543.26 496.72,542.61 498.35,541.94 499.96,541.27 501.57,540.60 503.17,539.93 504.77,539.25 506.35,538.57 507.93,537.88 509.50,537.20 511.06,536.50 512.62,535.81 514.18,535.12 515.73,534.42 517.28,533.72 518.83,533.02 520.38,532.33 521.93,531.63 523.48,530.93 525.03,530.24 526.58,529.54 528.14,528.85 529.70,528.16 531.27,527.48 532.85,526.79 534.43,526.12 536.02,525.44 537.61,524.77 539.22,524.10 540.84,523.44 542.47,522.79 544.11,522.14 545.77,521.50 547.43,520.87 549.12,520.24 550.82,519.62 552.53,519.01 554.26,518.41 556.00,517.81 557.75,517.22 559.52,516.63 561.30,516.05 563.09,515.48 564.89,514.91 566.70,514.34 568.52,513.78 570.34,513.23 572.18,512.68 574.02,512.13 575.87,511.58 577.72,511.04 579.58,510.50 581.45,509.97 583.32,509.43 585.19,508.90 587.07,508.37 588.95,507.84 590.83,507.31 592.71,506.78 594.59,506.25 596.47,505.73 598.35,505.20 600.23,504.67 602.10,504.14 603.98,503.61 605.85,503.08 607.71,502.54 609.57,502.01 611.43,501.47 613.28,500.92 615.12,500.38 616.96,499.83 618.79,499.28 620.61,498.72 622.42,498.16 624.22,497.60 626.02,497.03 627.80,496.46 629.56,495.88 631.32,495.29 633.07,494.70 634.80,494.10 636.51,493.50 638.22,492.88 639.90,492.26 641.57,491.64 643.23,491.00 644.86,490.36 646.48,489.71 648.09,489.05 649.68,488.38 651.25,487.71 652.81,487.03 654.35,486.34 655.87,485.64 657.38,484.94 658.88,484.23 660.36,483.52 661.83,482.79 663.28,482.07 664.72,481.33 666.14,480.59 667.56,479.84 668.96,479.09 670.34,478.33 671.72,477.57 673.08,476.80 674.43,476.03 675.77,475.25 677.09,474.47 678.41,473.68 679.71,472.89 681.01,472.09 682.29,471.29 683.56,470.49 684.82,469.68 686.08,468.87 687.32,468.05 688.55,467.23 689.78,466.41 690.99,465.59 692.20,464.76 693.40,463.93 694.59,463.09 695.77,462.26 696.94,461.42 698.11,460.58 699.27,459.74 700.43,458.90 701.57,458.05 702.71,457.20 703.85,456.36 704.97,455.51 706.10,454.66 707.21,453.81 708.32,452.95 709.43,452.10 710.53,451.25 711.63,450.39 712.72,449.54 713.80,448.68 714.89,447.82 715.96,446.96 717.04,446.11 718.11,445.25 719.18,444.39 720.24,443.53 721.30,442.67 722.36,441.81 723.41,440.95 724.47,440.09 725.52,439.23 726.56,438.37 727.61,437.51 728.65,436.65 729.70,435.79 730.74,434.93 731.78,434.07 732.81,433.21 733.85,432.35 734.89,431.49 735.93,430.64 736.96,429.78 738.00,428.92 739.03,428.07 740.07,427.21 741.11,426.36 742.14,425.50 743.18,424.65 744.22,423.80 745.26,422.95 746.31,422.10 747.35,421.25 748.40,420.40 749.44,419.56 750.49,418.71 751.54,417.87 752.60,417.03 753.66,416.19 754.72,415.35 755.78,414.51 756.85,413.67 757.92,412.84 758.99,412.01 760.07,411.18 761.15,410.35 762.24,409.52 763.33,408.70 764.43,407.88 765.53,407.06 766.63,406.24 767.74,405.42 768.86,404.61 769.98,403.80 771.10,402.99 772.23,402.18 773.36,401.37 774.50,400.56 775.64,399.75 776.78,398.95 777.93,398.14 779.08,397.34 780.23,396.53 781.38,395.72 782.53,394.92 783.69,394.11 784.84,393.30 786.00,392.49 787.16,391.68 788.32,390.87 789.47,390.05 790.63,389.24 791.79,388.42 792.95,387.59 794.10,386.77 795.26,385.94 796.41,385.11 797.56,384.28 798.71,383.44 799.85,382.60 801.00,381.75 802.14,380.90 803.28,380.05 804.41,379.19 805.54,378.33 806.67,377.46 807.79,376.58 808.91,375.70 810.02,374.82 811.12,373.92 812.23,373.03 813.32,372.12 814.41,371.21 815.48,370.30 816.54,369.38 817.57,368.45 818.57,367.52 819.54,366.59 820.48,365.66 821.37,364.73 822.22,363.79 823.01,362.86 823.75,361.93 824.43,360.99 825.04,360.06 825.58,359.14 826.05,358.21 826.44,357.29 826.75,356.38 826.96,355.47 827.09,354.56 827.12,353.67 827.04,352.78 826.86,351.89 826.58,351.02 826.20,350.15 825.72,349.29 825.15,348.44 824.50,347.59 823.76,346.74 822.94,345.91 822.04,345.08 821.07,344.25 820.03,343.43 818.92,342.61 817.75,341.80 816.52,340.99 815.23,340.18 813.90,339.38 812.51,338.58 811.08,337.79 809.61,336.99 808.11,336.20 806.57,335.41 805.00,334.62 803.40,333.84 801.78,333.05 800.14,332.27 798.49,331.49 796.82,330.70 795.15,329.92 793.47,329.14 791.79,328.36 790.11,327.57 788.44,326.79 786.78,326.00 785.13,325.22 783.49,324.43 781.86,323.64 780.23,322.85 778.62,322.07 777.01,321.28 775.40,320.50 773.80,319.72 772.21,318.94 770.62,318.16 769.03,317.39 767.44,316.62 765.86,315.85 764.28,315.09 762.70,314.33 761.12,313.58 759.54,312.83 757.95,312.09 756.37,311.35 754.78,310.62 753.19,309.90 751.60,309.18 750.00,308.48 748.39,307.78 746.78,307.09 745.17,306.40 743.54,305.73 741.91,305.07 740.27,304.41 738.62,303.77 736.96,303.14 735.28,302.52 733.60,301.91 731.91,301.31 730.20,300.72 728.48,300.15 726.74,299.59 724.99,299.05 723.23,298.51 721.45,298.00 719.65,297.49 717.84,297.00 716.01,296.53 714.15,296.08 712.28,295.63 710.39,295.21 708.48,294.80 706.55,294.41 704.60,294.04 702.62,293.69 700.62,293.35 698.60,293.04 696.55,292.74 694.48,292.46 692.38,292.21 690.26,291.97 688.11,291.76 685.94,291.56 683.74,291.39 681.54,291.24 679.31,291.11 677.08,291.00 674.84,290.91 672.59,290.84 670.33,290.80 668.08,290.78 665.83,290.77 663.58,290.80 661.34,290.84 659.10,290.90 656.89,290.99 654.68,291.10 652.49,291.23 650.32,291.39 648.17,291.56 646.03,291.76 643.91,291.98 641.80,292.21 639.71,292.47 637.63,292.74 635.57,293.04 633.52,293.35 631.49,293.68 629.47,294.02 627.46,294.39 625.46,294.76 623.47,295.16 621.50,295.57 619.54,295.99 617.59,296.43 615.65,296.88 613.72,297.34 611.80,297.82 609.89,298.31 607.98,298.81 606.09,299.32 604.21,299.85 602.33,300.38 600.46,300.92 598.60,301.47 596.74,302.04 594.89,302.60 593.05,303.18 591.21,303.77 589.38,304.36 587.55,304.96 585.73,305.56 583.91,306.17 582.10,306.78 580.29,307.40 578.48,308.02 576.68,308.65 574.87,309.28 573.07,309.91 571.28,310.55 569.48,311.18 567.68,311.82 565.89,312.45 564.10,313.09 562.30,313.73 560.51,314.37 558.71,315.00 556.92,315.64 555.12,316.27 553.33,316.90 551.53,317.52 549.73,318.15 547.93,318.77 546.12,319.38 544.31,319.99 542.50,320.60 540.69,321.19 538.87,321.79 537.05,322.37 535.22,322.95 533.39,323.52 531.56,324.08 529.71,324.64 527.87,325.18 526.01,325.72 524.15,326.24 522.29,326.76 520.42,327.27 518.54,327.77 516.66,328.26 514.77,328.74 512.88,329.21 510.98,329.68 509.08,330.14 507.17,330.60 505.26,331.05 503.34,331.49 501.42,331.93 499.49,332.36 497.56,332.79 495.63,333.21 493.69,333.63 491.75,334.05 489.81,334.46 487.86,334.88 485.91,335.28 483.96,335.69 482.00,336.10 480.04,336.50 478.08,336.91 476.12,337.31 474.16,337.71 472.19,338.11 470.22,338.52 468.25,338.92 466.28,339.32 464.31,339.73 462.34,340.14 460.36,340.55 458.39,340.96 456.41,341.37 454.43,341.79 452.45,342.21 450.48,342.63 448.50,343.06 446.52,343.49 444.54,343.93 442.57,344.37 440.59,344.81 438.61,345.26 436.64,345.72 434.66,346.18 432.69,346.65 430.71,347.12 428.74,347.60 426.77,348.09 424.80,348.59 422.83,349.09 420.87,349.61 418.90,350.13 416.94,350.66 414.97,351.19 413.01,351.74 411.05,352.30 409.10,352.87 407.14,353.45 405.19,354.04 403.24,354.64 401.29,355.25 399.34,355.87 397.40,356.51 395.45,357.15 393.51,357.81 391.57,358.47 389.62,359.14 387.68,359.81 385.74,360.48 383.79,361.14 381.84,361.80 379.89,362.45 377.94,363.10 375.99,363.72 374.04,364.34 372.08,364.94 370.12,365.51 368.16,366.07 366.20,366.60 364.24,367.10 362.27,367.58 360.31,368.02 358.35,368.43 356.39,368.80 354.43,369.13 352.47,369.43 350.52,369.68 348.57,369.88 346.62,370.04 344.68,370.15 342.75,370.21 340.82,370.21 338.90,370.17 336.98,370.07 335.06,369.91 333.14,369.70 331.22,369.43 329.30,369.12 327.38,368.76 325.46,368.34 323.55,367.89 321.65,367.38 319.75,366.84 317.86,366.25 315.99,365.63 314.13,364.96 312.29,364.26 310.47,363.53 308.67,362.76 306.90,361.96 305.14,361.14 303.42,360.28 301.73,359.40 300.07,358.50 298.44,357.57 296.85,356.62 295.30,355.65 293.79,354.67 292.32,353.67 290.90,352.66 289.52,351.63 288.19,350.60 286.92,349.56 285.69,348.51 284.53,347.45 283.42,346.40 282.37,345.34 281.38,344.28 280.46,343.22 279.61,342.17 278.82,341.12 278.11,340.08 277.48,339.05 276.92,338.02 276.43,337.01 276.03,336.02 275.72,335.04 275.49,334.07 275.34,333.12 275.29,332.20 275.33,331.29 275.46,330.41 275.70,329.55 276.02,328.72 276.46,327.91 276.99,327.13 277.64,326.38 278.39,325.66 279.26,324.96 280.24,324.29 281.34,323.65 282.54,323.03 283.85,322.43 285.25,321.86 286.76,321.31 288.36,320.77 290.04,320.26 291.81,319.77 293.66,319.30 295.58,318.85 297.56,318.41 299.61,317.99 301.71,317.59 303.87,317.20 306.08,316.82 308.32,316.45 310.60,316.09 312.92,315.75 315.26,315.41 317.63,315.07 320.01,314.74 322.41,314.42 324.81,314.09 327.22,313.77 329.63,313.45 332.03,313.12 334.43,312.79 336.81,312.46 339.17,312.13 341.50,311.78 343.81,311.43 346.10,311.07 348.36,310.69 350.59,310.31 352.80,309.93 354.99,309.53 357.15,309.13 359.30,308.72 361.42,308.31 363.52,307.89 365.61,307.46 367.68,307.03 369.73,306.59 371.77,306.15 373.78,305.71 375.79,305.26 377.78,304.81 379.76,304.36 381.72,303.90 383.67,303.45 385.62,302.99 387.55,302.53 389.47,302.07 391.38,301.61 393.28,301.15 395.18,300.69 397.07,300.24 398.95,299.78 400.83,299.33 402.70,298.88 404.57,298.43 406.43,297.98 408.29,297.54 410.15,297.11 412.00,296.68 413.86,296.25 415.71,295.83 417.57,295.42 419.42,295.01 421.28,294.61 423.14,294.22 425.01,293.83 426.88,293.46 428.75,293.09 430.63,292.72 432.52,292.36 434.42,292.01 436.33,291.67 438.25,291.33 440.18,291.00 442.13,290.67 444.09,290.35 446.07,290.03 448.07,289.72 450.09,289.42 452.13,289.12 454.18,288.83 456.27,288.54 458.37,288.25 460.50,287.97 462.66,287.70 464.84,287.43 467.06,287.16 469.30,286.90 471.58,286.64 473.88,286.39 476.22,286.14 478.60,285.90 481.01,285.66 483.46,285.42 485.95,285.19 488.47,284.96 491.04,284.74 493.64,284.52 496.29,284.30 498.97,284.08 501.68,283.87 504.42,283.66 507.18,283.45 509.97,283.24 512.78,283.03 515.61,282.82 518.45,282.62 521.31,282.41 524.17,282.20 527.05,281.99 529.92,281.79 532.80,281.57 535.67,281.36 538.54,281.15 541.41,280.93 544.26,280.71 547.10,280.48 549.92,280.26 552.73,280.02 555.51,279.79 558.28,279.55 561.01,279.30 563.72,279.05 566.39,278.79 569.03,278.53 571.63,278.26 574.19,277.98 576.70,277.70 579.18,277.40 581.60,277.10 583.97,276.79 586.29,276.47 588.55,276.14 590.75,275.80 592.88,275.45 594.96,275.09 596.96,274.72 598.90,274.34 600.76,273.94 602.55,273.53 604.25,273.11 605.88,272.67 607.43,272.22 608.88,271.76 610.25,271.27 611.53,270.78 612.71,270.27 613.80,269.74 614.79,269.19 615.68,268.63 616.47,268.04 617.14,267.44 617.71,266.82 618.17,266.17 618.51,265.51 618.73,264.82 618.82,264.11 618.79,263.38 618.64,262.62 618.35,261.84 617.94,261.04 617.41,260.22 616.78,259.39 616.06,258.54 615.24,257.67 614.34,256.79 613.38,255.90 612.35,255.01 611.26,254.10 610.13,253.19 608.96,252.27 607.76,251.35 606.54,250.43 605.31,249.51 604.08,248.59 602.84,247.67 601.62,246.75 600.42,245.85 599.23,244.94 598.06,244.04 596.90,243.15 595.75,242.26 594.61,241.38 593.48,240.50 592.35,239.63 591.23,238.76 590.12,237.90 589.01,237.04 587.89,236.19 586.78,235.35 585.67,234.51 584.55,233.67 583.42,232.85 582.29,232.03 581.15,231.21 580.00,230.40 578.84,229.60 577.67,228.81 576.48,228.02 575.28,227.24 574.06,226.46 572.82,225.69 571.56,224.93 570.28,224.17 568.98,223.43 567.65,222.69 566.30,221.95 564.92,221.23 563.51,220.51 562.06,219.79 560.59,219.09 559.08,218.39 557.54,217.70 555.96,217.02 554.34,216.35 552.69,215.68 550.99,215.02 549.27,214.36 547.51,213.72 545.71,213.07 543.89,212.44 542.03,211.81 540.15,211.18 538.25,210.56 536.31,209.94 534.36,209.33 532.38,208.72 530.38,208.11 528.37,207.51 526.34,206.91 524.29,206.31 522.22,205.71 520.15,205.12 518.06,204.53 515.96,203.94 513.85,203.35 511.74,202.77 509.62,202.18 507.49,201.60 505.37,201.01 503.24,200.43 501.11,199.85 498.98,199.26 496.86,198.68 494.74,198.10 492.62,197.51 490.51,196.93 488.42,196.34 486.33,195.75 484.25,195.17 482.19,194.58 480.14,193.98 478.10,193.39 476.09,192.79 474.09,192.19 472.11,191.59 470.16,190.99 468.23,190.38 466.32,189.77 464.44,189.16 462.58,188.54 460.76,187.91 458.96,187.29 457.20,186.66 455.46,186.02 453.76,185.38 452.10,184.73 450.47,184.08 448.88,183.42 447.33,182.76 445.82,182.08 444.35,181.41 442.93,180.72 441.54,180.03 440.20,179.33 438.91,178.62 437.66,177.90 436.47,177.17 435.32,176.44 434.22,175.69 433.17,174.93 432.18,174.16 431.24,173.38 430.36,172.59 429.54,171.78 428.78,170.96 428.08,170.12 427.44,169.27 426.87,168.40 426.37,167.52 425.94,166.62 425.58,165.70 425.30,164.77 425.09,163.82 424.96,162.86 424.88,161.89 424.80,160.93 424.68,159.97 424.49,159.02 424.20,158.08 423.79,157.13 423.29,156.18 422.68,155.23 421.97,154.27 421.16,153.30 420.25,152.34 419.25,151.36 418.16,150.39 416.98,149.41 415.72,148.42 414.36,147.43 412.93,146.44 411.41,145.44 409.82,144.44 408.15,143.44 406.40,142.43 404.58,141.42 402.70,140.41 400.74,139.40 398.73,138.38 396.65,137.36 394.51,136.34 392.31,135.31 390.05,134.29 387.75,133.26 385.39,132.23 382.98,131.20 380.53,130.17 378.03,129.14 375.50,128.11 372.92,127.09 370.31,126.06 367.67,125.03 364.99,124.00 362.28,122.97 359.55,121.95 356.79,120.92 354.00,119.90 351.20,118.89 348.38,117.87 345.54,116.86 342.68,115.86 339.81,114.85 336.93,113.86 334.05,112.87 331.15,111.88 328.26,110.91 325.36,109.93 322.46,108.97 319.57,108.01 316.68,107.07 313.80,106.13 310.92,105.20 308.06,104.27 305.22,103.36 302.39,102.46 299.57,101.57 296.78,100.69 294.01,99.82 291.27,98.97 288.55,98.13 285.87,97.30 283.21,96.48 280.59,95.68 278.01,94.89 275.46,94.11 272.96,93.35 270.50,92.61 268.08,91.88 265.72,91.17 263.40,90.48 261.13,89.80 258.92,89.14 256.77,88.50 254.67,87.88 252.64,87.27 250.67,86.69 248.76,86.12 246.92,85.58 245.16,85.06 243.46,84.55 241.84,84.07 240.30,83.61 238.83,83.18 237.45,82.76 236.15,82.37 234.93,82.00 233.81,81.66 232.77,81.34 231.83,81.04 230.98,80.76 230.22,80.51 229.57,80.29 229.01,80.08 228.54,79.89 228.17,79.72 227.88,79.55 227.70,79.34 227.81,79.06 228.26,78.86 228.77,78.77 229.32,78.74 229.95,78.73 230.69,78.76 231.54,78.80 232.52,78.88 233.63,78.98 234.88,79.11 236.27,79.26 237.80,79.45 239.48,79.66 241.30,79.90 243.28,80.17 245.40,80.47 247.66,80.79 249.96,81.12 252.24,81.43 254.41,81.72 256.38,81.95 258.05,82.11 259.30,82.18 260.07,82.18 260.21,82.15 259.64,82.29 259.20,82.66 259.17,82.81 258.97,82.69 258.49,82.41 257.73,82.04 256.72,81.58 255.48,81.07 254.03,80.50 252.38,79.89 250.56,79.23 248.57,78.53 246.44,77.81 244.17,77.05 241.78,76.28 239.28,75.48 236.68,74.67 234.01,73.85 231.26,73.02 228.47,72.19 225.63,71.36 222.76,70.54 219.88,69.73 217.00,68.93 214.13,68.15 211.28,67.39 208.47,66.67 205.72,65.97 203.02,65.31 200.41,64.69 197.89,64.11 195.48,63.58 193.19,63.10 191.02,62.68 188.96,62.31 186.96,61.98 185.01,61.70 183.05,61.46 181.06,61.26 179.01,61.08 176.90,60.95 174.75,60.85 172.60,60.81 170.46,60.83 168.36,60.93 166.32,61.10 164.36,61.36 162.47,61.71 160.66,62.16 158.94,62.69 157.33,63.31 155.84,64.00 154.48,64.76 153.27,65.58 152.22,66.45 151.35,67.36 150.67,68.31 150.16,69.30 149.76,70.31 149.40,71.32 149.02,72.31 148.54,73.27 147.87,74.16 146.95,74.98 145.71,75.69 144.19,76.29 142.45,76.80 140.53,77.24 138.46,77.63 136.29,77.99 134.04,78.34 131.77,78.69 129.50,79.07 127.28,79.47 125.15,79.94 123.14,80.47 121.29,81.08 119.60,81.77 118.07,82.53 116.72,83.34 115.55,84.21 114.56,85.11 113.77,86.04 113.17,87.00 112.78,87.96 112.59,88.93 112.62,89.89 112.86,90.83 113.30,91.76 113.92,92.67 114.72,93.57 115.68,94.45 116.78,95.30 118.02,96.14 119.37,96.95 120.83,97.74 122.38,98.50 124.01,99.23 125.70,99.94 127.45,100.62 129.23,101.26 131.04,101.88 132.87,102.47 134.73,103.03 136.61,103.57 138.50,104.08 140.41,104.58 142.33,105.07 144.27,105.54 146.21,106.00 148.16,106.45 150.11,106.90 152.06,107.35 154.01,107.79 155.95,108.24 157.90,108.69 159.83,109.15 161.75,109.62 163.65,110.10 165.54,110.60 167.41,111.11 169.27,111.64 171.11,112.17 172.93,112.73 174.74,113.29 176.54,113.86 178.32,114.44 180.09,115.03 181.86,115.63 183.61,116.24 185.35,116.85 187.09,117.47 188.82,118.09 190.54,118.71 192.26,119.34 193.97,119.97 195.68,120.60 197.39,121.23 199.08,121.87 200.77,122.50 202.46,123.15 204.13,123.79 205.79,124.44 207.44,125.09 209.09,125.75 210.71,126.41 212.33,127.08 213.93,127.75 215.52,128.43 217.09,129.12 218.64,129.81 220.18,130.50 221.70,131.21 223.20,131.92 224.69,132.64 226.15,133.36 227.59,134.10 229.01,134.84 230.40,135.59 231.78,136.35 233.13,137.11 234.46,137.89 235.77,138.67 237.07,139.46 238.35,140.26 239.62,141.05 240.89,141.86 242.15,142.66 243.40,143.47 244.65,144.28 245.90,145.08 247.16,145.89 248.41,146.70 249.68,147.50 250.95,148.30 252.23,149.10 253.53,149.89 254.84,150.68 256.16,151.46 257.51,152.24 258.87,153.00 260.26,153.76 261.67,154.51 263.11,155.24 264.58,155.97 266.09,156.68 267.62,157.38 269.19,158.07 270.80,158.74 272.44,159.40 274.13,160.04 275.86,160.66 277.64,161.27 279.46,161.85 281.33,162.42 283.25,162.97 285.21,163.51 287.17,164.04 289.12,164.58 291.03,165.13 292.88,165.71 294.65,166.31 296.31,166.94 297.85,167.62 299.23,168.35 300.44,169.15 301.47,169.99 302.39,170.87 303.27,171.76 304.19,172.64 305.22,173.50 306.42,174.32 307.86,175.09 309.53,175.82 311.39,176.51 313.39,177.17 315.50,177.80 317.67,178.42 319.86,179.02 322.04,179.62 324.16,180.22 326.18,180.83 328.06,181.46 329.76,182.10 331.23,182.78 332.44,183.50 333.34,184.26 333.87,185.06 334.01,185.92 333.71,186.83 333.10,187.78 332.43,188.73 331.95,189.64 331.86,190.50 332.15,191.31 332.79,192.08 333.75,192.81 335.00,193.50 336.50,194.15 338.22,194.78 340.12,195.39 342.17,195.98 344.34,196.55 346.59,197.11 348.88,197.68 351.20,198.24 353.49,198.81 355.73,199.40 357.88,200.00 359.91,200.62 361.79,201.26 363.47,201.94 364.93,202.64 366.17,203.39 367.18,204.17 368.00,204.98 368.62,205.83 369.06,206.70 369.33,207.62 369.43,208.56 369.39,209.52 369.20,210.52 368.88,211.54 368.44,212.58 367.88,213.63 367.22,214.71 366.46,215.80 365.63,216.90 364.71,218.00 363.71,219.05 362.61,220.01 361.41,220.84 360.12,221.49 358.74,221.94 357.27,222.18 355.58,222.19 353.57,222.00 351.37,221.70 349.06,221.37 346.71,221.13 344.37,221.09 342.18,221.36 340.24,221.86 338.47,222.52 336.78,223.25 335.07,224.00 333.30,224.70 331.39,225.31 329.33,225.84 327.18,226.32 324.99,226.76 322.78,227.18 320.62,227.60 318.55,228.05 316.62,228.54 314.87,229.10 313.36,229.74 312.14,230.49 311.26,231.37 310.72,232.35 310.26,233.34 309.55,234.17 308.30,234.74 306.52,235.09 304.34,235.26 301.90,235.33 299.32,235.35 296.75,235.39 294.31,235.51 292.05,235.75 289.96,236.09 287.99,236.51 286.13,237.01 284.34,237.57 282.60,238.17 280.89,238.81 279.18,239.46 277.46,240.12 275.73,240.79 273.99,241.46 272.23,242.12 270.45,242.77 268.65,243.41 266.83,244.04 264.98,244.64 263.10,245.21 261.18,245.75 259.24,246.25 257.25,246.71 255.22,247.12 253.15,247.48 251.03,247.79 248.87,248.03 246.66,248.21 244.40,248.32 242.12,248.36 239.86,248.39 237.68,248.47 235.63,248.66 233.71,248.99 231.91,249.47 230.19,250.07 228.54,250.75 226.95,251.50 225.39,252.28 223.84,253.07 222.29,253.84 220.71,254.55 219.08,255.18 217.38,255.70 215.59,256.08 213.71,256.33 211.76,256.44 209.74,256.45 207.66,256.35 205.52,256.16 203.34,255.89 201.12,255.56 198.87,255.17 196.60,254.73 194.32,254.26 192.04,253.78 189.77,253.28 187.51,252.79 185.27,252.31 183.07,251.85 180.91,251.42 178.78,251.01 176.69,250.62 174.63,250.25 172.61,249.88 170.62,249.52 168.66,249.15 166.72,248.79 164.81,248.41 162.93,248.03 161.07,247.63 159.23,247.21 157.41,246.79 155.62,246.35 153.84,245.89 152.08,245.43 150.35,244.95 148.63,244.45 146.93,243.95 145.26,243.43 143.60,242.90 141.96,242.35 140.34,241.80 138.74,241.23 137.15,240.65 135.59,240.05 134.04,239.45 132.51,238.83 131.00,238.20 129.51,237.56 128.04,236.90 126.58,236.24 125.14,235.56 123.72,234.87 122.32,234.17 120.93,233.46 119.57,232.74 118.22,232.01 116.88,231.27 115.57,230.51 114.27,229.75 112.99,228.98 111.72,228.19 110.48,227.40 109.24,226.60 108.03,225.78 106.84,224.96 105.66,224.13 104.49,223.29 103.35,222.44 102.22,221.59 101.11,220.72 100.01,219.85 98.93,218.96 97.87,218.07 96.82,217.18 95.79,216.27 94.77,215.36 93.78,214.44 92.79,213.51 91.83,212.57 90.88,211.63 89.94,210.69"/>
<circle cx="76.84" cy="140.97" r="4.00" fill="#2ca02c"/>
<circle cx="76.84" cy="140.97" r="4.00" fill="#2ca02c"/>
<circle cx="101.32" cy="259.08" r="4.00" fill="#2ca02c"/>
<circle cx="101.32" cy="259.08" r="4.00" fill="#2ca02c"/>
<circle cx="94.24" cy="360.04" r="4.00" fill="#2ca02c"/>
<circle cx="94.24" cy="360.04" r="4.00" fill="#2ca02c"/>
<circle cx="214.85" cy="589.23" r="4.00" fill="#2ca02c"/>
<circle cx="214.85" cy="589.23" r="4.00" fill="#2ca02c"/>
<circle cx="840.00" cy="351.95" r="4.00" fill="#2ca02c"/>
<circle cx="840.00" cy="351.95" r="4.00" fill="#2ca02c"/>
<circle cx="403.53" cy="161.53" r="4.00" fill="#2ca02c"/>
<circle cx="403.53" cy="161.53" r="4.00" fill="#2ca02c"/>
<text x="710.00" y="40.00" font-family="Arial, sans-serif" font-size="12" text-anchor="start" fill="#222">gray: track</text>
<text x="710.00" y="58.00" font-family="Arial, sans-serif" font-size="12" text-anchor="start" fill="#222">blue: baseline</text>
<text x="710.00" y="76.00" font-family="Arial, sans-serif" font-size="12" text-anchor="start" fill="#222">red: estimate</text>
<text x="710.00" y="94.00" font-family="Arial, sans-serif" font-size="12" text-anchor="start" fill="#222">green: transmitters</text>
</svg>