<svg xmlns="http://www.w3.org/2000/svg" width="900" height="650" viewBox="0 0 900 650">
<rect x="0" y="0" width="900" height="650" fill="white"/>
<text x="30.00" y="35.00" font-family="Arial, sans-serif" font-size="18" text-anchor="start" fill="#222">Track, transmitters, and estimated array</text>
<polyline fill="none" stroke="#9aa0a6" stroke-width="2.0" stroke-opacity="1.0" points="70.81,206.24 73.23,235.57 75.65,264.90 85.35,321.46 133.84,367.54 194.44,426.20 228.38,442.96 235.66,463.90 240.50,495.33 230.81,538.27 228.38,561.32 216.26,569.69 262.32,587.50 376.26,579.12 504.75,539.32 548.39,520.46 642.94,491.14 703.55,456.57 766.58,406.30 812.64,372.78 827.18,352.88 788.39,326.69 691.42,292.13 655.06,291.08 526.57,325.65 398.08,356.02 337.48,370.68 276.87,325.65 342.33,312.03 422.33,294.22 490.21,284.80 618.69,262.80 601.72,247.09 555.66,216.71 426.57,163.63 426.57,159.00 244.44,81.09 257.84,83.02 194.45,62.19 180.16,60.26 164.09,60.64 149.81,67.97 146.24,74.92 123.03,80.32 112.31,89.57 128.38,101.14 164.09,110.40 191.77,119.27 231.05,135.86 281.05,162.47 299.80,169.03 306.05,174.43 333.72,186.39 331.94,189.47 364.97,202.20 366.75,216.86 356.93,222.65 344.43,221.49 333.72,224.96 311.40,231.52 309.62,234.22 295.33,235.37 280.16,238.85 244.44,248.10 235.52,248.49 216.77,255.82 184.63,252.35 164.09,248.49 60.00,179.26"/>
<polyline fill="none" stroke="#4e79a7" stroke-width="1.5" stroke-opacity="0.9" points="74.18,244.88 74.28,245.87 74.38,246.85 74.47,247.84 74.57,248.83 74.66,249.81 74.75,250.80 74.84,251.78 74.93,252.77 75.01,253.76 75.09,254.74 75.16,255.73 75.24,256.71 75.30,257.70 75.37,258.69 75.43,259.67 75.48,260.66 75.53,261.65 75.57,262.63 75.61,263.62 75.65,264.61 75.67,265.59 75.69,266.58 75.71,267.57 75.72,268.55 75.73,269.54 75.73,270.53 75.73,271.51 75.73,272.50 75.73,273.49 75.73,274.47 75.72,275.46 75.72,276.45 75.71,277.43 75.71,278.42 75.71,279.41 75.71,280.40 75.71,281.38 75.72,282.37 75.73,283.36 75.74,284.34 75.76,285.33 75.79,286.32 75.82,287.30 75.86,288.29 75.90,289.28 75.96,290.26 76.02,291.25 76.09,292.24 76.16,293.22 76.25,294.21 76.35,295.19 76.46,296.18 76.59,297.16 76.72,298.15 76.87,299.13 77.03,300.12 77.21,301.10 77.40,302.09 77.61,303.07 77.83,304.05 78.07,305.03 78.33,306.01 78.61,306.99 78.90,307.97 79.21,308.95 79.55,309.92 79.90,310.90 80.28,311.87 80.68,312.84 81.10,313.81 81.55,314.78 82.01,315.75 82.51,316.71 83.03,317.67 83.57,318.63 84.14,319.58 84.74,320.53 85.37,321.48 86.02,322.43 86.70,323.37 87.41,324.31 88.14,325.24 88.90,326.17 89.68,327.10 90.48,328.02 91.30,328.94 92.14,329.86 93.00,330.77 93.88,331.68 94.77,332.59 95.68,333.49 96.61,334.39 97.55,335.29 98.50,336.19 99.46,337.08 100.44,337.97 101.42,338.86 102.42,339.75 103.42,340.63 104.43,341.51 105.45,342.40 106.48,343.28 107.50,344.16 108.54,345.03 109.58,345.91 110.61,346.79 111.66,347.67 112.70,348.54 113.74,349.42 114.79,350.29 115.83,351.17 116.87,352.05 117.90,352.93 118.94,353.80 119.97,354.68 120.99,355.56 122.01,356.45 123.02,357.33 124.03,358.21 125.02,359.10 126.01,359.99 126.99,360.88 127.95,361.77 128.91,362.67 129.85,363.57 130.78,364.47 131.70,365.37 132.60,366.27 133.49,367.18 134.36,368.09 135.21,369.01 136.05,369.92 136.88,370.84 137.69,371.76 138.49,372.69 139.27,373.61 140.05,374.54 140.81,375.47 141.57,376.40 142.31,377.33 143.05,378.27 143.78,379.20 144.51,380.14 145.23,381.07 145.94,382.01 146.65,382.94 147.36,383.88 148.07,384.82 148.77,385.76 149.48,386.70 150.18,387.63 150.89,388.57 151.59,389.51 152.31,390.45 153.02,391.38 153.74,392.32 154.46,393.25 155.19,394.19 155.93,395.12 156.68,396.05 157.43,396.98 158.20,397.91 158.98,398.84 159.76,399.77 160.56,400.69 161.38,401.61 162.20,402.53 163.05,403.45 163.90,404.36 164.78,405.27 165.67,406.18 166.59,407.08 167.52,407.98 168.47,408.88 169.44,409.77 170.44,410.65 171.45,411.54 172.49,412.41 173.56,413.28 174.65,414.15 175.77,415.01 176.91,415.86 178.08,416.71 179.28,417.54 180.50,418.37 181.76,419.20 183.04,420.01 184.35,420.82 185.69,421.61 187.07,422.40 188.47,423.17 189.90,423.94 191.36,424.69 192.86,425.44 194.38,426.17 195.93,426.89 197.51,427.60 199.11,428.30 200.72,428.99 202.34,429.68 203.98,430.36 205.61,431.05 207.25,431.73 208.89,432.42 210.51,433.10 212.13,433.80 213.72,434.50 215.30,435.21 216.85,435.93 218.37,436.66 219.86,437.41 221.30,438.17 222.69,438.95 224.02,439.75 225.29,440.56 226.48,441.40 227.58,442.27 228.59,443.15 229.51,444.05 230.32,444.97 231.05,445.91 231.69,446.85 232.25,447.81 232.74,448.77 233.17,449.74 233.54,450.72 233.85,451.69 234.12,452.67 234.35,453.66 234.55,454.64 234.71,455.62 234.86,456.61 234.98,457.59 235.09,458.58 235.19,459.56 235.29,460.55 235.39,461.54 235.49,462.52 235.61,463.51 235.73,464.49 235.88,465.48 236.04,466.46 236.21,467.45 236.39,468.43 236.58,469.41 236.78,470.40 237.00,471.38 237.21,472.36 237.43,473.34 237.66,474.32 237.89,475.31 238.12,476.29 238.34,477.27 238.57,478.25 238.79,479.23 239.01,480.22 239.22,481.20 239.42,482.18 239.61,483.17 239.79,484.15 239.96,485.13 240.11,486.12 240.25,487.10 240.36,488.09 240.46,489.07 240.53,490.06 240.59,491.05 240.61,492.03 240.62,493.02 240.59,494.01 240.53,494.99 240.44,495.98 240.32,496.97 240.17,497.95 240.00,498.93 239.80,499.92 239.58,500.90 239.33,501.88 239.07,502.86 238.78,503.84 238.49,504.82 238.17,505.79 237.85,506.77 237.51,507.75 237.17,508.72 236.82,509.70 236.46,510.67 236.10,511.65 235.73,512.62 235.37,513.59 235.01,514.57 234.65,515.54 234.29,516.52 233.94,517.49 233.60,518.47 233.26,519.44 232.94,520.42 232.63,521.40 232.34,522.38 232.06,523.36 231.79,524.34 231.55,525.32 231.33,526.30 231.12,527.28 230.95,528.27 230.79,529.25 230.67,530.24 230.57,531.22 230.50,532.21 230.46,533.19 230.46,534.18 230.48,535.17 230.55,536.15 230.65,537.14 230.78,538.12 230.96,539.11 231.16,540.09 231.39,541.07 231.64,542.05 231.90,543.03 232.16,544.01 232.41,545.00 232.66,545.98 232.89,546.96 233.09,547.94 233.25,548.93 233.38,549.91 233.45,550.90 233.46,551.88 233.41,552.87 233.27,553.86 233.05,554.84 232.72,555.81 232.29,556.78 231.74,557.74 231.07,558.68 230.27,559.61 229.35,560.51 228.30,561.38 227.13,562.23 225.87,563.05 224.57,563.85 223.23,564.65 221.89,565.45 220.57,566.25 219.30,567.07 218.11,567.91 217.07,568.79 216.25,569.71 215.75,570.67 215.60,571.65 215.81,572.63 216.35,573.59 217.17,574.51 218.23,575.38 219.46,576.21 220.84,576.99 222.33,577.73 223.92,578.44 225.59,579.11 227.32,579.75 229.11,580.35 230.94,580.94 232.81,581.49 234.72,582.03 236.65,582.55 238.61,583.04 240.60,583.52 242.61,583.97 244.64,584.41 246.69,584.84 248.75,585.25 250.83,585.64 252.93,586.02 255.04,586.38 257.16,586.73 259.30,587.06 261.45,587.38 263.61,587.68 265.78,587.96 267.97,588.23 270.16,588.48 272.37,588.71 274.58,588.93 276.80,589.12 279.04,589.30 281.27,589.46 283.52,589.60 285.77,589.72 288.03,589.81 290.29,589.89 292.56,589.95 294.82,589.98 297.09,590.00 299.36,589.99 301.63,589.97 303.90,589.92 306.16,589.85 308.42,589.77 310.67,589.66 312.92,589.53 315.17,589.38 317.40,589.22 319.63,589.03 321.85,588.83 324.06,588.61 326.26,588.37 328.46,588.11 330.64,587.84 332.81,587.56 334.97,587.26 337.12,586.94 339.26,586.62 341.39,586.28 343.51,585.92 345.62,585.56 347.72,585.18 349.80,584.80 351.88,584.40 353.95,584.00 356.01,583.59 358.07,583.17 360.11,582.74 362.15,582.30 364.18,581.86 366.20,581.42 368.22,580.97 370.23,580.51 372.24,580.05 374.25,579.59 376.25,579.13 378.25,578.66 380.24,578.19 382.23,577.71 384.22,577.24 386.21,576.76 388.19,576.28 390.17,575.80 392.14,575.31 394.11,574.83 396.08,574.34 398.05,573.84 400.01,573.35 401.97,572.85 403.92,572.35 405.88,571.85 407.82,571.34 409.77,570.83 411.71,570.32 413.64,569.80 415.57,569.29 417.50,568.77 419.42,568.24 421.34,567.72 423.26,567.19 425.17,566.65 427.07,566.12 428.97,565.58 430.87,565.04 432.76,564.49 434.65,563.95 436.53,563.39 438.41,562.84 440.28,562.28 442.15,561.72 444.01,561.16 445.86,560.59 447.72,560.02 449.56,559.45 451.40,558.87 453.23,558.29 455.06,557.70 456.88,557.11 458.70,556.52 460.51,555.93 462.32,555.33 464.11,554.73 465.91,554.12 467.69,553.51 469.47,552.90 471.24,552.29 473.01,551.67 474.76,551.04 476.52,550.41 478.26,549.78 480.00,549.15 481.73,548.51 483.45,547.87 485.16,547.22 486.87,546.57 488.57,545.92 490.26,545.26 491.94,544.60 493.62,543.93 495.29,543.26 496.95,542.59 498.60,541.91 500.24,541.23 501.87,540.55 503.49,539.86 505.11,539.16 506.72,538.47 508.31,537.77 509.91,537.06 511.49,536.36 513.07,535.65 514.65,534.94 516.22,534.23 517.79,533.52 519.36,532.81 520.93,532.09 522.50,531.38 524.08,530.67 525.65,529.96 527.23,529.25 528.82,528.55 530.41,527.84 532.00,527.14 533.61,526.44 535.22,525.75 536.85,525.06 538.48,524.38 540.13,523.70 541.79,523.02 543.46,522.36 545.15,521.70 546.85,521.05 548.56,520.40 550.30,519.76 552.05,519.13 553.81,518.51 555.59,517.90 557.38,517.29 559.18,516.69 560.99,516.10 562.82,515.51 564.65,514.93 566.49,514.36 568.35,513.79 570.21,513.22 572.07,512.66 573.95,512.11 575.83,511.55 577.71,511.00 579.60,510.46 581.49,509.92 583.39,509.37 585.29,508.84 587.20,508.30 589.10,507.76 591.01,507.23 592.92,506.69 594.83,506.16 596.73,505.63 598.64,505.09 600.55,504.56 602.45,504.02 604.35,503.48 606.25,502.95 608.15,502.40 610.04,501.86 611.93,501.31 613.81,500.76 615.69,500.21 617.56,499.65 619.43,499.09 621.28,498.52 623.13,497.95 624.97,497.37 626.80,496.79 628.62,496.20 630.43,495.60 632.23,495.00 634.01,494.39 635.78,493.77 637.54,493.15 639.28,492.51 641.00,491.87 642.71,491.22 644.40,490.57 646.07,489.90 647.73,489.22 649.37,488.54 650.99,487.85 652.59,487.15 654.17,486.45 655.74,485.73 657.29,485.01 658.83,484.29 660.35,483.55 661.85,482.81 663.33,482.07 664.80,481.32 666.26,480.56 667.70,479.80 669.12,479.03 670.53,478.26 671.93,477.48 673.31,476.69 674.68,475.91 676.04,475.12 677.38,474.32 678.71,473.52 680.02,472.72 681.33,471.91 682.62,471.10 683.90,470.28 685.17,469.47 686.43,468.65 687.68,467.82 688.92,467.00 690.15,466.17 691.37,465.33 692.58,464.50 693.78,463.66 694.97,462.82 696.16,461.98 697.34,461.14 698.51,460.29 699.67,459.45 700.82,458.60 701.97,457.75 703.12,456.89 704.25,456.04 705.39,455.18 706.51,454.33 707.63,453.47 708.75,452.61 709.86,451.75 710.97,450.89 712.07,450.03 713.17,449.16 714.26,448.30 715.35,447.43 716.44,446.57 717.52,445.70 718.60,444.83 719.68,443.96 720.75,443.09 721.82,442.22 722.89,441.35 723.96,440.48 725.02,439.61 726.09,438.74 727.15,437.87 728.21,436.99 729.27,436.12 730.32,435.25 731.38,434.38 732.44,433.50 733.49,432.63 734.55,431.76 735.60,430.88 736.66,430.01 737.72,429.14 738.78,428.26 739.83,427.39 740.89,426.52 741.95,425.64 743.02,424.77 744.08,423.90 745.15,423.03 746.22,422.16 747.29,421.29 748.36,420.42 749.44,419.55 750.52,418.68 751.60,417.82 752.69,416.95 753.78,416.09 754.88,415.22 755.98,414.36 757.08,413.50 758.19,412.64 759.30,411.78 760.42,410.92 761.55,410.06 762.68,409.20 763.81,408.35 764.95,407.50 766.10,406.65 767.26,405.80 768.42,404.95 769.58,404.10 770.76,403.26 771.93,402.41 773.11,401.57 774.30,400.73 775.49,399.89 776.68,399.05 777.88,398.21 779.07,397.37 780.27,396.54 781.47,395.70 782.67,394.86 783.87,394.02 785.07,393.19 786.27,392.35 787.47,391.51 788.66,390.67 789.86,389.83 791.05,388.99 792.24,388.15 793.42,387.31 794.60,386.47 795.78,385.62 796.95,384.78 798.12,383.93 799.28,383.09 800.44,382.24 801.58,381.39 802.73,380.53 803.86,379.68 804.99,378.82 806.11,377.96 807.22,377.10 808.32,376.24 809.42,375.38 810.51,374.51 811.58,373.64 812.65,372.77 813.70,371.90 814.75,371.02 815.78,370.14 816.79,369.26 817.77,368.37 818.74,367.48 819.68,366.58 820.58,365.67 821.46,364.76 822.29,363.85 823.08,362.92 823.82,361.99 824.51,361.05 825.14,360.10 825.70,359.14 826.19,358.18 826.60,357.21 826.91,356.23 827.13,355.25 827.24,354.26 827.22,353.28 827.09,352.29 826.82,351.31 826.42,350.34 825.91,349.38 825.29,348.43 824.56,347.50 823.74,346.58 822.84,345.67 821.85,344.78 820.80,343.91 819.68,343.05 818.51,342.21 817.28,341.38 816.01,340.56 814.69,339.75 813.35,338.96 811.97,338.18 810.56,337.40 809.12,336.64 807.67,335.88 806.19,335.13 804.70,334.39 803.19,333.65 801.67,332.92 800.14,332.19 798.61,331.46 797.07,330.74 795.52,330.02 793.97,329.30 792.42,328.58 790.87,327.85 789.33,327.13 787.79,326.41 786.25,325.68 784.72,324.95 783.20,324.22 781.68,323.49 780.16,322.75 778.65,322.02 777.13,321.28 775.62,320.55 774.11,319.81 772.60,319.08 771.09,318.34 769.58,317.61 768.06,316.87 766.54,316.14 765.02,315.40 763.50,314.67 761.97,313.95 760.43,313.22 758.89,312.50 757.34,311.78 755.78,311.06 754.22,310.34 752.64,309.63 751.05,308.93 749.45,308.23 747.84,307.53 746.22,306.84 744.58,306.16 742.93,305.48 741.27,304.81 739.58,304.15 737.88,303.50 736.16,302.85 734.43,302.22 732.67,301.59 730.90,300.98 729.10,300.38 727.28,299.79 725.44,299.21 723.58,298.64 721.70,298.09 719.79,297.56 717.86,297.04 715.91,296.54 713.94,296.05 711.94,295.59 709.92,295.14 707.87,294.71 705.81,294.30 703.72,293.91 701.61,293.55 699.49,293.21 697.34,292.88 695.18,292.59 693.00,292.31 690.81,292.06 688.60,291.83 686.38,291.63 684.15,291.45 681.91,291.29 679.66,291.15 677.41,291.03 675.15,290.94 672.89,290.87 670.62,290.82 668.36,290.79 666.09,290.79 663.82,290.80 661.55,290.84 659.29,290.90 657.03,290.99 654.77,291.10 652.52,291.23 650.28,291.38 648.05,291.56 645.83,291.77 643.62,291.99 641.43,292.24 639.24,292.51 637.08,292.80 634.92,293.11 632.78,293.44 630.66,293.78 628.55,294.15 626.46,294.53 624.39,294.93 622.33,295.35 620.29,295.78 618.26,296.22 616.26,296.68 614.26,297.16 612.29,297.64 610.33,298.14 608.38,298.64 606.45,299.16 604.53,299.69 602.63,300.23 600.74,300.77 598.86,301.33 597.00,301.89 595.14,302.46 593.30,303.03 591.47,303.61 589.64,304.20 587.83,304.79 586.03,305.39 584.23,306.00 582.44,306.60 580.66,307.21 578.88,307.83 577.11,308.44 575.34,309.06 573.58,309.68 571.82,310.31 570.06,310.93 568.31,311.56 566.56,312.18 564.81,312.81 563.06,313.44 561.31,314.07 559.55,314.69 557.80,315.32 556.05,315.95 554.29,316.57 552.53,317.19 550.76,317.81 548.99,318.43 547.21,319.04 545.43,319.65 543.64,320.26 541.85,320.86 540.04,321.46 538.23,322.05 536.41,322.64 534.57,323.22 532.73,323.80 530.88,324.37 529.01,324.93 527.13,325.48 525.24,326.03 523.34,326.56 521.42,327.09 519.49,327.61 517.56,328.12 515.61,328.63 513.65,329.13 511.68,329.62 509.70,330.10 507.71,330.58 505.72,331.05 503.71,331.51 501.70,331.97 499.69,332.42 497.66,332.87 495.64,333.31 493.60,333.75 491.57,334.18 489.52,334.61 487.48,335.04 485.43,335.46 483.38,335.88 481.32,336.30 479.26,336.71 477.21,337.13 475.15,337.54 473.08,337.96 471.02,338.37 468.96,338.78 466.90,339.19 464.84,339.60 462.78,340.02 460.72,340.43 458.66,340.85 456.61,341.27 454.55,341.69 452.50,342.11 450.46,342.53 448.41,342.96 446.38,343.40 444.34,343.83 442.31,344.27 440.29,344.72 438.27,345.17 436.25,345.62 434.25,346.08 432.25,346.55 430.25,347.02 428.27,347.50 426.29,347.98 424.32,348.47 422.36,348.97 420.41,349.47 418.47,349.98 416.54,350.50 414.62,351.03 412.71,351.56 410.81,352.10 408.92,352.65 407.04,353.20 405.18,353.76 403.33,354.33 401.49,354.91 399.67,355.50 397.86,356.10 396.06,356.70 394.28,357.31 392.50,357.92 390.73,358.54 388.97,359.16 387.20,359.78 385.44,360.40 383.68,361.02 381.91,361.64 380.14,362.26 378.36,362.87 376.57,363.48 374.77,364.08 372.95,364.67 371.12,365.25 369.26,365.81 367.38,366.37 365.48,366.90 363.55,367.42 361.59,367.92 359.59,368.39 357.56,368.83 355.50,369.24 353.39,369.61 351.25,369.94 349.08,370.22 346.87,370.44 344.63,370.61 342.38,370.71 340.11,370.74 337.84,370.70 335.59,370.58 333.36,370.40 331.17,370.15 329.01,369.85 326.89,369.50 324.82,369.09 322.79,368.65 320.81,368.17 318.88,367.66 316.98,367.11 315.14,366.54 313.33,365.94 311.57,365.32 309.85,364.67 308.17,364.01 306.53,363.33 304.93,362.63 303.36,361.92 301.83,361.19 300.33,360.45 298.87,359.69 297.45,358.92 296.06,358.14 294.70,357.35 293.38,356.55 292.09,355.74 290.84,354.92 289.62,354.08 288.43,353.24 287.28,352.39 286.16,351.53 285.08,350.67 284.04,349.79 283.03,348.91 282.06,348.01 281.13,347.12 280.23,346.21 279.38,345.29 278.57,344.37 277.81,343.44 277.09,342.51 276.43,341.56 275.81,340.61 275.25,339.66 274.75,338.69 274.31,337.73 273.94,336.75 273.65,335.77 273.43,334.79 273.29,333.81 273.25,332.82 273.31,331.83 273.47,330.85 273.76,329.87 274.18,328.90 274.75,327.95 275.47,327.01 276.35,326.10 277.40,325.23 278.62,324.40 280.00,323.61 281.51,322.88 283.13,322.19 284.86,321.55 286.67,320.95 288.54,320.40 290.48,319.88 292.46,319.40 294.47,318.95 296.52,318.53 298.60,318.13 300.69,317.75 302.81,317.39 304.94,317.05 307.08,316.72 309.23,316.41 311.39,316.10 313.55,315.81 315.72,315.52 317.90,315.24 320.07,314.96 322.25,314.68 324.43,314.41 326.61,314.14 328.79,313.86 330.97,313.58 333.14,313.30 335.31,313.02 337.48,312.72 339.64,312.42 341.79,312.11 343.93,311.79 346.07,311.45 348.19,311.11 350.31,310.75 352.42,310.38 354.51,310.01 356.60,309.62 358.68,309.22 360.74,308.82 362.80,308.40 364.85,307.98 366.89,307.55 368.92,307.11 370.95,306.66 372.96,306.21 374.97,305.75 376.97,305.28 378.96,304.81 380.95,304.34 382.93,303.85 384.91,303.37 386.88,302.88 388.85,302.39 390.82,301.90 392.78,301.40 394.74,300.91 396.70,300.41 398.66,299.92 400.62,299.42 402.59,298.93 404.55,298.43 406.52,297.94 408.49,297.45 410.47,296.97 412.45,296.49 414.44,296.02 416.44,295.55 418.45,295.09 420.46,294.63 422.48,294.19 424.52,293.75 426.56,293.32 428.62,292.91 430.68,292.50 432.76,292.10 434.84,291.71 436.94,291.33 439.04,290.96 441.15,290.60 443.28,290.25 445.40,289.91 447.54,289.58 449.69,289.26 451.84,288.95 454.00,288.64 456.17,288.35 458.34,288.07 460.52,287.79 462.70,287.52 464.89,287.26 467.08,287.01 469.28,286.77 471.48,286.53 473.69,286.30 475.90,286.08 478.11,285.86 480.33,285.65 482.55,285.45 484.77,285.25 487.00,285.06 489.23,284.88 491.46,284.70 493.69,284.52 495.92,284.35 498.16,284.18 500.40,284.01 502.64,283.85 504.87,283.69 507.11,283.54 509.35,283.38 511.60,283.23 513.84,283.07 516.08,282.92 518.32,282.77 520.56,282.62 522.80,282.47 525.05,282.32 527.29,282.17 529.53,282.01 531.77,281.86 534.01,281.70 536.25,281.55 538.49,281.39 540.73,281.23 542.97,281.06 545.20,280.90 547.44,280.73 549.67,280.55 551.90,280.38 554.13,280.20 556.36,280.01 558.59,279.82 560.81,279.62 563.03,279.42 565.25,279.21 567.46,279.00 569.67,278.78 571.88,278.55 574.08,278.31 576.28,278.06 578.47,277.81 580.65,277.54 582.83,277.26 584.99,276.96 587.15,276.66 589.29,276.33 591.42,275.99 593.54,275.64 595.63,275.26 597.71,274.86 599.75,274.43 601.77,273.98 603.75,273.50 605.68,272.98 607.56,272.42 609.36,271.83 611.08,271.19 612.70,270.49 614.19,269.75 615.52,268.95 616.66,268.10 617.58,267.20 618.27,266.26 618.70,265.29 618.88,264.30 618.82,263.32 618.54,262.34 618.08,261.37 617.48,260.42 616.76,259.49 615.95,258.56 615.07,257.66 614.12,256.76 613.13,255.87 612.10,254.99 611.04,254.12 609.95,253.25 608.83,252.39 607.71,251.54 606.57,250.68 605.42,249.83 604.27,248.98 603.12,248.13 601.98,247.28 600.84,246.43 599.71,245.57 598.59,244.71 597.47,243.85 596.36,242.99 595.26,242.13 594.16,241.27 593.05,240.41 591.96,239.54 590.86,238.68 589.75,237.82 588.65,236.95 587.54,236.09 586.43,235.23 585.30,234.38 584.17,233.52 583.03,232.67 581.88,231.82 580.72,230.97 579.54,230.13 578.34,229.29 577.13,228.46 575.90,227.63 574.64,226.80 573.37,225.99 572.07,225.18 570.75,224.37 569.41,223.58 568.04,222.79 566.64,222.02 565.21,221.25 563.76,220.49 562.27,219.75 560.76,219.01 559.22,218.29 557.64,217.58 556.04,216.88 554.41,216.19 552.76,215.52 551.07,214.86 549.37,214.21 547.64,213.57 545.89,212.94 544.12,212.32 542.34,211.71 540.54,211.11 538.72,210.52 536.90,209.93 535.06,209.35 533.20,208.78 531.34,208.22 529.47,207.66 527.59,207.11 525.71,206.56 523.81,206.02 521.91,205.48 520.00,204.94 518.09,204.41 516.17,203.89 514.25,203.36 512.33,202.84 510.40,202.32 508.47,201.80 506.54,201.28 504.61,200.76 502.68,200.24 500.75,199.73 498.81,199.21 496.88,198.69 494.95,198.18 493.02,197.66 491.09,197.13 489.17,196.61 487.25,196.09 485.33,195.56 483.42,195.03 481.52,194.49 479.62,193.95 477.72,193.41 475.84,192.86 473.96,192.31 472.09,191.75 470.23,191.18 468.38,190.61 466.55,190.03 464.72,189.44 462.92,188.85 461.12,188.24 459.34,187.63 457.59,187.00 455.85,186.37 454.13,185.73 452.44,185.07 450.77,184.40 449.13,183.72 447.52,183.02 445.94,182.31 444.40,181.59 442.90,180.85 441.44,180.09 440.02,179.32 438.66,178.53 437.35,177.73 436.09,176.91 434.90,176.07 433.77,175.21 432.71,174.34 431.72,173.45 430.82,172.55 429.99,171.63 429.25,170.70 428.59,169.75 428.03,168.80 427.56,167.83 427.17,166.86 426.89,165.88 426.69,164.90 426.58,163.91 426.56,162.92 426.60,161.94 426.64,160.95 426.64,159.96 426.57,158.98 426.39,157.99 426.10,157.02 425.71,156.04 425.23,155.08 424.66,154.12 424.01,153.18 423.28,152.24 422.48,151.32 421.62,150.41 420.70,149.51 419.72,148.61 418.69,147.74 417.62,146.87 416.50,146.01 415.34,145.16 414.14,144.32 412.91,143.49 411.65,142.67 410.35,141.86 409.03,141.06 407.68,140.27 406.30,139.48 404.90,138.71 403.48,137.94 402.03,137.18 400.57,136.42 399.09,135.68 397.59,134.94 396.07,134.20 394.54,133.47 392.99,132.75 391.43,132.04 389.86,131.33 388.27,130.62 386.67,129.92 385.05,129.23 383.43,128.54 381.79,127.86 380.15,127.18 378.49,126.50 376.83,125.83 375.15,125.17 373.47,124.51 371.78,123.85 370.07,123.20 368.37,122.55 366.65,121.90 364.93,121.26 363.20,120.62 361.46,119.99 359.72,119.35 357.97,118.73 356.21,118.10 354.45,117.48 352.68,116.86 350.91,116.25 349.13,115.63 347.34,115.02 345.56,114.42 343.76,113.81 341.96,113.21 340.16,112.61 338.35,112.02 336.54,111.42 334.72,110.83 332.90,110.24 331.08,109.66 329.25,109.07 327.41,108.49 325.58,107.91 323.74,107.34 321.89,106.76 320.05,106.19 318.20,105.62 316.34,105.05 314.49,104.48 312.63,103.91 310.76,103.35 308.90,102.79 307.03,102.23 305.16,101.67 303.29,101.12 301.41,100.56 299.53,100.01 297.65,99.46 295.77,98.91 293.88,98.36 291.99,97.81 290.10,97.26 288.21,96.72 286.31,96.18 284.42,95.64 282.52,95.09 280.62,94.56 278.72,94.02 276.82,93.48 274.91,92.94 273.00,92.41 271.10,91.87 269.19,91.34 267.28,90.81 265.37,90.28 263.46,89.75 261.54,89.21 259.63,88.68 257.72,88.15 255.80,87.62 253.89,87.09 251.98,86.56 250.06,86.03 248.15,85.50 246.24,84.97 244.34,84.43 242.43,83.90 240.53,83.36 238.64,82.81 236.75,82.27 234.88,81.71 233.02,81.14 231.20,80.55 229.46,79.92 228.67,79.15 230.92,79.22 233.12,79.46 235.30,79.73 237.46,80.03 239.61,80.35 241.75,80.67 243.89,81.00 246.02,81.33 248.16,81.67 250.30,82.00 252.44,82.32 254.60,82.63 256.78,82.90 258.99,83.11 261.22,83.03 261.14,82.14 259.80,81.34 258.26,80.62 256.63,79.93 254.95,79.27 253.24,78.62 251.50,77.99 249.73,77.37 247.95,76.76 246.16,76.15 244.35,75.56 242.53,74.97 240.70,74.38 238.86,73.81 237.01,73.24 235.15,72.67 233.28,72.11 231.41,71.55 229.53,71.00 227.64,70.46 225.74,69.91 223.84,69.38 221.93,68.85 220.01,68.32 218.08,67.80 216.15,67.28 214.20,66.77 212.25,66.27 210.29,65.77 208.32,65.28 206.34,64.80 204.35,64.33 202.35,63.86 200.33,63.41 198.30,62.97 196.26,62.55 194.19,62.14 192.10,61.75 189.99,61.39 187.85,61.07 185.68,60.78 183.48,60.54 181.26,60.34 179.02,60.18 176.76,60.07 174.50,60.01 172.23,60.00 169.97,60.06 167.72,60.20 165.52,60.43 163.38,60.77 161.35,61.20 159.44,61.73 157.66,62.35 156.03,63.03 154.56,63.78 153.24,64.59 152.09,65.44 151.11,66.32 150.30,67.25 149.68,68.20 149.23,69.16 148.89,70.14 148.59,71.12 148.27,72.09 147.85,73.06 147.23,74.01 146.26,74.90 144.86,75.67 143.12,76.31 141.19,76.83 139.15,77.26 137.06,77.64 134.94,77.99 132.81,78.33 130.68,78.67 128.58,79.04 126.51,79.45 124.51,79.91 122.60,80.44 120.83,81.06 119.20,81.75 117.73,82.50 116.42,83.30 115.28,84.15 114.31,85.05 113.52,85.97 112.92,86.92 112.52,87.89 112.32,88.88 112.34,89.86 112.59,90.84 113.05,91.81 113.70,92.75 114.52,93.67 115.50,94.56 116.62,95.42 117.85,96.25 119.18,97.05 120.60,97.82 122.10,98.56 123.67,99.27 125.30,99.96 126.98,100.62 128.71,101.26 130.48,101.87 132.30,102.47 134.15,103.04 136.04,103.59 137.95,104.12 139.89,104.63 141.84,105.13 143.82,105.61 145.81,106.09 147.80,106.56 149.81,107.02 151.82,107.48 153.83,107.94 155.83,108.40 157.83,108.86 159.82,109.34 161.80,109.82 163.76,110.32 165.70,110.83 167.62,111.35 169.52,111.89 171.41,112.44 173.27,113.01 175.12,113.58 176.95,114.16 178.76,114.75 180.57,115.35 182.36,115.96 184.14,116.57 185.91,117.19 187.67,117.81 189.43,118.43 191.18,119.06 192.92,119.69 194.67,120.32 196.41,120.96 198.14,121.59 199.86,122.23 201.58,122.88 203.30,123.52 205.00,124.18 206.69,124.83 208.37,125.49 210.05,126.16 211.71,126.83 213.35,127.51 214.99,128.20 216.60,128.89 218.21,129.59 219.79,130.29 221.36,131.01 222.91,131.73 224.43,132.46 225.94,133.20 227.43,133.94 228.89,134.70 230.32,135.46 231.73,136.23 233.12,137.02 234.48,137.81 235.82,138.60 237.14,139.40 238.45,140.21 239.74,141.02 241.02,141.84 242.30,142.65 243.56,143.47 244.83,144.29 246.09,145.11 247.35,145.93 248.62,146.75 249.89,147.57 251.17,148.38 252.46,149.19 253.76,150.00 255.09,150.80 256.42,151.60 257.78,152.39 259.17,153.17 260.57,153.95 262.01,154.71 263.47,155.46 264.97,156.21 266.49,156.94 268.06,157.65 269.66,158.35 271.29,159.04 272.96,159.70 274.68,160.35 276.43,160.98 278.22,161.58 280.04,162.17 281.91,162.73 283.81,163.27 285.72,163.80 287.63,164.33 289.53,164.87 291.40,165.43 293.23,166.02 294.98,166.64 296.64,167.31 298.16,168.05 299.51,168.84 300.65,169.69 301.63,170.58 302.53,171.49 303.43,172.39 304.42,173.28 305.57,174.13 306.92,174.92 308.46,175.65 310.14,176.31 311.91,176.93 313.74,177.51 315.62,178.06 317.53,178.60 319.45,179.12 321.38,179.64 323.29,180.17 325.18,180.72 327.02,181.30 328.79,181.91 330.43,182.59 331.88,183.35 333.01,184.21 333.67,185.15 333.78,186.13 333.39,187.10 332.77,188.05 332.16,189.00 331.82,189.97 331.96,190.96 332.64,191.90 333.76,192.75 335.20,193.52 336.84,194.19 338.62,194.81 340.48,195.37 342.40,195.90 344.36,196.40 346.34,196.88 348.33,197.35 350.32,197.82 352.32,198.29 354.30,198.78 356.25,199.27 358.18,199.80 360.06,200.35 361.87,200.94 363.58,201.59 365.16,202.30 366.56,203.08 367.74,203.92 368.69,204.81 369.42,205.75 369.92,206.71 370.22,207.69 370.34,208.67 370.30,209.66 370.12,210.64 369.83,211.62 369.43,212.59 368.95,213.56 368.40,214.51 367.78,215.46 367.10,216.40 366.38,217.34 365.59,218.26 364.73,219.18 363.74,220.06 362.57,220.91 361.16,221.68 359.40,222.30 357.28,222.63 355.02,222.60 352.82,222.36 350.67,222.04 348.51,221.74 346.30,221.52 344.04,221.51 341.92,221.84 340.05,222.40 338.36,223.06 336.75,223.75 335.12,224.44 333.38,225.07 331.51,225.63 329.54,226.12 327.50,226.55 325.43,226.95 323.34,227.34 321.25,227.72 319.19,228.13 317.19,228.60 315.31,229.15 313.64,229.82 312.31,230.62 311.40,231.52 310.87,232.48 310.36,233.44 309.43,234.33 307.66,234.93 305.48,235.20 303.22,235.29 300.95,235.31 298.68,235.31 296.42,235.34 294.16,235.44 291.95,235.67 289.82,236.00 287.77,236.42 285.83,236.93 283.97,237.50 282.19,238.11 280.44,238.74 278.72,239.38 277.01,240.03 275.30,240.68 273.58,241.32 271.86,241.96 270.12,242.60 268.35,243.22 266.56,243.82 264.74,244.41 262.88,244.98 260.98,245.51 259.03,246.02 257.03,246.48 254.98,246.91 252.88,247.28 250.72,247.59 248.53,247.83 246.30,248.01 244.04,248.12 241.78,248.16 239.51,248.21 237.25,248.31 235.06,248.56 233.01,248.98 231.14,249.53 229.43,250.18 227.85,250.89 226.35,251.63 224.89,252.39 223.44,253.15 221.95,253.89 220.39,254.60 218.69,255.26 216.81,255.81 214.73,256.20 212.52,256.42 210.26,256.48 208.00,256.41 205.76,256.24 203.57,255.99 201.41,255.68 199.29,255.34 197.19,254.96 195.12,254.55 193.07,254.13 191.03,253.70 188.99,253.27 186.96,252.83 184.91,252.40 182.85,251.99 180.78,251.59 178.70,251.19 176.61,250.81 174.52,250.43 172.42,250.06 170.32,249.68 168.23,249.29 166.15,248.90 164.09,248.49 162.05,248.06 160.02,247.61 158.02,247.15 156.04,246.67 154.09,246.17 152.16,245.65 150.25,245.11 148.37,244.56 146.52,243.99 144.69,243.41 142.89,242.81 141.11,242.19 139.36,241.56 137.64,240.92 135.94,240.27 134.28,239.60 132.63,238.92 131.02,238.23 129.43,237.52 127.86,236.81 126.32,236.08 124.81,235.35 123.32,234.60 121.86,233.85 120.42,233.08 119.00,232.31 117.61,231.54 116.24,230.75 114.89,229.95 113.57,229.15 112.26,228.35"/>
<polyline fill="none" stroke="#d62728" stroke-width="1.8" stroke-opacity="1.0" points="74.18,244.88 74.28,245.87 74.38,246.85 74.47,247.84 74.57,248.83 74.66,249.81 74.75,250.80 74.84,251.78 74.92,252.77 75.01,253.76 75.09,254.74 75.16,255.73 75.23,256.71 75.30,257.70 75.36,258.69 75.42,259.67 75.48,260.66 75.53,261.65 75.57,262.63 75.61,263.62 75.64,264.61 75.67,265.59 75.69,266.58 75.70,267.57 75.72,268.55 75.72,269.54 75.73,270.53 75.73,271.51 75.73,272.50 75.73,273.49 75.72,274.47 75.72,275.46 75.72,276.45 75.71,277.43 75.71,278.42 75.71,279.41 75.71,280.40 75.71,281.38 75.72,282.37 75.73,283.36 75.75,284.34 75.77,285.33 75.79,286.32 75.82,287.30 75.86,288.29 75.91,289.28 75.96,290.26 76.02,291.25 76.09,292.24 76.17,293.22 76.26,294.21 76.36,295.19 76.47,296.18 76.59,297.16 76.73,298.15 76.88,299.13 77.04,300.12 77.22,301.10 77.41,302.09 77.62,303.07 77.84,304.05 78.08,305.03 78.34,306.01 78.61,306.99 78.91,307.97 79.22,308.95 79.56,309.92 79.91,310.90 80.29,311.87 80.69,312.84 81.11,313.81 81.55,314.78 82.02,315.74 82.51,316.71 83.03,317.67 83.58,318.63 84.15,319.58 84.75,320.53 85.37,321.48 86.03,322.43 86.71,323.37 87.42,324.31 88.15,325.24 88.90,326.17 89.68,327.10 90.48,328.02 91.30,328.94 92.14,329.86 93.00,330.77 93.88,331.68 94.78,332.59 95.69,333.49 96.61,334.39 97.55,335.29 98.50,336.19 99.47,337.08 100.44,337.97 101.43,338.86 102.42,339.75 103.42,340.63 104.44,341.51 105.45,342.40 106.48,343.28 107.51,344.16 108.54,345.03 109.58,345.91 110.62,346.79 111.66,347.67 112.70,348.54 113.74,349.42 114.79,350.29 115.83,351.17 116.87,352.05 117.91,352.93 118.94,353.80 119.97,354.68 120.99,355.56 122.01,356.45 123.02,357.33 124.03,358.21 125.02,359.10 126.01,359.99 126.99,360.88 127.96,361.77 128.91,362.67 129.86,363.56 130.79,364.46 131.70,365.37 132.61,366.27 133.49,367.18 134.36,368.09 135.22,369.01 136.06,369.92 136.88,370.84 137.69,371.76 138.49,372.69 139.28,373.61 140.05,374.54 140.82,375.47 141.57,376.40 142.32,377.33 143.06,378.27 143.79,379.20 144.51,380.13 145.23,381.07 145.95,382.01 146.66,382.94 147.37,383.88 148.07,384.82 148.78,385.76 149.48,386.70 150.19,387.63 150.89,388.57 151.60,389.51 152.31,390.45 153.03,391.38 153.75,392.32 154.47,393.25 155.20,394.19 155.94,395.12 156.69,396.05 157.44,396.98 158.21,397.91 158.98,398.84 159.77,399.76 160.57,400.69 161.38,401.61 162.21,402.53 163.05,403.44 163.91,404.36 164.79,405.27 165.68,406.18 166.59,407.08 167.52,407.98 168.47,408.87 169.44,409.77 170.44,410.65 171.46,411.54 172.50,412.41 173.56,413.28 174.65,414.15 175.77,415.01 176.91,415.86 178.08,416.71 179.28,417.54 180.50,418.37 181.76,419.20 183.04,420.01 184.35,420.82 185.69,421.61 187.07,422.40 188.47,423.17 189.90,423.94 191.36,424.69 192.86,425.44 194.38,426.17 195.93,426.89 197.51,427.60 199.11,428.30 200.72,428.99 202.34,429.68 203.98,430.36 205.61,431.05 207.25,431.73 208.88,432.42 210.51,433.10 212.12,433.80 213.72,434.50 215.30,435.21 216.85,435.93 218.37,436.66 219.85,437.41 221.30,438.17 222.69,438.95 224.02,439.75 225.28,440.57 226.47,441.41 227.58,442.27 228.59,443.15 229.50,444.05 230.32,444.97 231.05,445.91 231.69,446.86 232.25,447.81 232.74,448.77 233.17,449.74 233.53,450.72 233.85,451.69 234.12,452.67 234.35,453.66 234.54,454.64 234.71,455.62 234.85,456.61 234.98,457.59 235.09,458.58 235.19,459.56 235.29,460.55 235.39,461.54 235.49,462.52 235.60,463.51 235.73,464.49 235.87,465.48 236.03,466.46 236.20,467.45 236.39,468.43 236.58,469.41 236.78,470.40 236.99,471.38 237.21,472.36 237.43,473.34 237.66,474.32 237.88,475.31 238.11,476.29 238.34,477.27 238.57,478.25 238.79,479.23 239.01,480.22 239.22,481.20 239.42,482.18 239.61,483.17 239.79,484.15 239.95,485.13 240.11,486.12 240.24,487.10 240.36,488.09 240.46,489.07 240.53,490.06 240.58,491.05 240.61,492.03 240.61,493.02 240.58,494.01 240.53,494.99 240.44,495.98 240.32,496.96 240.17,497.95 239.99,498.93 239.79,499.92 239.57,500.90 239.33,501.88 239.06,502.86 238.78,503.84 238.48,504.82 238.17,505.79 237.84,506.77 237.51,507.75 237.16,508.72 236.81,509.70 236.45,510.67 236.09,511.65 235.73,512.62 235.36,513.59 235.00,514.57 234.64,515.54 234.28,516.52 233.93,517.49 233.59,518.47 233.26,519.44 232.93,520.42 232.63,521.40 232.33,522.38 232.05,523.36 231.79,524.34 231.54,525.32 231.32,526.30 231.12,527.28 230.94,528.27 230.79,529.25 230.66,530.24 230.56,531.22 230.49,532.21 230.46,533.19 230.45,534.18 230.48,535.17 230.54,536.15 230.64,537.14 230.78,538.12 230.95,539.11 231.16,540.09 231.39,541.07 231.64,542.05 231.90,543.03 232.16,544.01 232.41,545.00 232.66,545.98 232.89,546.96 233.09,547.94 233.25,548.93 233.38,549.91 233.45,550.90 233.47,551.88 233.41,552.87 233.28,553.86 233.05,554.84 232.73,555.81 232.30,556.78 231.75,557.74 231.08,558.68 230.28,559.61 229.36,560.51 228.31,561.38 227.14,562.23 225.88,563.05 224.58,563.86 223.24,564.66 221.90,565.45 220.58,566.25 219.31,567.07 218.13,567.91 217.09,568.79 216.27,569.71 215.76,570.67 215.62,571.65 215.83,572.63 216.37,573.59 217.19,574.50 218.24,575.38 219.47,576.21 220.85,576.99 222.35,577.73 223.94,578.43 225.61,579.10 227.34,579.74 229.12,580.35 230.95,580.93 232.82,581.49 234.73,582.02 236.66,582.54 238.63,583.03 240.61,583.51 242.62,583.97 244.65,584.41 246.70,584.83 248.76,585.24 250.84,585.63 252.94,586.01 255.05,586.37 257.17,586.72 259.31,587.05 261.46,587.37 263.62,587.67 265.79,587.95 267.97,588.22 270.17,588.47 272.37,588.71 274.58,588.92 276.81,589.12 279.04,589.29 281.28,589.45 283.52,589.59 285.78,589.71 288.03,589.81 290.29,589.88 292.56,589.94 294.82,589.98 297.09,589.99 299.36,589.99 301.63,589.96 303.89,589.92 306.16,589.85 308.42,589.76 310.67,589.65 312.92,589.53 315.16,589.38 317.40,589.21 319.63,589.03 321.85,588.82 324.06,588.60 326.26,588.37 328.45,588.11 330.64,587.84 332.81,587.56 334.97,587.26 337.12,586.94 339.26,586.61 341.39,586.27 343.51,585.92 345.62,585.56 347.71,585.18 349.80,584.80 351.88,584.40 353.95,584.00 356.01,583.59 358.07,583.16 360.11,582.74 362.15,582.30 364.18,581.86 366.20,581.42 368.22,580.97 370.23,580.51 372.24,580.05 374.25,579.59 376.25,579.12 378.24,578.66 380.24,578.19 382.23,577.71 384.22,577.24 386.20,576.76 388.19,576.28 390.17,575.80 392.14,575.31 394.11,574.83 396.08,574.34 398.05,573.84 400.01,573.35 401.97,572.85 403.92,572.35 405.87,571.85 407.82,571.34 409.77,570.83 411.71,570.32 413.64,569.80 415.57,569.29 417.50,568.76 419.42,568.24 421.34,567.71 423.26,567.19 425.17,566.65 427.07,566.12 428.97,565.58 430.87,565.04 432.76,564.49 434.65,563.94 436.53,563.39 438.41,562.84 440.28,562.28 442.14,561.72 444.01,561.16 445.86,560.59 447.71,560.02 449.56,559.44 451.40,558.87 453.23,558.29 455.06,557.70 456.88,557.11 458.70,556.52 460.51,555.93 462.31,555.33 464.11,554.73 465.90,554.12 467.69,553.51 469.47,552.90 471.24,552.28 473.01,551.66 474.76,551.04 476.51,550.41 478.26,549.78 480.00,549.15 481.73,548.51 483.45,547.87 485.16,547.22 486.87,546.57 488.57,545.92 490.26,545.26 491.94,544.60 493.62,543.93 495.29,543.26 496.95,542.59 498.60,541.91 500.24,541.23 501.87,540.55 503.49,539.86 505.11,539.16 506.72,538.47 508.31,537.77 509.91,537.06 511.49,536.36 513.07,535.65 514.65,534.94 516.22,534.23 517.79,533.52 519.36,532.81 520.93,532.09 522.50,531.38 524.08,530.67 525.65,529.96 527.23,529.25 528.82,528.55 530.41,527.84 532.01,527.14 533.61,526.44 535.23,525.75 536.85,525.06 538.48,524.38 540.13,523.70 541.79,523.03 543.46,522.36 545.15,521.70 546.85,521.05 548.57,520.40 550.30,519.76 552.05,519.14 553.81,518.51 555.59,517.90 557.38,517.29 559.18,516.70 560.99,516.10 562.82,515.52 564.65,514.93 566.49,514.36 568.35,513.79 570.21,513.22 572.07,512.66 573.95,512.11 575.83,511.55 577.71,511.01 579.60,510.46 581.50,509.92 583.39,509.38 585.29,508.84 587.20,508.30 589.10,507.76 591.01,507.23 592.92,506.69 594.83,506.16 596.73,505.63 598.64,505.09 600.55,504.56 602.45,504.02 604.35,503.48 606.25,502.94 608.15,502.40 610.04,501.86 611.93,501.31 613.81,500.76 615.69,500.21 617.56,499.65 619.43,499.09 621.28,498.52 623.13,497.95 624.97,497.37 626.80,496.79 628.62,496.20 630.43,495.60 632.22,495.00 634.01,494.39 635.78,493.77 637.53,493.15 639.28,492.51 641.00,491.87 642.71,491.22 644.40,490.57 646.07,489.90 647.73,489.22 649.36,488.54 650.98,487.85 652.58,487.15 654.17,486.44 655.74,485.73 657.29,485.01 658.82,484.28 660.34,483.55 661.84,482.81 663.33,482.07 664.80,481.31 666.25,480.56 667.69,479.79 669.12,479.03 670.53,478.25 671.92,477.48 673.31,476.69 674.67,475.91 676.03,475.11 677.37,474.32 678.70,473.52 680.02,472.72 681.32,471.91 682.62,471.10 683.90,470.28 685.17,469.47 686.43,468.64 687.68,467.82 688.91,466.99 690.14,466.16 691.36,465.33 692.57,464.50 693.78,463.66 694.97,462.82 696.15,461.98 697.33,461.14 698.50,460.29 699.66,459.44 700.82,458.59 701.97,457.74 703.11,456.89 704.25,456.04 705.38,455.18 706.51,454.33 707.63,453.47 708.74,452.61 709.86,451.75 710.96,450.89 712.06,450.02 713.16,449.16 714.26,448.30 715.35,447.43 716.43,446.57 717.52,445.70 718.60,444.83 719.67,443.96 720.75,443.09 721.82,442.22 722.89,441.35 723.95,440.48 725.02,439.61 726.08,438.74 727.14,437.87 728.20,436.99 729.26,436.12 730.32,435.25 731.38,434.37 732.43,433.50 733.49,432.63 734.55,431.76 735.60,430.88 736.66,430.01 737.72,429.14 738.78,428.26 739.83,427.39 740.89,426.52 741.95,425.64 743.02,424.77 744.08,423.90 745.15,423.03 746.22,422.16 747.29,421.29 748.36,420.42 749.44,419.55 750.52,418.68 751.60,417.82 752.69,416.95 753.78,416.09 754.88,415.22 755.98,414.36 757.08,413.50 758.19,412.64 759.30,411.78 760.42,410.92 761.54,410.06 762.67,409.20 763.81,408.35 764.95,407.50 766.10,406.65 767.25,405.80 768.41,404.95 769.58,404.10 770.75,403.26 771.93,402.41 773.11,401.57 774.30,400.73 775.48,399.89 776.68,399.05 777.87,398.21 779.07,397.37 780.26,396.53 781.46,395.70 782.66,394.86 783.86,394.02 785.06,393.18 786.26,392.35 787.46,391.51 788.65,390.67 789.85,389.83 791.04,388.99 792.23,388.15 793.41,387.31 794.59,386.46 795.77,385.62 796.94,384.78 798.11,383.93 799.27,383.08 800.42,382.23 801.57,381.38 802.71,380.53 803.85,379.67 804.97,378.82 806.09,377.96 807.21,377.10 808.31,376.24 809.40,375.37 810.49,374.51 811.56,373.64 812.63,372.77 813.69,371.89 814.73,371.02 815.76,370.14 816.77,369.25 817.76,368.37 818.72,367.47 819.66,366.57 820.57,365.67 821.44,364.76 822.27,363.84 823.06,362.92 823.80,361.98 824.49,361.04 825.12,360.10 825.68,359.14 826.17,358.18 826.58,357.21 826.89,356.23 827.11,355.25 827.22,354.26 827.21,353.28 827.07,352.29 826.80,351.31 826.41,350.34 825.89,349.38 825.27,348.43 824.55,347.50 823.73,346.58 822.82,345.67 821.84,344.79 820.79,343.91 819.67,343.05 818.49,342.21 817.27,341.38 816.00,340.56 814.68,339.76 813.34,338.96 811.96,338.18 810.55,337.41 809.11,336.64 807.66,335.89 806.18,335.14 804.69,334.39 803.18,333.65 801.67,332.92 800.14,332.19 798.60,331.47 797.06,330.74 795.51,330.02 793.97,329.30 792.42,328.58 790.87,327.86 789.32,327.13 787.78,326.41 786.25,325.68 784.72,324.95 783.20,324.22 781.68,323.49 780.16,322.76 778.64,322.02 777.13,321.29 775.62,320.55 774.11,319.81 772.60,319.08 771.09,318.34 769.57,317.61 768.06,316.87 766.54,316.14 765.02,315.41 763.49,314.68 761.96,313.95 760.43,313.22 758.88,312.50 757.34,311.78 755.78,311.06 754.21,310.35 752.63,309.64 751.05,308.93 749.45,308.23 747.84,307.54 746.22,306.85 744.58,306.16 742.93,305.49 741.26,304.82 739.58,304.16 737.88,303.50 736.16,302.86 734.42,302.22 732.67,301.60 730.89,300.98 729.09,300.38 727.28,299.79 725.44,299.21 723.58,298.65 721.69,298.10 719.79,297.56 717.86,297.04 715.91,296.54 713.93,296.06 711.93,295.59 709.91,295.14 707.87,294.71 705.80,294.31 703.71,293.92 701.61,293.55 699.48,293.21 697.34,292.89 695.17,292.59 693.00,292.32 690.80,292.07 688.59,291.84 686.38,291.63 684.15,291.45 681.91,291.29 679.66,291.15 677.41,291.04 675.15,290.95 672.89,290.87 670.62,290.82 668.35,290.80 666.09,290.79 663.82,290.81 661.55,290.85 659.29,290.91 657.03,290.99 654.77,291.10 652.53,291.23 650.29,291.39 648.05,291.57 645.83,291.77 643.63,292.00 641.43,292.24 639.25,292.51 637.08,292.80 634.92,293.11 632.79,293.44 630.66,293.79 628.56,294.15 626.46,294.54 624.39,294.94 622.33,295.35 620.29,295.78 618.27,296.23 616.26,296.69 614.27,297.16 612.29,297.64 610.33,298.14 608.38,298.65 606.45,299.16 604.53,299.69 602.63,300.23 600.74,300.77 598.86,301.33 597.00,301.89 595.14,302.46 593.30,303.03 591.47,303.61 589.64,304.20 587.83,304.80 586.03,305.39 584.23,306.00 582.44,306.60 580.66,307.21 578.88,307.83 577.11,308.44 575.34,309.06 573.58,309.68 571.82,310.31 570.06,310.93 568.31,311.56 566.56,312.18 564.81,312.81 563.06,313.44 561.31,314.07 559.55,314.69 557.80,315.32 556.05,315.94 554.29,316.57 552.53,317.19 550.76,317.81 548.99,318.43 547.21,319.04 545.43,319.65 543.64,320.26 541.85,320.86 540.04,321.46 538.23,322.05 536.41,322.64 534.57,323.22 532.73,323.80 530.88,324.37 529.01,324.93 527.13,325.48 525.24,326.03 523.34,326.56 521.42,327.09 519.49,327.61 517.56,328.12 515.61,328.63 513.65,329.13 511.68,329.62 509.70,330.10 507.71,330.58 505.72,331.05 503.71,331.51 501.70,331.97 499.69,332.42 497.67,332.87 495.64,333.31 493.60,333.75 491.57,334.18 489.52,334.61 487.48,335.04 485.43,335.46 483.38,335.88 481.32,336.30 479.27,336.72 477.21,337.13 475.15,337.54 473.09,337.96 471.02,338.37 468.96,338.78 466.90,339.19 464.84,339.61 462.78,340.02 460.72,340.43 458.66,340.85 456.61,341.27 454.56,341.69 452.51,342.11 450.46,342.54 448.42,342.97 446.38,343.40 444.34,343.83 442.31,344.28 440.29,344.72 438.27,345.17 436.26,345.63 434.25,346.09 432.25,346.55 430.26,347.02 428.27,347.50 426.29,347.98 424.33,348.47 422.36,348.97 420.41,349.48 418.47,349.99 416.54,350.50 414.62,351.03 412.71,351.56 410.81,352.10 408.92,352.65 407.05,353.20 405.18,353.77 403.33,354.34 401.50,354.92 399.67,355.50 397.86,356.10 396.06,356.70 394.28,357.31 392.50,357.92 390.73,358.54 388.97,359.16 387.21,359.78 385.45,360.40 383.68,361.02 381.92,361.64 380.14,362.26 378.36,362.87 376.57,363.48 374.77,364.08 372.95,364.67 371.11,365.25 369.26,365.81 367.38,366.37 365.48,366.90 363.54,367.42 361.58,367.92 359.59,368.39 357.56,368.83 355.49,369.24 353.39,369.61 351.25,369.93 349.08,370.21 346.87,370.44 344.63,370.60 342.38,370.70 340.11,370.73 337.85,370.69 335.59,370.58 333.37,370.39 331.17,370.15 329.01,369.84 326.90,369.49 324.83,369.09 322.80,368.64 320.82,368.16 318.89,367.65 317.00,367.10 315.15,366.53 313.35,365.93 311.59,365.31 309.87,364.67 308.19,364.00 306.55,363.32 304.94,362.62 303.38,361.91 301.85,361.18 300.35,360.44 298.89,359.68 297.47,358.92 296.08,358.14 294.73,357.35 293.40,356.54 292.12,355.73 290.86,354.91 289.64,354.08 288.46,353.24 287.31,352.39 286.19,351.53 285.11,350.66 284.06,349.78 283.05,348.90 282.08,348.01 281.15,347.11 280.26,346.20 279.41,345.29 278.60,344.37 277.84,343.44 277.12,342.50 276.45,341.56 275.84,340.61 275.28,339.65 274.78,338.69 274.34,337.72 273.97,336.75 273.67,335.77 273.45,334.79 273.32,333.81 273.27,332.82 273.33,331.83 273.50,330.85 273.79,329.87 274.21,328.90 274.77,327.95 275.49,327.01 276.37,326.11 277.42,325.23 278.64,324.40 280.01,323.62 281.52,322.88 283.15,322.19 284.87,321.55 286.68,320.96 288.55,320.40 290.49,319.89 292.46,319.41 294.48,318.95 296.53,318.53 298.60,318.13 300.70,317.76 302.81,317.40 304.94,317.06 307.08,316.73 309.23,316.41 311.39,316.11 313.56,315.81 315.72,315.53 317.90,315.24 320.08,314.96 322.25,314.69 324.43,314.42 326.61,314.14 328.79,313.87 330.97,313.59 333.14,313.31 335.31,313.02 337.48,312.73 339.64,312.42 341.79,312.11 343.94,311.79 346.07,311.46 348.20,311.11 350.31,310.75 352.42,310.39 354.52,310.01 356.60,309.62 358.68,309.23 360.75,308.82 362.81,308.40 364.86,307.98 366.90,307.55 368.93,307.11 370.95,306.66 372.97,306.21 374.97,305.75 376.97,305.29 378.97,304.81 380.95,304.34 382.94,303.86 384.91,303.37 386.89,302.89 388.85,302.40 390.82,301.90 392.78,301.41 394.74,300.91 396.70,300.42 398.67,299.92 400.63,299.42 402.59,298.93 404.56,298.44 406.52,297.94 408.50,297.46 410.47,296.97 412.46,296.49 414.45,296.02 416.44,295.55 418.45,295.09 420.46,294.64 422.49,294.19 424.52,293.76 426.57,293.33 428.62,292.91 430.69,292.50 432.76,292.10 434.85,291.71 436.94,291.33 439.04,290.96 441.16,290.60 443.28,290.25 445.41,289.91 447.54,289.58 449.69,289.26 451.84,288.95 454.00,288.65 456.17,288.35 458.34,288.07 460.52,287.79 462.70,287.52 464.89,287.26 467.08,287.01 469.28,286.77 471.48,286.53 473.69,286.30 475.90,286.08 478.11,285.86 480.33,285.66 482.55,285.45 484.77,285.25 487.00,285.06 489.23,284.88 491.46,284.70 493.69,284.52 495.92,284.35 498.16,284.18 500.40,284.01 502.64,283.85 504.87,283.69 507.11,283.54 509.35,283.38 511.60,283.23 513.84,283.07 516.08,282.92 518.32,282.77 520.56,282.62 522.80,282.47 525.05,282.32 527.29,282.16 529.53,282.01 531.77,281.86 534.01,281.70 536.25,281.54 538.49,281.38 540.73,281.22 542.96,281.06 545.20,280.89 547.43,280.72 549.67,280.55 551.90,280.37 554.13,280.19 556.36,280.01 558.58,279.81 560.81,279.62 563.03,279.42 565.25,279.21 567.46,278.99 569.67,278.77 571.88,278.54 574.08,278.30 576.27,278.06 578.46,277.80 580.65,277.53 582.82,277.25 584.99,276.96 587.14,276.65 589.29,276.33 591.42,275.99 593.53,275.63 595.63,275.25 597.70,274.85 599.74,274.42 601.76,273.97 603.74,273.49 605.67,272.97 607.54,272.42 609.35,271.82 611.07,271.18 612.69,270.49 614.17,269.74 615.50,268.94 616.64,268.09 617.56,267.19 618.25,266.25 618.68,265.29 618.85,264.30 618.79,263.32 618.52,262.34 618.06,261.38 617.45,260.43 616.74,259.49 615.93,258.57 615.05,257.66 614.10,256.76 613.11,255.88 612.08,255.00 611.02,254.12 609.93,253.26 608.81,252.40 607.69,251.54 606.55,250.69 605.40,249.84 604.25,248.99 603.11,248.14 601.96,247.28 600.82,246.43 599.69,245.57 598.57,244.72 597.46,243.86 596.35,243.00 595.24,242.13 594.14,241.27 593.04,240.41 591.94,239.55 590.84,238.68 589.74,237.82 588.63,236.96 587.53,236.10 586.41,235.24 585.29,234.38 584.16,233.52 583.02,232.67 581.87,231.82 580.70,230.97 579.52,230.13 578.33,229.29 577.12,228.46 575.89,227.63 574.63,226.81 573.36,225.99 572.06,225.18 570.74,224.38 569.40,223.58 568.03,222.80 566.63,222.02 565.20,221.25 563.75,220.50 562.26,219.75 560.75,219.01 559.21,218.29 557.64,217.58 556.04,216.88 554.41,216.19 552.75,215.52 551.07,214.86 549.36,214.21 547.63,213.57 545.89,212.94 544.12,212.32 542.33,211.71 540.54,211.11 538.72,210.52 536.89,209.93 535.05,209.35 533.20,208.78 531.34,208.22 529.47,207.66 527.59,207.11 525.70,206.56 523.81,206.02 521.91,205.48 520.00,204.94 518.09,204.41 516.17,203.89 514.25,203.36 512.33,202.84 510.40,202.32 508.47,201.80 506.54,201.28 504.61,200.76 502.68,200.24 500.75,199.73 498.81,199.21 496.88,198.69 494.95,198.17 493.02,197.65 491.10,197.13 489.17,196.61 487.25,196.08 485.34,195.56 483.43,195.02 481.52,194.49 479.62,193.95 477.73,193.41 475.84,192.86 473.96,192.30 472.09,191.74 470.23,191.18 468.39,190.61 466.55,190.03 464.73,189.44 462.92,188.84 461.12,188.24 459.35,187.63 457.59,187.00 455.85,186.37 454.13,185.72 452.44,185.07 450.77,184.40 449.13,183.72 447.52,183.02 445.95,182.31 444.41,181.59 442.90,180.85 441.44,180.09 440.03,179.32 438.66,178.53 437.35,177.73 436.10,176.91 434.90,176.07 433.77,175.21 432.71,174.34 431.73,173.45 430.82,172.55 429.99,171.63 429.25,170.70 428.60,169.75 428.03,168.80 427.56,167.83 427.18,166.86 426.89,165.88 426.69,164.90 426.59,163.91 426.57,162.92 426.60,161.94 426.64,160.95 426.64,159.96 426.57,158.98 426.39,157.99 426.10,157.01 425.72,156.04 425.23,155.08 424.66,154.12 424.01,153.18 423.28,152.24 422.49,151.32 421.62,150.41 420.70,149.50 419.73,148.61 418.70,147.73 417.62,146.87 416.50,146.01 415.34,145.16 414.15,144.32 412.92,143.49 411.65,142.67 410.35,141.86 409.03,141.06 407.68,140.27 406.30,139.48 404.90,138.71 403.48,137.94 402.04,137.18 400.57,136.42 399.09,135.68 397.59,134.94 396.07,134.20 394.54,133.47 392.99,132.75 391.43,132.04 389.86,131.33 388.27,130.62 386.67,129.92 385.05,129.23 383.43,128.54 381.79,127.86 380.15,127.18 378.49,126.50 376.83,125.83 375.15,125.17 373.47,124.51 371.77,123.85 370.07,123.20 368.37,122.55 366.65,121.90 364.93,121.26 363.20,120.62 361.46,119.99 359.72,119.35 357.97,118.73 356.21,118.10 354.45,117.48 352.68,116.86 350.91,116.25 349.13,115.63 347.34,115.03 345.55,114.42 343.76,113.81 341.96,113.21 340.16,112.61 338.35,112.02 336.54,111.43 334.72,110.83 332.90,110.25 331.07,109.66 329.24,109.08 327.41,108.49 325.57,107.91 323.73,107.34 321.89,106.76 320.04,106.19 318.19,105.62 316.34,105.05 314.48,104.48 312.62,103.92 310.76,103.35 308.89,102.79 307.03,102.23 305.15,101.67 303.28,101.12 301.40,100.56 299.52,100.01 297.64,99.46 295.76,98.91 293.87,98.36 291.99,97.81 290.09,97.27 288.20,96.72 286.31,96.18 284.41,95.64 282.51,95.10 280.61,94.56 278.71,94.02 276.81,93.49 274.90,92.95 273.00,92.41 271.09,91.88 269.18,91.35 267.27,90.81 265.36,90.28 263.45,89.75 261.53,89.22 259.62,88.69 257.71,88.16 255.79,87.63 253.88,87.10 251.97,86.57 250.05,86.04 248.14,85.51 246.23,84.98 244.32,84.44 242.42,83.90 240.52,83.37 238.63,82.82 236.74,82.27 234.87,81.72 233.01,81.15 231.19,80.56 229.45,79.93 228.67,79.15 230.92,79.21 233.12,79.45 235.30,79.73 237.46,80.03 239.61,80.34 241.76,80.66 243.90,80.99 246.03,81.33 248.16,81.66 250.30,81.99 252.45,82.32 254.60,82.62 256.78,82.90 259.00,83.10 261.21,83.02 261.12,82.14 259.79,81.35 258.25,80.62 256.62,79.93 254.94,79.27 253.23,78.63 251.49,77.99 249.73,77.37 247.95,76.76 246.15,76.16 244.34,75.56 242.52,74.97 240.69,74.39 238.85,73.81 237.00,73.24 235.15,72.67 233.28,72.11 231.41,71.56 229.53,71.00 227.64,70.46 225.74,69.92 223.84,69.38 221.92,68.85 220.01,68.32 218.08,67.80 216.15,67.28 214.20,66.77 212.25,66.27 210.29,65.77 208.32,65.28 206.34,64.80 204.35,64.33 202.35,63.86 200.33,63.41 198.30,62.97 196.26,62.54 194.19,62.14 192.10,61.75 189.99,61.39 187.85,61.07 185.68,60.78 183.48,60.54 181.26,60.34 179.02,60.18 176.76,60.07 174.50,60.01 172.23,60.00 169.97,60.06 167.72,60.20 165.52,60.44 163.38,60.77 161.35,61.20 159.44,61.74 157.66,62.35 156.03,63.03 154.56,63.78 153.24,64.59 152.09,65.44 151.11,66.33 150.31,67.25 149.69,68.20 149.24,69.16 148.90,70.14 148.60,71.12 148.29,72.09 147.87,73.06 147.24,74.01 146.27,74.90 144.87,75.68 143.13,76.31 141.20,76.83 139.16,77.27 137.07,77.65 134.94,77.99 132.81,78.33 130.69,78.68 128.58,79.05 126.52,79.46 124.52,79.92 122.61,80.45 120.84,81.07 119.22,81.75 117.75,82.50 116.44,83.31 115.30,84.16 114.33,85.05 113.55,85.97 112.95,86.93 112.55,87.89 112.35,88.88 112.37,89.86 112.62,90.84 113.07,91.81 113.72,92.75 114.55,93.67 115.53,94.56 116.64,95.42 117.87,96.24 119.20,97.04 120.62,97.81 122.12,98.55 123.69,99.26 125.31,99.95 126.99,100.61 128.72,101.25 130.50,101.87 132.31,102.46 134.16,103.03 136.05,103.58 137.96,104.11 139.90,104.62 141.85,105.12 143.83,105.61 145.82,106.08 147.81,106.55 149.82,107.01 151.83,107.47 153.84,107.93 155.84,108.39 157.84,108.86 159.83,109.33 161.81,109.81 163.77,110.31 165.71,110.82 167.63,111.35 169.53,111.89 171.41,112.44 173.27,113.00 175.12,113.58 176.95,114.16 178.76,114.75 180.57,115.35 182.36,115.96 184.14,116.57 185.91,117.19 187.67,117.81 189.43,118.43 191.18,119.06 192.92,119.69 194.66,120.32 196.40,120.96 198.13,121.59 199.86,122.23 201.58,122.88 203.29,123.53 204.99,124.18 206.69,124.84 208.37,125.50 210.04,126.16 211.70,126.84 213.35,127.52 214.98,128.20 216.60,128.89 218.20,129.59 219.78,130.30 221.35,131.01 222.90,131.73 224.43,132.46 225.93,133.20 227.42,133.95 228.88,134.70 230.32,135.46 231.73,136.24 233.11,137.02 234.47,137.81 235.81,138.60 237.14,139.41 238.44,140.21 239.74,141.02 241.02,141.84 242.29,142.65 243.56,143.47 244.82,144.29 246.08,145.11 247.35,145.93 248.61,146.75 249.89,147.57 251.17,148.38 252.46,149.19 253.76,150.00 255.09,150.80 256.43,151.60 257.79,152.39 259.17,153.17 260.58,153.94 262.01,154.71 263.47,155.46 264.97,156.21 266.50,156.93 268.06,157.65 269.66,158.35 271.29,159.03 272.97,159.70 274.68,160.35 276.43,160.97 278.22,161.58 280.05,162.17 281.91,162.73 283.81,163.27 285.72,163.80 287.63,164.33 289.53,164.87 291.40,165.43 293.23,166.01 294.99,166.64 296.64,167.31 298.17,168.04 299.52,168.84 300.66,169.69 301.63,170.58 302.53,171.49 303.43,172.39 304.43,173.28 305.57,174.13 306.93,174.92 308.46,175.65 310.14,176.31 311.91,176.93 313.74,177.51 315.62,178.06 317.53,178.60 319.45,179.12 321.37,179.65 323.29,180.18 325.17,180.72 327.02,181.30 328.78,181.92 330.42,182.60 331.87,183.36 333.00,184.21 333.66,185.15 333.77,186.13 333.38,187.10 332.75,188.05 332.14,189.00 331.80,189.97 331.95,190.96 332.62,191.90 333.75,192.76 335.18,193.52 336.83,194.20 338.61,194.82 340.47,195.38 342.39,195.91 344.35,196.41 346.33,196.89 348.32,197.36 350.31,197.83 352.30,198.30 354.28,198.78 356.24,199.28 358.17,199.80 360.04,200.36 361.85,200.95 363.57,201.60 365.14,202.30 366.54,203.08 367.72,203.92 368.67,204.82 369.39,205.75 369.90,206.71 370.20,207.69 370.32,208.67 370.28,209.66 370.10,210.64 369.81,211.62 369.41,212.59 368.93,213.55 368.38,214.51 367.76,215.46 367.08,216.40 366.36,217.34 365.58,218.26 364.71,219.17 363.72,220.06 362.56,220.91 361.15,221.68 359.39,222.29 357.27,222.62 355.02,222.59 352.82,222.35 350.67,222.04 348.51,221.73 346.30,221.51 344.04,221.51 341.91,221.84 340.05,222.40 338.36,223.06 336.75,223.75 335.11,224.44 333.38,225.07 331.51,225.63 329.54,226.12 327.50,226.55 325.43,226.95 323.34,227.34 321.25,227.72 319.19,228.14 317.19,228.60 315.32,229.16 313.65,229.82 312.31,230.62 311.41,231.52 310.87,232.48 310.37,233.44 309.44,234.33 307.66,234.93 305.48,235.20 303.22,235.29 300.95,235.31 298.68,235.31 296.42,235.34 294.16,235.45 291.95,235.67 289.82,236.00 287.78,236.43 285.83,236.93 283.97,237.50 282.19,238.11 280.45,238.74 278.72,239.38 277.01,240.03 275.30,240.68 273.58,241.32 271.86,241.96 270.12,242.60 268.35,243.22 266.56,243.82 264.74,244.41 262.88,244.98 260.98,245.51 259.03,246.02 257.03,246.48 254.98,246.90 252.87,247.27 250.72,247.58 248.53,247.83 246.30,248.01 244.04,248.11 241.77,248.16 239.51,248.20 237.25,248.31 235.05,248.55 233.00,248.97 231.13,249.53 229.42,250.18 227.84,250.89 226.34,251.63 224.88,252.38 223.43,253.14 221.94,253.89 220.38,254.60 218.68,255.25 216.80,255.80 214.73,256.19 212.52,256.41 210.26,256.47 208.00,256.40 205.77,256.23 203.57,255.98 201.42,255.68 199.29,255.33 197.20,254.95 195.13,254.55 193.08,254.13 191.04,253.70 189.00,253.26 186.96,252.83 184.92,252.40 182.86,251.98 180.79,251.58 178.71,251.19 176.62,250.80 174.52,250.43 172.42,250.05 170.33,249.67 168.24,249.29 166.16,248.89 164.10,248.48 162.05,248.06 160.03,247.61 158.03,247.14 156.05,246.66 154.10,246.16 152.17,245.64 150.26,245.11 148.38,244.55 146.53,243.99 144.70,243.40 142.89,242.80 141.12,242.19 139.37,241.56 137.65,240.92 135.95,240.26 134.28,239.60 132.64,238.91 131.02,238.22 129.43,237.52 127.87,236.80 126.33,236.08 124.82,235.34 123.33,234.60 121.86,233.85 120.43,233.08 119.01,232.31 117.62,231.53 116.25,230.75 114.90,229.95 113.57,229.15 112.27,228.34"/>
<circle cx="76.84" cy="140.97" r="4.00" fill="#2ca02c"/>
<circle cx="76.84" cy="140.97" r="4.00" fill="#2ca02c"/>
<circle cx="101.32" cy="259.07" r="4.00" fill="#2ca02c"/>
<circle cx="101.32" cy="259.07" r="4.00" fill="#2ca02c"/>
<circle cx="94.24" cy="360.04" r="4.00" fill="#2ca02c"/>
<circle cx="94.24" cy="360.04" r="4.00" fill="#2ca02c"/>
<circle cx="214.85" cy="589.23" r="4.00" fill="#2ca02c"/>
<circle cx="214.85" cy="589.23" r="4.00" fill="#2ca02c"/>
<circle cx="840.00" cy="351.95" r="4.00" fill="#2ca02c"/>
<circle cx="840.00" cy="351.95" r="4.00" fill="#2ca02c"/>
<circle cx="403.53" cy="161.53" r="4.00" fill="#2ca02c"/>
<circle cx="403.53" cy="161.53" r="4.00" fill="#2ca02c"/>
<text x="710.00" y="40.00" font-family="Arial, sans-serif" font-size="12" text-anchor="start" fill="#222">gray: track</text>
<text x="710.00" y="58.00" font-family="Arial, sans-serif" font-size="12" text-anchor="start" fill="#222">blue: baseline</text>
<text x="710.00" y="76.00" font-family="Arial, sans-serif" font-size="12" text-anchor="start" fill="#222">red: estimate</text>
<text x="710.00" y="94.00" font-family="Arial, sans-serif" font-size="12" text-anchor="start" fill="#222">green: transmitters</text>
</svg>