<svg xmlns="http://www.w3.org/2000/svg" width="900" height="650" viewBox="0 0 900 650">
<rect x="0" y="0" width="900" height="650" fill="white"/>
<text x="30.00" y="35.00" font-family="Arial, sans-serif" font-size="18" text-anchor="start" fill="#222">Track, transmitters, and estimated array</text>
<polyline fill="none" stroke="#9aa0a6" stroke-width="2.0" stroke-opacity="1.0" points="70.81,206.24 73.23,235.57 75.65,264.90 85.35,321.46 133.84,367.54 194.44,426.20 228.38,442.96 235.66,463.91 240.50,495.33 230.81,538.27 228.38,561.32 216.26,569.70 262.32,587.50 376.26,579.12 504.75,539.32 548.39,520.47 642.94,491.14 703.55,456.57 766.58,406.30 812.64,372.78 827.18,352.88 788.39,326.69 691.42,292.13 655.06,291.08 526.57,325.65 398.08,356.02 337.48,370.69 276.87,325.65 342.33,312.03 422.33,294.23 490.21,284.80 618.69,262.80 601.72,247.09 555.66,216.72 426.57,163.63 426.57,159.00 244.44,81.09 257.84,83.02 194.45,62.19 180.16,60.26 164.09,60.65 149.81,67.98 146.24,74.92 123.03,80.32 112.31,89.58 128.38,101.15 164.09,110.40 191.77,119.28 231.05,135.86 281.05,162.48 299.80,169.03 306.05,174.43 333.72,186.39 331.94,189.48 364.97,202.21 366.75,216.86 356.93,222.65 344.43,221.49 333.72,224.96 311.40,231.52 309.62,234.22 295.33,235.38 280.16,238.85 244.44,248.11 235.52,248.49 216.77,255.82 184.63,252.35 164.09,248.49 60.00,179.26"/>
<polyline fill="none" stroke="#4e79a7" stroke-width="1.5" stroke-opacity="0.9" points="75.63,264.25 75.66,265.22 75.69,266.20 75.70,267.18 75.72,268.16 75.73,269.14 75.73,270.12 75.73,271.10 75.73,272.08 75.73,273.06 75.73,274.05 75.72,275.03 75.72,276.01 75.71,277.00 75.71,277.98 75.71,278.97 75.71,279.95 75.71,280.94 75.72,281.92 75.72,282.90 75.74,283.89 75.75,284.87 75.78,285.85 75.80,286.83 75.84,287.82 75.88,288.80 75.93,289.78 75.98,290.75 76.05,291.73 76.12,292.71 76.21,293.69 76.30,294.66 76.40,295.64 76.52,296.61 76.64,297.58 76.78,298.55 76.93,299.52 77.10,300.48 77.28,301.45 77.47,302.41 77.68,303.37 77.90,304.33 78.14,305.29 78.39,306.25 78.67,307.20 78.96,308.15 79.26,309.10 79.59,310.05 79.94,310.99 80.30,311.93 80.69,312.87 81.10,313.81 81.53,314.74 81.98,315.67 82.45,316.60 82.95,317.52 83.47,318.45 84.01,319.36 84.58,320.28 85.17,321.19 85.79,322.10 86.44,323.01 87.11,323.91 87.80,324.81 88.52,325.71 89.25,326.60 90.01,327.49 90.79,328.38 91.59,329.27 92.41,330.15 93.25,331.03 94.10,331.91 94.97,332.79 95.86,333.67 96.76,334.54 97.68,335.42 98.61,336.29 99.55,337.16 100.50,338.03 101.46,338.90 102.44,339.76 103.42,340.63 104.41,341.50 105.41,342.36 106.42,343.23 107.43,344.09 108.45,344.96 109.47,345.82 110.49,346.69 111.52,347.56 112.55,348.42 113.59,349.29 114.62,350.16 115.65,351.02 116.68,351.89 117.71,352.76 118.73,353.63 119.76,354.51 120.77,355.38 121.79,356.26 122.79,357.13 123.79,358.01 124.79,358.89 125.77,359.78 126.74,360.66 127.71,361.55 128.66,362.44 129.61,363.33 130.54,364.23 131.45,365.12 132.35,366.02 133.24,366.93 134.11,367.84 134.97,368.75 135.81,369.66 136.64,370.57 137.45,371.49 138.25,372.42 139.04,373.34 139.82,374.26 140.58,375.19 141.34,376.12 142.09,377.05 142.83,377.99 143.56,378.92 144.29,379.85 145.01,380.79 145.73,381.73 146.44,382.66 147.15,383.60 147.85,384.54 148.56,385.47 149.26,386.41 149.96,387.35 150.67,388.28 151.37,389.22 152.08,390.15 152.79,391.08 153.50,392.02 154.22,392.95 154.95,393.87 155.68,394.80 156.41,395.72 157.16,396.65 157.91,397.57 158.67,398.48 159.45,399.40 160.23,400.31 161.03,401.22 161.83,402.12 162.65,403.02 163.49,403.92 164.34,404.81 165.20,405.70 166.09,406.59 166.98,407.47 167.90,408.35 168.84,409.22 169.79,410.09 170.77,410.95 171.76,411.80 172.78,412.65 173.82,413.50 174.89,414.34 175.98,415.17 177.09,416.00 178.23,416.82 179.40,417.63 180.59,418.44 181.81,419.24 183.07,420.03 184.35,420.82 185.66,421.59 187.00,422.36 188.38,423.12 189.78,423.88 191.23,424.62 192.70,425.36 194.21,426.09 195.76,426.81 197.34,427.52 198.94,428.23 200.57,428.93 202.21,429.62 203.86,430.32 205.52,431.01 207.17,431.70 208.82,432.39 210.45,433.08 212.07,433.78 213.67,434.47 215.24,435.18 216.77,435.89 218.26,436.61 219.72,437.33 221.12,438.07 222.46,438.82 223.74,439.58 224.96,440.35 226.11,441.14 227.18,441.94 228.16,442.76 229.06,443.60 229.88,444.46 230.61,445.33 231.27,446.22 231.86,447.12 232.38,448.04 232.83,448.97 233.24,449.91 233.59,450.86 233.89,451.83 234.15,452.80 234.38,453.77 234.57,454.76 234.73,455.75 234.87,456.75 235.00,457.75 235.11,458.75 235.21,459.75 235.31,460.76 235.41,461.77 235.52,462.77 235.64,463.77 235.77,464.77 235.92,465.77 236.09,466.76 236.26,467.75 236.45,468.74 236.65,469.73 236.85,470.71 237.06,471.69 237.28,472.67 237.50,473.64 237.73,474.61 237.95,475.58 238.18,476.55 238.40,477.52 238.62,478.48 238.84,479.45 239.05,480.41 239.25,481.37 239.45,482.32 239.63,483.28 239.81,484.24 239.97,485.19 240.11,486.14 240.24,487.09 240.36,488.04 240.45,488.99 240.53,489.94 240.58,490.89 240.61,491.84 240.62,492.79 240.60,493.73 240.55,494.68 240.48,495.63 240.37,496.57 240.24,497.52 240.09,498.46 239.91,499.41 239.70,500.36 239.48,501.30 239.23,502.25 238.97,503.19 238.69,504.14 238.40,505.09 238.09,506.04 237.78,506.99 237.45,507.93 237.11,508.88 236.77,509.83 236.42,510.79 236.06,511.74 235.71,512.69 235.35,513.64 234.99,514.60 234.64,515.55 234.29,516.51 233.95,517.47 233.61,518.43 233.28,519.39 232.96,520.35 232.66,521.32 232.36,522.28 232.09,523.25 231.82,524.22 231.58,525.19 231.36,526.16 231.15,527.13 230.97,528.11 230.82,529.09 230.69,530.07 230.58,531.05 230.51,532.03 230.47,533.02 230.45,534.01 230.48,535.00 230.53,535.99 230.63,536.99 230.76,537.98 230.93,538.99 231.14,539.99 231.37,540.99 231.63,542.00 231.89,543.00 232.16,544.01 232.42,545.01 232.67,546.01 232.90,547.01 233.10,548.00 233.26,549.00 233.38,549.98 233.45,550.96 233.46,551.94 233.40,552.91 233.27,553.87 233.05,554.82 232.74,555.76 232.33,556.70 231.82,557.62 231.19,558.53 230.43,559.44 229.55,560.33 228.53,561.20 227.36,562.06 226.09,562.92 224.73,563.75 223.35,564.58 221.97,565.40 220.63,566.21 219.37,567.02 218.23,567.82 217.26,568.61 216.49,569.41 215.95,570.20 215.66,570.99 215.61,571.77 215.78,572.55 216.17,573.33 216.77,574.10 217.57,574.86 218.55,575.62 219.71,576.36 221.04,577.10 222.52,577.82 224.16,578.54 225.93,579.24 227.82,579.92 229.84,580.59 231.96,581.25 234.18,581.88 236.48,582.50 238.87,583.10 241.32,583.68 243.82,584.24 246.38,584.78 248.97,585.29 251.59,585.78 254.22,586.24 256.87,586.68 259.51,587.09 262.14,587.48 264.74,587.83 267.33,588.15 269.89,588.45 272.42,588.72 274.94,588.96 277.44,589.18 279.91,589.37 282.36,589.53 284.80,589.67 287.21,589.78 289.60,589.87 291.98,589.94 294.33,589.98 296.67,590.00 298.99,590.00 301.30,589.97 303.58,589.93 305.85,589.87 308.11,589.78 310.34,589.68 312.57,589.55 314.77,589.41 316.97,589.25 319.15,589.07 321.31,588.88 323.47,588.67 325.61,588.44 327.74,588.20 329.85,587.94 331.96,587.67 334.05,587.39 336.13,587.09 338.21,586.78 340.27,586.46 342.33,586.12 344.37,585.78 346.41,585.42 348.44,585.05 350.46,584.68 352.47,584.29 354.48,583.90 356.48,583.49 358.47,583.08 360.46,582.67 362.44,582.24 364.42,581.81 366.39,581.38 368.36,580.94 370.33,580.49 372.30,580.04 374.26,579.59 376.21,579.13 378.17,578.68 380.13,578.22 382.08,577.75 384.03,577.29 385.98,576.82 387.92,576.35 389.87,575.87 391.81,575.40 393.75,574.92 395.68,574.44 397.62,573.95 399.55,573.47 401.47,572.98 403.40,572.49 405.32,571.99 407.24,571.49 409.15,570.99 411.06,570.49 412.97,569.98 414.87,569.48 416.77,568.96 418.67,568.45 420.56,567.93 422.45,567.41 424.33,566.89 426.21,566.36 428.09,565.83 429.96,565.30 431.83,564.76 433.69,564.23 435.54,563.68 437.40,563.14 439.24,562.59 441.09,562.04 442.92,561.49 444.75,560.93 446.58,560.37 448.40,559.81 450.22,559.24 452.03,558.67 453.83,558.10 455.63,557.52 457.42,556.94 459.21,556.36 460.99,555.77 462.77,555.18 464.53,554.59 466.30,553.99 468.05,553.39 469.80,552.79 471.54,552.18 473.28,551.57 475.01,550.96 476.73,550.34 478.44,549.72 480.15,549.09 481.85,548.47 483.54,547.83 485.23,547.20 486.91,546.56 488.58,545.92 490.24,545.27 491.89,544.62 493.54,543.97 495.18,543.31 496.81,542.65 498.43,541.98 500.05,541.31 501.65,540.64 503.25,539.96 504.84,539.28 506.42,538.60 507.99,537.91 509.56,537.22 511.12,536.53 512.67,535.83 514.22,535.13 515.77,534.44 517.31,533.74 518.86,533.04 520.40,532.34 521.94,531.64 523.49,530.94 525.03,530.24 526.58,529.54 528.13,528.85 529.69,528.16 531.25,527.47 532.82,526.79 534.40,526.10 535.99,525.43 537.58,524.76 539.18,524.09 540.80,523.43 542.43,522.77 544.07,522.12 545.72,521.48 547.39,520.84 549.07,520.22 550.77,519.60 552.48,518.98 554.21,518.38 555.95,517.78 557.70,517.19 559.47,516.60 561.25,516.02 563.04,515.45 564.84,514.88 566.65,514.31 568.47,513.75 570.30,513.20 572.13,512.65 573.98,512.10 575.83,511.56 577.68,511.01 579.54,510.48 581.41,509.94 583.28,509.41 585.16,508.88 587.03,508.35 588.91,507.82 590.79,507.29 592.68,506.76 594.56,506.24 596.44,505.71 598.33,505.18 600.21,504.66 602.08,504.13 603.96,503.60 605.83,503.07 607.70,502.53 609.56,502.00 611.42,501.46 613.28,500.92 615.12,500.38 616.96,499.83 618.79,499.28 620.61,498.73 622.43,498.17 624.23,497.60 626.02,497.04 627.81,496.46 629.58,495.88 631.34,495.30 633.08,494.71 634.82,494.11 636.53,493.51 638.24,492.90 639.93,492.28 641.60,491.65 643.25,491.02 644.89,490.37 646.51,489.72 648.12,489.06 649.71,488.40 651.28,487.72 652.84,487.04 654.38,486.35 655.91,485.66 657.42,484.96 658.91,484.25 660.39,483.53 661.86,482.81 663.31,482.08 664.75,481.34 666.18,480.60 667.59,479.86 668.99,479.10 670.37,478.34 671.75,477.58 673.11,476.81 674.46,476.04 675.79,475.26 677.12,474.48 678.43,473.69 679.74,472.90 681.03,472.10 682.31,471.30 683.58,470.49 684.84,469.68 686.09,468.87 687.33,468.05 688.57,467.24 689.79,466.41 691.00,465.59 692.21,464.76 693.40,463.93 694.59,463.09 695.77,462.26 696.95,461.42 698.11,460.58 699.27,459.74 700.42,458.89 701.57,458.05 702.71,457.20 703.84,456.35 704.96,455.50 706.09,454.65 707.20,453.80 708.31,452.95 709.42,452.10 710.52,451.24 711.61,450.39 712.70,449.53 713.79,448.68 714.87,447.82 715.95,446.96 717.02,446.10 718.09,445.24 719.16,444.38 720.22,443.52 721.28,442.67 722.34,441.81 723.39,440.95 724.45,440.09 725.50,439.22 726.54,438.36 727.59,437.50 728.63,436.64 729.68,435.78 730.72,434.92 731.76,434.07 732.80,433.21 733.83,432.35 734.87,431.49 735.91,430.63 736.95,429.77 737.98,428.92 739.02,428.06 740.06,427.21 741.10,426.35 742.13,425.50 743.17,424.65 744.21,423.80 745.26,422.95 746.30,422.10 747.34,421.25 748.39,420.40 749.44,419.56 750.49,418.71 751.54,417.87 752.60,417.03 753.66,416.19 754.72,415.35 755.79,414.51 756.85,413.68 757.93,412.84 759.00,412.01 760.08,411.18 761.16,410.35 762.25,409.53 763.35,408.70 764.44,407.88 765.54,407.06 766.65,406.24 767.76,405.43 768.88,404.61 770.00,403.80 771.13,402.99 772.26,402.18 773.39,401.38 774.53,400.57 775.67,399.76 776.82,398.96 777.96,398.15 779.11,397.35 780.27,396.54 781.42,395.74 782.57,394.93 783.73,394.12 784.89,393.31 786.05,392.50 787.21,391.69 788.37,390.88 789.53,390.07 790.69,389.25 791.85,388.43 793.00,387.61 794.16,386.79 795.32,385.96 796.47,385.13 797.62,384.29 798.77,383.46 799.92,382.62 801.07,381.77 802.21,380.92 803.35,380.07 804.48,379.21 805.62,378.34 806.74,377.48 807.87,376.60 808.99,375.72 810.10,374.84 811.21,373.94 812.31,373.05 813.41,372.14 814.50,371.23 815.58,370.32 816.63,369.40 817.67,368.47 818.67,367.54 819.64,366.61 820.58,365.68 821.47,364.75 822.32,363.81 823.12,362.88 823.86,361.94 824.54,361.01 825.16,360.08 825.70,359.15 826.17,358.22 826.56,357.30 826.87,356.38 827.09,355.47 827.22,354.57 827.24,353.67 827.17,352.77 826.99,351.89 826.71,351.01 826.32,350.14 825.85,349.28 825.28,348.42 824.62,347.57 823.88,346.72 823.06,345.88 822.16,345.05 821.18,344.22 820.14,343.40 819.03,342.58 817.86,341.77 816.63,340.96 815.34,340.15 814.00,339.35 812.62,338.55 811.19,337.75 809.72,336.96 808.21,336.16 806.66,335.37 805.09,334.59 803.49,333.80 801.87,333.02 800.23,332.23 798.58,331.45 796.91,330.67 795.23,329.89 793.55,329.10 791.87,328.32 790.20,327.54 788.52,326.76 786.86,325.97 785.21,325.18 783.57,324.40 781.93,323.61 780.31,322.83 778.69,322.04 777.07,321.26 775.47,320.47 773.86,319.69 772.27,318.92 770.67,318.14 769.08,317.37 767.49,316.60 765.91,315.83 764.32,315.07 762.74,314.31 761.15,313.56 759.57,312.82 757.98,312.08 756.39,311.34 754.80,310.61 753.21,309.89 751.61,309.18 750.01,308.47 748.40,307.77 746.79,307.08 745.17,306.40 743.54,305.73 741.90,305.07 740.26,304.42 738.60,303.78 736.94,303.15 735.27,302.53 733.58,301.92 731.89,301.32 730.18,300.74 728.45,300.17 726.72,299.61 724.97,299.06 723.20,298.53 721.42,298.02 719.62,297.51 717.81,297.03 715.97,296.56 714.12,296.10 712.25,295.66 710.36,295.24 708.45,294.83 706.52,294.44 704.57,294.07 702.59,293.72 700.60,293.38 698.57,293.07 696.53,292.77 694.46,292.49 692.36,292.24 690.24,292.00 688.09,291.79 685.92,291.59 683.73,291.42 681.53,291.26 679.31,291.13 677.07,291.02 674.83,290.93 672.58,290.86 670.33,290.82 668.08,290.79 665.83,290.79 663.58,290.81 661.34,290.85 659.11,290.91 656.89,291.00 654.68,291.10 652.49,291.23 650.32,291.38 648.17,291.56 646.03,291.75 643.90,291.96 641.80,292.20 639.70,292.45 637.62,292.72 635.56,293.02 633.50,293.32 631.47,293.65 629.44,294.00 627.43,294.36 625.43,294.73 623.44,295.12 621.46,295.53 619.50,295.95 617.54,296.39 615.60,296.84 613.67,297.30 611.74,297.78 609.83,298.27 607.92,298.77 606.03,299.28 604.14,299.80 602.26,300.33 600.39,300.88 598.52,301.43 596.67,301.99 594.82,302.56 592.97,303.14 591.14,303.72 589.30,304.31 587.48,304.91 585.66,305.52 583.84,306.13 582.03,306.74 580.22,307.36 578.42,307.99 576.61,308.62 574.82,309.25 573.02,309.88 571.23,310.52 569.44,311.16 567.65,311.80 565.86,312.44 564.07,313.08 562.28,313.72 560.49,314.36 558.71,315.00 556.92,315.64 555.13,316.27 553.34,316.91 551.55,317.54 549.76,318.16 547.96,318.79 546.16,319.40 544.36,320.02 542.56,320.63 540.75,321.23 538.94,321.82 537.12,322.41 535.30,323.00 533.47,323.57 531.64,324.14 529.80,324.69 527.96,325.24 526.11,325.78 524.25,326.31 522.39,326.83 520.52,327.34 518.65,327.84 516.76,328.33 514.88,328.82 512.98,329.29 511.09,329.76 509.18,330.23 507.27,330.68 505.36,331.13 503.44,331.57 501.52,332.01 499.59,332.44 497.66,332.87 495.72,333.29 493.78,333.71 491.83,334.13 489.89,334.54 487.93,334.94 485.98,335.35 484.02,335.75 482.06,336.15 480.09,336.55 478.13,336.95 476.16,337.34 474.18,337.74 472.21,338.13 470.23,338.53 468.25,338.92 466.27,339.32 464.29,339.71 462.31,340.11 460.32,340.51 458.34,340.91 456.35,341.32 454.36,341.73 452.38,342.14 450.39,342.55 448.40,342.97 446.41,343.39 444.42,343.82 442.43,344.25 440.44,344.69 438.45,345.13 436.47,345.58 434.48,346.03 432.50,346.49 430.51,346.96 428.53,347.44 426.55,347.92 424.57,348.41 422.59,348.91 420.61,349.42 418.64,349.94 416.67,350.47 414.70,351.01 412.73,351.55 410.77,352.11 408.81,352.68 406.85,353.26 404.89,353.85 402.94,354.46 400.99,355.07 399.05,355.70 397.11,356.35 395.18,357.00 393.24,357.66 391.31,358.34 389.39,359.01 387.46,359.69 385.54,360.37 383.62,361.05 381.69,361.72 379.77,362.39 377.85,363.05 375.93,363.69 374.01,364.33 372.09,364.94 370.17,365.54 368.24,366.12 366.31,366.67 364.38,367.20 362.45,367.71 360.51,368.18 358.57,368.62 356.62,369.02 354.67,369.39 352.71,369.72 350.75,370.01 348.78,370.25 346.81,370.45 344.83,370.60 342.84,370.69 340.85,370.74 338.84,370.73 336.83,370.66 334.81,370.53 332.78,370.34 330.75,370.10 328.72,369.81 326.69,369.46 324.67,369.06 322.65,368.62 320.64,368.13 318.64,367.59 316.65,367.01 314.68,366.39 312.72,365.73 310.79,365.03 308.87,364.29 306.98,363.52 305.12,362.72 303.29,361.89 301.49,361.03 299.72,360.14 297.99,359.22 296.30,358.28 294.65,357.32 293.04,356.34 291.47,355.34 289.96,354.32 288.49,353.29 287.08,352.24 285.72,351.18 284.42,350.12 283.18,349.04 282.00,347.96 280.88,346.87 279.83,345.78 278.85,344.69 277.94,343.61 277.10,342.52 276.34,341.44 275.66,340.36 275.05,339.29 274.53,338.23 274.10,337.18 273.75,336.15 273.49,335.12 273.32,334.12 273.25,333.13 273.27,332.17 273.40,331.22 273.62,330.30 273.95,329.41 274.38,328.54 274.92,327.70 275.57,326.89 276.34,326.11 277.22,325.37 278.21,324.66 279.32,323.99 280.53,323.34 281.84,322.73 283.25,322.14 284.75,321.59 286.34,321.06 288.01,320.55 289.77,320.07 291.60,319.61 293.49,319.16 295.46,318.74 297.49,318.34 299.57,317.95 301.70,317.58 303.89,317.22 306.12,316.87 308.38,316.53 310.69,316.20 313.02,315.88 315.38,315.57 317.76,315.26 320.15,314.95 322.56,314.65 324.98,314.34 327.40,314.04 329.82,313.73 332.24,313.42 334.65,313.11 337.04,312.78 339.41,312.45 341.76,312.11 344.09,311.76 346.38,311.40 348.65,311.03 350.90,310.65 353.11,310.26 355.31,309.86 357.48,309.46 359.62,309.04 361.75,308.62 363.85,308.19 365.94,307.75 368.00,307.31 370.04,306.86 372.07,306.41 374.08,305.95 376.07,305.49 378.05,305.03 380.01,304.56 381.96,304.09 383.90,303.62 385.82,303.15 387.74,302.67 389.64,302.20 391.53,301.72 393.41,301.25 395.29,300.77 397.15,300.30 399.02,299.83 400.87,299.36 402.72,298.89 404.57,298.43 406.41,297.97 408.25,297.52 410.09,297.07 411.93,296.62 413.77,296.18 415.61,295.75 417.45,295.32 419.29,294.90 421.14,294.49 422.99,294.08 424.84,293.69 426.70,293.30 428.57,292.92 430.45,292.55 432.34,292.18 434.23,291.82 436.14,291.47 438.07,291.13 440.00,290.80 441.96,290.47 443.92,290.15 445.91,289.83 447.91,289.53 449.94,289.22 451.98,288.93 454.05,288.64 456.14,288.36 458.25,288.08 460.39,287.81 462.56,287.54 464.75,287.28 466.98,287.03 469.23,286.78 471.51,286.53 473.83,286.29 476.18,286.05 478.56,285.82 480.98,285.60 483.44,285.37 485.93,285.16 488.46,284.94 491.03,284.73 493.65,284.52 496.30,284.32 498.98,284.12 501.70,283.92 504.44,283.73 507.21,283.53 510.01,283.34 512.82,283.15 515.66,282.95 518.51,282.76 521.37,282.57 524.24,282.37 527.11,282.18 529.99,281.98 532.87,281.78 535.75,281.58 538.63,281.38 541.50,281.17 544.36,280.96 547.20,280.75 550.04,280.53 552.85,280.30 555.64,280.07 558.41,279.84 561.15,279.60 563.86,279.35 566.54,279.09 569.19,278.83 571.80,278.56 574.36,278.28 576.89,277.99 579.37,277.70 581.80,277.39 584.17,277.08 586.50,276.75 588.77,276.42 590.97,276.07 593.12,275.71 595.20,275.34 597.21,274.96 599.15,274.56 601.02,274.15 602.81,273.73 604.52,273.30 606.15,272.85 607.69,272.38 609.15,271.90 610.52,271.41 611.79,270.90 612.97,270.37 614.05,269.83 615.03,269.26 615.91,268.69 616.67,268.09 617.33,267.47 617.88,266.84 618.31,266.19 618.62,265.51 618.81,264.82 618.88,264.11 618.82,263.37 618.64,262.62 618.32,261.84 617.89,261.05 617.34,260.23 616.69,259.40 615.94,258.56 615.11,257.70 614.19,256.82 613.21,255.94 612.16,255.05 611.07,254.15 609.92,253.24 608.74,252.33 607.53,251.41 606.31,250.49 605.07,249.57 603.82,248.65 602.59,247.73 601.36,246.82 600.16,245.91 598.97,245.01 597.80,244.11 596.64,243.21 595.50,242.32 594.37,241.44 593.24,240.56 592.13,239.68 591.02,238.81 589.92,237.95 588.82,237.09 587.72,236.23 586.62,235.39 585.52,234.54 584.42,233.71 583.31,232.88 582.20,232.05 581.08,231.23 579.95,230.42 578.80,229.61 577.65,228.81 576.48,228.02 575.30,227.23 574.09,226.45 572.87,225.68 571.63,224.91 570.37,224.15 569.08,223.39 567.77,222.65 566.43,221.91 565.06,221.17 563.66,220.45 562.23,219.73 560.77,219.02 559.27,218.32 557.74,217.62 556.16,216.93 554.55,216.25 552.90,215.58 551.21,214.91 549.49,214.25 547.73,213.60 545.93,212.96 544.11,212.32 542.25,211.68 540.37,211.05 538.46,210.43 536.52,209.82 534.56,209.20 532.58,208.59 530.57,207.99 528.55,207.39 526.51,206.80 524.45,206.20 522.37,205.61 520.29,205.03 518.19,204.44 516.08,203.86 513.96,203.28 511.83,202.70 509.70,202.13 507.56,201.55 505.42,200.98 503.27,200.41 501.13,199.83 498.99,199.26 496.85,198.69 494.71,198.11 492.58,197.54 490.46,196.97 488.35,196.39 486.24,195.81 484.15,195.23 482.08,194.65 480.01,194.07 477.97,193.48 475.94,192.89 473.93,192.30 471.94,191.70 469.97,191.10 468.03,190.50 466.11,189.89 464.22,189.28 462.36,188.66 460.53,188.04 458.73,187.41 456.96,186.78 455.22,186.14 453.52,185.50 451.86,184.84 450.24,184.19 448.66,183.52 447.12,182.85 445.62,182.17 444.17,181.48 442.76,180.78 441.40,180.08 440.10,179.37 438.84,178.64 437.63,177.91 436.48,177.17 435.38,176.42 434.34,175.66 433.36,174.89 432.44,174.11 431.58,173.32 430.78,172.51 430.04,171.70 429.38,170.87 428.78,170.03 428.24,169.18 427.78,168.32 427.39,167.44 427.07,166.55 426.83,165.65 426.67,164.74 426.58,163.81 426.56,162.86 426.60,161.90 426.64,160.94 426.64,159.96 426.57,158.97 426.38,157.98 426.09,156.98 425.68,155.97 425.16,154.96 424.54,153.95 423.81,152.92 422.98,151.90 422.06,150.86 421.03,149.83 419.91,148.79 418.70,147.74 417.40,146.70 416.01,145.65 414.54,144.59 412.98,143.54 411.34,142.48 409.63,141.42 407.84,140.36 405.97,139.30 404.04,138.24 402.03,137.18 399.96,136.12 397.83,135.05 395.63,133.99 393.38,132.93 391.06,131.87 388.70,130.82 386.28,129.76 383.81,128.71 381.30,127.65 378.73,126.61 376.13,125.56 373.49,124.52 370.81,123.48 368.09,122.44 365.34,121.41 362.56,120.39 359.75,119.37 356.91,118.35 354.06,117.34 351.18,116.34 348.28,115.34 345.36,114.35 342.43,113.37 339.49,112.39 336.54,111.43 333.58,110.47 330.61,109.51 327.65,108.57 324.68,107.63 321.72,106.71 318.76,105.79 315.80,104.88 312.86,103.99 309.93,103.10 307.01,102.23 304.11,101.36 301.23,100.51 298.37,99.67 295.53,98.84 292.72,98.02 289.93,97.22 287.18,96.43 284.46,95.65 281.78,94.89 279.13,94.14 276.52,93.40 273.96,92.68 271.44,91.97 268.97,91.28 266.55,90.61 264.18,89.95 261.86,89.30 259.60,88.68 257.40,88.07 255.26,87.48 253.18,86.90 251.17,86.34 249.23,85.80 247.36,85.28 245.56,84.78 243.84,84.30 242.20,83.83 240.63,83.39 239.15,82.97 237.75,82.56 236.44,82.18 235.23,81.82 234.10,81.48 233.06,81.16 232.13,80.86 231.29,80.59 230.56,80.33 229.92,80.10 229.40,79.90 228.98,79.72 228.68,79.56 228.48,79.42 228.41,79.31 228.45,79.23 228.61,79.17 228.89,79.13 229.30,79.13 229.84,79.14 230.51,79.19 231.31,79.26 232.24,79.36 233.31,79.48 234.52,79.63 235.87,79.81 237.37,80.02 239.01,80.26 240.80,80.53 242.74,80.83 244.84,81.15 247.06,81.50 249.36,81.86 251.63,82.21 253.81,82.52 255.82,82.79 257.58,82.99 259.02,83.11 260.13,83.14 260.92,83.09 261.40,82.96 261.59,82.76 261.50,82.49 261.15,82.15 260.55,81.75 259.70,81.30 258.63,80.79 257.35,80.23 255.86,79.62 254.19,78.98 252.35,78.30 250.34,77.58 248.18,76.84 245.89,76.07 243.48,75.28 240.96,74.47 238.35,73.65 235.65,72.82 232.88,71.99 230.06,71.16 227.19,70.33 224.29,69.51 221.38,68.70 218.46,67.90 215.55,67.13 212.66,66.38 209.81,65.65 207.00,64.96 204.26,64.31 201.59,63.70 199.01,63.13 196.53,62.60 194.16,62.13 191.91,61.72 189.76,61.36 187.66,61.04 185.60,60.77 183.54,60.55 181.45,60.36 179.30,60.20 177.09,60.09 174.84,60.01 172.57,60.00 170.30,60.05 168.06,60.18 165.87,60.39 163.76,60.70 161.73,61.12 159.82,61.62 158.02,62.22 156.35,62.89 154.82,63.64 153.44,64.46 152.22,65.33 151.19,66.25 150.33,67.21 149.68,68.21 149.21,69.23 148.85,70.26 148.55,71.27 148.22,72.26 147.79,73.19 147.19,74.05 146.36,74.83 145.23,75.50 143.81,76.09 142.15,76.59 140.29,77.03 138.27,77.43 136.12,77.80 133.89,78.16 131.62,78.52 129.35,78.90 127.12,79.32 124.97,79.80 122.94,80.34 121.07,80.97 119.36,81.67 117.83,82.44 116.47,83.27 115.29,84.15 114.30,85.06 113.50,86.01 112.90,86.97 112.50,87.95 112.32,88.92 112.35,89.89 112.59,90.85 113.03,91.79 113.66,92.71 114.47,93.62 115.43,94.50 116.54,95.37 117.78,96.21 119.14,97.03 120.60,97.82 122.16,98.59 123.79,99.33 125.49,100.04 127.24,100.72 129.02,101.38 130.84,102.00 132.67,102.59 134.53,103.15 136.41,103.70 138.31,104.22 140.22,104.72 142.15,105.21 144.09,105.68 146.03,106.14 147.98,106.60 149.93,107.05 151.88,107.49 153.83,107.94 155.77,108.39 157.71,108.84 159.64,109.29 161.56,109.76 163.46,110.24 165.35,110.73 167.22,111.24 169.07,111.76 170.91,112.30 172.74,112.85 174.55,113.40 176.35,113.97 178.14,114.55 179.91,115.14 181.68,115.73 183.44,116.33 185.19,116.94 186.93,117.55 188.67,118.17 190.40,118.78 192.13,119.41 193.86,120.03 195.57,120.65 197.29,121.28 198.99,121.91 200.69,122.55 202.39,123.18 204.07,123.82 205.74,124.47 207.40,125.11 209.05,125.77 210.69,126.42 212.32,127.09 213.93,127.76 215.52,128.43 217.11,129.11 218.67,129.80 220.22,130.49 221.75,131.19 223.26,131.90 224.75,132.61 226.22,133.34 227.66,134.07 229.09,134.81 230.49,135.56 231.87,136.31 233.23,137.08 234.56,137.86 235.88,138.64 237.18,139.43 238.46,140.22 239.74,141.02 241.00,141.82 242.26,142.63 243.51,143.44 244.75,144.25 246.00,145.06 247.24,145.87 248.49,146.67 249.75,147.48 251.01,148.28 252.28,149.09 253.57,149.88 254.86,150.67 256.18,151.46 257.51,152.23 258.86,153.00 260.24,153.77 261.64,154.52 263.07,155.26 264.52,155.99 266.01,156.71 267.53,157.42 269.09,158.11 270.69,158.79 272.32,159.45 274.00,160.10 275.72,160.73 277.49,161.35 279.31,161.94 281.18,162.52 283.10,163.07 285.05,163.62 287.00,164.16 288.93,164.70 290.83,165.26 292.66,165.83 294.41,166.43 296.04,167.06 297.55,167.74 298.90,168.46 300.08,169.24 301.08,170.07 301.99,170.94 302.86,171.83 303.79,172.73 304.82,173.60 306.05,174.44 307.53,175.23 309.23,175.96 311.11,176.66 313.13,177.32 315.25,177.96 317.44,178.57 319.64,179.18 321.83,179.77 323.95,180.36 325.97,180.96 327.84,181.58 329.53,182.21 331.00,182.87 332.20,183.56 333.10,184.30 333.65,185.08 333.81,185.92 333.55,186.82 332.97,187.76 332.32,188.72 331.88,189.64 331.83,190.50 332.15,191.31 332.83,192.07 333.81,192.79 335.08,193.46 336.60,194.10 338.33,194.72 340.25,195.31 342.31,195.88 344.49,196.43 346.75,196.98 349.07,197.53 351.40,198.08 353.72,198.64 355.99,199.21 358.18,199.80 360.25,200.41 362.18,201.06 363.93,201.73 365.46,202.45 366.77,203.21 367.85,204.01 368.73,204.85 369.40,205.73 369.89,206.64 370.19,207.58 370.33,208.55 370.31,209.54 370.14,210.56 369.84,211.60 369.40,212.66 368.85,213.74 368.20,214.83 367.45,215.93 366.61,217.05 365.69,218.16 364.67,219.23 363.54,220.23 362.26,221.11 360.84,221.82 359.24,222.34 357.45,222.62 355.45,222.63 353.29,222.42 351.04,222.10 348.77,221.77 346.56,221.54 344.46,221.49 342.54,221.71 340.75,222.17 339.04,222.78 337.34,223.50 335.60,224.24 333.76,224.95 331.76,225.57 329.64,226.10 327.45,226.57 325.21,227.00 322.99,227.40 320.83,227.80 318.76,228.23 316.84,228.70 315.11,229.23 313.61,229.84 312.39,230.56 311.49,231.40 310.92,232.37 310.42,233.36 309.65,234.20 308.34,234.77 306.53,235.10 304.34,235.26 301.89,235.31 299.32,235.31 296.74,235.33 294.28,235.44 292.00,235.66 289.86,235.99 287.86,236.41 285.96,236.90 284.14,237.45 282.37,238.04 280.63,238.67 278.90,239.32 277.16,239.97 275.42,240.63 273.66,241.29 271.90,241.95 270.12,242.60 268.32,243.23 266.50,243.85 264.66,244.44 262.79,245.01 260.89,245.54 258.96,246.04 257.00,246.49 255.00,246.90 252.96,247.26 250.88,247.57 248.76,247.81 246.59,248.00 244.36,248.11 242.10,248.16 239.84,248.20 237.62,248.29 235.51,248.49 233.54,248.85 231.71,249.35 229.98,249.96 228.33,250.67 226.75,251.43 225.22,252.22 223.69,253.02 222.17,253.79 220.62,254.51 219.02,255.14 217.34,255.67 215.57,256.07 213.71,256.33 211.76,256.46 209.74,256.47 207.64,256.39 205.49,256.21 203.30,255.96 201.06,255.63 198.79,255.25 196.51,254.83 194.21,254.37 191.91,253.89 189.63,253.40 187.36,252.92 185.12,252.45 182.91,252.00 180.75,251.58 178.62,251.18 176.52,250.80 174.46,250.43 172.44,250.06 170.44,249.70 168.47,249.34 166.53,248.97 164.62,248.60 162.73,248.21 160.86,247.80 159.02,247.39 157.20,246.95 155.40,246.51 153.62,246.04 151.87,245.57 150.14,245.08 148.43,244.58 146.74,244.06 145.08,243.53 143.43,242.99 141.80,242.44 140.20,241.87 138.61,241.29 137.05,240.70 135.50,240.09 133.98,239.48 132.47,238.85 130.98,238.21 129.51,237.56 128.05,236.90 126.62,236.22 125.20,235.54 123.80,234.84 122.41,234.14 121.05,233.42 119.70,232.70 118.36,231.96 117.04,231.21 115.74,230.46 114.45,229.69 113.18,228.92 111.92,228.13 110.67,227.34 109.44,226.54 108.23,225.73 107.03,224.91 105.84,224.08 104.66,223.25 103.50,222.40 102.34,221.55 101.21,220.70 100.08,219.83 98.96,218.96 97.86,218.08 96.77,217.19 95.68,216.29 94.61,215.39 93.55,214.49 92.50,213.57 91.46,212.65 90.42,211.73 89.40,210.80 88.39,209.86 87.38,208.92 86.38,207.97 85.39,207.02 84.41,206.06 83.44,205.10 82.47,204.13 81.51,203.16 80.56,202.19 79.61,201.21"/>
<polyline fill="none" stroke="#d62728" stroke-width="1.8" stroke-opacity="1.0" points="75.63,264.25 75.66,265.22 75.68,266.20 75.70,267.18 75.71,268.16 75.72,269.14 75.73,270.12 75.73,271.10 75.73,272.08 75.73,273.06 75.72,274.05 75.72,275.03 75.72,276.01 75.71,277.00 75.71,277.98 75.71,278.97 75.71,279.95 75.71,280.94 75.71,281.92 75.72,282.90 75.73,283.89 75.75,284.87 75.77,285.85 75.80,286.83 75.84,287.82 75.88,288.80 75.93,289.78 75.98,290.75 76.05,291.73 76.12,292.71 76.20,293.69 76.30,294.66 76.40,295.64 76.52,296.61 76.64,297.58 76.78,298.55 76.93,299.52 77.10,300.48 77.28,301.45 77.47,302.41 77.68,303.37 77.90,304.33 78.14,305.29 78.39,306.25 78.67,307.20 78.96,308.15 79.27,309.10 79.59,310.04 79.94,310.99 80.31,311.93 80.69,312.87 81.10,313.81 81.53,314.74 81.98,315.67 82.45,316.60 82.95,317.52 83.47,318.44 84.01,319.36 84.58,320.28 85.18,321.19 85.80,322.10 86.44,323.01 87.11,323.91 87.80,324.81 88.52,325.71 89.26,326.60 90.02,327.49 90.80,328.38 91.60,329.27 92.42,330.15 93.25,331.03 94.11,331.91 94.98,332.79 95.86,333.67 96.76,334.54 97.68,335.41 98.61,336.29 99.55,337.16 100.50,338.03 101.47,338.90 102.44,339.76 103.42,340.63 104.42,341.50 105.41,342.36 106.42,343.23 107.43,344.09 108.45,344.96 109.47,345.82 110.50,346.69 111.53,347.56 112.56,348.42 113.59,349.29 114.62,350.16 115.65,351.02 116.68,351.89 117.71,352.76 118.74,353.63 119.76,354.51 120.78,355.38 121.79,356.26 122.80,357.13 123.80,358.01 124.79,358.89 125.77,359.78 126.75,360.66 127.71,361.55 128.67,362.44 129.61,363.33 130.54,364.23 131.45,365.12 132.36,366.02 133.25,366.93 134.12,367.83 134.97,368.74 135.82,369.66 136.64,370.57 137.46,371.49 138.26,372.41 139.04,373.34 139.82,374.26 140.59,375.19 141.35,376.12 142.09,377.05 142.83,377.98 143.57,378.92 144.29,379.85 145.02,380.79 145.73,381.72 146.44,382.66 147.15,383.60 147.86,384.54 148.56,385.47 149.27,386.41 149.97,387.35 150.67,388.28 151.38,389.22 152.09,390.15 152.80,391.08 153.51,392.01 154.23,392.94 154.95,393.87 155.68,394.80 156.42,395.72 157.17,396.65 157.92,397.57 158.68,398.48 159.45,399.40 160.24,400.31 161.03,401.22 161.84,402.12 162.66,403.02 163.50,403.92 164.35,404.81 165.21,405.70 166.09,406.59 166.99,407.47 167.91,408.35 168.84,409.22 169.80,410.08 170.77,410.95 171.77,411.80 172.79,412.65 173.83,413.50 174.89,414.34 175.98,415.17 177.10,416.00 178.24,416.82 179.40,417.63 180.60,418.44 181.82,419.24 183.07,420.03 184.35,420.81 185.66,421.59 187.00,422.36 188.38,423.12 189.79,423.88 191.23,424.62 192.70,425.36 194.22,426.09 195.76,426.81 197.34,427.52 198.95,428.23 200.57,428.93 202.21,429.62 203.86,430.32 205.52,431.01 207.17,431.70 208.82,432.39 210.45,433.08 212.07,433.78 213.67,434.48 215.24,435.18 216.77,435.89 218.26,436.61 219.71,437.33 221.11,438.07 222.46,438.82 223.74,439.58 224.96,440.35 226.11,441.14 227.18,441.94 228.16,442.76 229.06,443.60 229.88,444.46 230.61,445.33 231.27,446.22 231.85,447.12 232.37,448.04 232.83,448.97 233.23,449.91 233.58,450.86 233.89,451.83 234.15,452.80 234.38,453.77 234.57,454.76 234.73,455.75 234.88,456.75 235.00,457.75 235.11,458.75 235.21,459.75 235.31,460.76 235.42,461.77 235.52,462.77 235.64,463.77 235.78,464.77 235.93,465.77 236.09,466.76 236.27,467.75 236.45,468.74 236.65,469.73 236.86,470.71 237.07,471.69 237.29,472.66 237.51,473.64 237.73,474.61 237.96,475.58 238.19,476.55 238.41,477.52 238.63,478.48 238.85,479.45 239.06,480.41 239.26,481.37 239.46,482.32 239.64,483.28 239.82,484.24 239.98,485.19 240.12,486.14 240.25,487.09 240.37,488.04 240.46,488.99 240.54,489.94 240.59,490.89 240.62,491.84 240.63,492.79 240.61,493.73 240.56,494.68 240.49,495.63 240.38,496.57 240.25,497.52 240.09,498.46 239.91,499.41 239.71,500.36 239.48,501.30 239.24,502.25 238.98,503.20 238.70,504.14 238.40,505.09 238.09,506.04 237.77,506.99 237.45,507.93 237.11,508.88 236.76,509.83 236.41,510.79 236.06,511.74 235.70,512.69 235.34,513.64 234.98,514.60 234.63,515.55 234.28,516.51 233.93,517.47 233.60,518.43 233.27,519.39 232.95,520.35 232.64,521.32 232.35,522.28 232.07,523.25 231.80,524.22 231.56,525.19 231.33,526.16 231.13,527.13 230.95,528.11 230.79,529.09 230.66,530.07 230.56,531.05 230.48,532.03 230.44,533.02 230.43,534.01 230.45,535.00 230.51,535.99 230.60,536.99 230.74,537.99 230.91,538.99 231.12,539.99 231.35,540.99 231.60,542.00 231.87,543.00 232.14,544.01 232.40,545.01 232.65,546.01 232.88,547.01 233.08,548.01 233.25,549.00 233.37,549.98 233.45,550.96 233.46,551.94 233.40,552.91 233.27,553.87 233.05,554.82 232.75,555.76 232.34,556.70 231.83,557.62 231.20,558.54 230.45,559.44 229.57,560.33 228.55,561.21 227.39,562.07 226.12,562.92 224.77,563.76 223.38,564.59 222.00,565.41 220.67,566.23 219.42,567.03 218.28,567.83 217.32,568.63 216.55,569.42 216.02,570.20 215.73,570.99 215.68,571.77 215.86,572.55 216.26,573.32 216.86,574.08 217.65,574.84 218.63,575.59 219.79,576.34 221.12,577.07 222.60,577.79 224.23,578.50 226.00,579.20 227.90,579.88 229.91,580.55 232.03,581.20 234.25,581.84 236.55,582.45 238.93,583.05 241.38,583.63 243.88,584.19 246.44,584.72 249.03,585.24 251.64,585.72 254.28,586.19 256.92,586.62 259.56,587.03 262.18,587.42 264.78,587.77 267.36,588.09 269.92,588.39 272.46,588.66 274.97,588.90 277.46,589.12 279.93,589.31 282.38,589.47 284.81,589.61 287.22,589.72 289.61,589.81 291.98,589.88 294.34,589.92 296.67,589.95 298.99,589.95 301.29,589.92 303.58,589.88 305.84,589.82 308.09,589.73 310.33,589.63 312.55,589.51 314.76,589.37 316.95,589.21 319.13,589.04 321.30,588.84 323.45,588.64 325.59,588.41 327.72,588.17 329.83,587.92 331.94,587.65 334.03,587.37 336.12,587.07 338.19,586.76 340.26,586.44 342.31,586.11 344.36,585.76 346.39,585.41 348.42,585.04 350.45,584.67 352.46,584.28 354.47,583.89 356.47,583.49 358.47,583.08 360.46,582.67 362.44,582.24 364.42,581.81 366.40,581.38 368.37,580.94 370.34,580.50 372.30,580.05 374.26,579.60 376.22,579.14 378.18,578.69 380.14,578.23 382.09,577.76 384.04,577.30 385.99,576.83 387.94,576.36 389.88,575.89 391.83,575.41 393.77,574.93 395.70,574.45 397.64,573.97 399.57,573.48 401.49,572.99 403.42,572.50 405.34,572.00 407.26,571.51 409.17,571.01 411.08,570.50 412.99,570.00 414.89,569.49 416.79,568.98 418.69,568.46 420.58,567.94 422.47,567.42 424.35,566.90 426.23,566.37 428.10,565.84 429.97,565.31 431.84,564.77 433.70,564.23 435.56,563.69 437.41,563.15 439.25,562.60 441.09,562.05 442.93,561.49 444.76,560.94 446.59,560.37 448.41,559.81 450.22,559.24 452.03,558.67 453.83,558.10 455.63,557.52 457.42,556.94 459.21,556.36 460.99,555.77 462.76,555.18 464.53,554.59 466.29,553.99 468.05,553.39 469.79,552.78 471.54,552.18 473.27,551.57 475.00,550.95 476.72,550.33 478.43,549.71 480.14,549.09 481.84,548.46 483.53,547.83 485.22,547.19 486.89,546.55 488.56,545.91 490.23,545.26 491.88,544.61 493.53,543.96 495.17,543.30 496.80,542.64 498.42,541.98 500.03,541.31 501.64,540.63 503.24,539.96 504.83,539.28 506.41,538.59 507.98,537.91 509.55,537.22 511.11,536.52 512.66,535.83 514.21,535.13 515.76,534.43 517.31,533.73 518.85,533.03 520.39,532.33 521.94,531.63 523.48,530.93 525.03,530.24 526.58,529.54 528.13,528.85 529.69,528.16 531.25,527.47 532.82,526.78 534.40,526.10 535.98,525.43 537.58,524.75 539.18,524.09 540.80,523.43 542.43,522.77 544.07,522.12 545.72,521.48 547.39,520.84 549.07,520.22 550.77,519.60 552.48,518.98 554.21,518.38 555.95,517.78 557.71,517.19 559.47,516.60 561.25,516.02 563.04,515.45 564.84,514.88 566.65,514.32 568.47,513.76 570.30,513.20 572.14,512.65 573.98,512.10 575.83,511.56 577.69,511.02 579.55,510.48 581.42,509.94 583.29,509.41 585.16,508.88 587.04,508.35 588.92,507.82 590.80,507.29 592.68,506.77 594.57,506.24 596.45,505.71 598.33,505.19 600.21,504.66 602.09,504.13 603.96,503.60 605.84,503.07 607.70,502.54 609.57,502.00 611.43,501.46 613.28,500.92 615.12,500.38 616.96,499.83 618.79,499.28 620.62,498.73 622.43,498.17 624.23,497.61 626.03,497.04 627.81,496.46 629.58,495.88 631.34,495.30 633.08,494.71 634.82,494.11 636.53,493.51 638.24,492.90 639.93,492.28 641.60,491.65 643.25,491.02 644.89,490.37 646.51,489.72 648.12,489.06 649.71,488.40 651.28,487.72 652.84,487.04 654.38,486.35 655.90,485.66 657.41,484.95 658.91,484.25 660.39,483.53 661.86,482.81 663.31,482.08 664.75,481.34 666.17,480.60 667.58,479.85 668.98,479.10 670.37,478.34 671.74,477.58 673.10,476.81 674.45,476.04 675.79,475.26 677.11,474.47 678.43,473.69 679.73,472.89 681.02,472.10 682.30,471.30 683.58,470.49 684.84,469.68 686.09,468.87 687.33,468.05 688.56,467.23 689.78,466.41 691.00,465.59 692.20,464.76 693.40,463.93 694.59,463.09 695.77,462.26 696.94,461.42 698.11,460.58 699.27,459.74 700.42,458.89 701.56,458.05 702.70,457.20 703.84,456.35 704.96,455.50 706.08,454.65 707.20,453.80 708.31,452.95 709.41,452.10 710.51,451.24 711.61,450.39 712.70,449.53 713.79,448.67 714.87,447.82 715.95,446.96 717.02,446.10 718.09,445.24 719.16,444.38 720.22,443.52 721.28,442.67 722.34,441.81 723.39,440.95 724.45,440.09 725.50,439.22 726.54,438.36 727.59,437.50 728.63,436.64 729.68,435.78 730.72,434.92 731.76,434.07 732.80,433.21 733.83,432.35 734.87,431.49 735.91,430.63 736.95,429.77 737.98,428.92 739.02,428.06 740.06,427.21 741.09,426.35 742.13,425.50 743.17,424.65 744.21,423.80 745.25,422.95 746.30,422.10 747.34,421.25 748.39,420.40 749.44,419.55 750.49,418.71 751.54,417.87 752.60,417.03 753.66,416.19 754.72,415.35 755.78,414.51 756.85,413.67 757.92,412.84 759.00,412.01 760.08,411.18 761.16,410.35 762.25,409.53 763.34,408.70 764.44,407.88 765.54,407.06 766.65,406.24 767.76,405.43 768.88,404.61 770.00,403.80 771.12,402.99 772.25,402.18 773.39,401.37 774.53,400.57 775.67,399.76 776.81,398.96 777.96,398.15 779.11,397.34 780.26,396.54 781.41,395.73 782.57,394.93 783.72,394.12 784.88,393.31 786.04,392.50 787.20,391.69 788.36,390.88 789.52,390.06 790.68,389.25 791.84,388.43 792.99,387.61 794.15,386.78 795.31,385.96 796.46,385.13 797.61,384.29 798.76,383.45 799.91,382.61 801.06,381.77 802.20,380.92 803.34,380.06 804.47,379.21 805.61,378.34 806.73,377.47 807.86,376.60 808.98,375.72 810.09,374.83 811.20,373.94 812.30,373.04 813.40,372.14 814.49,371.23 815.56,370.31 816.62,369.39 817.65,368.47 818.66,367.54 819.63,366.61 820.57,365.68 821.46,364.74 822.31,363.81 823.11,362.87 823.85,361.94 824.53,361.01 825.14,360.08 825.69,359.15 826.16,358.22 826.55,357.30 826.86,356.38 827.08,355.47 827.20,354.57 827.23,353.67 827.16,352.77 826.98,351.89 826.69,351.01 826.31,350.14 825.84,349.28 825.27,348.42 824.61,347.57 823.87,346.72 823.05,345.89 822.15,345.05 821.17,344.22 820.13,343.40 819.02,342.58 817.85,341.77 816.62,340.96 815.33,340.15 814.00,339.35 812.61,338.55 811.18,337.75 809.71,336.96 808.20,336.17 806.66,335.38 805.09,334.59 803.49,333.80 801.87,333.02 800.23,332.24 798.57,331.45 796.90,330.67 795.23,329.89 793.55,329.11 791.87,328.32 790.19,327.54 788.52,326.76 786.86,325.97 785.21,325.19 783.56,324.40 781.93,323.61 780.30,322.83 778.68,322.04 777.07,321.26 775.46,320.48 773.86,319.70 772.26,318.92 770.67,318.14 769.08,317.37 767.49,316.60 765.91,315.83 764.32,315.07 762.74,314.32 761.15,313.56 759.57,312.82 757.98,312.08 756.39,311.34 754.80,310.61 753.21,309.89 751.61,309.18 750.01,308.47 748.40,307.77 746.79,307.09 745.16,306.40 743.54,305.73 741.90,305.07 740.26,304.42 738.60,303.78 736.94,303.15 735.27,302.53 733.58,301.92 731.88,301.32 730.17,300.74 728.45,300.17 726.72,299.61 724.97,299.06 723.20,298.53 721.42,298.02 719.62,297.51 717.81,297.03 715.97,296.56 714.12,296.10 712.25,295.66 710.36,295.24 708.45,294.83 706.52,294.44 704.57,294.07 702.59,293.72 700.60,293.38 698.57,293.07 696.53,292.77 694.46,292.50 692.36,292.24 690.24,292.00 688.09,291.79 685.92,291.59 683.73,291.42 681.53,291.26 679.31,291.13 677.07,291.02 674.83,290.93 672.58,290.86 670.33,290.82 668.08,290.79 665.83,290.79 663.58,290.81 661.34,290.85 659.11,290.91 656.89,291.00 654.68,291.10 652.49,291.23 650.32,291.38 648.17,291.56 646.03,291.75 643.90,291.96 641.80,292.20 639.70,292.45 637.62,292.72 635.56,293.02 633.50,293.33 631.47,293.65 629.44,294.00 627.43,294.36 625.43,294.73 623.44,295.12 621.46,295.53 619.50,295.95 617.54,296.39 615.60,296.84 613.66,297.30 611.74,297.78 609.83,298.27 607.92,298.77 606.03,299.28 604.14,299.80 602.26,300.33 600.39,300.88 598.52,301.43 596.67,301.99 594.82,302.56 592.97,303.14 591.14,303.72 589.30,304.31 587.48,304.91 585.66,305.52 583.84,306.13 582.03,306.74 580.22,307.36 578.41,307.99 576.61,308.62 574.81,309.25 573.02,309.88 571.23,310.52 569.43,311.16 567.64,311.80 565.86,312.44 564.07,313.08 562.28,313.72 560.49,314.36 558.71,315.00 556.92,315.64 555.13,316.27 553.34,316.91 551.55,317.54 549.76,318.16 547.96,318.79 546.16,319.40 544.36,320.02 542.56,320.63 540.75,321.23 538.94,321.82 537.12,322.41 535.30,323.00 533.47,323.57 531.64,324.14 529.80,324.69 527.96,325.24 526.11,325.78 524.25,326.31 522.39,326.83 520.52,327.34 518.65,327.84 516.77,328.33 514.88,328.82 512.99,329.30 511.09,329.77 509.18,330.23 507.28,330.68 505.36,331.13 503.44,331.58 501.52,332.01 499.59,332.45 497.66,332.87 495.72,333.30 493.78,333.71 491.84,334.13 489.89,334.54 487.94,334.95 485.98,335.35 484.02,335.75 482.06,336.15 480.10,336.55 478.13,336.95 476.16,337.35 474.19,337.74 472.21,338.14 470.24,338.53 468.26,338.93 466.28,339.32 464.30,339.72 462.31,340.12 460.33,340.52 458.34,340.92 456.36,341.32 454.37,341.73 452.38,342.14 450.39,342.56 448.41,342.97 446.42,343.40 444.43,343.82 442.44,344.25 440.45,344.69 438.46,345.13 436.47,345.58 434.49,346.04 432.50,346.50 430.52,346.97 428.54,347.44 426.55,347.93 424.57,348.42 422.60,348.92 420.62,349.43 418.65,349.95 416.67,350.47 414.70,351.01 412.74,351.56 410.77,352.12 408.81,352.69 406.85,353.27 404.90,353.86 402.95,354.46 401.00,355.08 399.06,355.71 397.12,356.35 395.18,357.00 393.25,357.67 391.32,358.34 389.39,359.01 387.46,359.69 385.54,360.37 383.61,361.05 381.69,361.72 379.77,362.39 377.85,363.04 375.93,363.69 374.01,364.32 372.08,364.94 370.16,365.54 368.23,366.11 366.30,366.67 364.37,367.19 362.43,367.70 360.50,368.17 358.55,368.61 356.61,369.01 354.66,369.38 352.70,369.70 350.74,369.99 348.77,370.23 346.80,370.43 344.82,370.57 342.84,370.67 340.84,370.71 338.84,370.70 336.84,370.63 334.82,370.50 332.80,370.31 330.78,370.07 328.75,369.77 326.73,369.43 324.71,369.03 322.69,368.58 320.69,368.09 318.69,367.55 316.71,366.97 314.74,366.35 312.79,365.69 310.86,364.99 308.95,364.26 307.07,363.49 305.21,362.68 303.38,361.85 301.59,360.99 299.82,360.10 298.10,359.18 296.41,358.24 294.76,357.28 293.16,356.30 291.60,355.30 290.08,354.29 288.62,353.25 287.21,352.21 285.86,351.15 284.56,350.09 283.32,349.01 282.14,347.93 281.02,346.85 279.98,345.76 279.00,344.67 278.09,343.58 277.25,342.50 276.49,341.42 275.81,340.34 275.21,339.27 274.68,338.22 274.25,337.17 273.90,336.14 273.64,335.12 273.47,334.12 273.39,333.13 273.42,332.17 273.53,331.23 273.75,330.31 274.08,329.42 274.51,328.55 275.04,327.71 275.69,326.91 276.44,326.13 277.32,325.39 278.30,324.69 279.40,324.01 280.60,323.37 281.91,322.76 283.31,322.17 284.80,321.62 286.39,321.08 288.06,320.58 289.80,320.09 291.63,319.63 293.52,319.19 295.48,318.77 297.51,318.36 299.59,317.97 301.72,317.59 303.90,317.23 306.13,316.88 308.39,316.54 310.69,316.21 313.02,315.89 315.38,315.57 317.76,315.26 320.15,314.95 322.56,314.65 324.98,314.34 327.40,314.04 329.82,313.73 332.24,313.42 334.64,313.10 337.03,312.77 339.40,312.44 341.75,312.10 344.08,311.75 346.37,311.39 348.64,311.02 350.88,310.64 353.10,310.24 355.29,309.85 357.46,309.44 359.61,309.02 361.73,308.60 363.83,308.17 365.91,307.73 367.98,307.29 370.02,306.84 372.05,306.39 374.06,305.94 376.05,305.48 378.03,305.01 379.99,304.54 381.94,304.08 383.88,303.60 385.80,303.13 387.72,302.66 389.62,302.18 391.51,301.71 393.39,301.23 395.27,300.76 397.14,300.29 399.00,299.82 400.86,299.35 402.71,298.88 404.56,298.42 406.40,297.96 408.24,297.51 410.08,297.06 411.92,296.61 413.76,296.17 415.60,295.74 417.44,295.32 419.29,294.90 421.13,294.49 422.99,294.08 424.84,293.69 426.71,293.30 428.58,292.92 430.45,292.55 432.34,292.18 434.24,291.83 436.15,291.48 438.07,291.14 440.01,290.80 441.96,290.48 443.93,290.16 445.92,289.84 447.92,289.54 449.95,289.23 451.99,288.94 454.06,288.65 456.15,288.37 458.26,288.09 460.40,287.82 462.57,287.55 464.76,287.29 466.98,287.04 469.24,286.79 471.52,286.54 473.83,286.30 476.18,286.07 478.57,285.84 480.99,285.61 483.44,285.39 485.93,285.17 488.47,284.95 491.04,284.74 493.65,284.53 496.30,284.33 498.99,284.13 501.70,283.93 504.45,283.73 507.22,283.54 510.01,283.34 512.83,283.15 515.66,282.96 518.51,282.77 521.37,282.57 524.24,282.38 527.11,282.18 529.99,281.98 532.87,281.79 535.75,281.58 538.63,281.38 541.50,281.17 544.36,280.96 547.20,280.74 550.03,280.52 552.85,280.30 555.64,280.07 558.41,279.83 561.15,279.59 563.86,279.34 566.54,279.08 569.18,278.82 571.79,278.55 574.36,278.27 576.88,277.98 579.36,277.69 581.79,277.38 584.17,277.07 586.49,276.74 588.76,276.40 590.96,276.06 593.11,275.70 595.18,275.33 597.20,274.94 599.14,274.55 601.00,274.14 602.79,273.72 604.50,273.28 606.13,272.83 607.67,272.37 609.13,271.89 610.50,271.40 611.77,270.89 612.95,270.36 614.03,269.82 615.00,269.26 615.88,268.68 616.64,268.08 617.30,267.47 617.85,266.84 618.28,266.18 618.59,265.51 618.78,264.82 618.85,264.11 618.80,263.38 618.61,262.62 618.30,261.85 617.86,261.05 617.32,260.24 616.67,259.41 615.92,258.56 615.09,257.70 614.17,256.83 613.19,255.94 612.15,255.05 611.05,254.15 609.91,253.24 608.73,252.33 607.52,251.41 606.29,250.49 605.06,249.57 603.81,248.65 602.58,247.74 601.36,246.82 600.15,245.91 598.97,245.01 597.80,244.11 596.64,243.21 595.50,242.32 594.36,241.44 593.24,240.56 592.13,239.68 591.02,238.81 589.92,237.95 588.82,237.09 587.72,236.23 586.62,235.38 585.53,234.54 584.42,233.71 583.32,232.87 582.20,232.05 581.08,231.23 579.95,230.42 578.81,229.61 577.66,228.81 576.49,228.02 575.30,227.23 574.10,226.45 572.88,225.67 571.64,224.91 570.38,224.15 569.09,223.39 567.78,222.64 566.44,221.90 565.07,221.17 563.67,220.45 562.24,219.73 560.78,219.02 559.28,218.31 557.75,217.62 556.17,216.93 554.56,216.25 552.91,215.57 551.22,214.91 549.49,214.25 547.73,213.60 545.94,212.95 544.12,212.31 542.26,211.68 540.38,211.05 538.47,210.43 536.53,209.81 534.57,209.20 532.58,208.59 530.58,207.99 528.56,207.39 526.51,206.79 524.45,206.20 522.38,205.61 520.29,205.02 518.19,204.44 516.08,203.86 513.96,203.28 511.83,202.70 509.70,202.13 507.56,201.55 505.42,200.98 503.27,200.40 501.13,199.83 498.99,199.26 496.85,198.69 494.71,198.11 492.58,197.54 490.46,196.96 488.35,196.39 486.24,195.81 484.15,195.23 482.07,194.65 480.01,194.07 477.96,193.48 475.93,192.89 473.92,192.30 471.94,191.71 469.97,191.11 468.02,190.50 466.11,189.90 464.21,189.28 462.35,188.67 460.52,188.05 458.72,187.42 456.95,186.79 455.21,186.15 453.51,185.50 451.85,184.85 450.22,184.19 448.64,183.53 447.10,182.86 445.60,182.18 444.15,181.49 442.74,180.79 441.38,180.09 440.07,179.38 438.80,178.65 437.60,177.92 436.44,177.18 435.34,176.43 434.30,175.67 433.31,174.90 432.39,174.12 431.52,173.33 430.72,172.52 429.98,171.71 429.31,170.88 428.71,170.04 428.17,169.19 427.70,168.33 427.31,167.45 426.99,166.56 426.74,165.65 426.57,164.74 426.48,163.81 426.46,162.86 426.49,161.90 426.52,160.94 426.52,159.96 426.45,158.98 426.26,157.99 425.96,156.99 425.55,155.99 425.03,154.98 424.40,153.96 423.67,152.94 422.84,151.92 421.91,150.89 420.89,149.86 419.77,148.82 418.55,147.78 417.25,146.73 415.86,145.69 414.38,144.64 412.83,143.58 411.19,142.53 409.47,141.47 407.68,140.42 405.81,139.36 403.88,138.30 401.87,137.24 399.80,136.18 397.67,135.12 395.47,134.06 393.22,133.00 390.90,131.94 388.54,130.88 386.12,129.83 383.65,128.78 381.14,127.73 378.58,126.68 375.97,125.63 373.33,124.59 370.65,123.56 367.93,122.52 365.18,121.49 362.41,120.47 359.60,119.45 356.76,118.43 353.91,117.43 351.03,116.42 348.13,115.43 345.21,114.44 342.29,113.45 339.35,112.48 336.40,111.51 333.44,110.55 330.48,109.59 327.51,108.65 324.55,107.71 321.59,106.79 318.63,105.87 315.68,104.96 312.74,104.06 309.81,103.18 306.90,102.30 304.00,101.43 301.12,100.58 298.26,99.74 295.43,98.91 292.62,98.09 289.84,97.28 287.09,96.49 284.37,95.71 281.69,94.94 279.05,94.19 276.44,93.46 273.88,92.73 271.37,92.02 268.90,91.33 266.48,90.65 264.11,89.99 261.80,89.35 259.54,88.72 257.34,88.11 255.20,87.51 253.13,86.94 251.12,86.38 249.18,85.83 247.32,85.31 245.52,84.81 243.80,84.32 242.16,83.86 240.60,83.41 239.12,82.99 237.72,82.58 236.42,82.20 235.20,81.83 234.07,81.49 233.04,81.17 232.11,80.87 231.27,80.60 230.54,80.34 229.91,80.11 229.38,79.91 228.96,79.72 228.66,79.56 228.46,79.43 228.39,79.31 228.43,79.22 228.60,79.16 228.89,79.13 229.30,79.12 229.84,79.14 230.51,79.18 231.31,79.25 232.24,79.35 233.31,79.47 234.52,79.63 235.88,79.81 237.37,80.02 239.02,80.25 240.81,80.52 242.75,80.82 244.84,81.14 247.07,81.49 249.37,81.85 251.64,82.19 253.82,82.51 255.83,82.78 257.59,82.98 259.02,83.09 260.13,83.12 260.90,83.07 261.36,82.95 261.54,82.76 261.46,82.50 261.11,82.16 260.50,81.77 259.66,81.31 258.59,80.80 257.30,80.25 255.82,79.64 254.15,79.00 252.30,78.32 250.29,77.61 248.14,76.86 245.85,76.09 243.44,75.31 240.91,74.50 238.30,73.68 235.60,72.85 232.83,72.02 230.01,71.19 227.14,70.36 224.24,69.54 221.33,68.73 218.41,67.94 215.50,67.16 212.61,66.41 209.76,65.69 206.95,65.00 204.21,64.35 201.54,63.74 198.97,63.17 196.49,62.65 194.12,62.18 191.87,61.76 189.72,61.40 187.63,61.09 185.57,60.82 183.51,60.59 181.43,60.40 179.29,60.25 177.08,60.13 174.84,60.06 172.57,60.05 170.31,60.10 168.08,60.23 165.90,60.44 163.80,60.75 161.78,61.16 159.88,61.66 158.08,62.25 156.42,62.93 154.90,63.67 153.52,64.48 152.31,65.35 151.28,66.27 150.43,67.22 149.77,68.22 149.30,69.24 148.95,70.26 148.64,71.28 148.31,72.26 147.88,73.20 147.28,74.07 146.44,74.85 145.30,75.53 143.87,76.12 142.20,76.62 140.33,77.06 138.30,77.46 136.15,77.83 133.92,78.19 131.65,78.55 129.38,78.93 127.15,79.35 125.01,79.83 122.98,80.37 121.12,80.99 119.41,81.69 117.88,82.46 116.52,83.29 115.34,84.16 114.35,85.07 113.56,86.01 112.96,86.98 112.56,87.95 112.37,88.93 112.40,89.89 112.64,90.85 113.08,91.78 113.71,92.71 114.51,93.61 115.47,94.49 116.57,95.36 117.81,96.20 119.17,97.02 120.63,97.81 122.18,98.58 123.82,99.32 125.51,100.03 127.26,100.71 129.04,101.37 130.85,101.99 132.69,102.58 134.55,103.14 136.43,103.69 138.32,104.21 140.23,104.71 142.16,105.20 144.09,105.67 146.04,106.14 147.98,106.59 149.93,107.04 151.89,107.49 153.83,107.93 155.78,108.38 157.72,108.83 159.65,109.29 161.56,109.76 163.47,110.24 165.35,110.73 167.22,111.24 169.08,111.76 170.91,112.30 172.74,112.85 174.55,113.40 176.35,113.97 178.14,114.55 179.91,115.14 181.68,115.73 183.44,116.33 185.19,116.94 186.93,117.55 188.67,118.17 190.40,118.79 192.13,119.41 193.85,120.03 195.57,120.66 197.29,121.28 198.99,121.91 200.69,122.55 202.38,123.18 204.07,123.82 205.74,124.47 207.40,125.11 209.05,125.77 210.69,126.42 212.32,127.09 213.93,127.76 215.52,128.43 217.11,129.11 218.67,129.80 220.22,130.49 221.75,131.19 223.26,131.90 224.75,132.61 226.22,133.33 227.67,134.07 229.09,134.81 230.50,135.55 231.88,136.31 233.23,137.08 234.57,137.85 235.88,138.64 237.19,139.43 238.47,140.22 239.75,141.02 241.01,141.82 242.27,142.63 243.52,143.43 244.76,144.24 246.01,145.05 247.26,145.86 248.51,146.67 249.76,147.48 251.02,148.28 252.30,149.08 253.58,149.88 254.88,150.67 256.19,151.45 257.53,152.23 258.88,153.00 260.25,153.76 261.66,154.51 263.08,155.25 264.54,155.99 266.03,156.70 267.55,157.41 269.11,158.10 270.70,158.78 272.34,159.45 274.02,160.09 275.74,160.72 277.51,161.34 279.33,161.93 281.20,162.51 283.11,163.06 285.06,163.61 287.01,164.15 288.95,164.69 290.84,165.25 292.67,165.82 294.42,166.42 296.06,167.06 297.57,167.73 298.92,168.45 300.10,169.23 301.11,170.07 302.01,170.94 302.89,171.83 303.80,172.72 304.84,173.60 306.07,174.43 307.54,175.22 309.24,175.96 311.12,176.66 313.14,177.32 315.26,177.95 317.45,178.57 319.65,179.17 321.83,179.76 323.95,180.36 325.97,180.96 327.85,181.57 329.54,182.21 331.00,182.87 332.20,183.56 333.10,184.30 333.65,185.08 333.81,185.92 333.54,186.82 332.96,187.76 332.32,188.71 331.87,189.64 331.82,190.50 332.14,191.31 332.81,192.08 333.80,192.79 335.07,193.47 336.58,194.11 338.31,194.73 340.23,195.32 342.29,195.89 344.47,196.45 346.74,197.00 349.05,197.54 351.38,198.09 353.70,198.65 355.96,199.23 358.15,199.82 360.22,200.43 362.14,201.08 363.88,201.75 365.41,202.47 366.71,203.23 367.79,204.03 368.66,204.87 369.33,205.74 369.81,206.64 370.12,207.58 370.25,208.55 370.23,209.54 370.06,210.56 369.75,211.59 369.32,212.65 368.77,213.73 368.11,214.82 367.36,215.92 366.52,217.04 365.60,218.15 364.58,219.22 363.45,220.21 362.18,221.08 360.77,221.79 359.19,222.30 357.43,222.58 355.46,222.58 353.32,222.38 351.08,222.06 348.80,221.73 346.57,221.49 344.45,221.45 342.50,221.67 340.69,222.13 338.97,222.75 337.28,223.47 335.54,224.21 333.70,224.92 331.71,225.53 329.60,226.07 327.41,226.53 325.18,226.96 322.96,227.37 320.80,227.77 318.73,228.20 316.80,228.67 315.06,229.20 313.56,229.82 312.33,230.54 311.43,231.39 310.86,232.37 310.36,233.35 309.61,234.19 308.31,234.75 306.52,235.08 304.33,235.24 301.89,235.29 299.32,235.29 296.74,235.32 294.28,235.43 291.99,235.65 289.85,235.98 287.85,236.40 285.95,236.89 284.13,237.45 282.36,238.04 280.63,238.67 278.90,239.32 277.16,239.97 275.42,240.64 273.67,241.30 271.91,241.95 270.13,242.60 268.33,243.24 266.51,243.85 264.67,244.45 262.80,245.02 260.90,245.55 258.98,246.05 257.01,246.51 255.01,246.92 252.98,247.28 250.89,247.58 248.77,247.83 246.59,248.01 244.37,248.13 242.10,248.18 239.84,248.22 237.63,248.31 235.52,248.51 233.56,248.87 231.73,249.36 230.00,249.98 228.36,250.68 226.78,251.44 225.24,252.23 223.72,253.03 222.19,253.80 220.64,254.52 219.04,255.15 217.36,255.68 215.59,256.08 213.72,256.34 211.77,256.47 209.74,256.48 207.64,256.40 205.49,256.22 203.29,255.96 201.05,255.64 198.79,255.26 196.50,254.83 194.21,254.37 191.91,253.89 189.62,253.41 187.36,252.92 185.12,252.45 182.91,252.00 180.75,251.58 178.62,251.18 176.53,250.79 174.47,250.42 172.44,250.06 170.45,249.69 168.48,249.33 166.54,248.96 164.63,248.59 162.74,248.20 160.87,247.79 159.03,247.38 157.21,246.94 155.41,246.49 153.64,246.03 151.89,245.56 150.16,245.07 148.45,244.57 146.76,244.05 145.09,243.52 143.45,242.98 141.82,242.43 140.22,241.86 138.63,241.28 137.07,240.69 135.52,240.09 133.99,239.47 132.48,238.84 130.99,238.20 129.52,237.55 128.07,236.89 126.63,236.22 125.21,235.54 123.81,234.84 122.42,234.14 121.05,233.42 119.70,232.69 118.37,231.96 117.04,231.21 115.74,230.46 114.45,229.69 113.17,228.92 111.91,228.14 110.67,227.34 109.44,226.54 108.22,225.73 107.02,224.91 105.83,224.09 104.65,223.25 103.48,222.41 102.33,221.56 101.19,220.70 100.07,219.83 98.95,218.96 97.85,218.08 96.75,217.19 95.67,216.30 94.60,215.39 93.54,214.49 92.49,213.57 91.45,212.65 90.42,211.73 89.40,210.80 88.39,209.86 87.39,208.92 86.39,207.97 85.41,207.02 84.43,206.06 83.46,205.10 82.50,204.13 81.54,203.16 80.59,202.18 79.65,201.20"/>
<circle cx="76.84" cy="140.97" r="4.00" fill="#2ca02c"/>
<circle cx="76.84" cy="140.97" r="4.00" fill="#2ca02c"/>
<circle cx="101.32" cy="259.08" r="4.00" fill="#2ca02c"/>
<circle cx="101.32" cy="259.08" r="4.00" fill="#2ca02c"/>
<circle cx="94.24" cy="360.04" r="4.00" fill="#2ca02c"/>
<circle cx="94.24" cy="360.04" r="4.00" fill="#2ca02c"/>
<circle cx="214.85" cy="589.23" r="4.00" fill="#2ca02c"/>
<circle cx="214.85" cy="589.23" r="4.00" fill="#2ca02c"/>
<circle cx="840.00" cy="351.95" r="4.00" fill="#2ca02c"/>
<circle cx="840.00" cy="351.95" r="4.00" fill="#2ca02c"/>
<circle cx="403.53" cy="161.53" r="4.00" fill="#2ca02c"/>
<circle cx="403.53" cy="161.53" r="4.00" fill="#2ca02c"/>
<text x="710.00" y="40.00" font-family="Arial, sans-serif" font-size="12" text-anchor="start" fill="#222">gray: track</text>
<text x="710.00" y="58.00" font-family="Arial, sans-serif" font-size="12" text-anchor="start" fill="#222">blue: baseline</text>
<text x="710.00" y="76.00" font-family="Arial, sans-serif" font-size="12" text-anchor="start" fill="#222">red: estimate</text>
<text x="710.00" y="94.00" font-family="Arial, sans-serif" font-size="12" text-anchor="start" fill="#222">green: transmitters</text>
</svg>