<svg xmlns="http://www.w3.org/2000/svg" width="980" height="460" viewBox="0 0 980 460">
<rect x="0" y="0" width="980" height="460" fill="white"/>
<text x="30.00" y="35.00" font-family="Arial, sans-serif" font-size="18" text-anchor="start" fill="#222">Arrival-time residuals by shot</text>
<line x1="55" y1="230.00" x2="925" y2="230.00" stroke="#666"/>
<line x1="100.00" y1="352.55" x2="100.00" y2="206.65" stroke="#333" stroke-width="1.2"/>
<rect x="86.00" y="216.86" width="28.00" height="32.17" fill="#f28e2b" opacity="0.8" stroke="#333"/>
<line x1="86.00" y1="234.87" x2="114.00" y2="234.87" stroke="#111" stroke-width="1.4"/>
<line x1="90.00" y1="352.55" x2="110.00" y2="352.55" stroke="#333" stroke-width="1.1"/>
<line x1="90.00" y1="206.65" x2="110.00" y2="206.65" stroke="#333" stroke-width="1.1"/>
<text x="100.00" y="442.00" font-family="Arial, sans-serif" font-size="12" text-anchor="middle" fill="#222">t11</text>
<line x1="170.91" y1="294.71" x2="170.91" y2="202.97" stroke="#333" stroke-width="1.2"/>
<rect x="156.91" y="214.82" width="28.00" height="32.94" fill="#f28e2b" opacity="0.8" stroke="#333"/>
<line x1="156.91" y1="232.17" x2="184.91" y2="232.17" stroke="#111" stroke-width="1.4"/>
<line x1="160.91" y1="294.71" x2="180.91" y2="294.71" stroke="#333" stroke-width="1.1"/>
<line x1="160.91" y1="202.97" x2="180.91" y2="202.97" stroke="#333" stroke-width="1.1"/>
<text x="170.91" y="442.00" font-family="Arial, sans-serif" font-size="12" text-anchor="middle" fill="#222">t12</text>
<line x1="241.82" y1="342.75" x2="241.82" y2="203.26" stroke="#333" stroke-width="1.2"/>
<rect x="227.82" y="217.80" width="28.00" height="29.26" fill="#f28e2b" opacity="0.8" stroke="#333"/>
<line x1="227.82" y1="232.24" x2="255.82" y2="232.24" stroke="#111" stroke-width="1.4"/>
<line x1="231.82" y1="342.75" x2="251.82" y2="342.75" stroke="#333" stroke-width="1.1"/>
<line x1="231.82" y1="203.26" x2="251.82" y2="203.26" stroke="#333" stroke-width="1.1"/>
<text x="241.82" y="442.00" font-family="Arial, sans-serif" font-size="12" text-anchor="middle" fill="#222">t21</text>
<line x1="312.73" y1="265.09" x2="312.73" y2="203.45" stroke="#333" stroke-width="1.2"/>
<rect x="298.73" y="216.97" width="28.00" height="28.13" fill="#f28e2b" opacity="0.8" stroke="#333"/>
<line x1="298.73" y1="232.03" x2="326.73" y2="232.03" stroke="#111" stroke-width="1.4"/>
<line x1="302.73" y1="265.09" x2="322.73" y2="265.09" stroke="#333" stroke-width="1.1"/>
<line x1="302.73" y1="203.45" x2="322.73" y2="203.45" stroke="#333" stroke-width="1.1"/>
<text x="312.73" y="442.00" font-family="Arial, sans-serif" font-size="12" text-anchor="middle" fill="#222">t22</text>
<line x1="383.64" y1="259.36" x2="383.64" y2="189.08" stroke="#333" stroke-width="1.2"/>
<rect x="369.64" y="205.24" width="28.00" height="46.63" fill="#f28e2b" opacity="0.8" stroke="#333"/>
<line x1="369.64" y1="233.42" x2="397.64" y2="233.42" stroke="#111" stroke-width="1.4"/>
<line x1="373.64" y1="259.36" x2="393.64" y2="259.36" stroke="#333" stroke-width="1.1"/>
<line x1="373.64" y1="189.08" x2="393.64" y2="189.08" stroke="#333" stroke-width="1.1"/>
<text x="383.64" y="442.00" font-family="Arial, sans-serif" font-size="12" text-anchor="middle" fill="#222">t31</text>
<line x1="454.55" y1="259.37" x2="454.55" y2="189.50" stroke="#333" stroke-width="1.2"/>
<rect x="440.55" y="205.40" width="28.00" height="46.30" fill="#f28e2b" opacity="0.8" stroke="#333"/>
<line x1="440.55" y1="232.68" x2="468.55" y2="232.68" stroke="#111" stroke-width="1.4"/>
<line x1="444.55" y1="259.37" x2="464.55" y2="259.37" stroke="#333" stroke-width="1.1"/>
<line x1="444.55" y1="189.50" x2="464.55" y2="189.50" stroke="#333" stroke-width="1.1"/>
<text x="454.55" y="442.00" font-family="Arial, sans-serif" font-size="12" text-anchor="middle" fill="#222">t32</text>
<line x1="525.45" y1="405.00" x2="525.45" y2="162.28" stroke="#333" stroke-width="1.2"/>
<rect x="511.45" y="195.51" width="28.00" height="111.28" fill="#f28e2b" opacity="0.8" stroke="#333"/>
<line x1="511.45" y1="235.28" x2="539.45" y2="235.28" stroke="#111" stroke-width="1.4"/>
<line x1="515.45" y1="405.00" x2="535.45" y2="405.00" stroke="#333" stroke-width="1.1"/>
<line x1="515.45" y1="162.28" x2="535.45" y2="162.28" stroke="#333" stroke-width="1.1"/>
<text x="525.45" y="442.00" font-family="Arial, sans-serif" font-size="12" text-anchor="middle" fill="#222">t41</text>
<line x1="596.36" y1="393.53" x2="596.36" y2="55.00" stroke="#333" stroke-width="1.2"/>
<rect x="582.36" y="175.19" width="28.00" height="86.79" fill="#f28e2b" opacity="0.8" stroke="#333"/>
<line x1="582.36" y1="229.68" x2="610.36" y2="229.68" stroke="#111" stroke-width="1.4"/>
<line x1="586.36" y1="393.53" x2="606.36" y2="393.53" stroke="#333" stroke-width="1.1"/>
<line x1="586.36" y1="55.00" x2="606.36" y2="55.00" stroke="#333" stroke-width="1.1"/>
<text x="596.36" y="442.00" font-family="Arial, sans-serif" font-size="12" text-anchor="middle" fill="#222">t42</text>
<line x1="667.27" y1="336.32" x2="667.27" y2="143.37" stroke="#333" stroke-width="1.2"/>
<rect x="653.27" y="207.55" width="28.00" height="52.52" fill="#f28e2b" opacity="0.8" stroke="#333"/>
<line x1="653.27" y1="226.41" x2="681.27" y2="226.41" stroke="#111" stroke-width="1.4"/>
<line x1="657.27" y1="336.32" x2="677.27" y2="336.32" stroke="#333" stroke-width="1.1"/>
<line x1="657.27" y1="143.37" x2="677.27" y2="143.37" stroke="#333" stroke-width="1.1"/>
<text x="667.27" y="442.00" font-family="Arial, sans-serif" font-size="12" text-anchor="middle" fill="#222">t51</text>
<line x1="738.18" y1="367.10" x2="738.18" y2="153.53" stroke="#333" stroke-width="1.2"/>
<rect x="724.18" y="209.21" width="28.00" height="52.44" fill="#f28e2b" opacity="0.8" stroke="#333"/>
<line x1="724.18" y1="228.11" x2="752.18" y2="228.11" stroke="#111" stroke-width="1.4"/>
<line x1="728.18" y1="367.10" x2="748.18" y2="367.10" stroke="#333" stroke-width="1.1"/>
<line x1="728.18" y1="153.53" x2="748.18" y2="153.53" stroke="#333" stroke-width="1.1"/>
<text x="738.18" y="442.00" font-family="Arial, sans-serif" font-size="12" text-anchor="middle" fill="#222">t52</text>
<line x1="809.09" y1="263.85" x2="809.09" y2="187.97" stroke="#333" stroke-width="1.2"/>
<rect x="795.09" y="205.41" width="28.00" height="38.77" fill="#f28e2b" opacity="0.8" stroke="#333"/>
<line x1="795.09" y1="232.41" x2="823.09" y2="232.41" stroke="#111" stroke-width="1.4"/>
<line x1="799.09" y1="263.85" x2="819.09" y2="263.85" stroke="#333" stroke-width="1.1"/>
<line x1="799.09" y1="187.97" x2="819.09" y2="187.97" stroke="#333" stroke-width="1.1"/>
<text x="809.09" y="442.00" font-family="Arial, sans-serif" font-size="12" text-anchor="middle" fill="#222">t61</text>
<line x1="880.00" y1="264.81" x2="880.00" y2="188.99" stroke="#333" stroke-width="1.2"/>
<rect x="866.00" y="208.60" width="28.00" height="36.46" fill="#f28e2b" opacity="0.8" stroke="#333"/>
<line x1="866.00" y1="233.18" x2="894.00" y2="233.18" stroke="#111" stroke-width="1.4"/>
<line x1="870.00" y1="264.81" x2="890.00" y2="264.81" stroke="#333" stroke-width="1.1"/>
<line x1="870.00" y1="188.99" x2="890.00" y2="188.99" stroke="#333" stroke-width="1.1"/>
<text x="880.00" y="442.00" font-family="Arial, sans-serif" font-size="12" text-anchor="middle" fill="#222">t62</text>
<text x="25.00" y="65.00" font-family="Arial, sans-serif" font-size="12" text-anchor="start" fill="#222">+/- 0.232 s</text>
</svg>