<svg xmlns="http://www.w3.org/2000/svg" width="980" height="460" viewBox="0 0 980 460">
<rect x="0" y="0" width="980" height="460" fill="white"/>
<text x="30.00" y="35.00" font-family="Arial, sans-serif" font-size="18" text-anchor="start" fill="#222">Arrival-time residuals by shot</text>
<line x1="55" y1="230.00" x2="925" y2="230.00" stroke="#666"/>
<line x1="100.00" y1="351.27" x2="100.00" y2="203.35" stroke="#333" stroke-width="1.2"/>
<rect x="86.00" y="216.74" width="28.00" height="30.93" fill="#f28e2b" opacity="0.8" stroke="#333"/>
<line x1="86.00" y1="235.05" x2="114.00" y2="235.05" stroke="#111" stroke-width="1.4"/>
<line x1="90.00" y1="351.27" x2="110.00" y2="351.27" stroke="#333" stroke-width="1.1"/>
<line x1="90.00" y1="203.35" x2="110.00" y2="203.35" stroke="#333" stroke-width="1.1"/>
<text x="100.00" y="442.00" font-family="Arial, sans-serif" font-size="12" text-anchor="middle" fill="#222">t11</text>
<line x1="170.91" y1="292.56" x2="170.91" y2="197.69" stroke="#333" stroke-width="1.2"/>
<rect x="156.91" y="214.50" width="28.00" height="29.41" fill="#f28e2b" opacity="0.8" stroke="#333"/>
<line x1="156.91" y1="232.49" x2="184.91" y2="232.49" stroke="#111" stroke-width="1.4"/>
<line x1="160.91" y1="292.56" x2="180.91" y2="292.56" stroke="#333" stroke-width="1.1"/>
<line x1="160.91" y1="197.69" x2="180.91" y2="197.69" stroke="#333" stroke-width="1.1"/>
<text x="170.91" y="442.00" font-family="Arial, sans-serif" font-size="12" text-anchor="middle" fill="#222">t12</text>
<line x1="241.82" y1="341.55" x2="241.82" y2="202.22" stroke="#333" stroke-width="1.2"/>
<rect x="227.82" y="217.45" width="28.00" height="28.56" fill="#f28e2b" opacity="0.8" stroke="#333"/>
<line x1="227.82" y1="233.34" x2="255.82" y2="233.34" stroke="#111" stroke-width="1.4"/>
<line x1="231.82" y1="341.55" x2="251.82" y2="341.55" stroke="#333" stroke-width="1.1"/>
<line x1="231.82" y1="202.22" x2="251.82" y2="202.22" stroke="#333" stroke-width="1.1"/>
<text x="241.82" y="442.00" font-family="Arial, sans-serif" font-size="12" text-anchor="middle" fill="#222">t21</text>
<line x1="312.73" y1="269.15" x2="312.73" y2="202.09" stroke="#333" stroke-width="1.2"/>
<rect x="298.73" y="216.42" width="28.00" height="27.63" fill="#f28e2b" opacity="0.8" stroke="#333"/>
<line x1="298.73" y1="232.30" x2="326.73" y2="232.30" stroke="#111" stroke-width="1.4"/>
<line x1="302.73" y1="269.15" x2="322.73" y2="269.15" stroke="#333" stroke-width="1.1"/>
<line x1="302.73" y1="202.09" x2="322.73" y2="202.09" stroke="#333" stroke-width="1.1"/>
<text x="312.73" y="442.00" font-family="Arial, sans-serif" font-size="12" text-anchor="middle" fill="#222">t22</text>
<line x1="383.64" y1="257.96" x2="383.64" y2="187.42" stroke="#333" stroke-width="1.2"/>
<rect x="369.64" y="203.50" width="28.00" height="48.22" fill="#f28e2b" opacity="0.8" stroke="#333"/>
<line x1="369.64" y1="234.64" x2="397.64" y2="234.64" stroke="#111" stroke-width="1.4"/>
<line x1="373.64" y1="257.96" x2="393.64" y2="257.96" stroke="#333" stroke-width="1.1"/>
<line x1="373.64" y1="187.42" x2="393.64" y2="187.42" stroke="#333" stroke-width="1.1"/>
<text x="383.64" y="442.00" font-family="Arial, sans-serif" font-size="12" text-anchor="middle" fill="#222">t31</text>
<line x1="454.55" y1="257.85" x2="454.55" y2="187.17" stroke="#333" stroke-width="1.2"/>
<rect x="440.55" y="203.53" width="28.00" height="48.20" fill="#f28e2b" opacity="0.8" stroke="#333"/>
<line x1="440.55" y1="233.85" x2="468.55" y2="233.85" stroke="#111" stroke-width="1.4"/>
<line x1="444.55" y1="257.85" x2="464.55" y2="257.85" stroke="#333" stroke-width="1.1"/>
<line x1="444.55" y1="187.17" x2="464.55" y2="187.17" stroke="#333" stroke-width="1.1"/>
<text x="454.55" y="442.00" font-family="Arial, sans-serif" font-size="12" text-anchor="middle" fill="#222">t32</text>
<line x1="525.45" y1="405.00" x2="525.45" y2="161.69" stroke="#333" stroke-width="1.2"/>
<rect x="511.45" y="193.85" width="28.00" height="114.39" fill="#f28e2b" opacity="0.8" stroke="#333"/>
<line x1="511.45" y1="236.54" x2="539.45" y2="236.54" stroke="#111" stroke-width="1.4"/>
<line x1="515.45" y1="405.00" x2="535.45" y2="405.00" stroke="#333" stroke-width="1.1"/>
<line x1="515.45" y1="161.69" x2="535.45" y2="161.69" stroke="#333" stroke-width="1.1"/>
<text x="525.45" y="442.00" font-family="Arial, sans-serif" font-size="12" text-anchor="middle" fill="#222">t41</text>
<line x1="596.36" y1="396.12" x2="596.36" y2="55.00" stroke="#333" stroke-width="1.2"/>
<rect x="582.36" y="178.11" width="28.00" height="88.13" fill="#f28e2b" opacity="0.8" stroke="#333"/>
<line x1="582.36" y1="230.12" x2="610.36" y2="230.12" stroke="#111" stroke-width="1.4"/>
<line x1="586.36" y1="396.12" x2="606.36" y2="396.12" stroke="#333" stroke-width="1.1"/>
<line x1="586.36" y1="55.00" x2="606.36" y2="55.00" stroke="#333" stroke-width="1.1"/>
<text x="596.36" y="442.00" font-family="Arial, sans-serif" font-size="12" text-anchor="middle" fill="#222">t42</text>
<line x1="667.27" y1="334.95" x2="667.27" y2="143.48" stroke="#333" stroke-width="1.2"/>
<rect x="653.27" y="204.24" width="28.00" height="55.56" fill="#f28e2b" opacity="0.8" stroke="#333"/>
<line x1="653.27" y1="227.12" x2="681.27" y2="227.12" stroke="#111" stroke-width="1.4"/>
<line x1="657.27" y1="334.95" x2="677.27" y2="334.95" stroke="#333" stroke-width="1.1"/>
<line x1="657.27" y1="143.48" x2="677.27" y2="143.48" stroke="#333" stroke-width="1.1"/>
<text x="667.27" y="442.00" font-family="Arial, sans-serif" font-size="12" text-anchor="middle" fill="#222">t51</text>
<line x1="738.18" y1="364.13" x2="738.18" y2="152.41" stroke="#333" stroke-width="1.2"/>
<rect x="724.18" y="204.72" width="28.00" height="56.77" fill="#f28e2b" opacity="0.8" stroke="#333"/>
<line x1="724.18" y1="229.21" x2="752.18" y2="229.21" stroke="#111" stroke-width="1.4"/>
<line x1="728.18" y1="364.13" x2="748.18" y2="364.13" stroke="#333" stroke-width="1.1"/>
<line x1="728.18" y1="152.41" x2="748.18" y2="152.41" stroke="#333" stroke-width="1.1"/>
<text x="738.18" y="442.00" font-family="Arial, sans-serif" font-size="12" text-anchor="middle" fill="#222">t52</text>
<line x1="809.09" y1="263.73" x2="809.09" y2="182.99" stroke="#333" stroke-width="1.2"/>
<rect x="795.09" y="202.93" width="28.00" height="41.78" fill="#f28e2b" opacity="0.8" stroke="#333"/>
<line x1="795.09" y1="233.64" x2="823.09" y2="233.64" stroke="#111" stroke-width="1.4"/>
<line x1="799.09" y1="263.73" x2="819.09" y2="263.73" stroke="#333" stroke-width="1.1"/>
<line x1="799.09" y1="182.99" x2="819.09" y2="182.99" stroke="#333" stroke-width="1.1"/>
<text x="809.09" y="442.00" font-family="Arial, sans-serif" font-size="12" text-anchor="middle" fill="#222">t61</text>
<line x1="880.00" y1="265.28" x2="880.00" y2="184.22" stroke="#333" stroke-width="1.2"/>
<rect x="866.00" y="205.39" width="28.00" height="40.45" fill="#f28e2b" opacity="0.8" stroke="#333"/>
<line x1="866.00" y1="234.32" x2="894.00" y2="234.32" stroke="#111" stroke-width="1.4"/>
<line x1="870.00" y1="265.28" x2="890.00" y2="265.28" stroke="#333" stroke-width="1.1"/>
<line x1="870.00" y1="184.22" x2="890.00" y2="184.22" stroke="#333" stroke-width="1.1"/>
<text x="880.00" y="442.00" font-family="Arial, sans-serif" font-size="12" text-anchor="middle" fill="#222">t62</text>
<text x="25.00" y="65.00" font-family="Arial, sans-serif" font-size="12" text-anchor="start" fill="#222">+/- 0.233 s</text>
</svg>