<svg xmlns="http://www.w3.org/2000/svg" width="900" height="450" viewBox="0 0 900 450">
<rect x="0" y="0" width="900" height="450" fill="white"/>
<text x="30.00" y="35.00" font-family="Arial, sans-serif" font-size="18" text-anchor="start" fill="#222">Adjacent spacing distribution</text>
<line x1="55" y1="395" x2="845" y2="395" stroke="#333"/>
<line x1="55" y1="55" x2="55" y2="395" stroke="#333"/>
<rect x="55.00" y="394.82" width="14.80" height="0.18" fill="#4e79a7" opacity="0.85"/>
<rect x="70.80" y="395.00" width="14.80" height="0.00" fill="#4e79a7" opacity="0.85"/>
<rect x="86.60" y="395.00" width="14.80" height="0.00" fill="#4e79a7" opacity="0.85"/>
<rect x="102.40" y="395.00" width="14.80" height="0.00" fill="#4e79a7" opacity="0.85"/>
<rect x="118.20" y="395.00" width="14.80" height="0.00" fill="#4e79a7" opacity="0.85"/>
<rect x="134.00" y="395.00" width="14.80" height="0.00" fill="#4e79a7" opacity="0.85"/>
<rect x="149.80" y="395.00" width="14.80" height="0.00" fill="#4e79a7" opacity="0.85"/>
<rect x="165.60" y="395.00" width="14.80" height="0.00" fill="#4e79a7" opacity="0.85"/>
<rect x="181.40" y="395.00" width="14.80" height="0.00" fill="#4e79a7" opacity="0.85"/>
<rect x="197.20" y="395.00" width="14.80" height="0.00" fill="#4e79a7" opacity="0.85"/>
<rect x="213.00" y="394.82" width="14.80" height="0.18" fill="#4e79a7" opacity="0.85"/>
<rect x="228.80" y="395.00" width="14.80" height="0.00" fill="#4e79a7" opacity="0.85"/>
<rect x="244.60" y="395.00" width="14.80" height="0.00" fill="#4e79a7" opacity="0.85"/>
<rect x="260.40" y="395.00" width="14.80" height="0.00" fill="#4e79a7" opacity="0.85"/>
<rect x="276.20" y="395.00" width="14.80" height="0.00" fill="#4e79a7" opacity="0.85"/>
<rect x="292.00" y="395.00" width="14.80" height="0.00" fill="#4e79a7" opacity="0.85"/>
<rect x="307.80" y="395.00" width="14.80" height="0.00" fill="#4e79a7" opacity="0.85"/>
<rect x="323.60" y="395.00" width="14.80" height="0.00" fill="#4e79a7" opacity="0.85"/>
<rect x="339.40" y="395.00" width="14.80" height="0.00" fill="#4e79a7" opacity="0.85"/>
<rect x="355.20" y="395.00" width="14.80" height="0.00" fill="#4e79a7" opacity="0.85"/>
<rect x="371.00" y="395.00" width="14.80" height="0.00" fill="#4e79a7" opacity="0.85"/>
<rect x="386.80" y="395.00" width="14.80" height="0.00" fill="#4e79a7" opacity="0.85"/>
<rect x="402.60" y="395.00" width="14.80" height="0.00" fill="#4e79a7" opacity="0.85"/>
<rect x="418.40" y="395.00" width="14.80" height="0.00" fill="#4e79a7" opacity="0.85"/>
<rect x="434.20" y="395.00" width="14.80" height="0.00" fill="#4e79a7" opacity="0.85"/>
<rect x="450.00" y="395.00" width="14.80" height="0.00" fill="#4e79a7" opacity="0.85"/>
<rect x="465.80" y="395.00" width="14.80" height="0.00" fill="#4e79a7" opacity="0.85"/>
<rect x="481.60" y="395.00" width="14.80" height="0.00" fill="#4e79a7" opacity="0.85"/>
<rect x="497.40" y="395.00" width="14.80" height="0.00" fill="#4e79a7" opacity="0.85"/>
<rect x="513.20" y="395.00" width="14.80" height="0.00" fill="#4e79a7" opacity="0.85"/>
<rect x="529.00" y="395.00" width="14.80" height="0.00" fill="#4e79a7" opacity="0.85"/>
<rect x="544.80" y="395.00" width="14.80" height="0.00" fill="#4e79a7" opacity="0.85"/>
<rect x="560.60" y="395.00" width="14.80" height="0.00" fill="#4e79a7" opacity="0.85"/>
<rect x="576.40" y="395.00" width="14.80" height="0.00" fill="#4e79a7" opacity="0.85"/>
<rect x="592.20" y="395.00" width="14.80" height="0.00" fill="#4e79a7" opacity="0.85"/>
<rect x="608.00" y="395.00" width="14.80" height="0.00" fill="#4e79a7" opacity="0.85"/>
<rect x="623.80" y="395.00" width="14.80" height="0.00" fill="#4e79a7" opacity="0.85"/>
<rect x="639.60" y="395.00" width="14.80" height="0.00" fill="#4e79a7" opacity="0.85"/>
<rect x="655.40" y="395.00" width="14.80" height="0.00" fill="#4e79a7" opacity="0.85"/>
<rect x="671.20" y="395.00" width="14.80" height="0.00" fill="#4e79a7" opacity="0.85"/>
<rect x="687.00" y="395.00" width="14.80" height="0.00" fill="#4e79a7" opacity="0.85"/>
<rect x="702.80" y="394.82" width="14.80" height="0.18" fill="#4e79a7" opacity="0.85"/>
<rect x="718.60" y="395.00" width="14.80" height="0.00" fill="#4e79a7" opacity="0.85"/>
<rect x="734.40" y="395.00" width="14.80" height="0.00" fill="#4e79a7" opacity="0.85"/>
<rect x="750.20" y="395.00" width="14.80" height="0.00" fill="#4e79a7" opacity="0.85"/>
<rect x="766.00" y="395.00" width="14.80" height="0.00" fill="#4e79a7" opacity="0.85"/>
<rect x="781.80" y="394.64" width="14.80" height="0.36" fill="#4e79a7" opacity="0.85"/>
<rect x="797.60" y="394.82" width="14.80" height="0.18" fill="#4e79a7" opacity="0.85"/>
<rect x="813.40" y="391.42" width="14.80" height="3.58" fill="#4e79a7" opacity="0.85"/>
<rect x="829.20" y="55.00" width="14.80" height="340.00" fill="#4e79a7" opacity="0.85"/>
<line x1="728.17" y1="55" x2="728.17" y2="395" stroke="#2ca02c" stroke-width="2" stroke-dasharray="6,4"/>
<text x="732.17" y="71.00" font-family="Arial, sans-serif" font-size="12" text-anchor="start" fill="#222">nominal</text>
<line x1="849.26" y1="55" x2="849.26" y2="395" stroke="#d62728" stroke-width="2" stroke-dasharray="6,4"/>
<text x="853.26" y="89.00" font-family="Arial, sans-serif" font-size="12" text-anchor="start" fill="#222">max</text>
<text x="450.00" y="435.00" font-family="Arial, sans-serif" font-size="13" text-anchor="middle" fill="#222">Adjacent sensor distance (m)</text>
</svg>