<svg xmlns="http://www.w3.org/2000/svg" width="900" height="450" viewBox="0 0 900 450">
<rect x="0" y="0" width="900" height="450" fill="white"/>
<text x="30.00" y="35.00" font-family="Arial, sans-serif" font-size="18" text-anchor="start" fill="#222">Adjacent spacing along the array</text>
<line x1="55" y1="395" x2="845" y2="395" stroke="#333"/>
<line x1="55" y1="55" x2="55" y2="395" stroke="#333"/>
<line x1="55.00" y1="395.00" x2="845.00" y2="395.00" stroke="#dddddd" stroke-dasharray="3,4"/>
<line x1="49.00" y1="395.00" x2="55.00" y2="395.00" stroke="#333"/>
<text x="45.00" y="399.00" font-family="Arial, sans-serif" font-size="11" text-anchor="end" fill="#222">0.990</text>
<line x1="55.00" y1="288.08" x2="845.00" y2="288.08" stroke="#dddddd" stroke-dasharray="3,4"/>
<line x1="49.00" y1="288.08" x2="55.00" y2="288.08" stroke="#333"/>
<text x="45.00" y="292.08" font-family="Arial, sans-serif" font-size="11" text-anchor="end" fill="#222">1.000</text>
<line x1="55.00" y1="74.44" x2="845.00" y2="74.44" stroke="#dddddd" stroke-dasharray="3,4"/>
<line x1="49.00" y1="74.44" x2="55.00" y2="74.44" stroke="#333"/>
<text x="45.00" y="78.44" font-family="Arial, sans-serif" font-size="11" text-anchor="end" fill="#222">1.020</text>
<line x1="55.00" y1="395.00" x2="55.00" y2="401.00" stroke="#333"/>
<text x="55.00" y="444.00" font-family="Arial, sans-serif" font-size="11" text-anchor="middle" fill="#222">1</text>
<line x1="259.89" y1="395.00" x2="259.89" y2="401.00" stroke="#333"/>
<text x="259.89" y="444.00" font-family="Arial, sans-serif" font-size="11" text-anchor="middle" fill="#222">500</text>
<line x1="465.19" y1="395.00" x2="465.19" y2="401.00" stroke="#333"/>
<text x="465.19" y="444.00" font-family="Arial, sans-serif" font-size="11" text-anchor="middle" fill="#222">1000</text>
<line x1="670.49" y1="395.00" x2="670.49" y2="401.00" stroke="#333"/>
<text x="670.49" y="444.00" font-family="Arial, sans-serif" font-size="11" text-anchor="middle" fill="#222">1500</text>
<line x1="845.00" y1="395.00" x2="845.00" y2="401.00" stroke="#333"/>
<text x="845.00" y="444.00" font-family="Arial, sans-serif" font-size="11" text-anchor="middle" fill="#222">1925</text>
<line x1="55.00" y1="288.08" x2="845.00" y2="288.08" stroke="#2ca02c" stroke-width="2" stroke-dasharray="6,4"/>
<text x="880.00" y="71.00" font-family="Arial, sans-serif" font-size="12" text-anchor="end" fill="#222">nominal</text>
<line x1="55.00" y1="60.35" x2="845.00" y2="60.35" stroke="#d62728" stroke-width="2" stroke-dasharray="6,4"/>
<text x="880.00" y="89.00" font-family="Arial, sans-serif" font-size="12" text-anchor="end" fill="#222">limit</text>
<polyline fill="none" stroke="#4e79a7" stroke-width="1.4" stroke-opacity="1.0" points="55.00,74.22 55.41,74.29 55.82,74.25 56.23,74.22 56.64,74.23 57.05,74.29 57.46,74.26 57.87,74.27 58.28,74.26 58.70,74.29 59.11,74.24 59.52,74.30 59.93,74.24 60.34,74.34 60.75,74.27 61.16,74.31 61.57,74.29 61.98,74.32 62.39,74.30 62.80,74.29 63.21,74.33 63.62,74.25 64.03,74.29 64.44,74.30 64.85,74.22 65.27,74.34 65.68,74.28 66.09,74.20 66.50,74.28 66.91,74.27 67.32,74.18 67.73,74.26 68.14,74.27 68.55,74.27 68.96,74.20 69.37,74.28 69.78,74.18 70.19,74.31 70.60,74.24 71.01,74.28 71.42,74.26 71.83,74.25 72.25,74.37 72.66,74.30 73.07,74.24 73.48,74.34 73.89,74.32 74.30,74.39 74.71,74.37 75.12,74.37 75.53,74.36 75.94,74.45 76.35,74.37 76.76,74.38 77.17,74.45 77.58,74.50 77.99,74.49 78.40,74.52 78.81,74.44 79.23,74.60 79.64,74.51 80.05,74.59 80.46,74.53 80.87,74.56 81.28,74.67 81.69,74.56 82.10,74.60 82.51,74.63 82.92,74.71 83.33,74.58 83.74,74.64 84.15,74.69 84.56,74.72 84.97,74.64 85.38,74.65 85.80,74.74 86.21,74.65 86.62,74.61 87.03,74.75 87.44,74.56 87.85,74.69 88.26,74.63 88.67,74.53 89.08,74.49 89.49,74.57 89.90,74.45 90.31,74.51 90.72,74.38 91.13,74.42 91.54,74.57 91.95,74.40 92.36,74.30 92.78,74.48 93.19,74.27 93.60,74.33 94.01,74.41 94.42,74.13 94.83,74.38 95.24,74.37 95.65,74.22 96.06,74.29 96.47,74.30 96.88,74.24 97.29,74.32 97.70,74.36 98.11,74.10 98.52,74.27 98.93,74.29 99.35,74.29 99.76,74.13 100.17,74.38 100.58,74.15 100.99,74.30 101.40,74.24 101.81,74.25 102.22,74.11 102.63,74.29 103.04,74.14 103.45,74.37 103.86,74.06 104.27,74.20 104.68,74.17 105.09,74.18 105.50,74.06 105.91,74.34 106.33,74.06 106.74,74.19 107.15,74.09 107.56,74.08 107.97,74.16 108.38,74.16 108.79,74.09 109.20,74.01 109.61,74.15 110.02,74.16 110.43,74.07 110.84,73.97 111.25,74.24 111.66,74.15 112.07,74.26 112.48,73.93 112.90,74.21 113.31,74.33 113.72,74.00 114.13,74.23 114.54,74.07 114.95,74.33 115.36,74.11 115.77,74.35 116.18,74.23 116.59,74.30 117.00,74.15 117.41,74.31 117.82,74.28 118.23,74.46 118.64,74.25 119.05,74.40 119.46,74.22 119.88,74.41 120.29,74.38 120.70,74.47 121.11,74.35 121.52,74.53 121.93,74.39 122.34,74.39 122.75,74.47 123.16,74.40 123.57,74.70 123.98,74.45 124.39,74.40 124.80,74.53 125.21,74.57 125.62,74.57 126.03,74.42 126.44,74.56 126.86,74.49 127.27,74.46 127.68,74.51 128.09,74.57 128.50,74.61 128.91,74.41 129.32,74.60 129.73,74.50 130.14,74.53 130.55,74.45 130.96,74.57 131.37,74.39 131.78,74.52 132.19,74.45 132.60,74.53 133.01,74.25 133.43,74.51 133.84,74.43 134.25,74.32 134.66,74.30 135.07,74.30 135.48,74.40 135.89,74.26 136.30,74.13 136.71,74.29 137.12,74.22 137.53,74.21 137.94,74.25 138.35,74.35 138.76,74.27 139.17,74.42 139.58,74.43 139.99,74.58 140.41,74.46 140.82,74.90 141.23,74.75 141.64,75.09 142.05,75.00 142.46,75.31 142.87,75.53 143.28,75.68 143.69,76.00 144.10,76.27 144.51,75.99 144.92,75.92 145.33,75.68 145.74,75.58 146.15,75.48 146.56,75.19 146.98,75.07 147.39,75.00 147.80,74.87 148.21,74.63 148.62,74.64 149.03,74.78 149.44,74.28 149.85,74.51 150.26,74.23 150.67,74.70 151.08,74.09 151.49,74.32 151.90,74.23 152.31,74.44 152.72,73.82 153.13,74.07 153.54,74.46 153.96,74.07 154.37,74.03 154.78,74.13 155.19,74.47 155.60,74.17 156.01,74.30 156.42,74.30 156.83,74.22 157.24,73.77 157.65,74.34 158.06,74.30 158.47,74.01 158.88,74.43 159.29,74.57 159.70,74.11 160.11,74.28 160.52,74.37 160.94,74.31 161.35,74.32 161.76,74.31 162.17,74.45 162.58,74.26 162.99,74.56 163.40,74.51 163.81,74.21 164.22,74.74 164.63,74.56 165.04,74.36 165.45,74.54 165.86,74.79 166.27,74.53 166.68,74.62 167.09,74.57 167.51,74.75 167.92,74.50 168.33,74.41 168.74,74.80 169.15,74.55 169.56,74.28 169.97,74.79 170.38,73.97 170.79,74.63 171.20,74.56 171.61,74.21 172.02,74.37 172.43,74.06 172.84,74.36 173.25,74.60 173.66,74.21 174.07,74.09 174.49,74.28 174.90,74.07 175.31,74.05 175.72,74.16 176.13,74.01 176.54,74.11 176.95,74.06 177.36,74.02 177.77,74.18 178.18,74.06 178.59,74.13 179.00,73.86 179.41,74.01 179.82,73.73 180.23,74.06 180.64,74.11 181.06,73.94 181.47,74.28 181.88,73.85 182.29,74.01 182.70,74.16 183.11,74.01 183.52,73.96 183.93,74.05 184.34,74.41 184.75,73.88 185.16,74.25 185.57,74.31 185.98,74.12 186.39,74.44 186.80,74.42 187.21,73.94 187.62,74.16 188.04,74.31 188.45,73.90 188.86,74.24 189.27,74.18 189.68,74.17 190.09,73.99 190.50,74.23 190.91,73.47 191.32,73.78 191.73,73.72 192.14,73.53 192.55,73.61 192.96,73.27 193.37,73.10 193.78,72.99 194.19,72.61 194.60,73.04 195.02,73.12 195.43,73.94 195.84,74.14 196.25,76.00 196.66,76.98 197.07,80.00 197.48,83.98 197.89,91.31 198.30,97.80 198.71,99.32 199.12,97.97 199.53,95.05 199.94,91.40 200.35,87.79 200.76,85.45 201.17,83.46 201.59,81.52 202.00,80.48 202.41,79.78 202.82,78.64 203.23,78.32 203.64,78.00 204.05,77.66 204.46,77.30 204.87,76.98 205.28,76.76 205.69,76.52 206.10,76.46 206.51,76.27 206.92,76.32 207.33,76.24 207.74,76.11 208.15,75.95 208.57,76.19 208.98,75.93 209.39,75.93 209.80,75.91 210.21,76.02 210.62,76.10 211.03,76.03 211.44,76.02 211.85,76.06 212.26,76.15 212.67,76.00 213.08,76.11 213.49,76.12 213.90,75.97 214.31,76.09 214.72,76.07 215.14,76.00 215.55,76.04 215.96,75.91 216.37,75.85 216.78,75.84 217.19,75.86 217.60,75.63 218.01,75.77 218.42,75.61 218.83,75.55 219.24,75.49 219.65,75.43 220.06,75.43 220.47,75.13 220.88,75.32 221.29,75.18 221.70,75.10 222.12,74.98 222.53,74.97 222.94,74.96 223.35,74.81 223.76,74.80 224.17,74.72 224.58,74.71 224.99,74.70 225.40,74.62 225.81,74.61 226.22,74.60 226.63,74.32 227.04,74.72 227.45,74.38 227.86,74.51 228.27,74.07 228.69,74.60 229.10,74.37 229.51,74.24 229.92,74.48 230.33,74.03 230.74,74.47 231.15,74.25 231.56,74.36 231.97,74.20 232.38,74.43 232.79,74.10 233.20,74.45 233.61,74.21 234.02,74.20 234.43,74.35 234.84,74.22 235.25,74.14 235.67,74.54 236.08,74.20 236.49,74.20 236.90,74.48 237.31,74.22 237.72,74.18 238.13,74.37 238.54,74.09 238.95,74.39 239.36,74.53 239.77,74.18 240.18,74.32 240.59,74.36 241.00,74.13 241.41,74.10 241.82,74.56 242.23,74.31 242.65,74.14 243.06,74.45 243.47,74.34 243.88,74.12 244.29,74.51 244.70,74.18 245.11,74.37 245.52,74.33 245.93,74.14 246.34,74.36 246.75,74.48 247.16,74.25 247.57,74.27 247.98,74.38 248.39,74.35 248.80,74.00 249.22,74.55 249.63,74.30 250.04,74.29 250.45,74.31 250.86,74.30 251.27,74.24 251.68,74.26 252.09,74.29 252.50,74.59 252.91,74.15 253.32,74.22 253.73,74.36 254.14,74.23 254.55,74.21 254.96,74.59 255.37,74.12 255.78,74.28 256.20,74.28 256.61,74.19 257.02,74.48 257.43,74.04 257.84,74.24 258.25,74.36 258.66,74.41 259.07,74.15 259.48,74.26 259.89,74.27 260.30,74.06 260.71,74.41 261.12,74.24 261.53,74.31 261.94,74.14 262.35,74.27 262.77,74.19 263.18,74.04 263.59,74.47 264.00,74.20 264.41,74.19 264.82,74.20 265.23,74.23 265.64,74.48 266.05,74.33 266.46,74.20 266.87,74.15 267.28,74.45 267.69,74.42 268.10,74.09 268.51,74.62 268.92,74.15 269.33,74.38 269.75,74.34 270.16,74.24 270.57,74.57 270.98,74.35 271.39,74.39 271.80,74.50 272.21,74.11 272.62,74.49 273.03,74.44 273.44,74.38 273.85,74.40 274.26,74.36 274.67,74.24 275.08,74.64 275.49,74.09 275.90,74.45 276.31,74.14 276.73,74.45 277.14,74.26 277.55,74.22 277.96,74.32 278.37,74.24 278.78,74.17 279.19,74.32 279.60,74.25 280.01,74.30 280.42,74.24 280.83,74.19 281.24,74.45 281.65,74.08 282.06,74.10 282.47,74.41 282.88,74.30 283.30,74.11 283.71,74.40 284.12,74.35 284.53,74.18 284.94,74.36 285.35,73.99 285.76,74.31 286.17,74.42 286.58,74.39 286.99,74.18 287.40,74.23 287.81,74.52 288.22,74.14 288.63,74.49 289.04,74.37 289.45,74.37 289.86,74.10 290.28,74.61 290.69,74.52 291.10,74.40 291.51,74.56 291.92,74.31 292.33,74.56 292.74,74.60 293.15,74.46 293.56,74.59 293.97,74.39 294.38,74.84 294.79,74.64 295.20,74.34 295.61,74.45 296.02,74.62 296.43,74.44 296.85,74.69 297.26,74.75 297.67,74.19 298.08,74.50 298.49,74.64 298.90,74.53 299.31,74.65 299.72,74.41 300.13,74.48 300.54,74.82 300.95,74.41 301.36,74.56 301.77,74.34 302.18,74.32 302.59,74.60 303.00,74.60 303.41,74.55 303.83,74.21 304.24,74.63 304.65,74.48 305.06,74.44 305.47,74.27 305.88,74.45 306.29,74.65 306.70,74.37 307.11,74.53 307.52,74.34 307.93,74.23 308.34,74.61 308.75,74.29 309.16,73.99 309.57,74.73 309.98,74.17 310.40,74.20 310.81,74.81 311.22,74.02 311.63,74.44 312.04,74.25 312.45,74.35 312.86,74.36 313.27,74.40 313.68,74.15 314.09,74.29 314.50,74.45 314.91,74.24 315.32,74.09 315.73,74.61 316.14,74.32 316.55,74.11 316.96,74.13 317.38,74.27 317.79,74.33 318.20,74.51 318.61,74.20 319.02,74.15 319.43,74.21 319.84,74.24 320.25,74.23 320.66,74.35 321.07,74.14 321.48,74.36 321.89,74.09 322.30,74.40 322.71,74.10 323.12,74.22 323.53,74.31 323.94,74.21 324.36,74.41 324.77,74.25 325.18,74.24 325.59,74.17 326.00,74.23 326.41,74.38 326.82,74.21 327.23,74.12 327.64,74.43 328.05,74.09 328.46,74.28 328.87,74.23 329.28,74.14 329.69,74.39 330.10,74.25 330.51,74.17 330.93,74.11 331.34,74.39 331.75,74.27 332.16,74.13 332.57,74.43 332.98,74.32 333.39,74.12 333.80,74.25 334.21,74.12 334.62,74.45 335.03,74.07 335.44,74.25 335.85,74.21 336.26,74.06 336.67,74.16 337.08,74.31 337.49,74.36 337.91,74.02 338.32,74.33 338.73,74.00 339.14,74.23 339.55,74.38 339.96,74.04 340.37,74.25 340.78,74.45 341.19,74.20 341.60,74.50 342.01,74.16 342.42,74.25 342.83,74.41 343.24,74.30 343.65,74.37 344.06,74.32 344.48,74.46 344.89,74.36 345.30,74.44 345.71,74.58 346.12,74.31 346.53,74.56 346.94,74.67 347.35,74.60 347.76,74.39 348.17,74.83 348.58,74.30 348.99,74.86 349.40,74.68 349.81,74.65 350.22,74.57 350.63,74.74 351.04,74.87 351.46,75.03 351.87,74.87 352.28,75.37 352.69,75.42 353.10,75.40 353.51,75.91 353.92,75.79 354.33,76.22 354.74,76.47 355.15,76.43 355.56,76.76 355.97,77.29 356.38,77.45 356.79,77.81 357.20,78.36 357.61,78.45 358.02,78.97 358.44,79.66 358.85,79.95 359.26,80.58 359.67,80.90 360.08,80.65 360.49,80.10 360.90,79.84 361.31,79.30 361.72,78.87 362.13,78.51 362.54,78.02 362.95,77.66 363.36,77.07 363.77,76.94 364.18,76.34 364.59,76.27 365.01,75.99 365.42,75.60 365.83,75.46 366.24,75.51 366.65,74.96 367.06,75.26 367.47,74.80 367.88,74.83 368.29,74.86 368.70,74.56 369.11,74.62 369.52,74.44 369.93,74.41 370.34,74.35 370.75,74.31 371.16,74.26 371.57,74.27 371.99,74.28 372.40,74.16 372.81,73.85 373.22,74.46 373.63,74.22 374.04,74.11 374.45,74.08 374.86,74.18 375.27,74.19 375.68,74.34 376.09,74.10 376.50,74.39 376.91,74.33 377.32,74.29 377.73,73.92 378.14,74.44 378.56,74.42 378.97,74.27 379.38,74.23 379.79,74.41 380.20,74.25 380.61,74.59 381.02,74.23 381.43,74.21 381.84,74.62 382.25,74.19 382.66,74.88 383.07,74.52 383.48,74.40 383.89,74.63 384.30,74.64 384.71,74.65 385.12,74.48 385.54,74.63 385.95,75.08 386.36,74.66 386.77,74.89 387.18,75.05 387.59,74.96 388.00,74.94 388.41,75.21 388.82,75.26 389.23,75.32 389.64,75.29 390.05,75.35 390.46,75.62 390.87,75.48 391.28,75.86 391.69,75.62 392.10,75.57 392.52,75.83 392.93,75.91 393.34,76.25 393.75,75.89 394.16,76.09 394.57,76.08 394.98,76.00 395.39,75.81 395.80,76.57 396.21,76.02 396.62,75.90 397.03,76.14 397.44,76.25 397.85,75.65 398.26,76.02 398.67,75.63 399.09,76.27 399.50,75.82 399.91,75.88 400.32,75.80 400.73,75.80 401.14,75.71 401.55,75.92 401.96,76.11 402.37,75.85 402.78,75.92 403.19,75.61 403.60,76.26 404.01,75.42 404.42,75.94 404.83,75.47 405.24,75.54 405.65,75.35 406.07,75.49 406.48,75.35 406.89,75.25 407.30,75.20 407.71,75.17 408.12,75.05 408.53,75.04 408.94,74.80 409.35,75.04 409.76,74.71 410.17,74.80 410.58,74.76 410.99,74.57 411.40,74.68 411.81,74.53 412.22,74.53 412.64,74.55 413.05,74.42 413.46,74.50 413.87,74.37 414.28,74.37 414.69,74.45 415.10,74.24 415.51,74.36 415.92,74.29 416.33,74.33 416.74,74.33 417.15,74.33 417.56,74.17 417.97,74.29 418.38,74.17 418.79,74.38 419.20,74.25 419.62,74.19 420.03,74.18 420.44,74.28 420.85,74.22 421.26,74.34 421.67,74.25 422.08,74.30 422.49,74.22 422.90,74.17 423.31,74.22 423.72,74.26 424.13,74.27 424.54,74.31 424.95,74.26 425.36,74.29 425.77,74.34 426.19,74.25 426.60,74.26 427.01,74.37 427.42,74.22 427.83,74.24 428.24,74.40 428.65,74.33 429.06,74.18 429.47,74.39 429.88,74.35 430.29,74.17 430.70,74.34 431.11,74.33 431.52,74.14 431.93,74.28 432.34,74.44 432.75,74.21 433.17,74.32 433.58,74.23 433.99,74.12 434.40,74.27 434.81,74.31 435.22,74.10 435.63,74.16 436.04,74.27 436.45,74.08 436.86,74.30 437.27,74.35 437.68,74.14 438.09,74.25 438.50,74.14 438.91,74.14 439.32,74.38 439.73,74.08 440.15,74.30 440.56,74.11 440.97,74.28 441.38,74.20 441.79,74.27 442.20,74.27 442.61,74.26 443.02,74.31 443.43,74.34 443.84,74.25 444.25,74.38 444.66,74.26 445.07,74.16 445.48,74.48 445.89,74.23 446.30,74.59 446.72,74.29 447.13,74.38 447.54,74.56 447.95,74.44 448.36,74.37 448.77,74.47 449.18,74.44 449.59,74.43 450.00,74.70 450.41,74.51 450.82,74.48 451.23,74.72 451.64,74.42 452.05,74.60 452.46,74.49 452.87,74.70 453.28,74.40 453.70,74.62 454.11,74.66 454.52,74.66 454.93,74.57 455.34,74.61 455.75,74.59 456.16,74.47 456.57,74.66 456.98,74.46 457.39,74.56 457.80,74.28 458.21,74.33 458.62,74.34 459.03,74.21 459.44,74.36 459.85,74.18 460.27,74.22 460.68,74.27 461.09,74.05 461.50,74.27 461.91,74.33 462.32,74.26 462.73,74.33 463.14,74.47 463.55,74.62 463.96,74.74 464.37,74.79 464.78,74.98 465.19,75.50 465.60,75.47 466.01,76.13 466.42,76.49 466.83,77.00 467.25,77.64 467.66,78.25 468.07,78.98 468.48,79.64 468.89,80.44 469.30,80.84 469.71,81.14 470.12,80.56 470.53,80.22 470.94,79.83 471.35,79.53 471.76,78.89 472.17,78.87 472.58,78.58 472.99,78.24 473.40,78.01 473.81,77.83 474.23,77.56 474.64,77.67 475.05,77.36 475.46,77.28 475.87,77.23 476.28,77.02 476.69,77.16 477.10,77.01 477.51,76.91 477.92,76.94 478.33,76.84 478.74,76.86 479.15,76.77 479.56,76.65 479.97,76.90 480.38,76.63 480.80,76.97 481.21,76.74 481.62,76.74 482.03,76.88 482.44,76.88 482.85,76.82 483.26,77.03 483.67,76.87 484.08,77.10 484.49,77.05 484.90,77.26 485.31,77.42 485.72,77.16 486.13,77.69 486.54,77.61 486.95,77.72 487.36,78.14 487.78,78.11 488.19,78.54 488.60,78.39 489.01,79.10 489.42,79.37 489.83,79.67 490.24,80.39 490.65,80.78 491.06,81.29 491.47,82.18 491.88,83.00 492.29,83.74 492.70,84.82 493.11,85.78 493.52,86.41 493.93,86.10 494.35,85.14 494.76,84.00 495.17,82.75 495.58,81.63 495.99,80.53 496.40,79.51 496.81,78.83 497.22,78.03 497.63,77.31 498.04,76.90 498.45,76.46 498.86,76.11 499.27,75.80 499.68,75.50 500.09,75.23 500.50,75.20 500.91,74.91 501.33,74.81 501.74,74.61 502.15,74.60 502.56,74.39 502.97,74.41 503.38,74.20 503.79,74.25 504.20,74.21 504.61,74.09 505.02,73.99 505.43,73.98 505.84,73.92 506.25,73.88 506.66,73.83 507.07,73.80 507.48,73.80 507.90,73.84 508.31,73.81 508.72,73.88 509.13,73.89 509.54,73.94 509.95,73.71 510.36,73.87 510.77,74.04 511.18,73.93 511.59,73.94 512.00,73.91 512.41,74.08 512.82,73.91 513.23,73.92 513.64,74.09 514.05,74.05 514.46,74.10 514.88,73.93 515.29,74.15 515.70,74.17 516.11,73.99 516.52,74.28 516.93,74.15 517.34,74.29 517.75,74.10 518.16,74.32 518.57,74.20 518.98,74.32 519.39,74.47 519.80,74.39 520.21,74.44 520.62,74.52 521.03,74.32 521.44,74.70 521.86,74.42 522.27,74.72 522.68,74.54 523.09,74.61 523.50,74.82 523.91,74.67 524.32,74.59 524.73,74.76 525.14,74.75 525.55,74.56 525.96,74.85 526.37,74.62 526.78,74.71 527.19,74.66 527.60,74.68 528.01,74.68 528.43,74.64 528.84,74.52 529.25,74.62 529.66,74.48 530.07,74.42 530.48,74.62 530.89,74.50 531.30,74.53 531.71,74.37 532.12,74.52 532.53,74.38 532.94,74.39 533.35,74.37 533.76,74.52 534.17,74.12 534.58,74.47 534.99,74.31 535.41,74.36 535.82,74.33 536.23,74.11 536.64,74.41 537.05,74.19 537.46,74.33 537.87,74.25 538.28,74.26 538.69,74.11 539.10,74.21 539.51,74.30 539.92,74.26 540.33,74.12 540.74,74.29 541.15,74.24 541.56,74.34 541.98,73.99 542.39,74.45 542.80,74.26 543.21,74.30 543.62,74.30 544.03,74.14 544.44,74.47 544.85,74.24 545.26,74.27 545.67,74.50 546.08,74.27 546.49,74.50 546.90,74.27 547.31,74.55 547.72,74.60 548.13,74.44 548.54,74.51 548.96,74.68 549.37,74.61 549.78,74.65 550.19,74.74 550.60,74.87 551.01,74.85 551.42,74.96 551.83,74.88 552.24,75.18 552.65,75.14 553.06,75.44 553.47,75.62 553.88,75.45 554.29,75.92 554.70,76.01 555.11,76.25 555.52,76.50 555.94,76.91 556.35,77.30 556.76,77.85 557.17,78.36 557.58,79.17 557.99,80.09 558.40,81.06 558.81,82.48 559.22,84.10 559.63,85.86 560.04,87.89 560.45,90.03 560.86,91.52 561.27,92.45 561.68,92.33 562.09,91.35 562.51,89.79 562.92,87.61 563.33,84.58 563.74,82.20 564.15,80.43 564.56,79.18 564.97,78.15 565.38,77.44 565.79,76.83 566.20,76.40 566.61,75.91 567.02,75.52 567.43,75.31 567.84,75.01 568.25,74.82 568.66,74.62 569.07,74.29 569.49,74.15 569.90,73.89 570.31,73.78 570.72,73.89 571.13,73.89 571.54,73.87 571.95,74.16 572.36,73.95 572.77,74.14 573.18,74.17 573.59,74.28 574.00,74.16 574.41,74.37 574.82,74.45 575.23,74.44 575.64,74.60 576.06,74.48 576.47,74.74 576.88,74.63 577.29,74.78 577.70,74.81 578.11,74.84 578.52,74.91 578.93,75.02 579.34,74.94 579.75,75.00 580.16,75.03 580.57,75.17 580.98,75.04 581.39,75.21 581.80,75.10 582.21,75.24 582.62,75.09 583.04,75.31 583.45,75.05 583.86,75.15 584.27,75.10 584.68,75.16 585.09,75.04 585.50,75.14 585.91,74.88 586.32,74.96 586.73,74.72 587.14,74.75 587.55,74.68 587.96,74.57 588.37,74.57 588.78,74.43 589.19,74.63 589.60,74.34 590.02,74.49 590.43,74.32 590.84,74.34 591.25,74.24 591.66,74.37 592.07,74.38 592.48,74.29 592.89,74.26 593.30,74.29 593.71,74.09 594.12,74.32 594.53,74.24 594.94,74.20 595.35,74.28 595.76,74.25 596.17,74.30 596.59,74.17 597.00,74.32 597.41,74.19 597.82,74.20 598.23,74.35 598.64,74.18 599.05,74.25 599.46,74.33 599.87,74.26 600.28,74.39 600.69,74.33 601.10,74.30 601.51,74.32 601.92,74.36 602.33,74.36 602.74,74.36 603.15,74.49 603.57,74.41 603.98,74.57 604.39,74.32 604.80,74.49 605.21,74.59 605.62,74.61 606.03,74.68 606.44,74.42 606.85,74.70 607.26,74.78 607.67,74.76 608.08,74.79 608.49,74.95 608.90,74.91 609.31,74.95 609.72,75.00 610.14,75.13 610.55,75.12 610.96,75.33 611.37,75.31 611.78,75.37 612.19,75.41 612.60,75.53 613.01,75.70 613.42,75.75 613.83,75.78 614.24,75.86 614.65,75.98 615.06,75.96 615.47,76.08 615.88,76.13 616.29,76.12 616.70,76.05 617.12,76.07 617.53,76.04 617.94,76.03 618.35,75.91 618.76,75.60 619.17,74.62 619.58,74.10 619.99,73.94 620.40,74.13 620.81,74.28 621.22,74.20 621.63,74.16 622.04,74.22 622.45,74.06 622.86,74.13 623.27,74.17 623.69,74.14 624.10,74.07 624.51,74.07 624.92,74.17 625.33,74.08 625.74,74.08 626.15,74.17 626.56,74.18 626.97,74.15 627.38,74.14 627.79,74.21 628.20,74.10 628.61,74.14 629.02,74.16 629.43,74.14 629.84,74.33 630.25,74.11 630.67,74.30 631.08,74.13 631.49,74.23 631.90,74.17 632.31,74.24 632.72,74.24 633.13,74.26 633.54,74.27 633.95,74.29 634.36,74.16 634.77,74.40 635.18,74.13 635.59,74.22 636.00,74.27 636.41,74.27 636.82,74.21 637.23,74.44 637.65,74.15 638.06,74.24 638.47,74.24 638.88,74.32 639.29,74.30 639.70,74.28 640.11,74.29 640.52,74.33 640.93,74.24 641.34,74.35 641.75,74.31 642.16,74.25 642.57,74.30 642.98,74.23 643.39,74.36 643.80,74.32 644.22,74.31 644.63,74.24 645.04,74.30 645.45,74.37 645.86,74.26 646.27,74.33 646.68,74.26 647.09,74.42 647.50,74.32 647.91,74.26 648.32,74.40 648.73,74.24 649.14,74.34 649.55,74.30 649.96,74.32 650.37,74.37 650.78,74.35 651.20,74.37 651.61,74.31 652.02,74.29 652.43,74.33 652.84,74.35 653.25,74.33 653.66,74.29 654.07,74.38 654.48,74.35 654.89,74.32 655.30,74.35 655.71,74.34 656.12,74.39 656.53,74.30 656.94,74.32 657.35,74.36 657.77,74.39 658.18,74.35 658.59,74.29 659.00,74.37 659.41,74.31 659.82,74.36 660.23,74.32 660.64,74.36 661.05,74.29 661.46,74.30 661.87,74.35 662.28,74.32 662.69,74.31 663.10,74.25 663.51,74.39 663.92,74.19 664.33,74.25 664.75,74.24 665.16,74.19 665.57,74.18 665.98,74.15 666.39,74.04 666.80,74.11 667.21,73.95 667.62,73.87 668.03,73.72 668.44,73.50 668.85,73.11 669.26,72.58 669.67,71.22 670.08,68.60 670.49,395.00 670.90,114.01 671.31,69.48 671.73,71.63 672.14,72.71 672.55,73.12 672.96,73.45 673.37,73.70 673.78,73.92 674.19,74.30 674.60,74.92 675.01,75.53 675.42,76.55 675.83,79.21 676.24,91.42 676.65,321.00 677.06,395.00 677.47,103.79 677.88,82.21 678.30,78.13 678.71,76.56 679.12,75.81 679.53,75.55 679.94,75.16 680.35,74.94 680.76,74.99 681.17,74.65 681.58,74.82 681.99,74.61 682.40,74.59 682.81,74.60 683.22,74.47 683.63,74.53 684.04,74.50 684.45,74.48 684.86,74.39 685.28,74.43 685.69,74.48 686.10,74.32 686.51,74.46 686.92,74.27 687.33,74.39 687.74,74.34 688.15,74.43 688.56,74.26 688.97,74.37 689.38,74.22 689.79,74.37 690.20,74.36 690.61,74.27 691.02,74.30 691.43,74.32 691.85,74.41 692.26,74.30 692.67,74.59 693.08,74.71 693.49,74.80 693.90,74.89 694.31,74.91 694.72,74.75 695.13,74.99 695.54,75.39 695.95,75.84 696.36,76.59 696.77,77.59 697.18,79.00 697.59,80.64 698.00,80.56 698.41,80.23 698.83,79.89 699.24,79.79 699.65,79.57 700.06,79.45 700.47,79.60 700.88,79.82 701.29,80.10 701.70,80.35 702.11,78.53 702.52,76.20 702.93,74.48 703.34,73.12 703.75,72.84 704.16,74.21 704.57,80.46 704.98,83.28 705.40,76.25 705.81,72.04 706.22,71.03 706.63,71.54 707.04,72.61 707.45,74.18 707.86,75.80 708.27,78.10 708.68,80.76 709.09,84.29 709.50,88.46 709.91,89.74 710.32,89.36 710.73,89.01 711.14,88.55 711.55,88.43 711.96,88.38 712.38,88.68 712.79,89.03 713.20,89.79 713.61,90.76 714.02,91.98 714.43,91.82 714.84,90.68 715.25,89.32 715.66,87.68 716.07,86.25 716.48,84.83 716.89,83.62 717.30,82.56 717.71,81.72 718.12,80.80 718.53,80.15 718.94,79.67 719.36,79.19 719.77,78.72 720.18,78.41 720.59,78.08 721.00,77.73 721.41,77.26 721.82,76.90 722.23,76.49 722.64,76.07 723.05,75.76 723.46,75.29 723.87,75.03 724.28,74.68 724.69,74.39 725.10,74.14 725.51,73.92 725.93,73.75 726.34,73.68 726.75,73.50 727.16,73.44 727.57,73.53 727.98,73.59 728.39,73.70 728.80,73.82 729.21,73.88 729.62,74.02 730.03,74.07 730.44,74.10 730.85,74.17 731.26,74.20 731.67,74.29 732.08,74.32 732.49,74.22 732.91,74.34 733.32,74.24 733.73,74.31 734.14,74.30 734.55,74.32 734.96,74.40 735.37,74.38 735.78,74.48 736.19,74.49 736.60,74.47 737.01,74.56 737.42,74.55 737.83,74.60 738.24,74.73 738.65,74.73 739.06,74.68 739.48,74.77 739.89,74.87 740.30,74.87 740.71,74.82 741.12,74.91 741.53,74.97 741.94,74.89 742.35,75.00 742.76,74.94 743.17,75.04 743.58,75.04 743.99,74.93 744.40,74.77 744.81,74.66 745.22,74.72 745.63,74.44 746.04,74.57 746.46,74.38 746.87,74.33 747.28,74.33 747.69,74.27 748.10,74.24 748.51,74.25 748.92,74.19 749.33,74.23 749.74,74.21 750.15,74.25 750.56,74.23 750.97,74.28 751.38,74.30 751.79,74.36 752.20,74.51 752.61,74.49 753.02,74.56 753.44,74.59 753.85,74.75 754.26,74.79 754.67,74.89 755.08,75.07 755.49,75.08 755.90,75.19 756.31,75.27 756.72,75.34 757.13,75.44 757.54,75.45 757.95,75.42 758.36,74.97 758.77,74.45 759.18,74.12 759.59,73.85 760.01,73.83 760.42,73.82 760.83,74.19 761.24,74.86 761.65,75.83 762.06,77.21 762.47,77.13 762.88,74.80 763.29,74.14 763.70,74.77 764.11,76.44 764.52,79.01 764.93,80.85 765.34,78.30 765.75,76.41 766.16,75.26 766.57,74.48 766.99,74.18 767.40,74.07 767.81,74.05 768.22,74.40 768.63,74.78 769.04,75.56 769.45,76.92 769.86,79.12 770.27,83.37 770.68,90.74 771.09,103.05 771.50,116.13 771.91,118.42 772.32,100.14 772.73,78.26 773.14,71.35 773.56,75.78 773.97,79.96 774.38,78.82 774.79,73.93 775.20,70.30 775.61,69.11 776.02,69.41 776.43,70.00 776.84,70.97 777.25,71.78 777.66,72.69 778.07,73.43 778.48,74.24 778.89,75.13 779.30,76.01 779.71,77.23 780.12,78.68 780.54,80.38 780.95,82.80 781.36,86.06 781.77,90.64 782.18,93.38 782.59,93.76 783.00,93.10 783.41,91.60 783.82,89.43 784.23,87.17 784.64,85.07 785.05,83.19 785.46,81.62 785.87,80.31 786.28,79.24 786.69,78.35 787.10,77.66 787.52,77.08 787.93,76.61 788.34,76.33 788.75,77.41 789.16,79.03 789.57,81.75 789.98,86.78 790.39,98.25 790.80,125.03 791.21,165.18 791.62,135.88 792.03,88.48 792.44,76.29 792.85,73.35 793.26,78.41 793.67,109.13 794.09,113.94 794.50,85.58 794.91,75.66 795.32,74.10 795.73,75.43 796.14,79.06 796.55,78.98 796.96,76.83 797.37,75.48 797.78,74.47 798.19,74.20 798.60,74.57 799.01,75.68 799.42,78.38 799.83,83.30 800.24,91.57 800.65,99.71 801.07,100.99 801.48,81.58 801.89,74.92 802.30,127.11 802.71,176.07 803.12,98.34 803.53,77.03 803.94,73.86 804.35,74.52 804.76,76.97 805.17,82.45 805.58,83.62 805.99,82.80 806.40,81.22 806.81,79.20 807.22,77.28 807.64,75.75 808.05,74.92 808.46,74.30 808.87,74.38 809.28,74.18 809.69,74.25 810.10,74.24 810.51,74.27 810.92,74.39 811.33,74.55 811.74,74.66 812.15,74.98 812.56,75.32 812.97,75.68 813.38,76.21 813.79,76.69 814.20,77.39 814.62,78.04 815.03,78.72 815.44,79.35 815.85,79.77 816.26,76.06 816.67,73.41 817.08,73.96 817.49,80.29 817.90,79.80 818.31,75.22 818.72,72.75 819.13,72.20 819.54,72.51 819.95,73.34 820.36,74.94 820.77,77.15 821.19,80.74 821.60,87.24 822.01,98.42 822.42,106.70 822.83,102.95 823.24,96.29 823.65,90.10 824.06,85.47 824.47,82.26 824.88,80.02 825.29,78.45 825.70,77.32 826.11,76.34 826.52,75.63 826.93,74.97 827.34,74.46 827.75,73.91 828.17,73.35 828.58,73.07 828.99,73.26 829.40,73.45 829.81,73.67 830.22,73.90 830.63,74.28 831.04,74.60 831.45,74.93 831.86,75.38 832.27,75.76 832.68,75.93 833.09,75.96 833.50,75.83 833.91,75.82 834.32,75.80 834.73,75.73 835.15,75.69 835.56,75.64 835.97,75.53 836.38,75.52 836.79,75.48 837.20,75.42 837.61,75.36 838.02,75.31 838.43,75.25 838.84,75.22 839.25,75.18 839.66,75.13 840.07,75.06 840.48,75.08 840.89,75.04 841.30,74.98 841.72,74.95 842.13,74.94 842.54,74.89 842.95,74.88 843.36,74.87 843.77,74.86 844.18,74.83 844.59,74.80 845.00,74.82"/>
<text x="450.00" y="422.00" font-family="Arial, sans-serif" font-size="13" text-anchor="middle" fill="#222">Adjacent edge index</text>
<text x="20.00" y="225.00" font-family="Arial, sans-serif" font-size="13" text-anchor="start" fill="#222">Distance (m)</text>
<text x="880.00" y="38.00" font-family="Arial, sans-serif" font-size="11" text-anchor="end" fill="#222">min=0.8812  median=1.0200  max=1.0205</text>
<text x="880.00" y="56.00" font-family="Arial, sans-serif" font-size="11" text-anchor="end" fill="#222">display range [0.990, 1.022] m; 2 below, 0 above</text>
</svg>